<?xml version="1.0" encoding="UTF-8"?>
<svg xmlns="http://www.w3.org/2000/svg" width="70" height="70" fill="none" viewBox="0 0 70 70">
  <path fill="#fff" fill-rule="evenodd" d="M34.985.003a25.624 25.624 0 0 0-18.35 43.868 25.625 25.625 0 0 0 18.35 7.377 25.625 25.625 0 0 0 18.12-43.745 25.62 25.62 0 0 0-18.12-7.5ZM36 12.117l3.415 6.87a1.05 1.05 0 0 0 .87.636l7.58 1.15a1.15 1.15 0 0 1 .635 1.985l-5.59 5.32a1.1 1.1 0 0 0 0 1.03l1.07 7.54a1.15 1.15 0 0 1-1.7 1.23l-6.75-3.57a1.35 1.35 0 0 0-1.115 0l-6.75 3.57a1.15 1.15 0 0 1-1.7-1.23l1.265-7.54a1.1 1.1 0 0 0-.2-1.03l-5.595-5.36a1.15 1.15 0 0 1 .635-1.95l7.585-1.105a1.05 1.05 0 0 0 .87-.636l3.415-6.87a1.15 1.15 0 0 1 2.065-.04H36Zm25.5 31.19a32.002 32.002 0 0 1-18.325 13.125l7.06 12.23a2.503 2.503 0 0 0 2.49 1.23 2.496 2.496 0 0 0 2.09-1.83l2.55-9.495 9.49 2.545a2.498 2.498 0 0 0 2.81-3.665L61.5 43.307Zm-34.68 13.13A31.9 31.9 0 0 1 8.485 43.334L.335 57.447a2.502 2.502 0 0 0 2.81 3.665l9.495-2.545 2.545 9.495a2.499 2.499 0 0 0 4.58.6l7.055-12.225Z" clip-rule="evenodd"></path>
</svg>
