<?xml version="1.0" encoding="UTF-8"?>
<svg xmlns="http://www.w3.org/2000/svg" width="70" height="68" viewBox="0 0 70 68" fill="none">
  <path d="M44.7417 0.000593216C44.1636 -0.00852917 43.5822 0.100939 42.9645 0.234126C41.9762 0.446677 40.919 0.77969 39.8626 1.12748C38.806 1.47459 37.7647 1.83136 36.8809 2.09851C35.9972 2.3658 35.22 2.52453 34.9717 2.52498C34.7232 2.52485 33.963 2.3731 33.079 2.10764C32.1947 1.84172 31.1427 1.48198 30.0855 1.13651C29.0284 0.79123 27.9581 0.447133 26.9695 0.236133C25.9808 0.0249496 25.1016 -0.132411 24.1599 0.175013C23.2181 0.481981 22.5956 1.14221 21.9207 1.89559C21.2457 2.649 20.5706 3.54769 19.9195 4.45067C19.2684 5.35361 18.6416 6.25996 18.0834 6.99632C17.5251 7.73259 16.9854 8.30397 16.7846 8.45057C16.5823 8.59379 15.8777 8.94249 15.0051 9.24499C14.1324 9.54739 13.0745 9.8618 12.0163 10.2043C10.9584 10.5473 9.90378 10.9097 8.9804 11.3215C8.0568 11.7329 7.25787 12.1257 6.67755 12.9313C6.09593 13.7341 5.97023 14.6302 5.86673 15.6373C5.76324 16.6444 5.75042 17.7549 5.75358 18.8688C5.75671 19.9826 5.77543 21.0888 5.75595 22.0131C5.73652 22.9376 5.64161 23.7257 5.56504 23.9624C5.48834 24.1992 5.1099 24.8709 4.5845 25.6313C4.05903 26.3914 3.38892 27.286 2.73421 28.1863C2.07945 29.0865 1.43215 29.9968 0.926328 30.8733C0.420505 31.7499 -0.000803444 32.5542 1.15053e-06 33.5462C0.000791195 34.5383 0.423785 35.3316 0.931029 36.2073C1.43827 37.083 2.08272 37.9881 2.7389 38.8873C3.39508 39.7865 4.06247 40.6713 4.58919 41.4306C5.11594 42.19 5.49754 42.8722 5.57444 43.1088C5.65122 43.346 5.75618 44.1291 5.77717 45.0534C5.7982 45.9778 5.77846 47.0862 5.77715 48.2001C5.77584 49.3139 5.78285 50.4272 5.88793 51.434C5.99308 52.4408 6.11358 53.3307 6.69642 54.1328C7.27925 54.9349 8.09624 55.3353 9.02048 55.7451C9.9448 56.1547 10.9978 56.5093 12.0564 56.8505C13.1149 57.1917 14.1781 57.5174 15.0498 57.8216C15.9217 58.1263 16.6283 58.451 16.8294 58.5971C17.0307 58.7435 17.5664 59.3183 18.1258 60.0537C18.6852 60.7892 19.3235 61.6928 19.9761 62.5946C20.6286 63.4965 21.2942 64.4042 21.9702 65.1568C22.6462 65.9095 23.2719 66.5505 24.2141 66.8563C25.1562 67.1619 26.0473 67.0054 27.0355 66.7924C28.0238 66.5798 29.081 66.2492 30.1374 65.9014C31.1941 65.5543 32.2353 65.1952 33.1191 64.928C34.0028 64.6607 34.78 64.502 35.0283 64.5011C35.2768 64.5012 36.0393 64.6553 36.9234 64.9207C37.8076 65.1866 38.8573 65.5464 39.9145 65.8918C40.9716 66.2371 42.0349 66.5648 43.0234 66.7757C44.0121 66.9869 44.8914 67.1442 45.8331 66.8368C46.7748 66.5299 47.4047 65.8867 48.0793 65.1326C48.7539 64.3785 49.4247 63.4664 50.0758 62.5635C50.7269 61.6605 51.3608 60.766 51.919 60.0296C52.4773 59.2934 53.0098 58.7099 53.2107 58.5636C53.413 58.4203 54.1247 58.0858 54.9973 57.7833C55.8699 57.4809 56.9188 57.1531 57.9767 56.8099C59.0345 56.4669 60.0891 56.1044 61.0125 55.6926C61.9361 55.2812 62.7448 54.9009 63.3248 54.0945C63.9065 53.2919 64.0298 52.3981 64.1333 51.391C64.2368 50.3839 64.2449 49.2592 64.2417 48.1453C64.2386 47.0315 64.2198 45.923 64.2393 44.9986C64.2589 44.0742 64.3584 43.3002 64.435 43.0635C64.5117 42.8268 64.8852 42.1406 65.4108 41.3806C65.9363 40.6205 66.6111 39.7423 67.2658 38.842C67.9205 37.9418 68.5608 37.015 69.0666 36.1384C69.5724 35.2619 70.0008 34.474 70 33.4821C69.9992 32.49 69.5785 31.6943 69.0713 30.8186C68.5641 29.9429 67.9126 29.0237 67.2564 28.1244C66.6002 27.2252 65.9328 26.3428 65.4061 25.5835C64.8793 24.8241 64.4954 24.1396 64.4185 23.903C64.342 23.6667 64.2462 22.8969 64.2252 21.9725C64.2042 21.0481 64.2215 19.942 64.2228 18.8282C64.2241 17.7144 64.2123 16.5871 64.1073 15.5802C64.0022 14.5733 63.8817 13.681 63.2989 12.8789C62.716 12.0769 61.9061 11.693 60.9819 11.2832C60.0576 10.8732 58.9975 10.5048 57.9389 10.1636C56.8804 9.82244 55.8242 9.51091 54.9525 9.20672C54.0806 8.90203 53.367 8.56081 53.1659 8.41471C52.965 8.26921 52.4266 7.69587 51.8671 6.96042C51.3077 6.22493 50.6718 5.31903 50.0192 4.41715C49.3666 3.51526 48.7059 2.62186 48.0298 1.86913C47.3539 1.11644 46.7304 0.475413 45.7883 0.169676C45.435 0.0551903 45.0886 0.00652277 44.7417 0.000593216ZM34.9953 20.6909C35.2038 20.691 35.4087 20.7451 35.59 20.848C35.7713 20.9508 35.9229 21.0989 36.03 21.2778L42.3729 31.8421L52.4847 25.973C52.698 25.8495 52.944 25.7942 53.1897 25.8147C53.4353 25.8351 53.6688 25.9303 53.8588 26.0874C54.0487 26.2445 54.186 26.456 54.2522 26.6934C54.3184 26.9309 54.3102 27.1829 54.2289 27.4156L47.9591 45.5178C47.8768 45.7548 47.7227 45.9602 47.5182 46.1055C47.3138 46.2508 47.0691 46.3288 46.8183 46.3286H23.1841C22.9332 46.3288 22.6886 46.2508 22.4841 46.1054C22.2797 45.9601 22.1256 45.7547 22.0432 45.5178L15.7617 27.4155C15.6799 27.1826 15.6715 26.9301 15.7377 26.6922C15.8039 26.4543 15.9415 26.2424 16.1319 26.0852C16.3223 25.928 16.5564 25.8329 16.8025 25.8128C17.0486 25.7928 17.2949 25.8487 17.5083 25.9731L27.6201 31.8422L33.9629 21.2778C34.0698 21.0993 34.221 20.9514 34.4019 20.8486C34.5828 20.7457 34.7872 20.6914 34.9953 20.6909Z" fill="white"></path>
</svg>
