<?xml version="1.0" encoding="UTF-8"?>
<svg xmlns="http://www.w3.org/2000/svg" preserveAspectRatio="none" width="100%" height="100%" overflow="visible" style="display: block;" viewBox="0 0 70 70" fill="none">
  <g id="03 2 [Vectorized]" clip-path="url(#clip0_0_21)">
    <path id="Vector" d="M33.6798 22.1286C39.6166 21.3991 45.0141 25.6374 45.7135 31.5779C46.4129 37.5183 42.1472 42.8943 36.2033 43.5635C30.3019 44.228 24.9726 39.9994 24.2782 34.1014C23.5838 28.2034 27.7853 22.8528 33.6798 22.1286Z" fill="var(--fill-0, white)"></path>
    <path id="Vector_2" d="M14.7774 45.8982C15.3038 45.8797 16.0378 45.8783 16.548 45.9C17.6234 45.9457 21.4446 46.7579 21.7978 47.7427C21.7919 47.8512 21.8095 47.9983 21.7033 48.069C18.3841 50.2779 15.8953 53.5817 13.8757 56.975C13.098 58.2817 12.9 60.1374 12.8262 61.6229C11.9397 61.586 11.0566 61.4894 10.1831 61.3339C8.3174 61.0462 5.83467 60.9085 4.40591 59.5622C0.198321 55.5978 4.75672 50.4352 8.33038 48.1128C10.1909 46.9036 12.5536 46.0268 14.7774 45.8982Z" fill="var(--fill-0, white)"></path>
    <path id="Vector_3" d="M53.3481 45.9051C54.0072 45.8849 54.9341 45.8444 55.5765 45.9159C57.9082 46.1752 60.2771 47.1508 62.209 48.4972C64.1502 49.85 66.7943 52.7277 67.276 55.1281C67.5149 56.3186 67.0154 57.7194 66.3399 58.7026C65.0972 60.5114 63.5206 60.7445 61.4692 61.0901C60.8085 61.1926 57.6191 61.7947 57.2037 61.5039C57.032 60.9178 57.061 59.8436 56.9269 59.1833C56.6914 58.0229 56.1606 57.1669 55.6067 56.1867C53.8418 53.0767 51.3816 50.227 48.4391 48.1797C48.2025 48.0151 48.0118 47.6513 48.2769 47.4607C49.4515 46.6161 51.9492 45.9858 53.3481 45.9051Z" fill="var(--fill-0, white)"></path>
    <path id="Vector_4" d="M14.4143 29.528C18.3718 28.8552 22.1254 31.5182 22.7979 35.4758C23.4704 39.4333 20.8071 43.1867 16.8495 43.8588C12.8923 44.5309 9.13955 41.868 8.46717 37.9109C7.79471 33.9538 10.4573 30.2008 14.4143 29.528Z" fill="var(--fill-0, white)"></path>
    <path id="Vector_5" d="M53.1602 29.5245C57.1339 28.8609 60.8889 31.5571 61.5303 35.5344C62.1717 39.5118 59.4547 43.2516 55.4739 43.871C51.5242 44.4854 47.82 41.7943 47.1836 37.8481C46.5472 33.902 49.2176 30.1828 53.1602 29.5245Z" fill="var(--fill-0, white)"></path>
    <path id="Vector_6" d="M50.5761 6.63352C51.6388 6.4908 51.87 7.10184 52.323 7.95127C52.7068 8.67096 53.066 9.40944 53.4105 10.1493C53.9545 10.1632 57.0021 10.6804 57.4279 11.037C58.1576 12.652 55.6492 13.343 55.1098 14.2786C54.7547 14.8944 55.3763 17.2717 55.0566 18.0729C54.8911 18.4879 54.5921 18.5643 54.2004 18.7517C53.0629 18.4111 52.2926 17.8678 51.2443 17.3847C50.6684 17.4333 48.5902 18.4741 47.9433 18.7875C47.598 18.6305 47.3502 18.5527 47.1208 18.2368C46.6396 17.5744 47.0126 15.3937 47.1932 14.5886C47.0381 14.4264 46.7334 14.0799 46.6103 13.9828C42.2708 10.56 45.0889 10.9877 48.3871 10.052C49.0129 9.87436 49.5859 7.44951 50.5761 6.63352Z" fill="var(--fill-0, white)"></path>
    <path id="Vector_7" d="M18.5388 6.59949C19.5659 6.5094 19.89 7.19882 20.2981 8.04408C20.6545 8.78216 20.9396 9.42761 21.3821 10.1221C22.6079 10.3573 27.0457 10.5505 25.0209 12.5422C24.2872 13.2639 23.4462 13.7806 22.7808 14.6038C22.9341 15.4035 23.2053 16.9234 23.0614 17.7001C22.9501 18.3009 22.5489 18.5076 22.0725 18.7943C21.0539 18.34 20.2784 18.0066 19.3017 17.4687C18.962 17.236 18.5543 17.4924 18.2414 17.6594C17.4417 18.0863 16.7076 18.4696 15.8386 18.7388C14.0163 18.0754 15.2326 16.1469 14.9781 14.6774C14.868 14.0414 14.6344 13.9365 14.1294 13.5847C10.1248 10.7948 13.9825 10.4462 16.5267 10.1227C17.1878 9.05512 17.6709 7.38865 18.5388 6.59949Z" fill="var(--fill-0, white)"></path>
    <path id="Vector_8" d="M30.7744 70.0001C30.266 69.6911 28.6051 69.6918 27.9674 69.6036C25.9406 69.322 23.5783 69.0458 21.6225 68.5522C18.8604 67.7728 16.8119 65.7038 15.9939 62.9797C15.3185 60.7306 15.9238 59.1659 17.0519 57.2627C19.9716 52.3373 24.4022 48.8766 29.8859 47.2705C34.8881 45.8053 39.5909 46.5404 44.1963 48.8865C47.5045 50.7413 50.4657 53.3836 52.5019 56.5961C53.0333 57.4344 53.8412 58.757 54.0902 59.6559C55.0962 63.2883 52.112 67.6176 48.5619 68.5235C47.0923 68.8988 45.5521 69.1066 44.0533 69.3507C43.1477 69.5305 39.8555 69.7232 39.3604 70.0001H30.7744Z" fill="var(--fill-0, white)"></path>
    <path id="Vector_9" d="M34.351 0H35.5832C36.329 0.849379 37.7943 3.80385 38.2668 4.87869C39.4725 4.9675 41.9569 5.45087 43.2122 5.735C43.364 5.76937 43.7976 6.12047 43.9473 6.24042C44.0003 6.3784 44.1014 6.67522 44.1261 6.82132C44.3075 8.13969 40.8613 9.96317 40.6075 10.8462C40.0481 12.7916 41.5019 14.641 40.1845 16.5893C38.2322 17.6845 36.769 15.0287 34.9781 15.0592C33.7749 15.181 31.7453 16.8792 30.672 16.8966C28.4316 16.9328 29.5394 12.3657 29.5188 10.908C28.4592 9.71277 26.8544 8.6677 25.9442 7.3917C25.7125 7.06692 25.9225 6.53179 26.0385 6.15722C27.0344 5.49127 28.1542 5.43238 29.3066 5.24803C29.9505 5.14503 30.8933 5.10413 31.4709 4.80512C32.263 4.39512 33.4834 0.97598 34.3051 0.0505136C34.3202 0.03351 34.3357 0.0168379 34.351 0Z" fill="var(--fill-0, white)"></path>
    <path id="Vector_10" d="M61.7054 16.1387C62.4419 15.2072 62.7391 13.9367 63.4203 13.1628C64.4338 12.0115 65.4793 14.7935 65.7807 15.3713C65.9427 15.682 66.1596 15.9295 66.3711 16.1747C67.1271 16.2359 69.2988 16.7136 69.9995 17.017V17.9768C69.7411 18.1319 67.8893 19.7097 67.78 19.95C67.3709 20.8485 68.066 22.8425 67.5618 23.7779C67.045 24.7364 64.5159 22.9805 64.0086 22.6136C59.5582 25.7107 60.239 23.4809 60.3375 20.2C60.3431 20.015 59.8652 19.5762 59.6958 19.4487C55.9089 16.5967 59.1465 16.6434 61.7054 16.1387Z" fill="var(--fill-0, white)"></path>
    <path id="Vector_11" d="M3.58385 16.1442C4.46899 15.2501 4.61913 14.3517 5.29646 13.3555C5.62924 12.8661 6.29267 12.7817 6.65891 13.2846C7.3338 14.1187 7.4818 15.2545 8.1699 16.0821C8.90046 16.2709 9.71407 16.4477 10.462 16.5641C14.276 17.1585 10.0527 19.1167 9.58815 20.2837C9.67019 21.0697 9.99407 23.0693 9.54728 23.7461C8.75786 24.9419 6.40927 22.5499 5.91436 22.7356C4.68214 23.1979 2.3591 25.6371 2.23008 22.6168C2.19525 21.8014 2.68961 20.3441 2.04918 19.751C1.46866 19.2513 0.604991 18.3641 0 17.9732V17.0827C1.02614 16.5585 2.40819 16.4237 3.58385 16.1442Z" fill="var(--fill-0, white)"></path>
  </g>
  <defs>
    <clipPath id="clip0_0_21">
      <rect width="70" height="70" fill="white"></rect>
    </clipPath>
  </defs>
</svg>
