<?xml version="1.0" encoding="UTF-8"?>
<svg xmlns="http://www.w3.org/2000/svg" preserveAspectRatio="none" width="100%" height="100%" overflow="visible" style="display: block;" viewBox="0 0 116 48" fill="none">
  <g id="02 2 [Vectorized]">
    <path id="Vector" d="M58.0183 1.0542C58.4556 1.1423 58.5128 1.87202 58.6261 2.27797C59.1432 4.12977 60.4363 5.7929 61.8954 7.06236C65.645 10.3241 71.2422 11.111 76.0216 10.6899C76.806 12.4599 77.0128 14.7704 77.1748 16.7016C77.279 18.3422 76.9443 20.0346 76.9193 21.6611C76.8774 24.3856 76.2334 26.8936 75.492 29.4934C75.3713 29.918 75.2898 30.3702 75.1578 30.8008C74.1468 34.0633 72.6356 37.15 70.677 39.9512C70.3196 40.4644 69.5085 41.6183 69.1024 42.0654C66.9325 44.4564 63.9073 46.5208 60.7314 47.2683C60.1242 47.4112 58.8074 47.4715 58.1616 47.5005C55.0479 47.4838 53.006 46.8135 50.4116 45.0912C46.845 42.7235 44.6326 39.5039 42.6482 35.784C42.4513 35.4149 42.3376 34.9232 42.1467 34.5651C40.931 32.2841 40.5206 29.7468 39.7133 27.3181C39.2792 25.6348 39.2262 23.9158 39.068 22.2281C38.829 19.6795 38.6226 17.3537 39.042 14.7923C39.2431 13.5637 39.2518 12.2473 39.7487 11.0709C39.8688 10.7865 39.9282 10.801 40.2195 10.8046C41.3791 10.9656 42.4359 10.8084 43.5868 10.749C46.3149 10.6163 49.1059 10.0796 51.5354 8.81312C53.5156 7.78089 54.9428 6.71806 56.1235 4.82061C56.8646 3.62966 57.3698 2.74364 57.6202 1.30303C57.6394 1.19075 57.913 1.10113 58.0183 1.0542ZM53.5351 29.4906C52.6467 28.7709 51.4698 27.4296 50.6019 26.6143C49.7928 25.8544 49.3507 25.1243 48.3056 24.5677C47.4895 25.5265 46.6834 26.245 45.7792 27.1169C45.5782 27.3106 45.6316 27.6959 45.8277 27.8772C46.7255 28.7067 47.571 29.6019 48.4692 30.4293C49.0682 31.2605 50.5751 32.4984 51.3325 33.3156C51.8762 33.9024 52.8873 34.9767 53.4932 35.4606L63.4609 25.4814L66.4419 22.5162C67.3709 21.5923 67.4309 21.7164 68.3088 20.5609C68.0743 20.1152 65.8789 17.7286 65.5204 17.6397C65.0174 18.4733 63.8761 19.3391 63.2163 20.0612C61.3868 22.0627 59.3471 23.9002 57.4553 25.835C56.0618 27.2604 55.076 28.2197 53.5351 29.4906Z" fill="var(--fill-0, white)"></path>
    <path id="Vector_2" d="M82.8466 24.8054C87.2011 24.7084 91.8711 24.8006 96.267 24.7994L102.937 24.7972C104.197 24.797 105.597 24.7681 106.847 24.8214C107.064 25.1485 107.156 25.2434 107.446 25.5017C106.98 25.8845 105.908 27.4818 105.452 28.0245C105.111 28.4315 104.489 29.1898 104.211 29.6258C103.783 29.9781 103.198 31.1363 102.725 31.2196C101.781 31.3856 100.475 31.3249 99.5069 31.3247L94.5553 31.3238C90.2625 31.3227 85.5988 31.4113 81.3213 31.3109C81.2776 30.9357 81.2555 30.5821 81.2912 30.205C81.3637 29.4292 82.0938 25.6703 82.3963 25.1556C82.5158 24.952 82.6161 24.862 82.8466 24.8054Z" fill="var(--fill-0, white)"></path>
    <path id="Vector_3" d="M9.4625 24.8076C10.3164 24.7701 11.3535 24.7982 12.2258 24.798L17.4594 24.7981L33.4183 24.7985C33.758 25.1592 33.8925 25.3141 33.9584 25.8242C34.1297 27.1482 34.5075 28.4338 34.7174 29.7516C34.7798 30.1433 34.8608 30.6424 34.759 31.0278C34.7187 31.1782 34.444 31.2431 34.3186 31.2794C33.3115 31.3766 31.5718 31.3257 30.5283 31.3256L23.603 31.3229L17.1319 31.3265C16.0298 31.3281 14.3961 31.3792 13.3423 31.2694C12.7083 30.7643 9.36774 26.6069 8.91501 25.6015C8.86602 25.4928 8.8923 25.2195 8.98077 25.1042C9.17579 24.85 9.18547 24.873 9.4625 24.8076Z" fill="var(--fill-0, white)"></path>
    <path id="Vector_4" d="M79.8789 35.0872C80.3756 35.0165 81.4597 35.0544 82.0131 35.0573L85.872 35.0664L94.38 35.0637C95.1956 35.0632 98.6643 34.9664 99.2262 35.1542C99.3678 35.3271 99.3287 35.6885 99.2047 35.8571C98.3415 37.0341 97.3389 38.1431 96.4253 39.2862C96.0974 39.6964 95.8368 40.0554 95.5355 40.4664C95.1701 40.7988 94.8467 41.4316 94.4027 41.4886C93.7723 41.5693 92.9923 41.5461 92.3517 41.5454L88.9975 41.5448L81.522 41.5434C80.2725 41.5432 79.0185 41.5492 77.7696 41.5423C77.5934 41.5295 77.411 41.551 77.2609 41.4414C76.8888 41.1692 77.1766 40.7455 77.321 40.4333C77.4433 40.1689 77.5872 39.9143 77.722 39.6607C78.1802 38.7844 78.6175 37.8971 79.0332 36.9996C79.2247 36.5772 79.6529 35.3738 79.8789 35.0872Z" fill="var(--fill-0, white)"></path>
    <path id="Vector_5" d="M35.1013 35.0457C35.4141 35.0098 35.7071 35.0061 36.0211 34.9983C36.3422 35.4575 36.5108 36.0118 36.723 36.5311C37.2945 37.9302 38.021 39.2543 38.6374 40.6315C38.755 40.8944 38.7855 41.1613 38.6957 41.4387C38.6695 41.537 38.469 41.5579 38.3879 41.5564C37.2983 41.5366 36.2067 41.5435 35.1169 41.543L27.6022 41.541L24.0083 41.5485C22.9487 41.5521 21.6317 41.7637 20.8425 40.998C20.474 40.6547 19.4984 39.2048 19.0654 38.6965C18.4556 37.9045 17.7087 37.2075 17.1388 36.3847C16.9404 36.0982 16.5047 35.4453 16.7474 35.1396C17.3159 34.9078 33.308 35.0974 35.1013 35.0457Z" fill="var(--fill-0, white)"></path>
    <path id="Vector_6" d="M0 14.3977C1.09442 14.1469 2.56097 14.2284 3.71889 14.2293L8.38785 14.2329L24.089 14.234L29.1917 14.2329C30.2446 14.2325 31.4298 14.2564 32.4717 14.1951L33.0011 14.4923C33.1157 16.5138 33.1438 18.5393 33.0853 20.5632C32.1163 20.7374 30.4693 20.6765 29.4143 20.6759L23.6475 20.6721H10.9578C10.1296 20.6723 5.00226 20.7683 4.69842 20.559L4.67323 20.5413C3.62663 19.821 1.84446 17.2288 0.921169 16.1704C0.698396 15.915 0.253509 15.2605 0 15.1109V14.3977Z" fill="var(--fill-0, white)"></path>
    <path id="Vector_7" d="M82.9559 14.5106C83.2414 14.3765 83.4963 14.2446 83.8157 14.2385C84.5554 14.2245 85.3042 14.2304 86.044 14.2309L90.2716 14.2339L103.273 14.2334L111.207 14.2304C112.523 14.2291 114.752 14.1545 115.998 14.3469V15.1242C115.223 15.5693 112.765 19.3169 111.845 20.0966C111.465 20.419 111.369 20.6403 110.756 20.6743C109.939 20.7197 109.064 20.677 108.244 20.6751L102.812 20.6725L82.9174 20.6452C82.8879 18.6945 82.9582 16.5013 82.9559 14.5106Z" fill="var(--fill-0, white)"></path>
  </g>
</svg>
