<?xml version="1.0" encoding="UTF-8"?>
<svg xmlns="http://www.w3.org/2000/svg" preserveAspectRatio="none" width="100%" height="100%" overflow="visible" style="display: block;" viewBox="0 0 69.9993 69.9135" fill="none">
  <g id="Group">
    <path id="Vector" fill-rule="evenodd" clip-rule="evenodd" d="M34.9847 0.00250779C31.5898 -0.0449922 28.2193 0.582707 25.069 1.84911C21.9188 3.11551 19.0516 4.99531 16.6341 7.37921C14.2166 9.76321 12.297 12.6038 10.9867 15.7361C9.67652 18.8683 9.00172 22.2297 9.00172 25.625C9.00172 29.0202 9.67652 32.3816 10.9867 35.5138C12.297 38.6461 14.2166 41.4867 16.6341 43.8707C19.0516 46.2547 21.9188 48.1344 25.069 49.4008C28.2193 50.6672 31.5898 51.2949 34.9847 51.2475C41.7809 51.2475 48.2987 48.5477 53.1043 43.7421C57.91 38.9365 60.61 32.4186 60.61 25.6225C60.61 18.8263 57.91 12.3085 53.1043 7.5029C48.2987 2.6972 41.7809 0.00250779 34.9847 0.00250779ZM35.9997 12.1175L39.4147 18.9875C39.4888 19.162 39.6089 19.3132 39.7621 19.425C39.9152 19.5368 40.0958 19.6051 40.2847 19.6225L47.8647 20.7725C48.0817 20.8002 48.2864 20.8893 48.4546 21.0293C48.6227 21.1693 48.7475 21.3544 48.8142 21.5628C48.8809 21.7712 48.8867 21.9943 48.831 22.2059C48.7753 22.4176 48.6603 22.6089 48.4997 22.7575L42.9097 28.0775C42.8256 28.2361 42.7817 28.4129 42.7817 28.5925C42.7817 28.772 42.8256 28.9488 42.9097 29.1075L43.9797 36.6475C44.0247 36.8646 44.006 37.0901 43.9258 37.2968C43.8456 37.5035 43.7074 37.6827 43.5277 37.8126C43.3481 37.9426 43.1347 38.0179 42.9133 38.0294C42.6919 38.0409 42.4718 37.9881 42.2797 37.8775L35.5297 34.3075C35.3545 34.2281 35.1645 34.187 34.9722 34.187C34.7799 34.187 34.5898 34.2281 34.4147 34.3075L27.6647 37.8775C27.4725 37.9881 27.2525 38.0409 27.0311 38.0294C26.8096 38.0179 26.5963 37.9426 26.4166 37.8126C26.237 37.6827 26.0987 37.5035 26.0186 37.2968C25.9384 37.0901 25.9197 36.8646 25.9647 36.6475L27.2297 29.1075C27.2848 28.9327 27.2953 28.747 27.2604 28.5671C27.2255 28.3872 27.1462 28.2189 27.0297 28.0775L21.4347 22.7175C21.2844 22.5674 21.1786 22.3787 21.129 22.1722C21.0794 21.9657 21.088 21.7495 21.1538 21.5476C21.2195 21.3457 21.3399 21.1659 21.5016 21.0282C21.6632 20.8905 21.8599 20.8003 22.0697 20.7675L29.6547 19.6625C29.8435 19.6451 30.0241 19.5768 30.1773 19.465C30.3305 19.3532 30.4505 19.202 30.5247 19.0275L33.9397 12.1575C34.0306 11.9625 34.1744 11.7969 34.3547 11.6795C34.535 11.5622 34.7446 11.4978 34.9597 11.4936C35.1748 11.4894 35.3868 11.5457 35.5715 11.656C35.7562 11.7662 35.9063 11.9261 36.0047 12.1175H35.9997ZM61.5 43.3075C57.1854 49.7602 50.6727 54.4248 43.1747 56.4325L50.2347 68.6624C50.4817 69.0904 50.8501 69.4364 51.2934 69.6554C51.7367 69.8744 52.2349 69.9564 52.7251 69.8924C53.2153 69.8284 53.6755 69.6204 54.0474 69.2944C54.4193 68.9684 54.6864 68.5404 54.8147 68.0624L57.3647 58.5674L66.855 61.1124C67.332 61.2404 67.837 61.2234 68.305 61.0634C68.772 60.9044 69.183 60.6104 69.483 60.2184C69.784 59.8264 69.962 59.3534 69.994 58.8604C70.026 58.3674 69.912 57.8754 69.665 57.4474L61.5 43.3075ZM26.8197 56.4375C19.3171 54.4454 12.7983 49.7861 8.48472 43.3325L0.334719 57.4474C0.0877192 57.8754 -0.0268837 58.3674 0.00531626 58.8604C0.0376163 59.3534 0.215316 59.8264 0.516016 60.2184C0.816716 60.6104 1.22692 60.9044 1.69482 61.0634C2.16262 61.2234 2.66722 61.2404 3.14472 61.1124L12.6397 58.5674L15.1847 68.0624C15.313 68.5404 15.58 68.9684 15.952 69.2944C16.3239 69.6204 16.784 69.8284 17.2743 69.8924C17.7645 69.9564 18.2627 69.8744 18.706 69.6554C19.1493 69.4364 19.5177 69.0904 19.7647 68.6624L26.8197 56.4375Z" fill="var(--fill-0, white)"></path>
  </g>
</svg>
