<?xml version="1.0" encoding="UTF-8"?>
<svg xmlns="http://www.w3.org/2000/svg" width="48" height="48" viewBox="0 0 48 48" fill="none">
  <path d="M35.5714 5.14282C35.8282 5.14298 36.0816 5.20083 36.3131 5.3121C36.5445 5.42337 36.748 5.58522 36.9085 5.78568L37.0371 5.96739L44.3228 17.9674C44.4903 18.2428 44.5767 18.5599 44.5722 18.8822C44.5676 19.2046 44.4723 19.5191 44.2971 19.7897L44.1651 19.9645L25.3079 42.2503C25.1584 42.4268 24.9746 42.5713 24.7677 42.675C24.5609 42.7787 24.3351 42.8394 24.1041 42.8535C23.8732 42.8676 23.6417 42.8348 23.4238 42.757C23.2058 42.6793 23.0059 42.5582 22.8359 42.4011L22.6919 42.2503L3.83479 19.9645C3.62679 19.7185 3.49233 19.4188 3.44685 19.0998C3.40137 18.7808 3.4467 18.4555 3.57765 18.1611L3.67708 17.9674L10.9628 5.96739C11.096 5.74776 11.2768 5.56086 11.4919 5.42051C11.7071 5.28016 11.951 5.18995 12.2057 5.15654L12.4285 5.14282H35.5714ZM30.0257 20.5714H17.9725L23.9982 35.4377L30.0257 20.5714ZM39.1611 20.5714H33.7251L28.7245 32.9057L39.1611 20.5714ZM14.2731 20.5714H8.83708L19.2719 32.9023L14.2731 20.5714ZM16.5839 8.57139H13.3902L8.18565 17.1428H14.1342L16.5839 8.57139ZM27.8502 8.57139H20.1479L17.6982 17.1428H30.2999L27.8502 8.57139ZM34.6079 8.57139H31.4142L33.8639 17.1428H39.8125L34.6079 8.57139Z" fill="#2872A3"></path>
</svg>
