<?xml version="1.0" encoding="UTF-8"?>
<svg xmlns="http://www.w3.org/2000/svg" width="48" height="48" viewBox="0 0 48 48" fill="none">
  <path d="M18 21C19.6569 21 21 19.6569 21 18C21 16.3431 19.6569 15 18 15C16.3431 15 15 16.3431 15 18C15 19.6569 16.3431 21 18 21Z" fill="#2872A3"></path>
  <path d="M30 21C31.6569 21 33 19.6569 33 18C33 16.3431 31.6569 15 30 15C28.3431 15 27 16.3431 27 18C27 19.6569 28.3431 21 30 21Z" fill="#2872A3"></path>
  <path d="M24 45C12.42 45 3 35.58 3 24C3 12.42 12.42 3 24 3C35.58 3 45 12.42 45 24C45 35.58 35.58 45 24 45ZM24 6C14.07 6 6 14.07 6 24C6 33.93 14.07 42 24 42C33.93 42 42 33.93 42 24C42 14.07 33.93 6 24 6Z" fill="#2872A3"></path>
  <path d="M23.9967 34.5C19.5567 34.5 15.5667 31.68 14.0967 27.51C13.9923 27.1439 14.0307 26.7519 14.2041 26.4131C14.3774 26.0743 14.6729 25.8138 15.0308 25.6843C15.3888 25.5549 15.7825 25.566 16.1325 25.7156C16.4825 25.8651 16.7628 26.1418 16.9167 26.49C17.4327 27.9557 18.3909 29.2251 19.6591 30.123C20.9272 31.021 22.4428 31.5033 23.9967 31.5033C25.5506 31.5033 27.0662 31.021 28.3343 30.123C29.6025 29.2251 30.5607 27.9557 31.0767 26.49C31.3467 25.71 32.2167 25.29 32.9967 25.59C33.7767 25.86 34.1967 26.73 33.8967 27.51C33.175 29.5578 31.8345 31.3306 30.0608 32.5829C28.2871 33.8353 26.168 34.5052 23.9967 34.5Z" fill="#2872A3"></path>
</svg>
