<?xml version="1.0" encoding="UTF-8"?>
<svg xmlns="http://www.w3.org/2000/svg" width="100" height="69" viewBox="0 0 100 69" fill="none">
  <path d="M21.8807 18.75C21.2618 18.7489 20.6565 18.9316 20.1415 19.2749C19.6266 19.6182 19.2252 20.1067 18.9882 20.6784C18.7512 21.2501 18.6893 21.8793 18.8104 22.4862C18.9314 23.0931 19.2299 23.6504 19.6681 24.0875C23.5411 25.9447 27.5797 27.4345 31.7309 28.5375C28.4683 24.6313 25.1682 20.7438 24.087 19.6688C23.5023 19.0823 22.7088 18.7518 21.8807 18.75Z" fill="#2872A3"></path>
  <path d="M27.2132 52.2125C26.6238 52.7818 25.8344 53.0967 25.015 53.0896C24.1956 53.0825 23.4118 52.7538 22.8324 52.1744C22.253 51.595 21.9243 50.8112 21.9172 49.9919C21.9101 49.1725 22.225 48.3831 22.7943 47.7938L33.0821 37.5H0V62.5C0 64.1576 0.658496 65.7473 1.83063 66.9194C3.00276 68.0915 4.59251 68.75 6.25015 68.75H37.5009V41.9188L27.2132 52.2125Z" fill="#2872A3"></path>
  <path d="M15.2441 28.5063C13.4854 26.7475 12.4973 24.3622 12.4973 21.875C12.4973 19.3878 13.4854 17.0025 15.2441 15.2438C17.0029 13.485 19.3883 12.497 21.8755 12.497C24.3628 12.497 26.7482 13.485 28.5069 15.2438C29.9132 16.65 33.9946 21.4938 37.5009 25.6938V0H6.25015C4.59251 0 3.00276 0.65848 1.83063 1.83058C0.658496 3.00269 0 4.5924 0 6.25L0 31.25H20.4443C18.5744 30.6214 16.8185 29.6949 15.2441 28.5063Z" fill="#2872A3"></path>
  <path d="M93.7512 0H43.75V25.7C47.2563 21.4938 51.3377 16.6563 52.744 15.25C54.5122 13.5423 56.8804 12.5973 59.3385 12.6187C61.7967 12.64 64.1481 13.626 65.8863 15.3642C67.6246 17.1024 68.6106 19.4538 68.6319 21.9119C68.6533 24.37 67.7083 26.7381 66.0005 28.5063C64.4281 29.6943 62.6743 30.6208 60.8067 31.25H100.001V6.25C100.001 4.5924 99.3429 3.00269 98.1707 1.83058C96.9986 0.65848 95.4089 0 93.7512 0Z" fill="#2872A3"></path>
  <path d="M61.5722 19.665C60.9861 19.0791 60.1914 18.75 59.3627 18.75C58.5341 18.75 57.7394 19.0791 57.1533 19.665C56.0783 20.74 52.7782 24.6275 49.5156 28.5337C53.6963 27.4238 57.7592 25.9105 61.6472 24.015C62.2023 23.4223 62.505 22.6367 62.491 21.8248C62.477 21.0128 62.1474 20.2382 61.5722 19.665Z" fill="#2872A3"></path>
  <path d="M58.4629 47.7875C58.7613 48.0758 58.9994 48.4206 59.1632 48.8019C59.327 49.1831 59.4132 49.5932 59.4168 50.0081C59.4204 50.4231 59.3413 50.8346 59.1842 51.2186C59.0271 51.6027 58.795 51.9516 58.5016 52.245C58.2082 52.5384 57.8593 52.7704 57.4752 52.9276C57.0911 53.0847 56.6796 53.1638 56.2647 53.1602C55.8497 53.1566 55.4397 53.0704 55.0584 52.9066C54.6771 52.7428 54.3323 52.5047 54.044 52.2063L43.75 41.9188V68.75H93.7512C95.4089 68.75 96.9986 68.0915 98.1707 66.9194C99.3429 65.7473 100.001 64.1576 100.001 62.5V37.5H48.1689L58.4629 47.7875ZM65.6255 50H84.376C85.2048 50 85.9997 50.3292 86.5858 50.9153C87.1718 51.5013 87.5011 52.2962 87.5011 53.125C87.5011 53.9538 87.1718 54.7487 86.5858 55.3347C85.9997 55.9208 85.2048 56.25 84.376 56.25H65.6255C64.7967 56.25 64.0018 55.9208 63.4158 55.3347C62.8297 54.7487 62.5005 53.9538 62.5005 53.125C62.5005 52.2962 62.8297 51.5013 63.4158 50.9153C64.0018 50.3292 64.7967 50 65.6255 50Z" fill="#2872A3"></path>
</svg>
