<?xml version="1.0" encoding="UTF-8"?>
<svg xmlns="http://www.w3.org/2000/svg" width="70" height="70" fill="none" viewBox="0 0 70 70">
  <g clip-path="url(#a)">
    <path fill="#fff" d="M33.68 22.129c5.937-.73 11.334 3.508 12.034 9.449.699 5.94-3.567 11.316-9.51 11.985-5.902.665-11.231-3.564-11.926-9.462-.694-5.898 3.507-11.248 9.402-11.972ZM14.777 45.898a25.99 25.99 0 0 1 1.771.002c1.075.046 4.897.858 5.25 1.843-.006.108.012.255-.095.326-3.319 2.209-5.808 5.513-7.827 8.906-.778 1.307-.976 3.162-1.05 4.648a19.773 19.773 0 0 1-2.643-.29c-1.866-.287-4.348-.425-5.777-1.77-4.208-3.965.35-9.128 3.924-11.45 1.86-1.21 4.224-2.086 6.447-2.215Zm38.571.007c.66-.02 1.586-.06 2.229.01 2.331.26 4.7 1.236 6.632 2.582 1.941 1.353 4.585 4.23 5.067 6.631.239 1.19-.26 2.591-.936 3.575-1.243 1.808-2.82 2.041-4.87 2.387-.661.103-3.85.705-4.266.414-.172-.586-.143-1.66-.277-2.32-.236-1.161-.766-2.017-1.32-2.997-1.765-3.11-4.225-5.96-7.168-8.007-.236-.165-.427-.529-.162-.72 1.175-.844 3.672-1.474 5.071-1.555ZM14.414 29.528a7.268 7.268 0 1 1 2.437 14.33 7.268 7.268 0 0 1-2.437-14.33Zm38.746-.004a7.266 7.266 0 1 1 2.394 14.334 7.266 7.266 0 0 1-2.394-14.333Zm-2.584-22.89c1.063-.143 1.294.468 1.747 1.317.384.72.743 1.458 1.087 2.198.545.014 3.592.531 4.018.888.73 1.615-1.779 2.306-2.318 3.242-.355.615.266 2.993-.053 3.794-.166.415-.465.491-.857.679-1.137-.34-1.907-.884-2.956-1.367-.576.048-2.654 1.09-3.3 1.402-.346-.156-.594-.234-.823-.55-.481-.663-.108-2.843.072-3.648-.155-.163-.46-.51-.583-.606-4.34-3.423-1.521-2.995 1.777-3.931.626-.178 1.199-2.602 2.19-3.418ZM18.539 6.6c1.027-.09 1.351.599 1.76 1.444.355.738.64 1.384 1.083 2.078 1.226.235 5.664.428 3.639 2.42-.734.722-1.575 1.239-2.24 2.062.153.8.424 2.32.28 3.096-.11.6-.512.808-.988 1.094-1.02-.454-1.795-.787-2.771-1.325-.34-.233-.748.023-1.06.19-.8.427-1.534.81-2.403 1.08-1.823-.664-.606-2.592-.86-4.062-.111-.636-.345-.74-.85-1.092-4.004-2.79-.146-3.139 2.398-3.462.66-1.068 1.144-2.734 2.012-3.524ZM30.774 70c-.508-.309-2.169-.308-2.807-.396-2.026-.282-4.389-.558-6.345-1.052-2.762-.78-4.81-2.848-5.628-5.572-.675-2.25-.07-3.814 1.058-5.717 2.92-4.926 7.35-8.386 12.834-9.992 5.002-1.466 9.705-.73 14.31 1.615 3.309 1.855 6.27 4.498 8.306 7.71.531.838 1.34 2.161 1.588 3.06 1.006 3.632-1.978 7.962-5.528 8.867-1.47.376-3.01.584-4.509.828-.905.18-4.197.372-4.693.65h-8.586Zm3.577-70h1.232c.746.85 2.211 3.804 2.684 4.879 1.205.089 3.69.572 4.945.856.152.034.586.385.735.505.053.138.154.435.18.581.18 1.319-3.266 3.142-3.52 4.025-.559 1.946.895 3.795-.422 5.743-1.953 1.096-3.416-1.56-5.207-1.53-1.203.122-3.233 1.82-4.306 1.838-2.24.036-1.133-4.531-1.153-5.989-1.06-1.195-2.665-2.24-3.575-3.516-.232-.325-.021-.86.095-1.235.995-.666 2.115-.725 3.268-.909.644-.103 1.586-.144 2.164-.443.792-.41 2.012-3.829 2.834-4.754L34.351 0Zm27.354 16.139c.737-.932 1.034-2.202 1.715-2.976 1.014-1.152 2.06 1.63 2.36 2.208.163.311.38.559.591.804.756.06 2.928.539 3.629.842v.96c-.259.155-2.11 1.733-2.22 1.973-.41.899.286 2.893-.218 3.828-.517.958-3.046-.797-3.553-1.164-4.45 3.097-3.77.867-3.672-2.414.006-.185-.472-.624-.641-.751-3.787-2.852-.55-2.806 2.01-3.31Zm-58.121.005c.885-.894 1.035-1.792 1.712-2.788.333-.49.997-.574 1.363-.071.675.834.823 1.97 1.51 2.797.731.189 1.545.366 2.293.482 3.814.595-.41 2.553-.874 3.72.082.786.406 2.785-.04 3.462-.79 1.196-3.139-1.196-3.634-1.01-1.232.462-3.555 2.901-3.684-.12-.035-.814.46-2.272-.18-2.865-.581-.5-1.445-1.387-2.05-1.778v-.89c1.026-.524 2.408-.66 3.584-.939Z"></path>
  </g>
  <defs>
    <clipPath id="a">
      <path fill="#fff" d="M0 0h70v70H0z"></path>
    </clipPath>
  </defs>
</svg>
