<?xml version="1.0" encoding="UTF-8"?>
<svg xmlns="http://www.w3.org/2000/svg" width="58" height="66" viewBox="0 0 58 66" fill="none">
  <g clip-path="url(#clip0_3619_6386)">
    <path d="M42.9827 23.7647C47.2144 26.8018 52.3986 28.5888 57.9976 28.5888V17.7717C56.9379 17.7721 55.881 17.661 54.8443 17.4403V25.955C49.2457 25.955 44.0622 24.1682 39.8296 21.1313V43.2062C39.8296 54.2494 30.913 63.2008 19.9147 63.2008C15.811 63.2008 11.9966 61.9552 8.82812 59.8189C12.4445 63.5315 17.4878 65.8344 23.0671 65.8344C34.0663 65.8344 42.9831 56.883 42.9831 45.8394V23.7647H42.9827ZM46.8727 12.8515C44.71 10.4793 43.2899 7.41375 42.9827 4.02454V2.6333H39.9945C40.7467 6.94082 43.3125 10.6209 46.8727 12.8515ZM15.7845 51.3449C14.5761 49.7545 13.9229 47.8085 13.926 45.8078C13.926 40.7572 18.0044 36.662 23.0361 36.662C23.9737 36.6615 24.9057 36.806 25.7995 37.0905V26.0314C24.755 25.8878 23.701 25.8266 22.6475 25.8491V34.4569C21.7533 34.1723 20.8208 34.0279 19.8828 34.0286C14.8513 34.0286 10.7732 38.1233 10.7732 43.1746C10.7732 46.7463 12.8115 49.8385 15.7845 51.3449Z" fill="#FF004F"></path>
    <path d="M39.8335 21.1311C44.0664 24.168 49.2495 25.9547 54.8483 25.9547V17.4401C51.7231 16.7716 48.9565 15.1321 46.8765 12.8515C43.316 10.6207 40.7507 6.9406 39.9985 2.6333H32.1497V45.839C32.1318 50.8759 28.0605 54.9542 23.0396 54.9542C20.0811 54.9542 17.4526 53.5384 15.788 51.3447C12.8155 49.8386 10.7769 46.7461 10.7769 43.1748C10.7769 38.124 14.855 34.0288 19.8865 34.0288C20.8506 34.0288 21.7797 34.1795 22.6513 34.4571V25.8494C11.8461 26.0735 3.15625 34.9376 3.15625 45.8392C3.15625 51.2812 5.32015 56.2146 8.83232 59.8193C12.0008 61.9552 15.815 63.2013 19.9189 63.2013C30.9174 63.2013 39.8338 54.2492 39.8338 43.2062L39.8335 21.1311Z" fill="black"></path>
    <path d="M54.8451 17.4399V15.1381C52.0269 15.1422 49.2644 14.3499 46.8733 12.8516C48.9898 15.178 51.7769 16.7823 54.8451 17.4404M39.9951 2.63317C39.9234 2.2216 39.8684 1.80728 39.8301 1.39123V0H28.9928V43.2061C28.9755 48.2426 24.9042 52.3209 19.8831 52.3209C18.4597 52.3231 17.0557 51.9888 15.7846 51.3453C17.4492 53.5385 20.0777 54.9541 23.0362 54.9541C28.0568 54.9541 32.1286 50.8762 32.1463 45.8393V2.6334L39.9951 2.63317ZM22.6485 25.8492V23.3984C21.7429 23.2742 20.83 23.212 19.916 23.2122C8.91637 23.2122 0 32.1641 0 43.2061C0 50.1291 3.50424 56.2302 8.82937 59.819C5.3172 56.2145 3.1533 51.2809 3.1533 45.8391C3.1533 34.9377 11.8429 26.0734 22.6485 25.8492Z" fill="#00F2EA"></path>
  </g>
  <defs>
    <clipPath id="clip0_3619_6386">
      <rect width="58" height="66" fill="white"></rect>
    </clipPath>
  </defs>
</svg>
