<?xml version="1.0" encoding="UTF-8"?>
<svg xmlns="http://www.w3.org/2000/svg" width="94" height="66" viewBox="0 0 94 66" fill="none">
  <g clip-path="url(#clip0_3546_20890)">
    <path d="M91.924 10.2942C91.3848 8.30447 90.3331 6.49053 88.8735 5.03297C87.414 3.57541 85.5975 2.52509 83.605 1.9866C76.3104 0 46.9523 0 46.9523 0C46.9523 0 17.5928 0.0601332 10.2982 2.04673C8.30567 2.58526 6.48917 3.63563 5.0296 5.09326C3.57003 6.55088 2.51832 8.3649 1.97921 10.3547C-0.227219 23.2973 -1.08313 43.0188 2.0398 55.4437C2.57897 57.4334 3.6307 59.2473 5.09026 60.7049C6.54983 62.1624 8.3663 63.2127 10.3588 63.7512C17.6533 65.7378 47.0122 65.7378 47.0122 65.7378C47.0122 65.7378 76.3707 65.7378 83.6648 63.7512C85.6574 63.2128 87.474 62.1625 88.9336 60.7049C90.3932 59.2474 91.445 57.4334 91.9842 55.4437C94.3114 42.4827 95.0286 22.7733 91.924 10.2942Z" fill="#FF0000"></path>
    <path d="M37.6094 46.9554L61.9642 32.8688L37.6094 18.7822V46.9554Z" fill="white"></path>
  </g>
  <defs>
    <clipPath id="clip0_3546_20890">
      <rect width="94" height="66" fill="white"></rect>
    </clipPath>
  </defs>
</svg>
