<?xml version="1.0" encoding="UTF-8"?>
<svg xmlns="http://www.w3.org/2000/svg" width="70" height="68" fill="none" viewBox="0 0 70 68">
  <path fill="#fff" d="M44.742 0c-.578-.009-1.16.1-1.777.234-.989.213-2.046.546-3.102.893-1.057.348-2.098.704-2.982.972-.884.267-1.661.426-1.91.426-.248 0-1.008-.152-1.892-.417-.884-.266-1.936-.626-2.994-.971-1.057-.346-2.127-.69-3.116-.9-.988-.212-1.867-.37-2.81-.062-.94.307-1.563.967-2.238 1.72-.675.754-1.35 1.653-2.002 2.556-.65.903-1.277 1.809-1.836 2.545-.558.737-1.098 1.308-1.298 1.455-.203.143-.907.491-1.78.794-.873.302-1.93.617-2.989.96-1.058.342-2.112.705-3.036 1.117-.923.41-1.722.804-2.302 1.61-.582.802-.708 1.698-.811 2.705-.104 1.007-.117 2.118-.113 3.232.003 1.114.021 2.22.002 3.144-.02.925-.114 1.713-.191 1.95-.077.236-.455.908-.98 1.668-.526.76-1.196 1.655-1.85 2.555-.656.9-1.303 1.81-1.809 2.687C.421 31.75 0 32.554 0 33.546s.424 1.786.931 2.661c.507.876 1.152 1.781 1.808 2.68.656.9 1.323 1.784 1.85 2.544.527.759.909 1.441.985 1.678.077.237.182 1.02.203 1.944.021.925.001 2.033 0 3.147-.001 1.114.006 2.227.11 3.234.106 1.007.227 1.897.81 2.699.582.802 1.4 1.202 2.323 1.612.925.41 1.978.764 3.036 1.105 1.059.342 2.122.667 2.994.972.872.304 1.578.629 1.78.775.2.146.736.721 1.296 1.457.56.735 1.197 1.639 1.85 2.54.653.902 1.318 1.81 1.994 2.563.676.752 1.302 1.394 2.244 1.7.942.305 1.833.148 2.822-.065.988-.212 2.045-.543 3.101-.89 1.057-.348 2.098-.707 2.982-.974.884-.267 1.661-.426 1.91-.427.248 0 1.01.154 1.894.42.885.266 1.934.625 2.991.97 1.058.346 2.12.674 3.11.885.988.21 1.867.368 2.81.06.94-.306 1.57-.95 2.245-1.703.675-.754 1.346-1.667 1.997-2.57.65-.903 1.285-1.797 1.843-2.533.558-.737 1.09-1.32 1.292-1.466.202-.144.914-.478 1.786-.78.873-.303 1.922-.63 2.98-.974 1.058-.343 2.112-.706 3.036-1.117.923-.412 1.732-.792 2.312-1.599.581-.802.705-1.696.808-2.703.104-1.007.112-2.132.109-3.246-.003-1.114-.022-2.222-.003-3.146.02-.925.12-1.699.196-1.936.077-.236.45-.922.976-1.682.525-.76 1.2-1.639 1.855-2.539.654-.9 1.295-1.827 1.8-2.704.506-.876.935-1.664.934-2.656 0-.992-.421-1.788-.929-2.663-.507-.876-1.158-1.795-1.815-2.695-.656-.899-1.323-1.781-1.85-2.54-.527-.76-.91-1.444-.988-1.681-.076-.236-.172-1.006-.193-1.93-.02-.925-.003-2.031-.002-3.145.001-1.114-.01-2.24-.116-3.248-.105-1.007-.225-1.899-.808-2.701-.583-.802-1.393-1.186-2.317-1.596-.924-.41-1.984-.778-3.043-1.12-1.059-.34-2.115-.652-2.986-.956-.872-.305-1.586-.646-1.787-.792-.201-.146-.74-.72-1.299-1.455-.56-.735-1.195-1.641-1.848-2.543-.652-.902-1.313-1.795-1.99-2.548-.675-.753-1.299-1.394-2.24-1.7a3.549 3.549 0 0 0-1.047-.168Zm-9.747 20.69a1.206 1.206 0 0 1 1.035.588l6.343 10.564 10.112-5.869a1.207 1.207 0 0 1 1.744 1.443l-6.27 18.102a1.206 1.206 0 0 1-1.14.81H23.183a1.206 1.206 0 0 1-1.14-.81l-6.282-18.102a1.207 1.207 0 0 1 1.746-1.443l10.112 5.87 6.343-10.565a1.207 1.207 0 0 1 1.032-.587Z"></path>
</svg>
