<?xml version="1.0" encoding="UTF-8"?>
<svg xmlns="http://www.w3.org/2000/svg" width="116" height="48" fill="none" viewBox="0 0 116 48">
  <path fill="#fff" d="M58.018 1.054c.438.088.495.818.608 1.224.517 1.852 1.81 3.515 3.27 4.784 3.749 3.262 9.346 4.049 14.126 3.628.784 1.77.99 4.08 1.153 6.012.104 1.64-.23 3.333-.256 4.96-.042 2.724-.686 5.232-1.427 7.831-.12.425-.202.877-.334 1.308a33.03 33.03 0 0 1-4.481 9.15c-.357.513-1.169 1.667-1.575 2.114-2.17 2.391-5.195 4.456-8.37 5.203-.608.143-1.925.203-2.57.233-3.114-.017-5.156-.688-7.75-2.41-3.567-2.367-5.78-5.587-7.764-9.307-.197-.37-.31-.86-.501-1.219-1.216-2.28-1.626-4.818-2.434-7.247-.434-1.683-.487-3.402-.645-5.09-.239-2.549-.445-4.874-.026-7.436.201-1.228.21-2.545.707-3.721.12-.284.18-.27.47-.266 1.16.16 2.217.003 3.368-.056 2.728-.133 5.519-.67 7.948-1.936 1.98-1.032 3.408-2.095 4.589-3.992.74-1.191 1.246-2.077 1.496-3.518.02-.112.293-.202.398-.249Zm-4.483 28.437c-.888-.72-2.065-2.061-2.933-2.877-.81-.76-1.251-1.49-2.296-2.046-.816.958-1.623 1.677-2.527 2.549-.2.194-.147.579.049.76.897.83 1.743 1.725 2.641 2.552.6.832 2.106 2.07 2.864 2.887.543.586 1.554 1.66 2.16 2.145l9.968-9.98 2.98-2.965c.93-.924.99-.8 1.868-1.955-.235-.446-2.43-2.832-2.789-2.921-.503.833-1.644 1.7-2.304 2.421-1.83 2.002-3.869 3.84-5.76 5.774-1.394 1.425-2.38 2.385-3.92 3.656Zm29.312-4.686c4.354-.097 9.024-.004 13.42-.006l6.67-.002c1.26 0 2.66-.029 3.91.024.217.327.309.422.599.68-.466.383-1.538 1.98-1.994 2.523-.341.407-.963 1.166-1.241 1.602-.428.352-1.013 1.51-1.486 1.594-.944.166-2.25.105-3.218.105l-4.952-.001c-4.293-.001-8.956.087-13.234-.013a5.152 5.152 0 0 1-.03-1.106c.073-.776.803-4.535 1.105-5.05.12-.203.22-.293.45-.35Zm-73.384.003c.853-.038 1.89-.01 2.763-.01h21.193c.339.361.474.516.54 1.026.17 1.324.548 2.61.758 3.928.063.391.144.89.042 1.276-.04.15-.315.215-.44.251-1.008.098-2.747.047-3.79.047l-6.926-.003-6.471.003c-1.102.002-2.736.053-3.79-.057-.634-.505-3.974-4.662-4.427-5.667-.049-.11-.023-.383.066-.498.195-.254.204-.231.482-.296Zm70.416 10.279c.497-.07 1.58-.033 2.134-.03l3.859.01 8.508-.003c.816 0 4.284-.098 4.846.09.142.173.103.534-.021.703-.864 1.177-1.866 2.286-2.78 3.43-.328.41-.588.768-.89 1.18-.365.332-.688.965-1.132 1.022-.63.08-1.41.057-2.051.056h-3.355l-7.475-.002c-1.25 0-2.504.006-3.752 0-.177-.014-.359.008-.51-.102-.371-.272-.083-.696.061-1.008.122-.264.266-.519.401-.772.458-.877.896-1.764 1.311-2.661.192-.423.62-1.626.846-1.913Zm-44.778-.041c.313-.036.606-.04.92-.048.321.46.49 1.014.702 1.533.572 1.4 1.298 2.723 1.914 4.1.118.263.148.53.059.808-.026.098-.227.119-.308.117-1.09-.02-2.181-.012-3.271-.013l-7.515-.002-3.594.008c-1.06.003-2.376.215-3.165-.551-.369-.343-1.345-1.793-1.778-2.301-.61-.793-1.356-1.49-1.926-2.312-.199-.287-.634-.94-.392-1.245.569-.232 16.561-.043 18.354-.094ZM0 14.398c1.094-.251 2.561-.17 3.719-.169l4.669.004h20.804c1.053 0 2.238.023 3.28-.038l.53.297a71.01 71.01 0 0 1 .083 6.071c-.969.174-2.616.113-3.67.113l-5.767-.004h-12.69c-.828 0-5.956.096-6.26-.113l-.025-.018c-1.046-.72-2.829-3.312-3.752-4.37-.223-.256-.667-.91-.921-1.06v-.713Zm82.956.112c.285-.133.54-.265.86-.271.74-.014 1.488-.009 2.228-.008l4.228.003h13.001l7.934-.004c1.316 0 3.545-.075 4.791.117v.777c-.775.445-3.233 4.193-4.153 4.973-.38.322-.476.543-1.089.577-.817.046-1.692.003-2.512.001l-5.432-.003-19.895-.027c-.03-1.95.041-4.144.039-6.134Z"></path>
</svg>
