<?xml version="1.0" encoding="UTF-8"?>
<svg xmlns="http://www.w3.org/2000/svg" width="48" height="48" viewBox="0 0 48 48" fill="none">
  <g clip-path="url(#clip0_3629_12639)">
    <path fill-rule="evenodd" clip-rule="evenodd" d="M33.3166 1.15874C33.04 1.20671 32.7757 1.30896 32.5389 1.4596C32.3021 1.61025 32.0975 1.80629 31.9368 2.03643C31.7762 2.26657 31.6627 2.52625 31.6029 2.80047C31.5431 3.0747 31.5383 3.35805 31.5886 3.63417C31.6944 4.1941 32.0171 4.68953 32.4866 5.01255C32.956 5.33557 33.5341 5.46 34.0949 5.35874C34.5474 5.27874 35.0023 5.20217 35.4594 5.12903C35.9566 5.0536 36.3406 5.28674 36.5051 5.60903C38.1371 8.78045 39.5909 11.9107 40.5989 15.1473C39.3029 15.737 37.8526 16.409 36.4057 17.1119C36.1998 18.7165 35.9229 20.3112 35.576 21.8913V21.905L35.5657 21.9359C35.2046 23.5885 34.7291 25.2502 34.1394 26.921C33.6457 28.3027 32.528 29.6193 31.3897 30.7713C30.0011 32.177 30.6766 34.5085 32.6343 34.2342L34.16 40.0696C32.2171 40.6982 30.288 41.441 28.3726 42.2982C28.0663 42.4329 27.7899 42.6271 27.5593 42.8695C27.3287 43.1118 27.1485 43.3976 27.0292 43.7102C26.9099 44.0228 26.8539 44.3559 26.8644 44.6903C26.8749 45.0247 26.9517 45.3537 27.0903 45.6582C27.6731 46.9336 29.1954 47.5027 30.488 46.9267C35.3179 44.749 40.459 43.3411 45.7246 42.7542C46.0574 42.7179 46.3798 42.6164 46.6733 42.4554C46.9669 42.2944 47.2258 42.0772 47.4353 41.8161C47.6448 41.555 47.8008 41.2551 47.8944 40.9337C47.988 40.6122 48.0172 40.2755 47.9806 39.9427C47.8965 39.2703 47.5504 38.6583 47.0175 38.2397C46.4846 37.8211 45.808 37.6298 45.1349 37.7073C43.0823 37.9427 41.0754 38.2799 39.1143 38.7187L37.5954 32.921C43.5166 30.5382 46.9486 24.329 45.7829 18.161C44.7886 12.9256 42.6457 8.1736 40.3383 3.6856C39.8184 2.69628 38.9998 1.89606 37.999 1.39872C36.9981 0.90137 35.8659 0.732218 34.7634 0.915311C34.2789 0.99074 33.7966 1.07417 33.3166 1.15874ZM13.928 1.20674C12.8299 1.04374 11.7082 1.22205 10.7148 1.71754C9.72133 2.21303 8.90411 3.00178 8.37371 3.97703C5.984 8.45817 3.752 13.2067 2.672 18.4147C2.0805 21.2414 2.47116 24.1853 3.77943 26.7599C5.21445 29.5881 7.63181 31.7958 10.5783 32.969L8.96343 38.7222C6.93234 38.3022 4.88028 37.9909 2.816 37.7896C2.1372 37.7228 1.45965 37.9283 0.932401 38.361C0.405156 38.7938 0.0714059 39.4182 0.00457134 40.097C-0.0622632 40.7758 0.143293 41.4534 0.57602 41.9806C1.00875 42.5079 1.6332 42.8416 2.312 42.9085C4.96547 43.1634 7.59511 43.6242 10.1771 44.2867C12.6971 44.9313 15.1589 45.7747 17.624 46.8307C18.2514 47.099 18.9597 47.107 19.5931 46.853C20.2264 46.599 20.7329 46.1039 21.0011 45.4765C21.2694 44.849 21.2774 44.1407 21.0234 43.5074C20.7695 42.8741 20.2743 42.3676 19.6469 42.0993C17.7839 41.3036 15.8808 40.6055 13.9451 40.0079L15.5566 34.2685C21.872 35.1256 27.9851 31.457 30.0937 25.5325C30.6286 24.041 31.0469 22.5393 31.3829 21.0342L31.3897 20.9999C32.1851 17.4342 32.5143 13.8273 32.7063 10.3027C32.7601 9.18897 32.4564 8.08716 31.8396 7.15823C31.2227 6.2293 30.3251 5.52189 29.2777 5.13931C24.3249 3.25684 19.1759 1.93768 13.928 1.20674ZM27.2069 20.0982L27.2103 20.0776C27.9303 16.8582 28.2389 13.5222 28.4274 10.0662C28.448 9.71988 28.2389 9.3256 27.7623 9.14731C23.1055 7.37464 18.2634 6.13363 13.328 5.44788C13.1003 5.40807 12.8658 5.43897 12.6562 5.53644C12.4465 5.6339 12.2718 5.79325 12.1554 5.99303C9.81714 10.3816 7.82171 14.6913 6.872 19.2822C6.80348 19.6313 6.75313 19.9838 6.72114 20.3382C9.92343 20.0502 13.9657 19.7553 17.1166 19.7656C20.1611 19.7759 24.0663 20.0707 27.1451 20.3553L27.2069 20.0982Z" fill="#2872A3"></path>
  </g>
  <defs>
    <clipPath id="clip0_3629_12639">
      <rect width="48" height="48" fill="white"></rect>
    </clipPath>
  </defs>
</svg>
