<?xml version="1.0" encoding="UTF-8"?>
<svg xmlns="http://www.w3.org/2000/svg" width="47" height="47" viewBox="0 0 47 47" fill="none">
  <path fill-rule="evenodd" clip-rule="evenodd" d="M18.0628 0.143803C14.0932 -0.0819508 10.1129 -0.0418613 6.14855 0.263803C3.38169 0.469517 1.3554 2.72209 1.07083 5.33809C-0.0777413 15.8467 -0.472027 26.4615 0.741687 37.1072C0.977047 39.2447 1.93239 41.2386 3.45078 42.7614C4.96917 44.2841 6.96031 45.2452 9.09712 45.4867C16.8256 46.3696 24.6203 46.52 32.3771 45.9358M33.5737 41.5404C32.3565 38.8318 30.7623 35.7187 28.8423 32.8215C27.1623 30.2775 25.136 27.7507 22.7805 25.8272C20.4285 23.9038 17.4834 22.3678 14.0651 22.3678C10.6468 22.3678 7.70169 23.9038 5.35312 25.8238C5.0034 26.1095 4.66055 26.4078 4.32455 26.7187C4.15312 19.7655 4.56455 12.7918 5.33254 5.80437C5.41826 5.0158 5.98055 4.57695 6.46397 4.53923C10.2663 4.25809 13.1017 4.19637 17.8605 4.42266C18.3268 4.44666 18.752 4.75523 18.9165 5.22152L19.6434 7.28895C20.0131 8.34291 20.6958 9.2589 21.6001 9.91446C22.5044 10.57 23.5873 10.9339 24.704 10.9575L26.7131 10.9987C31.112 11.0912 33.9508 11.1495 37.856 11.4924C38.8788 11.5831 39.8347 12.0392 40.5487 12.7771C41.2627 13.515 41.687 14.4854 41.744 15.5107C42.2137 23.6535 42.0251 30.2261 41.2983 36.6204C41.0171 39.0958 39.1383 40.9507 36.9508 41.201C35.824 41.3289 34.6983 41.4421 33.5737 41.5404ZM32.384 45.9358C34.0663 45.8124 35.7508 45.6524 37.4377 45.4558C41.7371 44.9655 45.0628 41.4307 45.5565 37.1072C46.3143 30.4421 46.5063 23.6192 46.0194 15.2638C45.9038 13.2109 45.053 11.2683 43.6226 9.79128C42.1922 8.31427 40.2778 7.40165 38.2297 7.22037C34.1771 6.86723 31.1943 6.80552 26.8023 6.71295L24.8 6.66837C24.5541 6.66445 24.3153 6.58506 24.116 6.44095C23.9167 6.29684 23.7665 6.09496 23.6857 5.86266L22.9554 3.79523C22.5934 2.77037 21.9351 1.87615 21.064 1.22605C20.1929 0.575946 19.1483 0.199265 18.0628 0.143803M27.4228 16.0901C28.5748 14.9415 30.152 14.4547 31.8594 14.4547C33.5703 14.4547 35.1474 14.9415 36.296 16.0901C37.4445 17.2387 37.9314 18.8158 37.9314 20.5267C37.9314 22.2375 37.4445 23.8112 36.296 24.9598C35.1474 26.1084 33.5703 26.5952 31.8594 26.5952C30.152 26.5952 28.5748 26.1084 27.4263 24.9598C26.2777 23.8112 25.7908 22.2341 25.7908 20.5267C25.7908 18.8192 26.2743 17.2387 27.4228 16.0901Z" fill="#2872A3"></path>
</svg>
