<?xml version="1.0" encoding="UTF-8"?>
<svg xmlns="http://www.w3.org/2000/svg" width="100" height="66" viewBox="0 0 100 66" fill="none">
  <path d="M4.71725 32.8128C4.7971 33.1277 4.96247 33.4142 5.19502 33.6406C5.42757 33.8671 5.7182 34.0246 6.0347 34.0958L40.5635 42.3294C42.0234 45.2345 47.3982 54.8236 54.7492 54.8775V62.4339H46.152C45.68 62.4339 45.2272 62.6216 44.8934 62.9559C44.5596 63.2902 44.3721 63.7435 44.3721 64.2163C44.3721 64.689 44.5596 65.1423 44.8934 65.4766C45.2272 65.8109 45.68 65.9986 46.152 65.9986H90.5592C91.4849 66.018 92.4033 65.8294 93.2466 65.4466C97.714 63.4139 99.9964 59.6176 99.9964 54.164C99.9975 53.9299 99.9526 53.6979 99.8642 53.4812C99.7758 53.2645 99.6457 53.0674 99.4812 52.9011C99.3168 52.7348 99.1212 52.6025 98.9057 52.5119C98.6902 52.4212 98.4589 52.374 98.2252 52.3728C97.9915 52.3717 97.7598 52.4167 97.5434 52.5052C97.327 52.5937 97.1301 52.724 96.964 52.8887C96.7979 53.0534 96.6659 53.2492 96.5753 53.4651C96.4848 53.6809 96.4377 53.9124 96.4365 54.1465C96.4365 58.2107 94.9591 60.7591 91.7729 62.2023C91.3926 62.3712 90.9787 62.4504 90.563 62.4339H88.3518L84.1869 54.8599H85.8244C86.1281 54.8775 93.1404 55.2354 97.234 50.7069C99.6539 47.997 100.491 44.2544 99.7251 39.5494C99.5373 38.4311 99.1772 37.3489 98.6577 36.3413C96.7828 32.58 91.0405 23.9497 77.6022 23.0447L76.1022 18.6788C75.9846 18.3285 75.7595 18.0243 75.4589 17.8099C75.1582 17.5954 74.7976 17.4816 74.4285 17.4847H66.7276L65.3214 14.1152C65.184 13.7939 64.9558 13.5198 64.6649 13.3268C64.3739 13.1337 64.0329 13.0301 63.6839 13.0287H63.6664L60.2665 13.0638V7.18089H89.723C90.1951 7.18089 90.6478 6.99311 90.9816 6.65884C91.3154 6.32458 91.5029 5.87122 91.5029 5.3985C91.5029 4.92578 91.3154 4.47242 90.9816 4.13816C90.6478 3.80389 90.1951 3.61611 89.723 3.61611H60.2665V1.78239C60.2665 1.30967 60.079 0.856315 59.7452 0.522051C59.4114 0.187787 58.9587 0 58.4866 0C58.0145 0 57.5618 0.187787 57.228 0.522051C56.8942 0.856315 56.7067 1.30967 56.7067 1.78239V3.61736H27.2327C26.7606 3.61736 26.3079 3.80515 25.9741 4.13941C25.6403 4.47367 25.4528 4.92703 25.4528 5.39975C25.4528 5.87247 25.6403 6.32583 25.9741 6.6601C26.3079 6.99436 26.7606 7.18215 27.2327 7.18215H56.7067V13.0976L54.4817 13.1151C54.1336 13.114 53.7929 13.2169 53.5035 13.4106C53.214 13.6044 52.9889 13.8802 52.8568 14.2028L49.1732 23.1674C47.2437 23.4978 45.5022 24.5252 44.2784 26.055H20.113L10.2708 13.0638C10.1048 12.8424 9.88965 12.6628 9.64231 12.5392C9.39498 12.4156 9.12229 12.3513 8.84585 12.3516H1.77985C1.50862 12.3531 1.24128 12.4164 0.998031 12.5365C0.754782 12.6567 0.541987 12.8306 0.375721 13.0452C0.209455 13.2598 0.0940674 13.5095 0.0382752 13.7753C-0.0175169 14.0411 -0.012254 14.3161 0.0536658 14.5796L4.71725 32.8128ZM82.4795 27.4469C85.2604 28.1782 87.8554 29.49 90.0944 31.2961C92.3335 33.1023 94.1659 35.3621 95.4715 37.9272C95.8339 38.6191 96.0805 39.3658 96.2015 40.1377C96.4115 41.3072 96.4774 42.4981 96.3978 43.6837L85.8606 42.0114C84.9198 41.8624 84.0629 41.382 83.4442 40.6567C82.8255 39.9314 82.4857 39.0088 82.4857 38.0549L82.4795 27.4469ZM58.3091 54.8587H80.1258L84.2732 62.4326H58.3091V54.8587Z" fill="#2872A3"></path>
</svg>
