<?xml version="1.0" encoding="UTF-8"?>
<svg xmlns="http://www.w3.org/2000/svg" width="100" height="99" viewBox="0 0 100 99" fill="none">
  <path d="M8.63674 15.5749C9.84768 15.5749 10.9365 16.3611 11.3125 17.5134C11.6885 16.3513 12.7627 15.5749 13.9882 15.5749C13.0019 14.862 12.5869 13.5877 12.9629 12.4353C11.9765 13.1482 10.6484 13.1482 9.6621 12.4353C10.0381 13.5974 9.62307 14.8621 8.63674 15.5749Z" fill="#2872A3"></path>
  <path d="M88.6775 17.8262C90.7673 17.8262 92.613 19.1641 93.2527 21.1514C93.9021 19.1642 95.7381 17.8262 97.828 17.8262C96.1385 16.6006 95.4256 14.4277 96.08 12.4404C94.3905 13.666 92.1053 13.666 90.416 12.4404C91.0654 14.4277 90.3525 16.6006 88.668 17.8262H88.6775Z" fill="#2872A3"></path>
  <path d="M86.2022 4.22241C86.2022 5.99979 84.7667 7.42066 83.0039 7.42066C84.7813 7.42066 86.2022 8.85616 86.2022 10.6189C86.2022 8.84154 87.6377 7.42066 89.4004 7.42066C87.623 7.42066 86.2022 5.98516 86.2022 4.22241Z" fill="#2872A3"></path>
  <path d="M21.6094 0C21.6094 2.9395 19.2364 5.3125 16.2969 5.3125C19.2364 5.3125 21.6094 7.6855 21.6094 10.625C21.6094 7.6855 23.9824 5.3125 26.9219 5.3125C23.9824 5.3125 21.6094 2.9395 21.6094 0Z" fill="#2872A3"></path>
  <path d="M45.1608 19.0525H25.2383L28.3095 37.49L45.1608 19.0525Z" fill="#2872A3"></path>
  <path d="M74.7623 19.0525H54.8398L71.6898 37.49L74.7623 19.0525Z" fill="#2872A3"></path>
  <path d="M70 44.2861H30L50 98.0749L70 44.2861Z" fill="#2872A3"></path>
  <path d="M31.7773 40.0239H68.2223L49.9998 20.0876L31.7773 40.0239Z" fill="#2872A3"></path>
  <path d="M74.55 44.2861L56 94.1636L99.9988 44.2861H74.55Z" fill="#2872A3"></path>
  <path d="M24.4152 40.0236L21.2658 21.1511L0.738281 40.0236H24.4152Z" fill="#2872A3"></path>
  <path d="M75.5859 40.0236H99.2622L78.7347 21.1511L75.5859 40.0236Z" fill="#2872A3"></path>
  <path d="M25.4487 44.2861H0L43.9988 94.1636L25.4487 44.2861Z" fill="#2872A3"></path>
</svg>
