<svg width="20" height="20" viewBox="0 0 20 20" fill="none" xmlns="http://www.w3.org/2000/svg">
<path d="M7.64453 9.02087C6.99175 8.3681 6.66536 7.58337 6.66536 6.66671C6.66536 5.75004 6.99175 4.96532 7.64453 4.31254C8.29731 3.65976 9.08203 3.33337 9.9987 3.33337C10.9154 3.33337 11.7001 3.65976 12.3529 4.31254C13.0056 4.96532 13.332 5.75004 13.332 6.66671C13.332 7.58337 13.0056 8.3681 12.3529 9.02087C11.7001 9.67365 10.9154 10 9.9987 10C9.08203 10 8.29731 9.67365 7.64453 9.02087ZM3.33203 15V14.3334C3.33203 13.8612 3.4537 13.4273 3.69703 13.0317C3.94036 12.6362 4.26314 12.3339 4.66536 12.125C5.52648 11.6945 6.40148 11.3717 7.29036 11.1567C8.17925 10.9417 9.08203 10.8339 9.9987 10.8334C10.9154 10.8328 11.8181 10.9406 12.707 11.1567C13.5959 11.3728 14.4709 11.6956 15.332 12.125C15.7348 12.3334 16.0579 12.6356 16.3012 13.0317C16.5445 13.4278 16.6659 13.8617 16.6654 14.3334V15C16.6654 15.4584 16.5023 15.8509 16.1762 16.1775C15.8501 16.5042 15.4576 16.6673 14.9987 16.6667H4.9987C4.54036 16.6667 4.14814 16.5037 3.82203 16.1775C3.49592 15.8514 3.33259 15.4589 3.33203 15Z" fill="#2872A3"/>
</svg>
