<svg width="40" height="40" viewBox="0 0 40 40" fill="none" xmlns="http://www.w3.org/2000/svg">
<circle cx="20" cy="20" r="20" fill="#2872A3"/>
<path d="M20.75 16V12C20.75 11.5858 21.0858 11.25 21.5 11.25C21.9142 11.25 22.25 11.5858 22.25 12V16C22.25 16.4142 21.9142 16.75 21.5 16.75C21.0858 16.75 20.75 16.4142 20.75 16Z" fill="white"/>
<path d="M28.7501 23.6873C28.7501 22.136 28.7458 21.4692 28.6407 20.9354L28.5958 20.7264C28.1068 18.6576 26.5236 17.078 24.546 16.6395L24.3467 16.5995C23.8391 16.508 23.2057 16.5239 21.7071 16.5711L14.5753 16.7948L14.5762 16.7957C14.2304 16.8069 13.925 16.817 13.669 16.8036C13.4002 16.7895 13.135 16.7478 12.8682 16.6297H12.8673C12.3955 16.4203 12.0893 16.0737 11.876 15.745C11.6759 15.4364 11.518 15.0736 11.4063 14.8416V14.8407C11.3788 14.7835 11.3616 14.7761 11.3682 14.7811C11.3642 14.7789 11.3515 14.7725 11.3223 14.7664C11.2717 14.756 11.197 14.7501 11.0762 14.7498C11.0172 14.7497 10.9554 14.7512 10.8829 14.7528C10.813 14.7543 10.7322 14.7557 10.6505 14.7557C10.5104 14.7557 10.3972 14.7556 10.2999 14.7577C10.326 14.8634 10.3603 14.9857 10.4024 15.1395L10.4591 15.3446L10.46 15.3465C10.607 15.8791 10.7044 16.2315 10.8048 16.4998C10.8762 16.6909 10.9392 16.81 11.001 16.8954L11.0635 16.9715L11.0645 16.9735C11.1465 17.0625 11.2615 17.1474 11.4971 17.2547C11.7479 17.3689 12.08 17.4845 12.588 17.66L16.9132 19.1561H16.9122C17.427 19.3337 17.8668 19.5534 18.251 19.8846C18.6339 20.2147 18.9198 20.619 19.1798 21.1043L19.6651 22.0008C20.0827 22.7558 20.3248 23.1244 20.629 23.4022H20.6299C20.9438 23.6883 21.3063 23.9096 21.6954 24.0536H21.6944C22.1968 24.2391 22.7775 24.2498 24.3204 24.2498H28.2354C28.5194 24.2498 28.6098 24.1704 28.6387 24.1385C28.6792 24.0939 28.7501 23.9719 28.7501 23.6873ZM30.2501 23.6873C30.2501 24.1986 30.124 24.734 29.7501 25.1463C29.3645 25.5715 28.8214 25.7498 28.2354 25.7498H24.3204C22.8918 25.7498 21.9884 25.7612 21.1749 25.4608V25.4598C20.6019 25.2478 20.0733 24.9255 19.6192 24.5116V24.5106C19.138 24.0716 18.7787 23.5026 18.336 22.6991L17.8575 21.8133C17.6495 21.4249 17.468 21.1897 17.2716 21.0204C17.1251 20.8942 16.9466 20.7842 16.6973 20.6786L16.4229 20.5741L12.0977 19.078C11.616 18.9115 11.2055 18.7705 10.8751 18.62C10.5299 18.4628 10.2248 18.2745 9.96198 17.9891V17.9901C9.69944 17.7062 9.53469 17.3849 9.40046 17.0262C9.27117 16.6807 9.15366 16.252 9.01374 15.745L9.01472 15.744L8.9571 15.5418L8.95612 15.5389C8.87824 15.2547 8.79713 14.965 8.76569 14.7215C8.73221 14.4622 8.73252 14.1029 8.97175 13.7733L8.9737 13.7713C9.21832 13.4367 9.56443 13.3299 9.82917 13.2899C10.0704 13.2535 10.3683 13.2557 10.6505 13.2557C10.8411 13.2557 11.2763 13.2257 11.6251 13.2977C12.0765 13.3909 12.4989 13.6522 12.7579 14.1903C12.9091 14.5042 13.0019 14.7251 13.1339 14.9286C13.2523 15.1112 13.3592 15.206 13.4747 15.2577C13.5148 15.2754 13.5829 15.2969 13.7481 15.3055C13.9262 15.3148 14.1578 15.3076 14.5274 15.2957H14.5284L21.6602 15.0721L22.6221 15.0438C23.4877 15.0223 24.0857 15.029 24.6124 15.1239H24.6133C27.3843 15.6242 29.5552 17.8255 30.1124 20.6444C30.2531 21.3583 30.2501 22.2077 30.2501 23.6873Z" fill="white"/>
<path d="M26.7881 24.7627C26.9191 24.3697 27.3443 24.1571 27.7373 24.2881C28.1303 24.4191 28.3429 24.8443 28.2119 25.2373L27.541 27.25H28.5C28.9142 27.25 29.25 27.5858 29.25 28C29.25 28.4142 28.9142 28.75 28.5 28.75H19.5C19.0858 28.75 18.75 28.4142 18.75 28C18.75 27.5858 19.0858 27.25 19.5 27.25H20.959L21.7881 24.7627C21.9191 24.3697 22.3443 24.1571 22.7373 24.2881C23.1303 24.4191 23.3429 24.8443 23.2119 25.2373L22.541 27.25H25.959L26.7881 24.7627ZM20.75 16.5C20.75 16.0858 21.0858 15.75 21.5 15.75C21.9142 15.75 22.25 16.0858 22.25 16.5C22.25 17.6272 22.6981 18.7079 23.4951 19.5049C24.2921 20.3019 25.3728 20.75 26.5 20.75H29C29.4142 20.75 29.75 21.0858 29.75 21.5C29.75 21.9142 29.4142 22.25 29 22.25H26.5C24.975 22.25 23.5129 21.6438 22.4346 20.5654C21.3562 19.4871 20.75 18.025 20.75 16.5Z" fill="white"/>
<path d="M24.5 11.25C24.9142 11.25 25.25 11.5858 25.25 12C25.25 12.4142 24.9142 12.75 24.5 12.75H18.5C18.0858 12.75 17.75 12.4142 17.75 12C17.75 11.5858 18.0858 11.25 18.5 11.25H24.5Z" fill="white"/>
</svg>
