<svg width="142" height="114" viewBox="0 0 142 114" fill="none" xmlns="http://www.w3.org/2000/svg">
<g clip-path="url(#clip0_7_121)">
<path d="M104.06 57.9316H122.21L115.449 64.4491L122.089 71.4504H103.803L104.06 57.9316Z" fill="white" stroke="#1F3077" stroke-width="0.922971" stroke-miterlimit="10"/>
<path d="M37.5402 57.9316H19.375L26.151 64.4491L19.5111 71.4504H37.7973L37.5402 57.9316Z" fill="white" stroke="#1F3077" stroke-width="0.922971" stroke-miterlimit="10"/>
<path d="M27.7695 67.7147L37.8731 72.1454L38.4024 65.6279L27.7695 67.7147Z" fill="black"/>
<path d="M113.967 67.805L103.697 72.2357L103.152 65.7031L113.967 67.805Z" fill="black"/>
<path d="M104.302 103.977H37.6909C34.9079 103.977 32.6543 101.724 32.6543 98.9414V10.389C32.6543 7.60664 34.9079 5.35352 37.6909 5.35352H104.302C107.085 5.35352 109.338 7.60664 109.338 10.389V98.9414C109.338 101.724 107.085 103.977 104.302 103.977Z" fill="#1F3077"/>
<path d="M103.093 100.226H38.7061C37.3146 100.226 36.1953 99.1075 36.1953 97.7163V20.3237C36.1953 18.9325 37.3297 17.8135 38.7061 17.8135H103.109C104.5 17.8135 105.619 18.9325 105.619 20.3237V97.7163C105.619 99.1075 104.485 100.226 103.093 100.226Z" fill="white"/>
<path d="M103.425 19.5225C103.863 19.5225 104.211 19.8703 104.211 20.3088V64.3884C104.211 64.8269 103.863 65.1747 103.425 65.1747H38.5834C38.1448 65.1747 37.7969 64.8269 37.7969 64.3884V20.3239C37.7969 19.8854 38.1448 19.5376 38.5834 19.5376H103.425" fill="#1F3077"/>
<path d="M38.7051 67.3672C45.6777 77.786 57.5509 84.6361 71.0273 84.6361C84.5038 84.6361 96.3769 77.7709 103.35 67.3672H38.7051Z" fill="#1F1E21"/>
<path d="M28.375 54.1807H113.348V67.1097H28.375V54.1807Z" fill="white" stroke="#1F3077" stroke-width="0.922971" stroke-miterlimit="10"/>
<path d="M52.8462 59.7157C52.9521 59.0504 53.0428 58.3699 53.5571 57.6894C54.7217 56.1924 56.9753 56.1924 57.5954 56.1924C58.4425 56.1924 59.1987 56.2529 59.9247 56.4948C60.2575 56.6158 61.6792 57.0694 61.6792 58.5514C61.6792 59.1411 61.3767 59.7157 60.9835 60.1543C60.2423 61.0011 59.1231 61.5001 56.6274 62.5132C56.4308 62.5888 56.2342 62.6644 56.0527 62.7703C55.8409 62.8913 55.6443 63.0123 55.4477 63.1635H60.9532L60.4843 65.1898H51.5605L52.0294 63.1937C52.6647 62.4679 52.9369 62.2259 54.2831 61.5001L57.4744 60.0182C57.9584 59.8065 58.7298 59.4587 58.7298 58.8992C58.7298 58.7631 58.6542 58.4606 58.2458 58.2792C58.0341 58.1733 57.7618 58.1431 57.4593 58.1431C55.8107 58.1431 55.6746 59.0504 55.5687 59.746L52.8462 59.7157Z" fill="#1F1E21"/>
<path d="M71.7535 60.1844C71.7535 61.5302 71.2241 62.9365 70.2561 63.8741C69.3486 64.7663 67.8815 65.3711 66.1875 65.3711C64.7808 65.3711 61.6953 64.8721 61.6953 61.4395C61.6953 59.1561 63.2078 56.3586 67.0345 56.2074C69.4998 56.1318 71.7535 57.3566 71.7535 60.1844ZM64.6749 61.6361C64.6749 61.9385 64.6749 63.496 66.3387 63.496C68.0327 63.496 68.789 61.5 68.789 60.018C68.789 58.9747 68.2747 58.1581 67.1706 58.1581C65.2648 58.1732 64.6749 60.4717 64.6749 61.6361Z" fill="#1F1E21"/>
<path d="M72.7506 57.5833C73.6581 57.4472 74.5203 57.1901 75.2311 56.8121C75.4429 56.6911 75.6698 56.555 75.8815 56.4189H78.0898L76.063 65.1895H73.0683L74.49 59.1106C73.4918 59.413 73.2498 59.4433 72.2969 59.5038L72.7506 57.5833Z" fill="#1F1E21"/>
<path d="M45.4668 23.8926H51.8798C53.4528 23.8926 54.7082 24.3311 55.4947 25.1174C56.13 25.7525 56.4476 26.5237 56.4476 27.4613V27.5067C56.4476 29.0642 55.6157 29.9412 54.6326 30.4856C56.2358 31.0905 57.219 32.028 57.219 33.8729V33.9182C57.219 36.4436 55.162 37.7138 52.0462 37.7138H45.4668V23.8926ZM51.2294 29.4876C52.5756 29.4876 53.4226 29.0491 53.4226 28.0208V27.9754C53.4226 27.0681 52.7117 26.554 51.4261 26.554H48.4313V29.4725H51.2294V29.4876ZM52.0462 35.0524C53.3923 35.0524 54.194 34.5836 54.194 33.5553V33.51C54.194 32.5875 53.4982 32.0129 51.9403 32.0129H48.4313V35.0524H52.0462Z" fill="white"/>
<path d="M58.0801 23.8926H68.5012V26.5994H61.1051V29.3969H67.6089V32.1036H61.1051V35.007H68.6071V37.7138H58.0801V23.8926Z" fill="white"/>
<path d="M69.0469 35.7024L70.8468 33.5551C72.087 34.5834 73.3878 35.2336 74.9759 35.2336C76.2162 35.2336 76.9724 34.7346 76.9724 33.9332V33.8878C76.9724 33.1166 76.5035 32.7234 74.1894 32.1337C71.4064 31.423 69.6065 30.6518 69.6065 27.9148V27.8694C69.6065 25.3592 71.6181 23.7109 74.4465 23.7109C76.4582 23.7109 78.1824 24.346 79.5739 25.465L78.0009 27.7484C76.7758 26.9016 75.5809 26.3875 74.4163 26.3875C73.2516 26.3875 72.6466 26.9167 72.6466 27.5972V27.6426C72.6466 28.5499 73.2365 28.8523 75.6263 29.4572C78.4244 30.183 80.0125 31.1962 80.0125 33.6005V33.6459C80.0125 36.3829 77.9253 37.9253 74.9456 37.9253C72.813 37.9102 70.7106 37.1692 69.0469 35.7024Z" fill="white"/>
<path d="M84.3669 26.7052H80.1621V23.8926H91.6118V26.7052H87.407V37.7138H84.3669V26.7052Z" fill="white"/>
<path d="M89.7363 32.4815C89.7363 30.9542 90.9917 29.5781 92.6555 29.5781C94.1075 29.5781 95.1208 30.5459 95.1208 31.8161C95.1208 33.3434 93.8655 34.7195 92.2017 34.7195C90.7346 34.7195 89.7363 33.7517 89.7363 32.4815ZM93.442 31.9673C93.442 31.4381 93.1243 31.0298 92.5345 31.0298C91.8387 31.0298 91.4001 31.7103 91.4001 32.3303C91.4001 32.8595 91.7177 33.2678 92.3076 33.2678C92.9882 33.2678 93.442 32.5873 93.442 31.9673Z" fill="white"/>
<path d="M96.2255 29.6689H100.37L99.9765 31.0904H97.496L97.3297 31.7255H99.6287L99.2808 33.0108H96.9818L96.5432 34.6288H94.8945L96.2255 29.6689Z" fill="white"/>
<path d="M52.1973 40.2987C52.1973 40.0568 52.1822 39.8904 52.0914 39.7846C51.5772 39.1495 49.6412 39.2251 48.7639 39.3158C47.9926 39.3763 48.0379 39.7543 48.0379 40.1021V44.6689H45.149V40.3138C45.149 40.0719 45.1339 39.9056 45.028 39.7997C44.6953 39.3914 43.8029 39.2856 42.9559 39.2705C42.1543 39.2705 41.3224 39.3461 40.1275 39.83C40.0519 39.8753 39.9612 39.8904 39.9763 40.0114C39.9763 40.2382 40.1275 40.9792 40.1427 41.0397C40.1578 41.1002 40.2183 41.1909 40.3544 41.1455C40.4603 41.1304 40.5662 41.1002 40.6569 41.0699C40.7779 41.0548 40.9594 41.0094 40.9594 41.2363V50.3395C40.9594 50.5663 40.9745 50.7327 41.0804 50.8385C41.5947 51.4736 43.5155 51.4131 44.4079 51.3375C45.149 51.2619 45.1339 50.8839 45.1339 50.5361V46.1962H48.0228V50.3395C48.0228 50.5663 48.0379 50.7327 48.1287 50.8385C48.6429 51.4736 50.5638 51.4131 51.4562 51.3375C52.2276 51.2619 52.1822 50.8839 52.1822 50.5361V40.2987H52.1973Z" fill="white"/>
<path d="M97.7693 41.6448C99.0095 41.6448 100.023 40.8131 100.023 39.8302C100.023 38.8171 99.0095 38.0156 97.7693 38.0156C96.529 38.0156 95.5156 38.8171 95.5156 39.8302C95.5156 40.8283 96.529 41.6448 97.7693 41.6448Z" fill="white"/>
<path d="M102.412 47.9656C102.396 47.9656 102.351 47.9656 102.351 47.9808C101.837 48.4193 101.035 48.9486 100.521 48.9486C100.128 48.9486 99.795 48.6764 99.795 47.8296V43.9735C99.795 43.7316 99.7799 43.5804 99.6891 43.4594C99.19 42.8394 97.2993 42.4462 96.4221 42.4462H96.3616C95.6356 42.4614 95.6356 42.8394 95.6356 43.1872V48.011C95.1213 48.4647 94.35 49.1451 93.866 49.1451C93.4727 49.1451 93.1399 48.9637 93.1399 48.1169V43.7769C93.1399 43.535 93.1248 43.3838 93.0341 43.2628C92.5349 42.6428 90.6443 42.2497 89.7671 42.2497H89.7066C88.9806 42.2648 88.9806 42.6428 88.9806 42.9906V48.4949C88.9806 48.6008 88.9806 48.7217 88.9957 48.8276C88.8293 48.8881 88.6781 48.9334 88.5419 48.9334C88.1487 48.9334 87.8159 48.6612 87.8159 47.8144V43.0057C87.8159 42.8243 87.6647 42.7033 87.4832 42.6731C86.3034 42.4916 85.2749 42.3706 84.322 42.3706C81.2668 42.3706 79.3459 43.2174 78.3779 44.5935C79.2098 42.2043 77.6065 42.295 77.0771 42.2497C76.9259 42.2345 76.7293 42.3253 76.7444 42.537C76.7898 43.2174 76.4116 44.3062 76.0789 45.032L74.8537 47.512C74.8537 47.512 73.7799 45.3194 72.9934 43.7316C72.4337 42.5823 71.8439 42.4765 71.4809 42.4765C71.1481 42.4765 70.9212 42.5521 70.6944 43.4443C70.4524 44.3516 69.6205 46.6501 69.1819 47.512L66.9131 42.8848C66.8072 42.6731 66.7316 42.537 66.6106 42.4765C65.8695 42.1438 63.9032 42.6428 63.1621 43.036C62.4966 43.3838 62.7083 43.7316 62.8747 44.0643L64.8712 48.1622C64.3721 48.5403 63.7217 48.9334 63.2831 48.9334C62.8898 48.9334 62.5571 48.6612 62.5571 47.8144V43.0057C62.5571 42.8243 62.4058 42.7033 62.2243 42.6731C61.0446 42.4916 60.0161 42.3706 59.0632 42.3706C54.3744 42.3706 52.3477 44.3667 52.3477 47.1793C52.3477 49.7802 53.5274 51.247 55.4634 51.247C57.3843 51.247 57.9591 49.9012 58.5187 49.1754C58.7304 50.0978 59.2598 51.247 60.8933 51.247C62.4361 51.247 63.994 50.5061 65.2493 49.0242C65.2493 49.009 65.2493 49.009 65.2645 48.9939L66.3081 51.1261C66.3686 51.2319 66.3837 51.3075 66.5501 51.3075C66.7316 51.2924 68.8037 51.0958 69.2575 51.0051C69.3785 50.9597 69.4087 50.9446 69.4843 50.8388C69.4995 50.7783 70.1196 49.4929 70.7095 48.3437L71.9951 51.1261C72.0405 51.2319 72.0556 51.3075 72.2371 51.3075C72.4035 51.2924 74.4605 51.0958 74.9142 51.0051C75.0352 50.9597 75.0806 50.9446 75.1411 50.8388C75.1865 50.7329 75.8218 49.5383 75.8218 49.5383C76.8503 47.5725 77.5158 46.3779 77.6821 46.0754C77.6973 46.0603 77.6973 46.0301 77.7124 46.015C77.6216 46.393 77.5763 46.771 77.5763 47.1944C77.5763 49.7954 78.756 51.2622 80.692 51.2622C82.6129 51.2622 83.1877 49.9163 83.7473 49.1905C83.959 50.1129 84.4884 51.2622 86.1219 51.2622C87.1807 51.2622 88.2546 50.9144 89.2226 50.2037C89.5553 51.0505 90.2208 51.7158 91.4611 51.7158C92.9433 51.7158 94.471 50.5817 95.6961 49.1603C95.923 50.249 96.5885 51.2622 98.1161 51.2622C99.6437 51.2622 101.186 50.5212 102.457 49.0393L102.472 48.9788V48.0715C102.517 48.011 102.472 47.9656 102.412 47.9656ZM58.4431 48.0715C58.0044 48.51 57.6112 48.6461 57.3087 48.6461C56.991 48.6461 56.023 48.5705 56.023 46.5745C56.023 44.5935 56.9305 43.7921 58.4431 43.7921V48.0715ZM83.6868 48.0715C83.2482 48.51 82.8549 48.6461 82.5524 48.6461C82.2348 48.6461 81.2668 48.5705 81.2668 46.5745C81.2668 44.5935 82.1743 43.7921 83.6868 43.7921V48.0715Z" fill="white"/>
<path d="M91.1286 41.4632C92.3689 41.4632 93.3823 40.6315 93.3823 39.6486C93.3823 38.6354 92.3689 37.834 91.1286 37.834C89.8884 37.834 88.875 38.6354 88.875 39.6486C88.875 40.6315 89.8884 41.4632 91.1286 41.4632Z" fill="white"/>
<path d="M86.5916 76.5917C86.5614 76.5917 86.5463 76.5917 86.516 76.6068C86.1076 76.9244 85.3514 77.3175 84.9733 77.3175C84.701 77.3175 84.3834 77.1209 84.5044 76.5161L84.9884 73.7488H86.1984C86.2438 73.7488 86.3043 73.7034 86.3043 73.6581L86.4555 72.8566C86.4706 72.7961 86.4253 72.7508 86.3799 72.7508H85.1699L85.3665 71.6469C85.4119 71.3747 85.5026 71.0723 84.943 71.0572C84.338 71.042 83.4305 71.3596 82.9314 71.7981C82.9011 71.8435 82.8558 71.8888 82.7953 72.0098L82.4625 72.7659H81.6004C81.5399 72.7659 81.4945 72.8113 81.4794 72.8718L81.3281 73.6732C81.3281 73.7186 81.3584 73.7639 81.4189 73.7639H81.9785L81.4643 76.6975C81.2828 77.7107 81.4945 79.0111 82.9616 79.0111C84.0809 79.0111 85.3968 78.4668 86.5009 77.3931C86.516 77.378 86.5311 77.3629 86.5311 77.3478L86.6521 76.6824C86.6521 76.6219 86.6219 76.5917 86.5916 76.5917Z" fill="white"/>
<path d="M69.7115 70.044C69.4846 69.7114 68.7737 69.7114 68.5468 69.6962C68.4561 69.6811 68.2897 69.7567 68.2746 69.9079C68.2141 70.407 67.8208 71.2235 67.4881 71.783L65.0076 76.0927L64.0396 70.6338C63.9791 70.3162 63.7371 70.1801 63.5707 70.1801C63.4043 70.1801 63.1774 70.3011 63.0262 70.5733C62.7388 71.1782 62.3153 71.9645 61.9977 72.5391L60.1222 76.0776L58.7912 70.3918C58.7458 70.2406 58.7004 70.1348 58.6097 70.1045C58.1106 69.8475 56.598 70.2104 55.993 70.4977C55.4485 70.7547 55.5695 71.0269 55.6452 71.2689L57.7324 78.86C57.7475 78.9356 57.7476 78.9961 57.8837 78.9961C58.0047 78.9809 59.6684 78.8448 60.0163 78.7692C60.0919 78.739 60.1222 78.7239 60.1827 78.6483C60.1978 78.618 60.8331 77.499 61.6196 76.2288C61.7103 76.0776 61.7859 75.9264 61.8918 75.7751L62.5876 78.86C62.6178 78.9356 62.6178 78.9961 62.7388 78.9961C62.8749 78.9809 64.5236 78.8448 64.8715 78.7692C64.9622 78.739 64.9925 78.7239 65.053 78.6483C65.0681 78.618 65.7185 77.499 66.4898 76.2288C67.5788 74.4596 68.7132 72.645 68.8191 72.4937C69.8627 71.0874 69.9535 70.3918 69.7115 70.044Z" fill="white"/>
<path d="M78.4533 72.1602C76.956 74.8368 75.3981 76.4699 73.7343 77.347C73.3259 77.5284 72.9176 77.6645 72.5092 77.7401C70.7396 78.0728 70.1799 77.4226 70.4673 76.0919C70.7396 74.7612 71.4504 74.4738 71.9496 74.4134C72.4487 74.3529 72.7209 74.6704 72.6453 75.0636C72.5697 75.5021 71.6773 75.8802 70.7244 76.0465C70.6942 76.0616 70.6639 76.0919 70.6488 76.1221C70.6186 76.2431 70.5883 76.5606 70.5883 76.6665C70.5883 76.7119 70.6186 76.7421 70.6488 76.7421C72.3428 76.727 74.7326 76.107 74.8536 74.1563C74.8838 73.6724 74.6721 72.4022 72.1764 72.4022C70.8454 72.4022 69.2875 72.9314 68.2439 74.0656C67.3364 75.0636 67.2305 76.228 67.3213 76.9084C67.5633 78.5718 69.1817 78.9347 70.6186 78.9801C72.1462 79.0103 73.5074 78.6021 75.0351 77.4679C76.0485 76.7421 77.0316 75.8197 77.9088 74.7158C78.3172 75.3358 78.65 75.9406 78.6953 76.5001C78.7861 77.4226 78.4836 77.846 77.9391 77.846C77.6517 77.846 77.1828 77.6343 76.8198 77.0748C76.7745 77.0143 76.7291 77.0143 76.6383 77.0294C76.5324 77.0596 76.0636 77.1806 76.0182 77.226C75.9728 77.2562 75.9274 77.3016 75.9728 77.3923C76.593 78.466 77.561 78.9045 78.3626 78.9801C79.739 79.1313 80.3591 78.5416 80.7221 78.1333C82.6732 75.9255 79.3155 72.6592 78.9978 72.3114C78.7105 72.009 78.5441 72.0544 78.4533 72.1602Z" fill="white"/>
<path d="M44.6951 92.5441C45.0278 91.5763 45.2093 90.9412 45.5421 89.928C45.7084 89.4441 45.5723 89.2022 45.2093 89.0963L45.0581 89.051C44.9976 88.9754 45.0127 88.7939 45.0732 88.7637C45.3001 88.7788 45.9504 88.7939 46.1622 88.7939C46.4042 88.7939 46.6008 88.7788 46.7974 88.7637C46.8579 88.809 46.8731 88.9905 46.8126 89.051L46.6008 89.1115C46.4496 89.1568 46.3588 89.2173 46.3134 89.2929C46.2378 89.429 46.1168 89.6861 45.9353 90.2153C45.5874 91.1983 44.9976 93.2699 44.5741 94.3587C44.5287 94.4041 44.4077 94.4192 44.2867 94.4192C44.1959 94.4192 44.1052 94.3889 44.0598 94.3587C43.9842 94.1621 43.8934 93.8597 43.8027 93.6177L43.5153 92.8314C43.4246 92.5592 43.0313 91.3495 42.9708 91.2134C42.9103 91.3495 41.8364 94.1167 41.7003 94.3889C41.6549 94.4343 41.549 94.4494 41.4129 94.4494C41.3222 94.4494 41.2465 94.4192 41.186 94.3889C41.0802 94.0411 40.7928 93.285 40.5659 92.6651L39.6282 89.6861C39.4467 89.1871 39.4013 89.1417 39.1744 89.0963L39.008 89.051C38.9475 88.9603 38.9627 88.7939 39.0383 88.7637C39.2954 88.7788 39.5828 88.7939 39.9307 88.7939C40.46 88.7939 41.2163 88.7788 41.4734 88.7637C41.5339 88.7939 41.549 89.0056 41.4885 89.051L41.3675 89.0812C41.2465 89.1115 40.8684 89.3837 40.9894 89.6256C40.9894 89.6256 41.8515 92.4382 41.9423 92.6348C42.0179 92.4836 42.7137 90.5934 42.6834 90.5027L42.4112 89.5802C42.2448 89.1568 42.1994 89.1115 41.9423 89.0661L41.8667 89.051C41.791 88.9905 41.8062 88.7939 41.8818 88.7637C42.1843 88.7788 42.4414 88.7939 42.759 88.7939C43.1069 88.7939 44.0901 88.7788 44.2716 88.7637C44.3472 88.7939 44.3472 89.0207 44.3018 89.051C44.3018 89.051 43.6666 89.3534 43.6968 89.4441C43.6968 89.4593 44.6497 92.4382 44.6951 92.5441Z" fill="#1F3077"/>
<path d="M47.1763 91.9998C46.9796 91.9998 46.9645 92.0149 46.9645 92.1813C46.9645 92.9071 47.388 93.6178 48.1896 93.6178C48.4316 93.6178 48.7644 93.5573 49.0064 93.1188C49.0971 93.1037 49.2333 93.1793 49.2333 93.3456C48.8703 94.1622 48.235 94.4495 47.7056 94.4495C46.5259 94.4495 45.8906 93.5271 45.8906 92.4837C45.8906 91.274 46.6923 90.3213 47.7813 90.3213C48.6888 90.3213 49.1728 90.9715 49.1728 91.7125C49.1728 91.8939 49.1274 92.03 48.8551 92.03H47.1763V91.9998ZM47.751 91.5764C47.872 91.5764 48.0081 91.5613 48.114 91.4857C48.1594 91.4554 48.1745 91.3647 48.1745 91.2588C48.1745 90.9413 48.0081 90.7296 47.7056 90.7296C47.3426 90.7296 47.025 91.1227 47.025 91.4252C47.025 91.5613 47.146 91.5764 47.4334 91.5764H47.751Z" fill="#1F3077"/>
<path d="M49.7459 94.1319C49.6551 93.9354 49.5946 93.4817 49.6097 93.0432C49.6551 92.9525 49.8517 92.9373 49.9122 93.0281C50.0332 93.4212 50.3509 93.9959 50.8046 93.9959C51.0617 93.9959 51.2584 93.8144 51.2584 93.4968C51.2584 93.1339 50.9861 92.9373 50.6836 92.771C50.1542 92.4837 49.7761 92.1359 49.7761 91.5613C49.7761 90.7145 50.4114 90.3213 51.1676 90.3213C51.6063 90.3213 51.9995 90.4423 52.1054 90.5179C52.1961 90.7296 52.2415 91.1227 52.2415 91.4857C52.2113 91.5915 51.9844 91.5915 51.939 91.531C51.7575 90.9715 51.5457 90.7749 51.2584 90.7749C51.0012 90.7749 50.8197 90.9413 50.8197 91.1983C50.8197 91.4252 50.9861 91.6066 51.3794 91.8183C51.9693 92.1359 52.3474 92.5442 52.3474 93.1642C52.3323 94.0261 51.6819 94.4646 50.85 94.4646C50.3357 94.4193 49.9879 94.3285 49.7459 94.1319Z" fill="#1F3077"/>
<path d="M54.3149 90.9567C54.1939 90.9567 54.194 90.9719 54.194 91.1836V92.6352C54.194 93.1796 54.1939 93.7694 54.7989 93.7694C54.92 93.7694 55.0561 93.7089 55.162 93.6181C55.2527 93.6484 55.2981 93.7542 55.283 93.8752C55.041 94.1625 54.5721 94.4347 54.0276 94.4347C53.3016 94.4347 53.0444 93.9659 53.0444 93.3308V91.1836C53.0444 90.987 53.0293 90.9567 52.8781 90.9567H52.6058C52.5151 90.9114 52.4848 90.7299 52.5604 90.6543C52.8327 90.5485 53.0596 90.246 53.2562 90.0948C53.5436 89.5958 53.6494 89.4899 53.9217 89.0665C53.9822 89.0212 54.1334 89.0363 54.1788 89.1119V90.2309C54.1788 90.4124 54.1939 90.4275 54.3452 90.4275H55.1166C55.1619 90.4728 55.1922 90.5182 55.1922 90.6089C55.1922 90.7148 55.162 90.8963 55.0712 90.9416H54.3149V90.9567Z" fill="#1F3077"/>
<path d="M59.3056 91.6069C58.9879 91.6069 58.9879 91.6069 58.9879 91.8489V93.0737C58.9879 93.86 59.0333 93.9205 59.3812 93.9961L59.6232 94.0264C59.6837 94.0718 59.6837 94.2683 59.6232 94.3288C59.1846 94.3137 58.8064 94.2986 58.4586 94.2986C58.0956 94.2986 57.7023 94.3137 57.309 94.3288C57.2485 94.2835 57.2485 94.0869 57.309 94.0264L57.4905 93.9961C57.8384 93.9205 57.8838 93.86 57.8838 93.0737V89.9133C57.8838 89.127 57.8384 89.0665 57.4905 88.9909L57.309 88.9606C57.2485 88.9153 57.2485 88.7187 57.309 88.6582C57.6872 88.6733 58.0804 88.6884 58.4586 88.6884C58.8064 88.6884 59.1846 88.6733 59.5173 88.6582C59.5778 88.7036 59.5778 88.9002 59.5173 88.9606L59.3509 88.9909C59.0333 89.0665 58.9879 89.127 58.9879 89.9133V90.8962C58.9879 91.1382 59.0031 91.1533 59.3056 91.1533H60.8937C61.2113 91.1533 61.2113 91.1382 61.2113 90.8962V89.9133C61.2113 89.127 61.1659 89.0665 60.8181 88.9909L60.6063 88.9606C60.5458 88.9153 60.5458 88.7187 60.6063 88.6582C61.0298 88.6733 61.4079 88.6884 61.7709 88.6884C62.1491 88.6884 62.4969 88.6733 62.8448 88.6582C62.9053 88.7036 62.9053 88.9002 62.8448 88.9606L62.6936 88.9909C62.3457 89.0665 62.3003 89.127 62.3003 89.9133V93.0737C62.3003 93.86 62.3457 93.9205 62.6936 93.9961L62.8751 94.0264C62.9356 94.0718 62.9356 94.2683 62.8751 94.3288C62.4969 94.3137 62.1188 94.2986 61.7558 94.2986C61.3777 94.2986 60.9996 94.3137 60.6214 94.3288C60.5609 94.2835 60.5609 94.0869 60.6214 94.0264L60.7878 93.9961C61.1357 93.9205 61.1811 93.86 61.1811 93.0737V91.8489C61.1811 91.6069 61.1811 91.6069 60.8634 91.6069H59.3056Z" fill="#1F3077" stroke="#1F3077" stroke-width="0.0615656" stroke-miterlimit="10"/>
<path d="M66.4601 92.967C66.4299 93.6173 66.4752 93.8592 66.6416 93.8592C66.7475 93.8592 66.8382 93.829 66.9744 93.7383C67.05 93.7534 67.1105 93.8743 67.0802 93.9651C66.9744 94.1163 66.7626 94.4187 66.2635 94.4187C65.961 94.4187 65.7644 94.2978 65.5223 94.086C65.4618 94.0256 65.4316 94.0104 65.3862 94.0104C65.3408 94.0104 65.2955 94.0558 65.2047 94.1163C65.0535 94.2373 64.7812 94.4187 64.4636 94.4187C63.9645 94.4187 63.4805 94.086 63.4805 93.4056C63.4805 92.9066 63.7527 92.6192 64.388 92.4075C64.7207 92.2866 64.9627 92.211 65.2047 92.1354C65.356 92.09 65.4013 92.0144 65.4165 91.9388C65.4316 91.8329 65.4316 91.7271 65.4316 91.6061C65.4316 91.2432 65.2955 90.7744 64.9325 90.7744C64.7207 90.7744 64.5392 90.9105 64.4787 91.3188C64.4636 91.47 64.4938 91.6968 64.4031 91.7573C64.267 91.8632 64.1006 91.8329 63.9493 91.8329C63.7981 91.8329 63.5863 91.5305 63.5863 91.3944C63.5863 91.1373 63.7073 91.0466 63.9191 90.8651C64.2216 90.6081 64.7661 90.2754 65.3862 90.2754C66.1274 90.2754 66.5509 90.6837 66.5055 91.6817L66.4601 92.967ZM65.4165 92.71C65.4316 92.5588 65.4165 92.5285 65.356 92.5285C64.9627 92.589 64.6148 92.7553 64.6148 93.209C64.6148 93.5114 64.8266 93.5719 65.0686 93.5719C65.3409 93.5719 65.3862 93.6173 65.3862 93.3148L65.4165 92.71Z" fill="#1F3077"/>
<path d="M75.6105 92.967C75.5802 93.6173 75.6256 93.8592 75.792 93.8592C75.8979 93.8592 75.9886 93.829 76.1248 93.7383C76.2004 93.7534 76.2609 93.8743 76.2306 93.9651C76.1247 94.1163 75.913 94.4187 75.4139 94.4187C75.1114 94.4187 74.9147 94.2978 74.6727 94.086C74.6122 94.0256 74.582 94.0104 74.5366 94.0104C74.4912 94.0104 74.4459 94.0558 74.3551 94.1163C74.2039 94.2373 73.9316 94.4187 73.614 94.4187C73.1149 94.4187 72.6309 94.086 72.6309 93.4056C72.6309 92.9066 72.9031 92.6192 73.5384 92.4075C73.8711 92.2866 74.1131 92.211 74.3551 92.1354C74.5064 92.09 74.5517 92.0144 74.5669 91.9388C74.582 91.8329 74.582 91.7271 74.582 91.6061C74.582 91.2432 74.4459 90.7744 74.0829 90.7744C73.8711 90.7744 73.6896 90.9105 73.6291 91.3188C73.614 91.47 73.6442 91.6968 73.5535 91.7573C73.4174 91.8632 73.251 91.8329 73.0997 91.8329C72.9485 91.8329 72.7367 91.5305 72.7367 91.3944C72.7367 91.1373 72.8577 91.0466 73.0695 90.8651C73.372 90.6081 73.9165 90.2754 74.5366 90.2754C75.2777 90.2754 75.7012 90.6837 75.6559 91.6817L75.6105 92.967ZM74.5517 92.71C74.5669 92.5588 74.5517 92.5285 74.4912 92.5285C74.098 92.589 73.7501 92.7553 73.7501 93.209C73.7501 93.5114 73.9619 93.5719 74.2039 93.5719C74.4761 93.5719 74.5215 93.6173 74.5215 93.3148L74.5517 92.71Z" fill="#1F3077"/>
<path d="M98.3898 92.967C98.3595 93.6173 98.4049 93.8592 98.5713 93.8592C98.6772 93.8592 98.7679 93.829 98.904 93.7383C98.9797 93.7534 99.0402 93.8743 99.0099 93.9651C98.904 94.1163 98.6923 94.4187 98.1932 94.4187C97.8907 94.4187 97.694 94.2978 97.452 94.086C97.3915 94.0256 97.3613 94.0104 97.3159 94.0104C97.2705 94.0104 97.2252 94.0558 97.1344 94.1163C96.9832 94.2373 96.7109 94.4187 96.3933 94.4187C95.8942 94.4187 95.4102 94.086 95.4102 93.4056C95.4102 92.9066 95.6824 92.6192 96.3177 92.4075C96.6504 92.2866 96.8924 92.211 97.1344 92.1354C97.2857 92.09 97.331 92.0144 97.3462 91.9388C97.3613 91.8329 97.3613 91.7271 97.3613 91.6061C97.3613 91.2432 97.2252 90.7744 96.8622 90.7744C96.6504 90.7744 96.4689 90.9105 96.4084 91.3188C96.3933 91.47 96.4235 91.6968 96.3328 91.7573C96.1967 91.8632 96.0303 91.8329 95.879 91.8329C95.7278 91.8329 95.516 91.5305 95.516 91.3944C95.516 91.1373 95.637 91.0466 95.8488 90.8651C96.1513 90.6081 96.6958 90.2754 97.3159 90.2754C98.057 90.2754 98.4805 90.6837 98.4352 91.6817L98.3898 92.967ZM97.3462 92.71C97.3613 92.5588 97.3462 92.5285 97.2857 92.5285C96.8924 92.589 96.5445 92.7553 96.5445 93.209C96.5445 93.5114 96.7563 93.5719 96.9983 93.5719C97.2705 93.5719 97.3159 93.6173 97.3159 93.3148L97.3462 92.71Z" fill="#1F3077"/>
<path d="M69.394 90.2304C69.9385 90.2304 70.3772 90.2153 70.9368 90.2002C71.0275 90.2153 71.0275 90.5026 70.967 90.5329L70.8309 90.5631C70.6343 90.6085 70.5133 90.6538 70.5133 90.7143C70.5133 90.7899 70.5284 90.8504 70.5889 91.0168C70.7402 91.4855 70.9973 92.1055 71.1788 92.5743C71.3905 92.0148 71.5267 91.546 71.6628 91.0924C71.7082 90.926 71.7384 90.7899 71.7384 90.7143C71.7384 90.669 71.6628 90.6236 71.5267 90.5782L71.3754 90.5329C71.33 90.4724 71.33 90.2304 71.4057 90.2002C71.693 90.2153 71.9048 90.2304 72.1165 90.2304C72.3737 90.2304 72.6005 90.2153 72.782 90.2002C72.8577 90.2456 72.8728 90.4573 72.8123 90.5329L72.6913 90.5631C72.4039 90.6236 72.3434 90.7295 72.2073 91.0772C71.7989 92.0602 71.4057 93.1187 71.0427 94.1469C70.9973 94.2074 70.9217 94.2074 70.846 94.2074C70.7704 94.2074 70.6948 94.1923 70.6494 94.1469C70.4679 93.6328 70.0142 92.4987 69.757 91.8787C69.5302 92.3777 69.0008 93.663 68.8042 94.1469C68.7588 94.2074 68.6832 94.2074 68.6075 94.2074C68.5319 94.2074 68.4563 94.1923 68.4109 94.1469C67.9874 93.0582 67.5639 91.9392 67.1404 90.9412C67.0194 90.6538 66.9287 90.6085 66.7774 90.5782L66.6261 90.5329C66.5656 90.4573 66.5656 90.2456 66.6564 90.2002C67.0194 90.2153 67.2917 90.2304 67.6547 90.2304H69.394ZM69.152 90.6387C69.031 90.6085 68.8949 90.5934 68.7285 90.5934C68.4563 90.5934 68.2899 90.6387 68.2899 90.7446C68.2899 90.8051 68.3202 90.9109 68.3655 91.0621C68.4865 91.3948 68.8344 92.2719 68.9857 92.5743C69.1067 92.3172 69.4092 91.6216 69.4545 91.425C69.4848 91.3041 69.4848 91.2133 69.4848 91.1377C69.4848 90.9714 69.3335 90.669 69.152 90.6387Z" fill="#1F3077"/>
<path d="M77.9994 93.1638C77.9994 93.8442 78.0297 93.9199 78.317 93.9501L78.4834 93.9652C78.559 94.0257 78.559 94.2525 78.4683 94.2979C78.1658 94.2828 77.8179 94.2677 77.4247 94.2677C77.0314 94.2677 76.6684 94.2828 76.381 94.2979C76.3054 94.2374 76.3054 94.0106 76.3659 93.9652L76.5323 93.9501C76.8197 93.9047 76.8499 93.8291 76.8499 93.1638V91.7121C76.8499 91.3189 76.8499 91.2131 76.6835 91.0921L76.4869 90.8199C76.4264 90.7594 76.4264 90.5931 76.4869 90.5326C76.8953 90.4116 77.591 90.3209 77.8482 90.1546C77.9238 90.1546 77.9692 90.1848 77.9994 90.2453C77.9843 90.5326 77.9692 90.956 77.9692 91.3945V93.1638H77.9994ZM78.1053 89.1868C78.1053 89.6858 77.7574 89.9277 77.4095 89.9277C77.0012 89.9277 76.7592 89.6253 76.7592 89.2019C76.7592 88.7634 77.0768 88.4609 77.4549 88.4609C77.8482 88.4609 78.1053 88.7785 78.1053 89.1868Z" fill="#1F3077"/>
<path d="M80.3744 93.1638C80.3744 93.8442 80.4047 93.9199 80.692 93.9501L80.8584 93.9652C80.934 94.0257 80.934 94.2525 80.8433 94.2979C80.5408 94.2828 80.1929 94.2677 79.7997 94.2677C79.4064 94.2677 79.0434 94.2828 78.756 94.2979C78.6804 94.2374 78.6804 94.0106 78.7409 93.9652L78.9073 93.9501C79.1947 93.9047 79.2249 93.8291 79.2249 93.1638V91.7121C79.2249 91.3189 79.1493 91.0467 78.9829 90.9106L78.8619 90.8199C78.8014 90.7594 78.8014 90.5931 78.8619 90.5326C79.2703 90.4116 79.966 90.3209 80.2232 90.1546C80.2988 90.1546 80.3442 90.1848 80.3744 90.2453C80.3593 90.5326 80.3442 90.956 80.3442 91.3945V93.1638H80.3744ZM80.4803 89.1868C80.4803 89.6858 80.1324 89.9277 79.7845 89.9277C79.3762 89.9277 79.1342 89.6253 79.1342 89.2019C79.1342 88.7634 79.4518 88.4609 79.8299 88.4609C80.2232 88.4609 80.4803 88.7785 80.4803 89.1868Z" fill="#1F3077"/>
<path d="M84.5791 89.2476C84.5791 89.0359 84.5791 88.9906 84.3976 88.9906H83.9136C83.3388 88.9906 83.1725 89.7164 82.9456 90.3364C82.8548 90.3818 82.7036 90.3666 82.6582 90.2608C82.8246 89.6711 82.8548 88.7486 82.9153 88.416C82.9456 88.3857 82.991 88.3706 83.0212 88.3706C83.0666 88.3706 83.0968 88.3857 83.1271 88.4008C83.1725 88.552 83.1876 88.5823 83.7775 88.5823H86.6815C87.1957 88.5823 87.6343 88.5672 87.6948 88.3857C87.7251 88.3706 87.7553 88.3555 87.8007 88.3555C87.8461 88.3555 87.9066 88.3857 87.9217 88.416C87.8461 88.7033 87.7856 89.792 87.8007 90.2759C87.7553 90.3515 87.5436 90.3667 87.5133 90.3062C87.3772 89.7467 86.9537 88.9755 86.3638 88.9755H85.9101C85.7286 88.9755 85.6983 89.0057 85.6983 89.2325V93.0432C85.6983 93.8446 85.7437 93.9051 86.0916 93.9656L86.4092 94.011C86.4697 94.0563 86.4697 94.268 86.4092 94.3134C85.895 94.2983 85.5168 94.2832 85.1538 94.2832C84.7757 94.2832 84.3673 94.2983 83.8228 94.3134C83.7623 94.268 83.7623 94.0563 83.8228 94.011L84.1707 93.9656C84.5186 93.9051 84.564 93.8446 84.564 93.0432V89.2476H84.5791Z" fill="#1F3077"/>
<path d="M86.9552 92.4383C86.9401 91.0622 87.9384 90.291 88.9669 90.291C89.9954 90.291 90.918 90.9866 90.918 92.3476C90.918 93.7539 89.9803 94.4192 88.9064 94.4192C87.8779 94.4192 86.9552 93.769 86.9552 92.4383ZM88.2106 92.2266C88.2106 93.2397 88.498 93.9807 89.0123 93.9807C89.5114 93.9807 89.6626 93.3456 89.6626 92.4837C89.6475 91.5461 89.4055 90.7295 88.9064 90.7295C88.5282 90.7295 88.2106 91.1681 88.2106 92.2266Z" fill="#1F3077"/>
<path d="M94.819 92.7104C94.819 93.6177 94.8492 93.8596 95.0156 93.8445C95.0912 93.8445 95.1668 93.7991 95.182 93.7689C95.2727 93.8596 95.2727 94.1016 95.1971 94.1772C94.3652 94.2377 93.8963 94.3435 93.8661 94.3435C93.8056 94.3435 93.7451 94.283 93.73 94.2074L93.7148 93.9201C93.6997 93.8445 93.6695 93.8143 93.6392 93.8445C93.3518 94.0562 93.0191 94.3284 92.7015 94.3284C91.7486 94.3284 91.1738 93.5723 91.1738 92.5289C91.1738 91.168 92.0662 90.2909 93.1703 90.2909C93.3518 90.2909 93.5636 90.306 93.6543 90.3363C93.7148 90.306 93.7451 90.2304 93.7451 90.1548V89.7617C93.7451 89.3685 93.7451 89.2626 93.5787 89.1568L93.1401 88.8544C93.0796 88.7939 93.0796 88.6275 93.1401 88.5671C93.5031 88.4763 94.3198 88.4461 94.7282 88.2344C94.7887 88.2344 94.8341 88.2495 94.8643 88.2949C94.8492 88.688 94.8341 89.0963 94.8341 89.7012V92.7104H94.819ZM93.73 91.425C93.73 91.2738 93.6997 91.168 93.6695 91.0924C93.5636 90.8958 93.3821 90.7295 93.1855 90.7295C92.762 90.7295 92.3385 91.2436 92.3385 92.2567C92.3385 92.8918 92.5956 93.7689 93.2762 93.7689C93.3972 93.7689 93.5182 93.7235 93.6241 93.6479C93.7148 93.5874 93.73 93.4513 93.73 93.285V91.425Z" fill="#1F3077"/>
<path d="M98.9797 90.7292C98.9192 90.6687 98.9192 90.4267 99.0099 90.3965C99.3275 90.4116 99.7057 90.4267 100.159 90.4267C100.477 90.4267 100.81 90.4116 101.143 90.3965C101.233 90.4418 101.233 90.6687 101.173 90.7292L100.991 90.7745C100.749 90.835 100.734 90.8653 100.734 90.956C100.734 91.077 100.825 91.3189 100.991 91.8179C101.082 92.0901 101.279 92.6799 101.385 92.9218C101.475 92.7252 101.566 92.4984 101.657 92.2867L101.808 91.8935C101.99 91.4248 102.126 91.0316 102.126 90.9106C102.126 90.8501 102.035 90.7896 101.929 90.7745L101.763 90.7292C101.687 90.6687 101.687 90.4267 101.793 90.3965C101.99 90.4116 102.247 90.4267 102.64 90.4267C102.867 90.4267 102.958 90.4116 103.184 90.3965C103.275 90.4418 103.275 90.6838 103.2 90.7292L103.033 90.7443C102.852 90.7745 102.852 90.835 102.761 90.956C102.655 91.1072 102.443 91.5306 102.247 91.9691L101.778 93.0277C101.475 93.7233 101.339 94.2828 101.052 94.9935C100.885 95.432 100.265 95.8554 99.9779 95.8554C99.5544 95.8705 99.4788 95.5378 99.4788 95.2808C99.4788 94.9935 99.6452 94.7818 99.9325 94.7818H100.114C100.296 94.7818 100.734 94.6003 100.81 94.4037C100.855 94.2828 100.628 93.7384 100.492 93.3452L99.6603 91.4399C99.509 90.9711 99.4183 90.8048 99.1309 90.7594L98.9797 90.7292Z" fill="#1F3077"/>
<path d="M46.9636 10.4493V11.3717H49.3533V12.5815H46.9636V14.5775H45.3301V9.07324H49.6105V10.4493H46.9636Z" fill="white"/>
<path d="M51.9694 14.5926H50.3359V9.07324H51.9694V14.5926Z" fill="white"/>
<path d="M58.0951 14.5922H56.0683L54.9945 12.9591L54.5105 12.944V14.5922H52.877V9.14844L55.4331 9.16356C56.628 9.16356 57.6716 9.70794 57.6716 11.0084C57.6716 11.7645 57.2178 12.4903 56.5523 12.702L58.0951 14.5922ZM54.4953 11.7645H54.692C55.5995 11.7645 56.1288 11.704 56.1288 11.1143C56.1288 10.5094 55.5843 10.4791 54.692 10.4791H54.4953V11.7645Z" fill="white"/>
<path d="M61.8306 10.8576C61.528 10.6459 60.9079 10.3586 60.4995 10.3283C59.9853 10.2981 59.8492 10.3737 59.7735 10.6005C59.6677 10.9029 60.4088 11.1298 60.6962 11.2054L61.1197 11.3112C61.9969 11.538 62.7532 11.9766 62.7532 12.8687C62.7532 13.4131 62.5263 13.9273 62.0272 14.2902C61.528 14.6531 60.8777 14.6531 60.2424 14.6531C59.4559 14.6531 58.5182 14.2448 58.0039 13.7458L58.8509 12.7629C59.2593 13.0805 59.7433 13.3375 60.3029 13.398C60.681 13.4434 61.2255 13.4282 61.2255 13.0351C61.2255 12.6268 60.3785 12.5209 60.0307 12.4453C58.9265 12.1732 58.2762 11.7346 58.2762 10.7971C58.2762 9.67808 59.0475 9.04297 60.5298 9.04297C61.165 9.04297 62.012 9.3454 62.6624 9.73856L61.8306 10.8576Z" fill="white"/>
<path d="M66.0967 14.5926H64.4632V10.4796H62.9961V9.07324H67.7V10.4644H66.0967V14.5926Z" fill="white"/>
<path d="M70.498 9.07324H72.9937C74.3398 9.07324 75.1112 10.2074 75.1112 11.0391C75.1112 12.3395 74.0373 13.0654 73.0542 13.0654H72.1316V14.5624H70.498V9.07324ZM72.1316 11.7649H72.4038C72.9937 11.7649 73.5836 11.7649 73.5836 11.0995C73.5836 10.4039 73.0391 10.4039 72.4038 10.4039H72.1316V11.7649Z" fill="white"/>
<path d="M77.2283 13.2166H79.8299V14.5926H75.7461V9.07324H77.2283V13.2166Z" fill="white"/>
<path d="M82.0234 13.6249L81.5848 14.5775H80.0723L82.4015 9.07324H83.7628L86.1374 14.5775H84.5342L84.1258 13.6249H82.0234ZM83.0822 10.9634L82.462 12.4454H83.6872L83.0822 10.9634Z" fill="white"/>
<path d="M90.0999 11.0843C89.8579 10.676 89.4949 10.4795 89.1622 10.419C88.3303 10.2829 87.6346 10.9331 87.6346 11.7799C87.6346 12.7326 88.2244 13.2921 88.9504 13.2921C89.4798 13.2921 89.8126 13.0048 90.1453 12.657L91.2948 13.4433C90.6444 14.396 89.8882 14.6682 89.0866 14.6682C88.2093 14.6682 87.8009 14.5926 87.1506 14.0784C86.3489 13.4433 86.0918 12.6721 86.0918 11.7648C86.0918 11.0087 86.4094 10.2526 86.9993 9.70826C87.6194 9.14876 88.3303 8.98242 89.2076 8.98242C89.9487 8.98242 90.8562 9.54192 91.2494 10.1619L90.0999 11.0843Z" fill="white"/>
<path d="M93.4114 10.4187V11.2353H95.9827V12.4147H93.4114V13.2767H96.3305V14.5469H91.8535V9.17871H96.2549V10.4187H93.4114Z" fill="white"/>
<path d="M86.6521 60.2745C87.0756 59.8662 87.3328 59.3521 87.4386 58.7775C87.7865 56.9477 85.7446 56.2975 83.8691 56.237C81.4037 56.1765 80.3147 56.8873 79.9517 57.4468C79.3014 58.4297 79.5131 59.337 80.1635 60.0326C79.4072 60.335 78.9535 60.7281 78.7417 61.0608C77.1687 63.4349 79.1047 65.4007 82.523 65.4007C85.6085 65.4007 87.1815 64.1608 87.5143 62.3613C87.7109 61.3784 87.3176 60.713 86.6521 60.2745ZM82.0239 58.717C82.1146 58.2482 82.4474 57.976 83.5061 58.0063C84.3229 58.0214 84.7918 58.3238 84.701 58.7926C84.6103 59.2613 84.2775 59.5335 83.2187 59.5033C82.3869 59.4882 81.9331 59.1857 82.0239 58.717ZM84.2926 62.4671C84.1868 63.0115 83.8086 63.3442 82.5532 63.3442C81.5701 63.3442 81.0407 63.0115 81.1466 62.4671C81.2525 61.9228 81.6306 61.5901 82.886 61.5901C83.854 61.5901 84.3985 61.9228 84.2926 62.4671Z" fill="black"/>
</g>
<defs>
<clipPath id="clip0_7_121">
<rect width="141.601" height="113.896" fill="white"/>
</clipPath>
</defs>
</svg>
