<svg width="13" height="16" viewBox="0 0 13 16" fill="none" xmlns="http://www.w3.org/2000/svg">
<path fill-rule="evenodd" clip-rule="evenodd" d="M2.59079 1.1798L2.62603 8.96806C2.62603 8.99635 2.61482 9.02358 2.59454 9.04386C2.57478 9.06415 2.54756 9.07536 2.51927 9.07536H1.17451C0.681767 9.07536 0.24134 9.38285 0.0715771 9.8457C-0.0976517 10.3085 0.0395569 10.828 0.415918 11.1461C2.01532 12.5 4.60553 14.6914 5.60702 15.5386C6.04478 15.9096 6.68645 15.9096 7.1242 15.5386C8.12569 14.6914 10.7159 12.5 12.3153 11.1461C12.6917 10.828 12.8289 10.3085 12.6596 9.8457C12.4899 9.38285 12.0495 9.07536 11.5567 9.07536H10.2093C10.1506 9.07536 10.1025 9.02732 10.1025 8.9686V1.17446C10.1025 0.525836 9.57668 0 8.92806 0H3.76525C3.45242 0 3.15294 0.124383 2.93299 0.345929C2.71252 0.567474 2.58919 0.867502 2.59079 1.1798ZM5.83177 3.20788C5.55951 3.23297 5.30327 3.35201 5.10788 3.54686C4.88794 3.76734 4.76408 4.06629 4.76408 4.37753C4.76408 4.48323 4.76408 4.59214 4.76408 4.69784C4.76408 5.00907 4.88794 5.30802 5.10788 5.5285C5.32836 5.74844 5.62731 5.87229 5.93854 5.87229C6.20867 5.87229 6.52256 5.87229 6.79268 5.87229C6.82098 5.87229 6.84821 5.88351 6.86797 5.90379C6.88825 5.92355 6.89946 5.95077 6.89946 5.97906V6.29937C6.89946 6.32766 6.88825 6.35489 6.86797 6.37464C6.84821 6.39492 6.82098 6.40614 6.79268 6.40614C6.16381 6.40614 5.29792 6.40614 5.29792 6.40614C5.00324 6.40614 4.76408 6.6453 4.76408 6.93998C4.76408 7.23467 5.00324 7.47383 5.29792 7.47383H5.83177V8.00767C5.83177 8.30236 6.07093 8.54152 6.36561 8.54152C6.6603 8.54152 6.89946 8.30236 6.89946 8.00767V7.46902C7.17172 7.44393 7.42796 7.32489 7.62334 7.13003C7.84329 6.90956 7.96715 6.6106 7.96715 6.29937C7.96715 6.19367 7.96715 6.08476 7.96715 5.97906C7.96715 5.66783 7.84329 5.36888 7.62334 5.1484C7.40287 4.92845 7.10391 4.8046 6.79268 4.8046C6.52256 4.8046 6.20867 4.8046 5.93854 4.8046C5.91025 4.8046 5.88301 4.79339 5.86326 4.7731C5.84297 4.75335 5.83177 4.72613 5.83177 4.69784V4.37753C5.83177 4.34923 5.84297 4.32201 5.86326 4.30226C5.88301 4.28197 5.91025 4.27076 5.93854 4.27076H7.4333C7.72798 4.27076 7.96715 4.0316 7.96715 3.73691C7.96715 3.44223 7.72798 3.20307 7.4333 3.20307H6.89946V2.66922C6.89946 2.37454 6.6603 2.13538 6.36561 2.13538C6.07093 2.13538 5.83177 2.37454 5.83177 2.66922V3.20788Z" fill="#116029"/>
</svg>
