<svg width="93" height="111" viewBox="0 0 93 111" fill="none" xmlns="http://www.w3.org/2000/svg">
<g clip-path="url(#clip0_7_215)">
<path d="M46.5977 76.9121H60.3384V101.39H46.5977V76.9121Z" fill="#094891"/>
<path d="M18.8691 76.9121H32.748V101.39H18.8691V76.9121Z" fill="#094891"/>
<path d="M18.8691 26.5449H32.6395V51.023H18.8691V26.5449Z" fill="#094891"/>
<path d="M60.3594 26.5449H74.0311V51.023H60.3594V26.5449Z" fill="#01A0C6"/>
<path d="M32.6406 26.5459H46.6379V51.024H32.6406V26.5459Z" fill="#01A0C6"/>
<path d="M60.3594 76.9121H74.0311V101.39H60.3594V76.9121Z" fill="#01A0C6"/>
<path d="M32.7383 76.9121H46.5876V101.39H32.7383V76.9121Z" fill="#01A0C6"/>
<path d="M28.6061 43.0156C28.6061 40.9773 27.452 40.5137 26.002 40.5137H24.6309V45.5271H26.002C27.4619 45.5271 28.6061 45.0538 28.6061 43.0156Z" fill="#094891"/>
<path d="M60.3486 51.023V26.5449H46.5684L46.6769 51.023H60.3486Z" fill="#094891"/>
<path d="M18.8691 51.6221H30.0157V76.1002H18.8691V51.6221Z" fill="#094891"/>
<path d="M52.043 51.6221H63.5249V76.1002H52.043V51.6221Z" fill="#01A0C6"/>
<path d="M30.0176 51.6221H41.3614V76.1002H30.0176V51.6221Z" fill="#01A0C6"/>
<path d="M52.0436 76.1002V51.6221H41.0352L41.1141 76.1002H52.0436Z" fill="#094891"/>
<path d="M74.0311 76.1002V51.6221H63.2988L63.3777 76.1002H74.0311Z" fill="#094891"/>
<path d="M21.0553 97.1172V95.6358L26.6186 89.5458C27.2715 88.8326 27.8092 88.2126 28.2316 87.6859C28.6541 87.1537 28.9668 86.6544 29.1698 86.1881C29.3783 85.7162 29.4825 85.2224 29.4825 84.7067C29.4825 84.1142 29.3399 83.6012 29.0546 83.1677C28.7748 82.7343 28.3907 82.3996 27.9024 82.1637C27.4141 81.9278 26.8655 81.8098 26.2565 81.8098C25.6091 81.8098 25.0439 81.9442 24.5611 82.2131C24.0838 82.4764 23.7135 82.8468 23.4501 83.3241C23.1923 83.8014 23.0633 84.3611 23.0633 85.003H21.1211C21.1211 84.0154 21.3488 83.1485 21.8042 82.4024C22.2595 81.6562 22.8795 81.0746 23.6641 80.6577C24.4542 80.2407 25.3402 80.0322 26.3223 80.0322C27.3099 80.0322 28.185 80.2407 28.9476 80.6577C29.7102 81.0746 30.3083 81.637 30.7417 82.3448C31.1751 83.0525 31.3918 83.8398 31.3918 84.7067C31.3918 85.3267 31.2794 85.9329 31.0544 86.5255C30.835 87.1125 30.4509 87.7682 29.9023 88.4924C29.3591 89.2111 28.6047 90.089 27.6391 91.1259L23.8534 95.175V95.3066H31.6881V97.1172H21.0553ZM40.5845 97.3476C39.3445 97.3476 38.2884 97.0102 37.416 96.3354C36.5437 95.655 35.8771 94.6702 35.4162 93.3809C34.9553 92.0861 34.7249 90.5224 34.7249 88.6899C34.7249 86.8684 34.9553 85.313 35.4162 84.0236C35.8826 82.7288 36.5519 81.7412 37.4243 81.0609C38.3021 80.3751 39.3555 80.0322 40.5845 80.0322C41.8135 80.0322 42.8641 80.3751 43.7365 81.0609C44.6143 81.7412 45.2837 82.7288 45.7446 84.0236C46.2109 85.313 46.4441 86.8684 46.4441 88.6899C46.4441 90.5224 46.2136 92.0861 45.7528 93.3809C45.2919 94.6702 44.6253 95.655 43.7529 96.3354C42.8806 97.0102 41.8244 97.3476 40.5845 97.3476ZM40.5845 95.5371C41.8135 95.5371 42.7681 94.9445 43.4484 93.7594C44.1288 92.5744 44.4689 90.8845 44.4689 88.6899C44.4689 87.2305 44.3126 85.9878 43.9998 84.9618C43.6926 83.9358 43.2482 83.154 42.6666 82.6163C42.0905 82.0787 41.3965 81.8098 40.5845 81.8098C39.3665 81.8098 38.4146 82.4106 37.7288 83.6121C37.0429 84.8082 36.7 86.5008 36.7 88.6899C36.7 90.1493 36.8537 91.3893 37.1609 92.4098C37.4682 93.4303 37.9098 94.2066 38.4859 94.7388C39.0675 95.271 39.767 95.5371 40.5845 95.5371ZM55.4968 80.2626V97.1172H53.4558V82.4024H53.3571L49.2422 85.1346V83.0607L53.4558 80.2626H55.4968ZM26.454 125.348C25.3238 125.348 24.3252 125.147 23.4583 124.747C22.597 124.341 21.9249 123.784 21.4421 123.076C20.9592 122.363 20.7206 121.551 20.7261 120.64C20.7206 119.927 20.8605 119.269 21.1458 118.665C21.4311 118.056 21.8206 117.549 22.3144 117.143C22.8137 116.731 23.3706 116.47 23.9851 116.361V116.262C23.1785 116.053 22.5366 115.601 22.0593 114.904C21.582 114.202 21.346 113.403 21.3515 112.509C21.346 111.653 21.5628 110.888 22.0017 110.213C22.4406 109.538 23.0441 109.006 23.8122 108.617C24.5858 108.227 25.4664 108.032 26.454 108.032C27.4306 108.032 28.3029 108.227 29.071 108.617C29.8392 109.006 30.4427 109.538 30.8816 110.213C31.326 110.888 31.551 111.653 31.5564 112.509C31.551 113.403 31.3068 114.202 30.824 114.904C30.3467 115.601 29.713 116.053 28.9229 116.262V116.361C29.5319 116.47 30.0806 116.731 30.5689 117.143C31.0572 117.549 31.4467 118.056 31.7375 118.665C32.0283 119.269 32.1764 119.927 32.1819 120.64C32.1764 121.551 31.9295 122.363 31.4412 123.076C30.9584 123.784 30.2863 124.341 29.4249 124.747C28.569 125.147 27.5787 125.348 26.454 125.348ZM26.454 123.537C27.2166 123.537 27.875 123.414 28.4291 123.167C28.9833 122.92 29.4112 122.571 29.713 122.122C30.0147 121.672 30.1684 121.145 30.1738 120.541C30.1684 119.905 30.0038 119.343 29.6801 118.854C29.3563 118.366 28.9147 117.982 28.3551 117.702C27.8009 117.422 27.1672 117.282 26.454 117.282C25.7353 117.282 25.0933 117.422 24.5282 117.702C23.9686 117.982 23.5269 118.366 23.2032 118.854C22.885 119.343 22.7286 119.905 22.7341 120.541C22.7286 121.145 22.874 121.672 23.1703 122.122C23.4721 122.571 23.9028 122.92 24.4624 123.167C25.022 123.414 25.6859 123.537 26.454 123.537ZM26.454 115.538C27.0575 115.538 27.5924 115.417 28.0588 115.176C28.5306 114.934 28.901 114.597 29.1698 114.163C29.4386 113.73 29.5758 113.222 29.5813 112.641C29.5758 112.07 29.4414 111.574 29.178 111.151C28.9147 110.723 28.5498 110.394 28.0835 110.164C27.6171 109.928 27.074 109.81 26.454 109.81C25.823 109.81 25.2716 109.928 24.7998 110.164C24.328 110.394 23.9631 110.723 23.7052 111.151C23.4474 111.574 23.3212 112.07 23.3267 112.641C23.3212 113.222 23.4501 113.73 23.7135 114.163C23.9823 114.597 24.3526 114.934 24.8245 115.176C25.2963 115.417 25.8395 115.538 26.454 115.538Z" fill="white"/>
<path d="M21.2397 48.4707V32.798H26.719C27.8108 32.798 28.7112 32.9868 29.4204 33.3643C30.1295 33.7367 30.6576 34.2393 31.0045 34.8719C31.3514 35.4994 31.5249 36.1958 31.5249 36.9611C31.5249 37.6345 31.405 38.1906 31.1652 38.6293C30.9305 39.0681 30.6193 39.415 30.2316 39.6701C29.8489 39.9252 29.4331 40.114 28.9842 40.2364V40.3895C29.4638 40.4201 29.9459 40.5884 30.4305 40.8945C30.9152 41.2006 31.3208 41.6394 31.6473 42.2108C31.9738 42.7822 32.1371 43.4811 32.1371 44.3076C32.1371 45.0933 31.9585 45.7999 31.6014 46.4274C31.2443 47.055 30.6805 47.5524 29.9102 47.9197C29.1398 48.287 28.1373 48.4707 26.9027 48.4707H21.2397ZM23.1375 46.7871H26.9027C28.1424 46.7871 29.0224 46.5473 29.5428 46.0678C30.0683 45.5831 30.3311 44.9964 30.3311 44.3076C30.3311 43.7771 30.1959 43.2873 29.9255 42.8383C29.6551 42.3843 29.2699 42.022 28.7699 41.7516C28.2699 41.4761 27.6781 41.3384 26.9945 41.3384H23.1375V46.7871ZM23.1375 39.6854H26.6578C27.2292 39.6854 27.7445 39.5732 28.2036 39.3487C28.6679 39.1242 29.0352 38.8079 29.3056 38.3998C29.5811 37.9916 29.7188 37.5121 29.7188 36.9611C29.7188 36.2723 29.4791 35.6882 28.9995 35.2086C28.5199 34.7239 27.7598 34.4816 26.719 34.4816H23.1375V39.6854ZM35.2556 48.4707V32.798H44.7143V34.4816H37.1534V39.7772H44.2245V41.4608H37.1534V46.7871H44.8367V48.4707H35.2556ZM58.4926 34.7102C58.3851 33.8024 57.9491 33.0977 57.1846 32.596C56.4202 32.0943 55.4825 31.8435 54.3716 31.8435C53.5594 31.8435 52.8486 31.9749 52.2395 32.2377C51.6362 32.5004 51.1644 32.8618 50.824 33.3216C50.4895 33.7815 50.3223 34.3041 50.3223 34.8894C50.3223 35.3791 50.4388 35.8002 50.6717 36.1526C50.9106 36.499 51.2152 36.7886 51.5855 37.0216C51.9558 37.2485 52.344 37.4366 52.7501 37.586C53.1562 37.7293 53.5295 37.8458 53.8699 37.9353L55.7333 38.437C56.2111 38.5625 56.7427 38.7357 57.328 38.9566C57.9192 39.1776 58.4836 39.4792 59.0211 39.8615C59.5646 40.2377 60.0126 40.7215 60.3649 41.3128C60.7173 41.904 60.8935 42.6297 60.8935 43.4897C60.8935 44.4811 60.6337 45.377 60.1141 46.1773C59.6005 46.9776 58.8479 47.6137 57.8565 48.0855C56.8711 48.5573 55.6736 48.7932 54.2641 48.7932C52.9502 48.7932 51.8124 48.5812 50.8509 48.1572C49.8953 47.7331 49.1428 47.1418 48.5933 46.3833C48.0498 45.6248 47.7422 44.7439 47.6706 43.7405H49.964C50.0237 44.4333 50.2566 45.0067 50.6627 45.4606C51.0748 45.9085 51.5944 46.243 52.2215 46.464C52.8546 46.679 53.5355 46.7865 54.2641 46.7865C55.1122 46.7865 55.8737 46.6491 56.5486 46.3744C57.2234 46.0937 57.758 45.7055 58.1522 45.2098C58.5463 44.7081 58.7434 44.1228 58.7434 43.4539C58.7434 42.8447 58.5732 42.349 58.2328 41.9667C57.8924 41.5845 57.4444 41.2739 56.889 41.035C56.3336 40.7961 55.7333 40.5871 55.0883 40.4079L52.8307 39.7629C51.3973 39.3508 50.2626 38.7625 49.4264 37.9981C48.5903 37.2336 48.1722 36.2332 48.1722 34.9969C48.1722 33.9697 48.45 33.0738 49.0054 32.3093C49.5668 31.5389 50.3193 30.9416 51.263 30.5176C52.2126 30.0876 53.2727 29.8726 54.4433 29.8726C55.6258 29.8726 56.677 30.0846 57.5967 30.5086C58.5165 30.9267 59.2451 31.5001 59.7826 32.2287C60.3261 32.9573 60.6128 33.7845 60.6427 34.7102H58.4926ZM20.5602 63.0943V61.1234H34.3206V63.0943H28.5513V79.4707H26.3295V63.0943H20.5602Z" fill="white"/>
<path d="M20.5918 74.207V61.1263H22.1758V67.6156H22.3291L28.2052 61.1263H30.2746L24.7817 67.028L30.2746 74.207H28.3585L23.8109 68.1265L22.1758 69.966V74.207H20.5918ZM33.6713 74.207H31.3764L38.0141 56.1298H40.2738L46.9115 74.207H44.6165L39.2146 58.9897H39.0733L33.6713 74.207ZM34.5187 67.1456H43.7692V69.0875H34.5187V67.1456ZM61.5904 56.1298H63.7794V68.0989C63.7794 69.3347 63.4882 70.438 62.9056 71.4089C62.3289 72.374 61.5139 73.1361 60.4606 73.6951C59.4073 74.2482 58.1715 74.5248 56.7533 74.5248C55.3352 74.5248 54.0994 74.2482 53.0461 73.6951C51.9928 73.1361 51.1748 72.374 50.5923 71.4089C50.0156 70.438 49.7272 69.3347 49.7272 68.0989V56.1298H51.9163V67.9224C51.9163 68.805 52.1105 69.5906 52.4988 70.2791C52.8872 70.9617 53.4404 71.5002 54.1583 71.8944C54.8821 72.2828 55.7471 72.477 56.7533 72.477C57.7596 72.477 58.6246 72.2828 59.3484 71.8944C60.0722 71.5002 60.6253 70.9617 61.0078 70.2791C61.3962 69.5906 61.5904 68.805 61.5904 67.9224V56.1298ZM21.9383 104.207H19.6433L26.2811 86.1298H28.5407L35.1785 104.207H32.8835L27.4815 88.9897H27.3403L21.9383 104.207ZM22.7857 97.1456H32.0361V99.0875H22.7857V97.1456Z" fill="white"/>
<path d="M64.6931 57.6225V56.5734C64.6931 56.2547 64.7494 55.9167 64.8621 55.5592C64.9787 55.1978 65.1458 54.8501 65.3634 54.5159C65.5848 54.1778 65.851 53.8845 66.1619 53.6358L66.9079 54.242C66.6631 54.5917 66.4494 54.9569 66.2668 55.3377C66.088 55.7146 65.9987 56.1187 65.9987 56.5501V57.6225H64.6931Z" fill="white"/>
<path d="M70.127 55.1263V68.207H68.543V55.1263H70.127Z" fill="white"/>
<path d="M39.3965 49.584H53.6995V55.9981H39.3965V49.584Z" fill="#4DBDD7"/>
<path d="M41.3613 52.6751C41.3613 54.2497 42.4267 55.2253 44.0542 55.2253C45.6917 55.2253 46.7472 54.2497 46.7472 52.6751C46.7472 51.1005 45.6818 50.1152 44.0542 50.1152C42.4267 50.1152 41.3613 51.1005 41.3613 52.6751ZM44.0641 50.7914C44.8039 50.7914 45.1492 51.4 45.1492 52.6751C45.1492 53.9502 44.8039 54.5491 44.0641 54.5491C43.3243 54.5491 42.9791 53.9405 42.9791 52.6751C42.9791 51.4097 43.3144 50.7914 44.0641 50.7914Z" fill="#094891"/>
<path d="M47.8511 51.1979V54.1634C47.8511 54.347 47.7426 54.4532 47.5651 54.4532H47.1113V55.0908H50.0015V54.4532H49.5379C49.3505 54.4532 49.2519 54.347 49.2519 54.1634V52.9366H49.4787C49.9029 52.9366 50.0607 53.1298 50.0607 53.4293V53.7094H50.6822V51.5166H50.0607V51.7968C50.0607 52.1059 49.893 52.2894 49.4787 52.2894H49.2519V50.9081H49.9917C50.9386 50.9081 51.3628 51.0723 51.3628 52.1155H52.0533V50.2705H47.1113V50.9081H47.5749C47.7426 50.9081 47.8511 51.0143 47.8511 51.1979Z" fill="#094891"/>
<path d="M37.6112 1.52637C37.0292 1.52637 36.5162 1.84514 36.2598 2.31848C36.5458 2.44405 36.7826 2.64691 36.9601 2.89807H36.9799L37.0292 2.61793L37.1574 2.87875L37.4533 2.84011L37.2363 3.04297L37.3646 3.30378L37.1081 3.16854C37.2067 3.38106 37.256 3.6129 37.256 3.86406C37.256 4.07657 37.2166 4.28909 37.1377 4.47263C37.2856 4.52093 37.4435 4.54025 37.6112 4.54025C38.4595 4.54025 39.15 3.86406 39.15 3.03331C39.15 2.20256 38.4595 1.52637 37.6112 1.52637Z" fill="#BFE47F"/>
<path d="M34.327 2.83075C33.9127 3.23646 33.7844 3.81605 33.9423 4.32803C34.2382 4.22177 34.5538 4.20245 34.8596 4.25075L34.8695 4.24109L34.7018 3.99959L34.978 4.09619L35.1556 3.86435L35.1457 4.15415L35.4219 4.25075L35.1457 4.34735C35.3627 4.43428 35.5698 4.55986 35.7573 4.73374C35.9151 4.8883 36.0335 5.06218 36.1124 5.24571C36.2505 5.17809 36.3787 5.0815 36.4971 4.97524C37.0988 4.38599 37.0988 3.43932 36.5069 2.85007C35.9052 2.25115 34.9287 2.25115 34.327 2.83075Z" fill="#BFE47F"/>
<path d="M40.8971 2.81156C40.4729 2.4155 39.8811 2.29958 39.3583 2.4638C39.4767 2.74394 39.5062 3.05305 39.4569 3.35251L39.4767 3.36217L39.7134 3.19795L39.6147 3.47809L39.8515 3.65196H39.5556L39.4668 3.92244L39.378 3.65196C39.2991 3.86448 39.1709 4.077 39.0032 4.25088C38.8552 4.40543 38.6777 4.53101 38.4902 4.61795C38.5691 4.75319 38.6579 4.87877 38.7763 4.98503C39.3879 5.56462 40.3644 5.53564 40.9464 4.93673C41.5383 4.33782 41.5087 3.38149 40.8971 2.81156Z" fill="#BFE47F"/>
<path d="M42.3082 6.08589C42.3181 5.51595 41.9925 5.00398 41.5191 4.74316C41.381 5.01364 41.1738 5.25514 40.9173 5.41936V5.43867L41.2034 5.49663L40.9371 5.61255L40.9667 5.90235L40.7694 5.68983L40.5031 5.80575L40.6412 5.55459C40.4241 5.65119 40.1874 5.69949 39.9309 5.68983C39.7139 5.68983 39.4969 5.64153 39.3095 5.56425C39.2602 5.70915 39.2306 5.86371 39.2306 6.02793C39.2207 6.85868 39.8915 7.54453 40.7398 7.55419C41.598 7.58317 42.2983 6.91664 42.3082 6.08589Z" fill="#BFE47F"/>
<path d="M34.4957 4.55957C33.6474 4.55957 32.9668 5.2261 32.9668 6.05685C32.9668 6.55916 33.2134 7.00352 33.5981 7.27399C33.7165 7.01318 33.8842 6.791 34.1012 6.61712L33.8348 6.5978L34.0913 6.44325L34.0223 6.15345L34.2491 6.34665L34.5056 6.19209L34.3774 6.43358C34.6338 6.29835 34.9199 6.22107 35.2257 6.22107C35.492 6.22107 35.7485 6.27903 35.9852 6.38529C36.005 6.27903 36.0247 6.17277 36.0247 6.05685C36.0247 5.2261 35.3441 4.55957 34.4957 4.55957Z" fill="#BFE47F"/>
<path d="M35.234 6.53027C34.3857 6.53027 33.7051 7.1968 33.7051 8.02755C33.7051 8.8583 34.3857 9.52483 35.234 9.52483C35.4313 9.52483 35.6089 9.48619 35.7864 9.42824C35.7667 9.31232 35.747 9.1964 35.747 9.08048C35.747 8.93558 35.7667 8.80034 35.7963 8.66511L35.7766 8.64579L35.5201 8.79068L35.6385 8.52021L35.4116 8.32701L35.7075 8.35599L35.8259 8.08551L35.8949 8.37531H35.9048C36.0626 8.01789 36.3388 7.7281 36.6841 7.54456C36.4769 6.95531 35.9048 6.53027 35.234 6.53027Z" fill="#BFE47F"/>
<path d="M38.5108 9.03167L38.5009 9.30215L38.3332 9.06065L38.0471 9.13793L38.2346 8.90609L38.0669 8.6646L38.3431 8.77085C38.2444 8.54868 38.1852 8.30718 38.1852 8.05602C38.1852 7.93045 38.1951 7.81453 38.2247 7.68895C38.0373 7.60201 37.8203 7.55371 37.5934 7.55371C36.7451 7.55371 36.0645 8.22024 36.0645 9.05099C36.0645 9.88174 36.7451 10.5483 37.5934 10.5483C38.2642 10.5483 38.8363 10.1232 39.0434 9.53398C38.8363 9.40841 38.6489 9.23453 38.5108 9.03167Z" fill="#1D6821"/>
<path d="M41.5184 7.69849C41.2916 7.80475 41.0351 7.86271 40.7688 7.86271C40.6997 7.86271 40.6208 7.86271 40.5517 7.85305L40.7293 8.02693L40.4334 7.97863L40.2953 8.23944L40.246 7.94965L39.95 7.90135L40.2065 7.77577C39.733 7.62121 39.3483 7.27346 39.1412 6.8291C38.7565 7.09958 38.5 7.54393 38.5 8.04624C38.5 8.87699 39.1806 9.54353 40.0289 9.54353C40.8773 9.54353 41.5579 8.87699 41.5579 8.04624C41.5579 7.93033 41.548 7.81441 41.5184 7.69849Z" fill="#BFE47F"/>
<path d="M24.7294 12.471H22.2239V17.3782C22.2239 18.1317 22.2535 18.6437 22.3225 18.9045C22.3916 19.1653 22.5297 19.3778 22.7565 19.5324C22.9735 19.6869 23.2103 19.7739 23.4569 19.7739C23.9402 19.7739 24.3644 19.5034 24.7195 18.9624L25.045 19.1556C24.8379 19.5903 24.5222 19.9188 24.1178 20.141C23.7134 20.3631 23.2991 20.4694 22.8749 20.4694C22.3916 20.4694 21.9575 20.3245 21.5926 20.0444C21.2276 19.7642 20.9909 19.4358 20.9021 19.059C20.8133 18.6823 20.764 18.0254 20.764 17.0788V12.471H19.5605V12.017C20.1129 12.0073 20.6061 11.7755 21.05 11.3312C21.4841 10.8868 21.7701 10.2686 21.8885 9.4668H22.214V12.0073H24.7195" fill="#1D6821"/>
<path d="M32.1961 12.732C32.7682 12.0945 33.3502 11.7757 33.9421 11.7757C34.2676 11.7757 34.5142 11.8627 34.7016 12.0365C34.8792 12.2104 34.9679 12.3939 34.9679 12.6065C34.9679 13.0412 34.7608 13.2633 34.3564 13.2633C34.1295 13.2633 33.9421 13.1281 33.7744 12.8576C33.6264 12.6065 33.4686 12.4809 33.3107 12.4809C33.0543 12.4809 32.7682 12.6548 32.4624 12.9929C32.8175 13.5338 32.9852 14.1134 32.9852 14.722C32.9852 15.5141 32.6992 16.2193 32.1172 16.8278C31.5352 17.4461 30.5586 17.7745 29.1777 17.8228C27.7474 17.8711 27.0273 18.1512 27.0273 18.6729C27.0273 18.9144 27.1851 19.0882 27.5106 19.1848C27.8263 19.2911 28.497 19.3684 29.513 19.4263C30.6277 19.4746 31.4859 19.5809 32.0876 19.7258C32.6893 19.8707 33.1727 20.1701 33.5278 20.6242C33.8829 21.0782 34.0604 21.6095 34.0604 22.2277C34.0604 23.0971 33.6954 23.8023 32.9655 24.3432C32.2356 24.8745 31.19 25.145 29.8188 25.145C28.5661 25.145 27.5599 24.9035 26.8004 24.4302C26.0409 23.9568 25.666 23.3482 25.666 22.6238C25.666 22.218 25.7745 21.8896 25.9915 21.6288C26.2085 21.368 26.5143 21.2424 26.9089 21.2424C27.0174 21.2424 27.116 21.2617 27.2048 21.2907C26.7905 21.7447 26.5735 22.218 26.5735 22.7204C26.5735 23.2999 26.8497 23.7829 27.412 24.1597C27.9644 24.5364 28.8028 24.7296 29.9076 24.7296C30.894 24.7296 31.6634 24.5364 32.2158 24.15C32.7682 23.7636 33.0444 23.271 33.0444 22.6624C33.0444 22.0055 32.7978 21.5322 32.3046 21.2617C31.8114 21.0009 30.9335 20.8367 29.6709 20.7884C28.2208 20.7304 27.2739 20.5565 26.8399 20.2667C26.4058 19.9866 26.1888 19.6195 26.1888 19.1655C26.1888 18.2961 26.8103 17.7552 28.0433 17.533C27.4021 17.1659 26.9188 16.7409 26.5932 16.2676C26.2677 15.7942 26.1099 15.2629 26.1099 14.6737C26.1099 13.8429 26.4453 13.1474 27.1062 12.5678C27.7671 11.9882 28.5562 11.6984 29.4736 11.6984C30.608 11.6888 31.5155 12.0365 32.1961 12.732ZM27.6388 14.8959C27.6388 15.7459 27.8164 16.3738 28.1715 16.7699C28.5266 17.1659 28.9902 17.3688 29.5426 17.3688C30.0556 17.3688 30.4995 17.1756 30.8644 16.7795C31.2294 16.3835 31.4168 15.7073 31.4168 14.7316C31.4168 13.756 31.2195 13.0798 30.825 12.7031C30.4304 12.336 29.9865 12.1428 29.4933 12.1428C28.8719 12.1428 28.4083 12.3746 28.0926 12.8286C27.7967 13.2923 27.6388 13.9782 27.6388 14.8959Z" fill="#1D6821"/>
<path d="M38.7177 11.6885V17.3588C38.7177 18.2282 38.7275 18.7692 38.7571 18.9913C38.7867 19.2135 38.8853 19.3874 39.053 19.5033C39.2207 19.6192 39.5265 19.6772 39.9507 19.6772H40.1677V20.1312H35.6992V19.6772H36.0445C36.5278 19.6772 36.8336 19.6096 36.9816 19.4743C37.1295 19.3391 37.2084 19.1749 37.238 18.9913C37.2578 18.7981 37.2775 18.2572 37.2775 17.3492V14.8859C37.2775 13.9296 37.2282 13.35 37.1394 13.1375C37.0506 12.9249 36.9224 12.7897 36.7744 12.7414C36.6265 12.6931 36.3601 12.6641 35.9754 12.6641H35.6992V12.2101C36.9026 12.0942 37.8299 11.9203 38.4908 11.6885" fill="#1D6821"/>
<path d="M21.3563 21.6287L21.2379 21.6094C21.2675 21.5418 21.2379 21.4162 21.2083 21.3872C21.159 21.3293 21.0998 21.281 20.9617 21.281H20.4389V23.5028C20.4389 23.609 20.4783 23.667 20.5869 23.667H20.6658V23.7732H19.8766V23.667H19.9753C20.0542 23.667 20.0936 23.6187 20.0936 23.5028V21.281H19.561C19.4229 21.281 19.2946 21.3872 19.2453 21.6287L19.127 21.6094L19.2059 21.0974C19.2651 21.1264 19.3341 21.1264 19.4229 21.1264H21.228C21.2872 21.1264 21.3069 21.1264 21.3267 21.0781L21.4352 21.0974" fill="black"/>
<path d="M22.8752 23.7728V23.6858H22.9443C23.033 23.6858 23.0725 23.6375 23.0725 23.5506V22.6522H21.9677V23.5506C21.9677 23.6375 21.9973 23.6858 22.0762 23.6858H22.1354V23.7728H21.4844V23.6858H21.5436C21.6126 23.6858 21.6718 23.6375 21.6718 23.5506V21.7925C21.6718 21.7056 21.6126 21.6573 21.5436 21.6573H21.4844V21.5703H22.1354V21.6573H22.096C22.0269 21.6573 21.9677 21.7056 21.9677 21.7925V22.5266H23.0725V21.7925C23.0725 21.7056 23.033 21.6573 22.9541 21.6573H22.8851V21.5703H23.5263V21.6573H23.4671C23.3882 21.6573 23.3586 21.7056 23.3586 21.7925V23.5506C23.3586 23.6375 23.3882 23.6858 23.4572 23.6858H23.5164V23.7728" fill="black"/>
<path d="M25.0748 23.6188C25.0354 23.7154 24.9861 23.8603 24.9861 23.8603L24.8874 23.8409C24.8874 23.812 24.8776 23.7733 24.8381 23.7733H23.6445V23.6864H23.6939C23.7629 23.6864 23.8221 23.6381 23.8221 23.5511V21.822C23.8221 21.6964 23.7629 21.6578 23.6939 21.6578H23.6445V21.5709H24.9269C24.9762 21.5709 24.9959 21.5612 25.0058 21.5322L25.0847 21.5515L25.0157 21.9573L24.9269 21.9379C24.9367 21.909 24.9367 21.8124 24.917 21.793C24.8776 21.7447 24.8282 21.6964 24.7099 21.6964H24.1081V22.5079H24.6211C24.7 22.5079 24.7099 22.392 24.7099 22.392L24.7986 22.4113C24.7986 22.4113 24.769 22.5948 24.7592 22.6624C24.7493 22.7397 24.7296 22.8556 24.7296 22.8556L24.6309 22.8363C24.6309 22.8363 24.6507 22.73 24.6211 22.6914C24.5816 22.6431 24.552 22.6431 24.5027 22.6431H24.1081V23.6477H24.7296C24.9466 23.6477 24.9959 23.5222 25.0551 23.3676L25.1735 23.4062C25.1538 23.3966 25.1044 23.5318 25.0748 23.6188Z" fill="black"/>
<path d="M37.0496 22.701C36.9411 22.701 36.9017 22.7493 36.9017 22.8362V23.7056C36.7734 23.7056 36.6847 23.7346 36.5663 23.7732C36.369 23.8312 36.1619 23.8698 35.9547 23.8698C35.2642 23.8698 34.623 23.3868 34.623 22.4884C34.623 21.7446 35.2938 21.165 36.004 21.165C36.1619 21.165 36.3197 21.194 36.4381 21.223C36.5268 21.252 36.6057 21.281 36.6847 21.281C36.734 21.281 36.7438 21.252 36.7734 21.2037L36.8819 21.2327C36.8819 21.2327 36.8524 21.3679 36.8326 21.4548C36.803 21.5804 36.7636 21.7736 36.7636 21.7736L36.6452 21.7543C36.6452 21.7543 36.6748 21.6191 36.6353 21.5514C36.5466 21.3969 36.2704 21.3099 35.9942 21.3099C35.4911 21.3099 34.988 21.7543 34.988 22.4305C34.988 23.2709 35.4911 23.6863 36.0731 23.6863C36.2704 23.6863 36.5663 23.5993 36.5663 23.4254V22.7976C36.5663 22.7203 36.5071 22.6913 36.4381 22.6913H36.3V22.5947H37.1581V22.701" fill="black"/>
<path d="M38.4991 23.8112V23.7243H38.5878C38.6766 23.7243 38.6667 23.6663 38.647 23.618C38.5878 23.4441 38.4695 23.1253 38.4695 23.1253H37.5521C37.5521 23.1253 37.4436 23.4055 37.3745 23.618C37.3647 23.6566 37.3548 23.7146 37.4239 23.7146H37.5028V23.8015H37.0293V23.7146H37.0786C37.1674 23.7146 37.1871 23.6373 37.2069 23.589C37.2562 23.4538 37.8875 21.8599 37.9565 21.657C37.9664 21.6281 37.9664 21.5894 37.9565 21.5508H38.2031C38.2031 21.5508 38.9429 23.5021 38.9923 23.618C39.012 23.676 39.0613 23.7049 39.1205 23.7049H39.1797V23.7919M38.0354 21.9468L38.0256 21.8985L38.0157 21.9468C37.9368 22.14 37.6113 22.9998 37.6113 22.9998H38.4399C38.43 22.9998 38.0946 22.1111 38.0354 21.9468Z" fill="black"/>
<path d="M41.0938 23.8983C40.7288 23.7341 40.3047 23.3091 40.1074 22.8551H39.8213V23.5796C39.8213 23.6762 39.8707 23.7148 39.9397 23.7148H39.9989V23.8017H39.338V23.7148H39.3972C39.4662 23.7148 39.5254 23.6665 39.5254 23.5796V21.7925C39.5254 21.6959 39.4958 21.6573 39.3873 21.6573H39.3281V21.5703H40.1764C40.7584 21.5703 41.0149 21.8794 41.0149 22.1692C41.0149 22.4204 40.8373 22.7198 40.4329 22.8068C40.6105 23.1835 40.9064 23.6085 41.1333 23.8211M40.0679 21.7056H39.8213V22.7295H40.0975C40.4625 22.7295 40.7091 22.5266 40.7091 22.2175C40.7091 21.9857 40.5316 21.7056 40.0679 21.7056Z" fill="black"/>
<path d="M42.1391 23.8114H41.3105V23.7245H41.3599C41.4289 23.7245 41.498 23.6762 41.498 23.5892V21.8021C41.498 21.7056 41.4388 21.6573 41.3599 21.6573H41.3105V21.5703H42.1687C42.9283 21.5703 43.382 21.9857 43.382 22.6232C43.3919 23.3091 42.8888 23.8114 42.1391 23.8114ZM42.1687 21.7056H41.7742V23.6858H42.0109C42.731 23.6858 43.0565 23.2028 43.0565 22.6619C43.0565 22.1789 42.7507 21.7056 42.1687 21.7056Z" fill="black"/>
<path d="M44.8328 23.6565C44.7934 23.7531 44.7441 23.9077 44.7441 23.9077L44.6454 23.8884C44.6454 23.8594 44.6356 23.8207 44.5961 23.8207H43.3828V23.7338H43.442C43.511 23.7338 43.5702 23.6855 43.5702 23.5986V21.8308C43.5702 21.7052 43.5012 21.6666 43.4321 21.6666H43.3828V21.5797H44.6849C44.7441 21.5797 44.7539 21.57 44.7638 21.541L44.8427 21.5603L44.7737 21.9757L44.675 21.9564C44.6849 21.9274 44.6849 21.8308 44.6652 21.8018C44.6257 21.7439 44.5764 21.7052 44.4481 21.7052H43.8366V22.5263H44.3594C44.4383 22.5263 44.4481 22.4007 44.4481 22.4007L44.5369 22.4201C44.5369 22.4201 44.5073 22.6036 44.4975 22.6712C44.4876 22.7485 44.4679 22.8644 44.4679 22.8644L44.3692 22.8451C44.3692 22.8451 44.389 22.7388 44.3594 22.7002C44.3199 22.6519 44.2903 22.6422 44.241 22.6422H43.8366V23.6662H44.4679C44.6849 23.6662 44.7342 23.5406 44.7934 23.3861L44.9118 23.4247C44.9216 23.4344 44.8723 23.5696 44.8328 23.6565Z" fill="black"/>
<path d="M47.0228 21.667C46.9538 21.667 46.8946 21.725 46.8946 21.8023V23.7053C46.8946 23.7729 46.9143 23.8212 46.9143 23.8212H46.6579C46.6579 23.8212 45.484 22.2176 45.3163 21.9955L45.2966 21.9568V23.599C45.2966 23.6956 45.3361 23.7246 45.415 23.7246H45.4742V23.8115H44.9415V23.7246H45.0007C45.0697 23.7246 45.1289 23.6859 45.1289 23.599V21.8216C45.1289 21.7153 45.1092 21.667 45.0007 21.667H44.9316V21.5801H45.415C45.415 21.5801 45.415 21.6477 45.4544 21.696C45.6912 22.0148 46.4507 23.0774 46.6776 23.3768L46.7072 23.4348V21.8023C46.7072 21.7057 46.6776 21.667 46.5888 21.667H46.5198V21.5801H47.0327V21.667" fill="black"/>
<path d="M47.832 23.8112V23.7049H47.8912C47.98 23.7049 48.0392 23.6663 48.0392 23.5407V21.4638C48.0392 21.3576 47.9997 21.2996 47.8814 21.2996H47.832V21.1934H48.6014V21.2996H48.5324C48.414 21.2996 48.3844 21.3383 48.3844 21.4638V23.531C48.3844 23.6373 48.4436 23.7049 48.5225 23.7049H48.6014V23.8112" fill="black"/>
<path d="M49.4786 23.8603C49.1827 23.8603 49.015 23.7637 48.9361 23.7637L48.8867 23.7926L48.8966 23.8313L48.798 23.8506C48.798 23.8506 48.7585 23.6767 48.7388 23.5705C48.719 23.4642 48.6895 23.3096 48.6895 23.3096L48.798 23.2903C48.8571 23.5028 49.0446 23.7347 49.449 23.7347C49.6759 23.7347 49.9323 23.5415 49.9323 23.271C49.9323 23.0585 49.7844 22.9619 49.6364 22.8846C49.4786 22.8073 49.3405 22.7301 49.1728 22.6431C48.9656 22.5369 48.7881 22.3823 48.7881 22.1118C48.7881 21.7737 49.0939 21.5322 49.5082 21.5322C49.7745 21.5322 49.9225 21.6095 50.0408 21.5998C50.0902 21.5998 50.1 21.5805 50.1 21.5322L50.1789 21.5515L50.1 22.0249L49.9915 22.0056C49.9915 22.0056 50.0211 21.8896 49.9521 21.8027C49.8534 21.6771 49.6561 21.6675 49.5082 21.6675C49.232 21.6578 49.0643 21.8703 49.0742 22.0539C49.084 22.2084 49.1728 22.2954 49.3504 22.392C49.5476 22.4982 49.7153 22.5755 49.883 22.6624C50.031 22.7397 50.248 22.9426 50.248 23.213C50.2283 23.6188 49.883 23.8603 49.4786 23.8603Z" fill="black"/>
<path d="M51.7071 23.9081L51.6084 23.8888C51.6084 23.8598 51.5986 23.8212 51.5591 23.8212H50.3359V23.7342H50.3951C50.4642 23.7342 50.5234 23.6859 50.5234 23.599V21.7926C50.5234 21.7443 50.5036 21.667 50.4149 21.667H50.3359V21.5801H51.0264V21.667H50.9377C50.8193 21.667 50.8094 21.7057 50.8094 21.8023V23.6473C50.8094 23.6763 50.8291 23.6859 50.9179 23.6859H51.5098C51.5788 23.6859 51.6479 23.6376 51.6873 23.5893C51.7367 23.5217 51.7761 23.4058 51.7761 23.4058L51.8846 23.4444" fill="black"/>
<path d="M53.3859 23.8112V23.7243H53.4747C53.5634 23.7243 53.5536 23.6663 53.5338 23.618C53.4747 23.4441 53.3464 23.1253 53.3464 23.1253H52.4291C52.4291 23.1253 52.3205 23.4055 52.2515 23.618C52.2416 23.6566 52.2318 23.7146 52.3008 23.7146H52.3797V23.8015H51.9062V23.7146H51.9556C52.0443 23.7146 52.0641 23.6373 52.0838 23.589C52.1331 23.4538 52.7644 21.8599 52.8335 21.657C52.8433 21.6281 52.8433 21.5894 52.8335 21.5508H53.0801C53.0801 21.5508 53.8199 23.5021 53.8692 23.618C53.8889 23.676 53.9383 23.7049 53.9975 23.7049H54.0566V23.7919M52.9124 21.9468L52.9025 21.8985L52.8927 21.9468C52.8138 22.14 52.4882 22.9998 52.4882 22.9998H53.3168C53.307 22.9998 52.9716 22.1111 52.9124 21.9468Z" fill="black"/>
<path d="M56.2747 21.667C56.2057 21.667 56.1465 21.725 56.1465 21.8023V23.7053C56.1465 23.7729 56.1662 23.8212 56.1662 23.8212H55.9097C55.9097 23.8212 54.7359 22.2176 54.5682 21.9955L54.5485 21.9568V23.599C54.5485 23.6956 54.5879 23.7246 54.6668 23.7246H54.726V23.8115H54.1934V23.7246H54.2624C54.3315 23.7246 54.3906 23.6859 54.3906 23.599V21.8216C54.3906 21.7153 54.3709 21.667 54.2624 21.667H54.1934V21.5801H54.6767C54.6767 21.5801 54.6767 21.6477 54.7162 21.696C54.9529 22.0148 55.7124 23.0774 55.9393 23.3768L55.9689 23.4348V21.8023C55.9689 21.7057 55.9393 21.667 55.8505 21.667H55.7914V21.5801H56.3043V21.667" fill="black"/>
<path d="M57.3012 23.8114H56.4727V23.7245H56.522C56.591 23.7245 56.6601 23.6762 56.6601 23.5892V21.8021C56.6601 21.7056 56.6009 21.6573 56.522 21.6573H56.4727V21.5703H57.3308C58.0904 21.5703 58.5441 21.9857 58.5441 22.6232C58.5441 23.3091 58.0509 23.8114 57.3012 23.8114ZM57.3308 21.7056H56.9363V23.6858H57.173C57.8931 23.6858 58.2186 23.2028 58.2186 22.6619C58.2186 22.1789 57.9128 21.7056 57.3308 21.7056Z" fill="black"/>
<path d="M74.0296 89.0638C69.9261 90.9282 64.5698 90.9958 46.7749 84.8521C36.9798 81.4712 26.0601 80.0802 18.8691 80.795V78.9306C25.8332 78.4476 38.1437 79.9836 48.945 84.5913C60.7327 89.6241 69.8472 91.1504 74.0296 88.6098" fill="#6EC7DE"/>
<path opacity="0.64" d="M74.0296 89.0638C69.9261 90.9282 64.5698 90.9958 46.7749 84.8521C36.9798 81.4712 26.0601 80.0802 18.8691 80.795V78.9306C25.8332 78.4476 38.1437 79.9836 48.945 84.5913C60.7327 89.6241 69.8472 91.1504 74.0296 88.6098" fill="#CDE6EA"/>
<path opacity="0.64" d="M48.9453 84.5912C48.1661 84.2628 47.3868 83.944 46.5977 83.6445V84.7844C46.6568 84.8037 46.716 84.823 46.7752 84.8424C52.4372 86.7937 56.8367 88.1171 60.3286 88.9575V88.5711C56.9353 87.7113 53.108 86.3686 48.9453 84.5912Z" fill="#2CB0CF"/>
<path opacity="0.64" d="M32.7402 81.4231V79.9065C27.3149 78.9695 22.4124 78.6894 18.8613 78.9309V80.7952C22.6886 80.4185 27.5319 80.631 32.7402 81.4231Z" fill="#2CB0CF"/>
<path opacity="0.64" d="M74.0311 89.0738V88.6295C71.3283 90.2427 66.5343 90.1847 60.3594 88.5908V88.9772C67.8167 90.7643 71.2396 90.3393 74.0311 89.0738Z" fill="#CDE6EA"/>
<path opacity="0.39" d="M32.7383 81.4228C37.2758 82.1087 42.0501 83.2389 46.5876 84.7941V83.6543C41.981 81.9058 37.1969 80.6887 32.7383 79.9062V81.4228Z" fill="#CDE6EA"/>
<path d="M22.2542 104.008C22.2542 104.675 21.8892 104.955 21.1198 104.955H20.5871V105.689C20.5871 105.93 20.6069 105.988 20.814 105.988H20.9718V106.471H19.2949V105.988H19.433C19.6402 105.988 19.6599 105.94 19.6599 105.689V103.825C19.6599 103.583 19.6402 103.535 19.433 103.535H19.2949V103.052H21.1198C21.8892 103.061 22.2542 103.342 22.2542 104.008ZM20.7844 104.539C21.1593 104.539 21.3072 104.414 21.3072 104.037C21.3072 103.67 21.1494 103.564 20.7943 103.564H20.597V104.539H20.7844Z" fill="#ABE0EC"/>
<path d="M23.5268 106.567C22.8363 106.567 22.4121 106.065 22.4121 105.273C22.4121 104.481 22.8461 103.979 23.5169 103.979C24.1877 103.979 24.5526 104.462 24.5526 105.331V105.418H23.2506V105.466C23.2506 105.872 23.3985 106.094 23.6451 106.094C23.8523 106.094 24.0002 105.939 24.0496 105.64H24.5625C24.4639 106.268 24.1285 106.567 23.5268 106.567ZM23.8523 104.964C23.8523 104.954 23.8523 104.935 23.8523 104.925C23.8523 104.597 23.7438 104.423 23.5465 104.423C23.3689 104.423 23.2506 104.606 23.2506 104.954H23.8523V104.964Z" fill="#ABE0EC"/>
<path d="M27.3049 105.273C27.3049 106.065 26.8511 106.558 26.1212 106.558C25.3814 106.558 24.9375 106.075 24.9375 105.273C24.9375 104.471 25.3814 103.979 26.1212 103.979C26.8511 103.979 27.3049 104.481 27.3049 105.273ZM26.1113 104.452C25.8746 104.452 25.8055 104.703 25.8055 105.273C25.8055 105.833 25.8647 106.094 26.1113 106.094C26.3579 106.094 26.4171 105.843 26.4171 105.273C26.427 104.703 26.3579 104.452 26.1113 104.452Z" fill="#ABE0EC"/>
<path d="M29.3175 103.988C29.8502 103.988 30.1461 104.423 30.1461 105.263C30.1461 106.084 29.8107 106.558 29.3471 106.558C29.0907 106.558 28.8835 106.442 28.7257 106.2V106.877C28.7257 107.07 28.775 107.118 28.9427 107.118H29.0019V107.562H27.6406V107.118H27.7393C27.8971 107.118 27.9267 107.07 27.9267 106.877V104.761C27.9267 104.568 27.8971 104.52 27.7393 104.52H27.6406V104.075H28.6764V104.404C28.8638 104.124 29.0611 103.988 29.3175 103.988ZM29.0019 106.027C29.1893 106.027 29.2682 105.775 29.2682 105.263C29.2682 104.751 29.1794 104.5 29.0019 104.5C28.8243 104.5 28.7257 104.751 28.7257 105.263C28.7257 105.775 28.8046 106.027 29.0019 106.027Z" fill="#ABE0EC"/>
<path d="M30.5399 103.506H30.4512V103.062H31.556V105.786C31.556 105.979 31.5856 106.027 31.7434 106.027H31.8124V106.471H30.4512V106.027H30.5399C30.6978 106.027 30.7372 105.979 30.7372 105.786V103.747C30.7372 103.554 30.7076 103.506 30.5399 103.506Z" fill="#ABE0EC"/>
<path d="M33.2436 106.567C32.5531 106.567 32.1289 106.065 32.1289 105.273C32.1289 104.481 32.5629 103.979 33.2337 103.979C33.9045 103.979 34.2694 104.462 34.2694 105.331V105.418H32.9674V105.466C32.9674 105.872 33.1153 106.094 33.3619 106.094C33.5691 106.094 33.717 105.939 33.7664 105.64H34.2793C34.1807 106.268 33.8453 106.567 33.2436 106.567ZM33.5691 104.964C33.5691 104.954 33.5691 104.935 33.5691 104.925C33.5691 104.597 33.4606 104.423 33.2633 104.423C33.0857 104.423 32.9674 104.606 32.9674 104.954H33.5691V104.964Z" fill="#ABE0EC"/>
<path d="M35.0286 103.834C34.8314 103.834 34.7031 103.66 34.7031 103.409C34.7031 103.138 34.8708 102.936 35.0977 102.936C35.3542 102.936 35.5317 103.167 35.5317 103.515C35.5317 103.969 35.2161 104.394 34.7327 104.452V104.133C34.9399 104.104 35.0582 104.017 35.1076 103.815C35.078 103.824 35.0582 103.834 35.0286 103.834Z" fill="#ABE0EC"/>
<path d="M35.975 106.509V105.63H36.34C36.4288 105.939 36.6162 106.094 36.9022 106.094C37.0897 106.094 37.1784 106.036 37.1784 105.891C37.1784 105.717 37.0009 105.698 36.6852 105.572C36.192 105.379 35.9355 105.244 35.9355 104.79C35.9355 104.317 36.2709 103.979 36.8628 103.979C37.1192 103.979 37.356 104.036 37.573 104.162L37.6322 104.017H37.938V104.771H37.6125C37.4941 104.529 37.2968 104.404 37.0601 104.404C36.8825 104.404 36.7937 104.481 36.7937 104.587C36.7937 104.771 36.9417 104.79 37.2278 104.906C37.4349 104.983 37.642 105.051 37.8097 105.186C37.9478 105.302 38.0268 105.495 38.0268 105.727C38.0268 106.229 37.6914 106.548 37.1192 106.548C36.8135 106.548 36.5373 106.461 36.34 106.307L36.2611 106.49H35.975V106.509Z" fill="#ABE0EC"/>
<path d="M41.509 106.578C40.5522 106.578 40.0195 105.94 40.0195 104.771C40.0195 103.68 40.6015 102.965 41.4893 102.965C41.7852 102.965 42.0417 103.042 42.2784 103.206L42.3475 103.023H42.8012V104.423H42.308C42.2094 103.786 42.0318 103.486 41.6866 103.486C41.2821 103.486 41.1243 103.902 41.1243 104.771C41.1243 105.66 41.2821 106.075 41.7063 106.075C42.0713 106.075 42.3376 105.737 42.3672 105.158H42.8111C42.7914 106.066 42.3277 106.578 41.509 106.578Z" fill="#ABE0EC"/>
<path d="M45.839 106.027H45.8883V106.471H44.6159V106.027H44.6652C44.8131 106.027 44.8329 105.979 44.8329 105.786V104.916C44.8329 104.646 44.754 104.501 44.5665 104.501C44.3791 104.501 44.2607 104.684 44.2607 104.993V105.786C44.2607 105.969 44.2903 106.027 44.4383 106.027H44.4778V106.471H43.1855V106.027H43.2546C43.4124 106.027 43.4519 105.979 43.4519 105.786V103.747C43.4519 103.554 43.4223 103.506 43.2546 103.506H43.1855V103.062H44.2607V104.433C44.4482 104.134 44.6652 104.008 44.971 104.008C45.4938 104.008 45.6516 104.269 45.6516 104.897V105.786C45.6417 105.979 45.6812 106.027 45.839 106.027Z" fill="#ABE0EC"/>
<path d="M48.5822 105.273C48.5822 106.065 48.1285 106.558 47.3985 106.558C46.6587 106.558 46.2148 106.075 46.2148 105.273C46.2148 104.471 46.6587 103.979 47.3985 103.979C48.1285 103.979 48.5822 104.481 48.5822 105.273ZM47.3887 104.452C47.1519 104.452 47.0829 104.703 47.0829 105.273C47.0829 105.833 47.1421 106.094 47.3887 106.094C47.6353 106.094 47.6945 105.843 47.6945 105.273C47.7043 104.703 47.6353 104.452 47.3887 104.452Z" fill="#ABE0EC"/>
<path d="M50.2199 106.027H50.289V106.471H48.9277V106.027H49.0066C49.1645 106.027 49.2039 105.979 49.2039 105.785V104.761C49.2039 104.568 49.1743 104.52 49.0066 104.52H48.9277V104.076H50.0227V105.785C50.0227 105.979 50.0523 106.027 50.2199 106.027ZM49.559 102.955C49.7662 102.955 49.9339 103.168 49.9339 103.419C49.9339 103.67 49.7662 103.873 49.559 103.873C49.3519 103.873 49.1842 103.67 49.1842 103.419C49.1842 103.168 49.3519 102.955 49.559 102.955Z" fill="#ABE0EC"/>
<path d="M51.7082 106.567C51.0374 106.567 50.6133 106.055 50.6133 105.273C50.6133 104.481 51.0374 103.979 51.7378 103.979C52.2902 103.979 52.6157 104.326 52.6157 104.8C52.6157 105.128 52.4579 105.312 52.1718 105.312C51.9449 105.312 51.797 105.157 51.797 104.916C51.797 104.703 51.8956 104.577 52.0534 104.568C52.014 104.481 51.9548 104.442 51.8463 104.442C51.5602 104.442 51.4813 104.703 51.4813 105.273C51.4813 105.824 51.5602 106.094 51.8068 106.094C51.9844 106.094 52.0929 105.93 52.0929 105.64H52.596C52.596 106.239 52.2705 106.567 51.7082 106.567Z" fill="#ABE0EC"/>
<path d="M54.0854 106.567C53.3949 106.567 52.9707 106.065 52.9707 105.273C52.9707 104.481 53.4047 103.979 54.0755 103.979C54.7463 103.979 55.1112 104.462 55.1112 105.331V105.418H53.8092V105.466C53.8092 105.872 53.9571 106.094 54.2037 106.094C54.4109 106.094 54.5588 105.939 54.6082 105.64H55.1211C55.0323 106.268 54.6871 106.567 54.0854 106.567ZM54.4207 104.964C54.4207 104.954 54.4207 104.935 54.4207 104.925C54.4207 104.597 54.3122 104.423 54.1149 104.423C53.9374 104.423 53.819 104.606 53.819 104.954H54.4207V104.964Z" fill="#ABE0EC"/>
<path d="M58.328 105.988H58.4562C58.614 105.988 58.6831 105.988 58.6831 105.882C58.6831 105.834 58.6831 105.786 58.6634 105.737L58.5647 105.37H57.815L57.7263 105.699C57.7065 105.766 57.6868 105.834 57.6868 105.892C57.6868 105.95 57.7558 105.988 57.8841 105.988H58.0222V106.471H56.7793V105.988H56.8779C57.0259 105.988 57.1147 105.873 57.1837 105.641L57.9137 103.062H58.9198L59.5709 105.631C59.6399 105.902 59.6695 105.988 59.8668 105.988H60.0147V106.471H58.328V105.988ZM58.18 103.854L57.9433 104.887H58.4365L58.18 103.854Z" fill="#ABE0EC"/>
<path d="M60.5474 106.471L60.212 104.887C60.1529 104.606 60.1233 104.52 60.0049 104.52H59.9062V104.075H61.0702V104.52C61.0604 104.52 61.0406 104.52 61.0308 104.52C60.942 104.52 60.9025 104.558 60.9025 104.655C60.9025 104.684 60.9025 104.722 60.9124 104.761L61.1393 105.862L61.4056 104.761C61.4155 104.722 61.4155 104.693 61.4155 104.674C61.4155 104.578 61.3661 104.539 61.2478 104.52V104.075H62.4019V104.52C62.392 104.52 62.3723 104.52 62.3624 104.52C62.2835 104.52 62.2441 104.558 62.2441 104.655C62.2441 104.684 62.2441 104.722 62.2539 104.761L62.4709 105.843L62.7274 104.761C62.7373 104.722 62.7373 104.693 62.7373 104.674C62.7373 104.587 62.6879 104.539 62.5794 104.52V104.075H63.4278V104.52C63.2601 104.52 63.1812 104.597 63.1318 104.79L62.7077 106.471H61.8988L61.6621 105.302L61.3859 106.471H60.5474Z" fill="#ABE0EC"/>
<path d="M64.3052 106.558C63.8909 106.558 63.6641 106.316 63.6641 105.882C63.6641 105.408 63.8909 105.263 64.3841 105.157C64.7491 105.08 64.9267 105.032 64.9267 104.722C64.9267 104.481 64.7886 104.317 64.542 104.317C64.4631 104.317 64.3841 104.346 64.2954 104.404C64.4433 104.452 64.5124 104.558 64.5124 104.732C64.5124 104.945 64.3743 105.08 64.1573 105.08C63.9008 105.08 63.7528 104.925 63.7528 104.655C63.7528 104.249 64.0981 103.988 64.7491 103.988C65.124 103.988 65.3903 104.066 65.5185 104.172C65.7257 104.336 65.7454 104.539 65.7454 104.867V105.795C65.7454 105.901 65.7553 105.949 65.8243 105.949C65.9032 105.949 65.9131 105.891 65.9131 105.795V105.505H66.1893V105.824C66.1893 106.345 66.0117 106.558 65.5678 106.558C65.3212 106.558 65.1535 106.452 65.0253 106.22C64.8774 106.432 64.6209 106.558 64.3052 106.558ZM64.4631 105.795C64.4631 105.93 64.5518 106.036 64.6801 106.036C64.8379 106.036 64.9365 105.911 64.9365 105.688C64.9365 105.679 64.9365 105.679 64.9365 105.669V105.36C64.6308 105.553 64.4631 105.601 64.4631 105.795Z" fill="#ABE0EC"/>
<path d="M68.0333 103.988C68.339 103.988 68.5265 104.23 68.5265 104.578C68.5265 104.887 68.3686 105.09 68.1418 105.09C67.9543 105.09 67.8162 104.925 67.8162 104.722C67.8162 104.578 67.8754 104.471 67.9938 104.394C67.9642 104.384 67.9346 104.375 67.905 104.375C67.6979 104.375 67.5499 104.626 67.5499 105.09V105.795C67.5499 105.988 67.5795 106.036 67.7472 106.036H67.8754V106.481H66.4648V106.036H66.5339C66.6917 106.036 66.7312 105.988 66.7312 105.795V104.771C66.7312 104.578 66.7016 104.529 66.5339 104.529H66.4648V104.085H67.5203V104.317C67.6683 104.095 67.836 103.988 68.0333 103.988Z" fill="#ABE0EC"/>
<path d="M70.0353 103.506C70.0057 103.506 69.9662 103.516 69.9366 103.516V103.071H71.0907V105.795C71.0907 105.989 71.1203 106.037 71.2683 106.037H71.3669V106.481H70.3213V106.153C70.124 106.433 69.9366 106.568 69.6801 106.568C69.1376 106.568 68.8516 106.133 68.8516 105.293C68.8516 104.472 69.1771 103.989 69.6506 103.989C69.8873 103.989 70.0944 104.095 70.272 104.346V103.747C70.2621 103.554 70.2128 103.506 70.0353 103.506ZM69.9859 104.52C69.7985 104.52 69.7196 104.771 69.7196 105.283C69.7196 105.795 69.8084 106.037 69.9859 106.037C70.1635 106.037 70.2621 105.786 70.2621 105.283C70.2621 104.771 70.1832 104.52 69.9859 104.52Z" fill="#ABE0EC"/>
<path d="M71.7133 106.509V105.63H72.0783C72.167 105.939 72.3545 106.094 72.6405 106.094C72.8279 106.094 72.9167 106.036 72.9167 105.891C72.9167 105.717 72.7392 105.698 72.4235 105.572C71.9303 105.379 71.6738 105.244 71.6738 104.79C71.6738 104.317 72.0092 103.979 72.6011 103.979C72.8575 103.979 73.0943 104.036 73.3113 104.162L73.3705 104.017H73.6763V104.771H73.3507C73.2324 104.529 73.0351 104.404 72.7983 104.404C72.6208 104.404 72.532 104.481 72.532 104.587C72.532 104.771 72.68 104.79 72.966 104.906C73.1732 104.983 73.3803 105.051 73.548 105.186C73.6861 105.302 73.765 105.495 73.765 105.727C73.765 106.229 73.4296 106.548 72.8575 106.548C72.5517 106.548 72.2755 106.461 72.0783 106.307L72.0092 106.509H71.7133Z" fill="#ABE0EC"/>
</g>
<defs>
<clipPath id="clip0_7_215">
<rect width="92.3484" height="110.818" fill="white"/>
</clipPath>
</defs>
</svg>
