<svg width="123" height="99" viewBox="0 0 123 99" fill="none" xmlns="http://www.w3.org/2000/svg">
<g clip-path="url(#clip0_7_175)">
<path d="M22.9684 36.7104C22.6423 36.8805 22.4337 37.2205 22.3945 37.5736C22.4206 37.5605 22.4337 37.5344 22.4597 37.5213C22.8119 37.3251 23.0727 36.9589 23.2032 36.5273C23.1249 36.5927 23.0467 36.6581 22.9684 36.7104Z" fill="black"/>
<path d="M27.7413 45.4598C27.4413 46.1791 26.6066 48.7294 26.1371 49.6449C25.6675 50.5603 25.5632 50.8873 25.2763 51.9205C25.0806 52.6528 24.285 54.1568 23.6981 55.1639C24.1546 54.4969 25.511 52.0905 25.7849 51.0965C26.0588 50.0764 26.1762 49.7364 26.6457 48.8209C27.1153 47.9055 27.9369 45.3552 28.25 44.6359C28.55 43.9166 28.4978 43.4981 28.7978 42.7788C29.0977 42.0595 29.2151 41.3664 28.55 41.3402C27.8848 41.3141 27.3892 41.1179 27.0892 41.0133C26.7892 40.9086 26.124 40.7648 25.4328 40.8694C24.7415 40.974 22.9155 40.8955 22.1721 41.0394C21.4287 41.1833 20.5679 41.0917 19.7201 41.0917C18.8723 41.0917 17.5941 41.4579 16.4334 41.2617C15.8073 41.1571 15.2986 41.3925 15.5465 42.0595C15.6638 42.0464 15.7943 42.0464 15.9247 42.0726C17.0855 42.2688 18.3506 41.9026 19.2114 41.9026C20.0722 41.9026 20.92 41.981 21.6634 41.8503C22.4069 41.7064 24.2328 41.7979 24.9241 41.6802C25.6154 41.5756 26.2805 41.7064 26.5805 41.8241C26.8805 41.9287 27.3761 42.1249 28.0413 42.1511C28.7065 42.1772 28.5891 42.8704 28.2891 43.5897C27.9891 44.322 28.0413 44.7405 27.7413 45.4598Z" fill="black"/>
<path d="M34.3413 39.0251C34.3935 39.2082 34.4196 39.3782 34.4326 39.5482C35.0195 39.6005 35.0326 38.9074 34.85 38.2011C34.6543 37.4557 34.5239 37.1156 34.2761 36.1217C34.1848 35.7555 34.1978 35.4416 34.2761 35.167C33.9109 35.5201 33.5588 36.0955 33.7674 36.9456C34.0022 37.9396 34.1457 38.2796 34.3413 39.0251Z" fill="black"/>
<path d="M18.5474 37.7304C19.043 37.9527 19.4735 38.2143 19.6039 38.5543C19.6169 38.5936 19.6169 38.6459 19.63 38.6851C20.0734 38.502 20.243 38.0835 20.1125 37.7435C19.9821 37.4034 19.5517 37.1288 19.0561 36.9196C18.2605 36.5664 17.8823 35.5071 17.7127 34.5132C17.6605 34.2254 17.6997 33.9377 17.804 33.6631C17.3606 34.1339 17.1127 34.7355 17.2171 35.324C17.3606 36.318 17.7518 37.3904 18.5474 37.7304Z" fill="black"/>
<path d="M36.089 32.8911C36.2586 32.5772 36.6107 31.9233 36.9629 31.3086C36.9499 31.3348 36.9238 31.3478 36.9107 31.374C36.5455 31.9363 36.089 32.7733 35.7891 33.3357C35.8934 33.1919 36.0108 33.0349 36.089 32.8911Z" fill="black"/>
<path d="M15.5337 75.3565C15.2468 74.3103 15.0642 73.7741 14.9337 73.0678C14.8033 72.3878 14.6468 71.9431 14.4773 71.6292C14.3077 71.3154 14.1121 71.0146 13.9555 70.0337C13.799 69.0528 13.6164 68.752 13.5382 68.2682C13.4599 67.7712 13.3295 67.7319 13.2904 67.1827C13.2512 66.6334 13.6947 66.0187 14.099 65.2994C14.1642 65.1817 14.2294 65.064 14.3077 64.9463C14.0338 65.3648 13.799 65.7702 13.5904 66.1233C13.186 66.8426 12.7426 67.4704 12.7817 68.0066C12.8208 68.5428 12.9513 68.5951 13.0295 69.0921C13.1078 69.589 13.3034 69.8768 13.4469 70.8576C13.6034 71.8385 13.786 72.1524 13.9686 72.4532C14.1381 72.767 14.2947 73.1986 14.4251 73.8918C14.5555 74.5849 14.7381 75.1211 15.025 76.1805C15.312 77.2398 16.1989 76.9913 16.251 76.3243C16.251 76.2458 16.2641 76.1543 16.2641 76.0628C15.9902 76.0889 15.6772 75.8927 15.5337 75.3565Z" fill="black"/>
<path d="M15.624 49.3311C16.3805 50.7828 16.9674 52.0906 17.6065 53.1499C18.689 54.9024 19.5759 56.1318 19.902 56.5503C20.1889 56.9165 20.3454 57.2042 20.3454 57.4788C20.3715 57.4527 20.4106 57.4265 20.4367 57.4003C21.0758 56.8249 20.9323 56.4195 20.4106 55.7394C20.0846 55.3209 19.1977 54.0785 18.1151 52.3391C17.463 51.2798 16.8891 49.9719 16.1326 48.5203C15.3631 47.0555 14.6327 45.4207 14.2545 44.0868C14.0458 43.3282 13.5633 42.282 13.0415 41.9027C12.5198 41.5234 10.1983 41.458 8.72444 41.0265C7.85058 40.778 6.24634 40.8434 5.47682 40.8695C4.88991 40.8957 3.70303 40.1895 3.62477 39.4048C3.54652 38.6201 3.54652 38.2931 3.42913 37.4692C3.31175 36.6322 3.33783 35.939 3.25958 35.4813C3.18132 35.0236 3.58564 33.8727 3.58564 32.5779C3.58564 31.6756 3.32479 29.8969 3.31175 29.2561C3.31175 29.1515 3.32479 29.073 3.33783 28.9814C3.0509 29.0599 2.80309 29.4261 2.81613 30.08C2.82917 30.7078 3.09002 32.4995 3.09002 33.4019C3.09002 34.6966 2.6857 35.8475 2.76396 36.3052C2.84221 36.763 2.81613 37.4692 2.93351 38.2931C3.0509 39.1301 3.0509 39.444 3.12915 40.2287C3.20741 41.0134 4.39429 41.7196 4.98121 41.6934C5.73768 41.6673 7.35496 41.5888 8.22882 41.8504C9.70264 42.282 12.0242 42.3343 12.5459 42.7266C13.0676 43.1059 13.5502 44.1521 13.7589 44.9107C14.1241 46.2316 14.8545 47.8664 15.624 49.3311Z" fill="black"/>
<path d="M31.0413 75.0687C30.7935 74.441 29.5936 71.9954 29.2675 71.1714C28.9415 70.3475 28.8893 69.0135 29.2675 68.3073C29.6458 67.6011 30.2979 66.5679 30.5979 66.0709C30.8848 65.574 30.4283 65.077 29.8936 65.077C29.3588 65.077 28.9023 64.9855 28.2372 64.7762C27.572 64.567 27.0112 64.2923 26.6329 63.5861C26.2547 62.8799 24.4287 59.8065 23.8809 58.8126C23.5027 58.1063 22.7854 58.3025 22.681 59.061C22.681 59.1003 22.668 59.1526 22.668 59.2049C22.9158 59.1395 23.1897 59.2703 23.3853 59.6365C23.9201 60.6304 25.7591 63.7038 26.1373 64.41C26.5155 65.1162 27.0764 65.3909 27.7416 65.6001C28.4067 65.8094 28.8632 65.9009 29.398 65.9009C29.9327 65.9009 30.3892 66.3979 30.1023 66.8949C29.8153 67.3918 29.1502 68.425 28.7719 69.1312C28.3937 69.8375 28.4459 71.1714 28.7719 71.9954C29.098 72.8193 30.2979 75.278 30.5457 75.8927C30.7935 76.5204 31.6674 76.8866 31.7848 75.8142C31.7848 75.7619 31.7978 75.7226 31.7978 75.6703C31.4978 75.6703 31.1718 75.4088 31.0413 75.0687Z" fill="black"/>
<path d="M35.8026 41.6928C35.2287 41.6535 33.0767 41.6928 32.568 41.6535C32.0724 41.6143 31.7854 41.6797 31.4463 42.229C31.3811 42.3205 31.3159 42.4906 31.2246 42.6867C31.4594 42.4644 31.7072 42.4382 32.0593 42.4644C32.555 42.5036 34.707 42.4644 35.2939 42.5036C35.8678 42.5429 36.6764 42.1374 36.7808 41.3789C36.4808 41.6012 36.1026 41.7059 35.8026 41.6928Z" fill="black"/>
<path d="M20.8551 64.0043C19.616 64.1874 17.5423 64.9852 17.0206 65.0898C16.3945 65.2075 16.3423 65.5475 16.3684 65.953C16.4206 65.9399 16.4597 65.9268 16.5119 65.9137C17.0467 65.8091 19.1074 65.0113 20.3464 64.8282C21.0638 64.7236 21.3898 64.2397 21.5724 63.6904C21.3898 63.8474 21.1551 63.9651 20.8551 64.0043Z" fill="black"/>
<path fill-rule="evenodd" clip-rule="evenodd" d="M8.37339 37.8221C9.84721 37.2859 10.5385 37.3513 12.4036 38.4498C12.8861 38.7376 13.3948 39.0122 14.0861 39.1168C14.8034 39.2214 15.7164 39.1561 16.3033 39.1561C17.4641 39.1561 18.4945 39.1561 19.6161 38.6983C20.0726 38.5152 20.2422 38.0836 20.1118 37.7436C19.9813 37.4036 19.5509 37.1289 19.0553 36.9197C18.2597 36.5666 17.8815 35.5072 17.7119 34.5133C17.5032 33.2709 18.7944 31.9761 20.2422 32.0284C21.4812 32.0677 22.3942 32.4862 23.3463 33.6501C24.168 34.6572 23.868 36.2396 22.9681 36.7235C22.029 37.2205 22.0551 39.0514 24.2332 39.0514C25.0549 39.0514 26.2027 38.973 26.907 39.0122C27.6113 39.0514 28.5242 38.6329 28.9807 38.6329C29.4372 38.6329 29.8937 38.3844 30.4285 38.0575C31.0545 37.6782 31.4588 37.7305 31.9936 38.3191C32.3196 38.6983 33.1674 39.143 34.1978 39.5092C35.0195 39.7969 35.0716 39.0122 34.863 38.2275C34.6673 37.482 34.5369 37.142 34.2891 36.1481C34.0413 35.1541 34.576 34.5264 34.9934 34.1994C35.4107 33.8725 35.8672 33.3755 36.1151 32.9178C36.3629 32.46 36.9889 31.2961 37.4454 30.5898C38.1497 29.4913 39.467 30.276 38.8931 31.2176C38.5671 31.7538 38.1106 32.5908 38.1888 32.9962C38.2671 33.4147 38.0584 33.9509 37.9801 34.4087C37.9019 34.8664 37.8497 37.2336 37.7323 38.0575C37.615 38.8814 37.4063 39.7577 37.315 40.5423C37.2367 41.327 36.402 41.7455 35.8281 41.7063C35.2542 41.6671 33.1022 41.7063 32.5935 41.6671C32.0979 41.6278 31.811 41.6932 31.4719 42.2425C31.2502 42.6087 30.8067 43.825 30.5589 44.5704C30.3111 45.3159 29.985 46.8591 29.3198 48.5593C28.6547 50.2594 26.4244 54.9937 26.007 55.7392C25.5897 56.4847 25.5897 56.9424 26.0461 57.6486C26.5026 58.3548 28.4851 60.3035 29.2807 60.8005C30.0633 61.2974 30.9763 62.3829 31.6023 62.9191C32.2283 63.4553 32.6327 64.0046 32.6848 64.5408C32.724 65.077 32.6457 65.574 32.6457 66.071C32.6457 66.5679 32.6457 67.1957 32.6457 68.1896C32.6457 69.1836 32.5675 69.8113 32.437 70.1383C32.3066 70.4652 32.3979 71.2238 32.437 71.9169C32.4762 72.6231 32.437 73.9048 32.3066 74.9903C32.1762 76.0758 31.3154 75.6965 31.0676 75.0688C30.8197 74.441 29.6198 71.9954 29.2938 71.1715C28.9677 70.3475 28.9155 69.0136 29.2938 68.3073C29.672 67.6011 30.3241 66.5679 30.6241 66.071C30.9241 65.574 30.4546 65.077 29.9198 65.077C29.3851 65.077 28.9286 64.9855 28.2634 64.7762C27.5982 64.567 27.0374 64.2923 26.6591 63.5861C26.2809 62.8799 24.4549 59.8065 23.9072 58.8126C23.5289 58.1064 22.8116 58.3025 22.7072 59.0611C22.629 59.6888 22.4855 61.0097 22.2638 62.226C22.1203 63.0107 21.8725 63.8869 20.8813 64.0308C19.6422 64.2139 17.5684 65.0116 17.0467 65.1163C16.225 65.2732 16.3816 65.8094 16.4337 66.3848C16.512 67.1565 16.9815 68.3204 17.425 69.2882C17.751 70.0206 17.5945 70.5176 17.3989 71.3938C17.2945 71.8646 17.0467 72.6101 16.9294 73.4471C16.825 74.1664 16.825 74.8857 16.7728 75.5265C16.7337 76.1935 15.8338 76.4289 15.5468 75.3826C15.2599 74.3364 15.0773 73.8002 14.9469 73.094C14.8164 72.4139 14.6599 71.9692 14.4904 71.6554C14.3208 71.3415 14.1252 71.0407 13.9687 70.0598C13.8122 69.079 13.6296 68.7782 13.5513 68.2943C13.4731 67.7973 13.3426 67.7581 13.3035 67.2088C13.2644 66.6726 13.7078 66.0448 14.1121 65.3255C15.1686 63.4684 17.4511 60.2381 18.1554 59.6234C18.8597 59.0087 19.8248 57.9756 20.4509 57.4132C21.0899 56.8378 20.9465 56.4323 20.4248 55.7523C20.0987 55.3338 19.2118 54.0913 18.1293 52.3519C17.4771 51.2926 16.9033 49.9848 16.1468 48.5331C15.3773 47.0684 14.6469 45.4336 14.2687 44.0996C14.06 43.3411 13.5774 42.2948 13.0557 41.9156C12.534 41.5363 10.2124 41.4709 8.73858 41.0393C7.86473 40.7908 6.26049 40.8562 5.49097 40.8824C4.90405 40.9085 3.71717 40.2023 3.63892 39.4176C3.56066 38.6329 3.56066 38.306 3.44328 37.482C3.3259 36.645 3.35198 35.9519 3.27372 35.4942C3.19547 35.0364 3.59979 33.8855 3.59979 32.5908C3.59979 31.6884 3.33894 29.9098 3.3259 29.2689C3.29981 28.0396 4.19975 27.778 4.59103 28.6935C5.13882 29.9359 5.80399 30.8514 6.52134 31.793C6.83436 32.2115 7.13434 32.7347 7.09521 33.2578C7.04304 34.2256 7.10826 34.3694 6.8474 35.3634C6.58655 36.3573 6.40395 36.802 6.13006 37.299C5.73878 38.0183 6.31266 38.4498 7.14738 38.1883C7.60388 38.0183 7.95603 37.979 8.37339 37.8221ZM16.4337 41.2616C15.7555 41.1439 15.1947 41.4317 15.6381 42.2556C16.0816 43.0795 16.4598 44.335 16.6033 44.832C16.7468 45.329 18.4293 48.677 19.1205 50.1417C19.8118 51.6065 20.5813 52.8489 21.2204 53.4898C21.8595 54.1306 22.3812 54.9022 22.7333 55.2553C23.0985 55.6215 23.255 55.7784 23.6724 55.203C24.0898 54.6276 25.5244 52.1035 25.7983 51.0834C26.0722 50.0633 26.1896 49.7232 26.6591 48.8078C27.1287 47.8923 27.9504 45.342 28.2634 44.6227C28.5764 43.9034 28.5112 43.4849 28.8112 42.7656C29.1112 42.0463 29.2285 41.3532 28.5634 41.327C27.8982 41.3009 27.4026 41.1047 27.1026 41.0001C26.8026 40.8955 26.1374 40.7516 25.4462 40.8562C24.7549 40.9608 22.929 40.8824 22.1855 41.0262C21.4421 41.1701 20.5813 41.0785 19.7335 41.0785C18.8597 41.0916 17.5945 41.4578 16.4337 41.2616Z" fill="#FEBD52"/>
<path d="M10.121 26.9796C13.3192 26.9796 15.9119 24.3799 15.9119 21.1729C15.9119 17.966 13.3192 15.3662 10.121 15.3662C6.92276 15.3662 4.33008 17.966 4.33008 21.1729C4.33008 24.3799 6.92276 26.9796 10.121 26.9796Z" fill="black"/>
<path d="M22.6155 21.9582C26.1451 21.9582 29.0064 19.0891 29.0064 15.5499C29.0064 12.0107 26.1451 9.1416 22.6155 9.1416C19.0859 9.1416 16.2246 12.0107 16.2246 15.5499C16.2246 19.0891 19.0859 21.9582 22.6155 21.9582Z" fill="black"/>
<path d="M33.6632 28.5891C37.0271 28.5891 39.7541 25.8546 39.7541 22.4815C39.7541 19.1085 37.0271 16.374 33.6632 16.374C30.2993 16.374 27.5723 19.1085 27.5723 22.4815C27.5723 25.8546 30.2993 28.5891 33.6632 28.5891Z" fill="black"/>
<path fill-rule="evenodd" clip-rule="evenodd" d="M23.2947 15.825C24.0121 15.3803 25.0294 15.1842 25.9163 15.158C25.9685 14.8703 25.8902 14.6349 25.525 14.2687C25.3424 14.0856 24.8468 13.824 24.3512 13.7848C23.686 13.7456 23.5817 13.5886 24.2077 13.4578C24.612 13.3663 25.212 13.3794 25.8641 13.6409C26.6988 13.981 27.4553 15.0141 27.1292 15.7596C25.9685 15.6681 24.5207 15.7727 23.2947 15.825ZM25.6685 10.8814C25.9945 10.5152 26.1641 10.1621 26.0989 10.0183C26.0337 9.87441 25.7076 9.96596 25.3815 10.2537C24.7424 10.816 24.2729 11.1561 23.7642 11.4438C23.1252 11.81 22.4209 12.4508 21.9122 13.1178C20.0341 13.4055 17.6994 14.2687 17.3342 14.8049C17.2038 15.0011 17.9081 14.8572 18.3124 14.8703C18.9776 14.8964 19.6036 15.0011 19.9428 15.1188C20.1514 15.1972 20.1123 15.2626 19.9036 15.4719C19.1732 16.1519 18.4429 17.7344 18.3776 19.0684C18.3385 19.7223 18.4298 19.9839 18.6124 19.9446C18.7689 19.9054 18.9385 19.5784 19.095 19.1468C19.1863 18.8722 20.6731 16.8843 20.6601 16.7274C20.6471 16.5835 19.7602 17.4598 19.3689 17.9437C19.2254 18.1268 19.1732 17.9175 19.1732 17.8521C19.2124 17.2113 19.2776 16.335 20.1254 15.5634C21.1296 14.661 19.7341 14.8049 19.2515 14.6741C19.0428 14.6218 19.2515 14.3472 19.4732 14.2294C20.4253 13.7325 21.2861 13.5101 21.847 13.4317C22.7078 12.6078 23.4382 12.2677 23.8034 12.0192C24.1816 11.7707 24.3642 11.9277 24.1164 12.32C23.7903 12.8301 23.9599 13.0524 24.4164 12.4901C24.7946 12.0192 25.225 11.3915 25.6685 10.8814ZM21.3774 17.1067C21.3514 16.8843 21.2079 16.5312 21.1818 17.0936C21.1296 18.2314 21.5861 19.2776 21.9905 20.6378C22.147 21.1478 22.4078 21.0955 22.3948 20.6639C22.3817 20.2323 22.4469 19.4084 22.5904 18.8984C22.7339 18.3883 22.9165 17.2244 22.9295 16.8582C22.9426 16.492 22.8643 16.322 22.6295 16.8582C22.3948 17.3944 22.2383 18.2183 22.1339 18.5322C22.0296 18.8461 21.9252 18.7807 21.8339 18.5583C21.7296 18.2837 21.4296 17.4074 21.3774 17.1067Z" fill="#FEBD52"/>
<path fill-rule="evenodd" clip-rule="evenodd" d="M37.0405 15.7328C37.0535 17.2499 36.0231 19.774 33.7537 21.5265C33.0364 22.0758 32.8407 22.0104 33.2059 21.5396C35.0058 19.2116 35.9579 17.2368 36.7144 15.5628C36.7926 15.4059 37.0405 15.1966 37.0405 15.7328ZM32.5147 22.0758C31.5104 22.6381 29.9453 24.4429 29.7496 24.8222C29.3583 25.6199 30.1018 26.1431 30.6104 25.3322C31.5756 23.789 32.2277 23.3313 32.619 23.1874C32.8016 23.122 32.8407 23.122 32.8407 23.0043C32.8407 22.8866 32.7886 22.3896 32.7755 22.0758C32.7494 21.9973 32.7233 21.9581 32.5147 22.0758ZM35.4753 22.4027C35.1884 22.4027 34.7971 22.442 34.4711 22.8081C32.9842 24.4429 32.0712 25.5284 30.2061 26.0777C29.9061 26.1692 29.6714 26.627 29.7627 26.8755C29.854 27.137 30.2844 27.1763 30.6626 26.9408C31.406 26.4831 32.8016 25.2799 33.1929 24.7306C33.7928 23.9067 34.7189 22.8081 35.0449 22.6904C35.2536 22.625 35.6579 22.4027 35.4753 22.4027ZM38.6317 19.4078C38.723 19.2378 38.5795 19.1724 38.5012 19.3555C38.423 19.5386 37.3926 21.1341 36.6622 21.7619C36.4796 21.9188 36.3101 21.7357 36.5318 21.4742C36.8579 21.0949 37.9404 19.604 38.1491 19.2378C38.3056 18.9632 38.1099 18.9893 37.9795 19.2116C37.7969 19.5255 36.4405 21.1864 36.1927 21.4088C35.984 21.6049 35.7884 21.3826 36.0101 21.1734C36.2709 20.938 37.5491 19.4209 37.7578 19.0809C37.9013 18.8324 37.6926 18.9108 37.6013 19.0678C37.4448 19.3163 35.9579 20.8595 35.6318 21.0687C35.3058 21.278 35.1362 21.7096 35.5666 22.1412C35.997 22.5727 36.6753 22.285 36.91 22.0234C37.1448 21.7619 38.1621 20.3102 38.6317 19.4078ZM32.7364 20.3233C33.0755 20.2317 32.8929 20.1402 32.6451 20.1402C32.3321 20.1402 31.7582 20.5064 31.4843 20.8856C30.5844 22.1281 30.1931 22.5204 28.4975 23.5405C27.9758 23.8544 28.0019 24.3121 28.1715 24.5214C28.3149 24.6783 28.7453 24.5737 28.9932 24.4037C29.5409 24.0375 30.48 23.1613 30.9235 22.455C31.3539 21.7619 32.1495 20.4802 32.7364 20.3233ZM32.619 19.4209C32.7103 20.1402 33.4798 20.2448 33.9102 19.8394C34.6406 19.1462 34.9797 17.6553 34.8754 16.923C34.7971 16.3475 34.5754 16.2821 34.0146 16.6483C33.0755 17.263 32.4886 18.4662 32.619 19.4209ZM34.2102 17.6946C34.3276 17.4199 34.4319 17.433 34.4058 17.6946C34.3798 17.9561 34.0928 18.3223 34.0798 18.8585C34.0667 19.1593 33.6233 19.6694 33.3885 19.4732C33.1538 19.277 33.0755 18.9501 33.4016 18.7539C33.7276 18.5577 34.0406 18.1 34.2102 17.6946Z" fill="#FEBD52"/>
<path fill-rule="evenodd" clip-rule="evenodd" d="M12.9908 16.7657C12.2995 16.7395 11.5952 16.7657 10.8909 16.8311L11.6213 15.7194L11.2822 15.5625L10.4997 16.8703C8.66065 17.0534 6.87381 17.4588 5.63476 17.9689C5.43912 18.0474 5.38695 18.0735 5.75214 18.2566C7.16075 18.9759 9.26061 20.4014 9.74319 20.7676C9.88666 21.4738 10.2779 24.181 10.2258 24.9265C9.59972 25.3711 9.02584 25.7766 8.56935 26.0512C8.41284 26.1428 8.51718 26.1689 8.69978 26.1297C10.0171 25.8027 11.5822 25.515 12.7299 25.4365C12.8604 25.4235 12.8604 25.3058 12.7299 25.2665C12.0778 25.0703 11.4909 24.9526 10.8127 24.7957C10.4084 22.834 10.2388 21.5785 10.1084 20.7022C10.9953 19.329 11.83 18.2697 13.1082 17.0011C13.2386 16.8965 13.3951 16.7788 12.9908 16.7657ZM12.1822 17.3673C11.4518 18.2174 10.604 19.4729 9.991 20.5714C9.76927 20.2576 7.85201 18.9105 6.63904 18.0735C6.57383 18.0212 6.626 17.8773 6.73034 17.8381C7.64332 17.5373 8.96063 17.2496 10.3301 17.1319V17.158L9.96491 17.7727C9.86057 17.7204 9.75623 17.6942 9.63885 17.6681C9.1041 17.5765 8.62152 17.8512 8.55631 18.2566C8.50414 18.6097 8.76499 18.9498 9.16931 19.0936L8.97367 19.4075L9.13018 19.5121L9.36495 19.159C9.37799 19.159 9.40408 19.1721 9.41712 19.1721C9.95187 19.2505 10.4344 18.989 10.4997 18.5705C10.5388 18.322 10.4084 18.0735 10.1866 17.9035L10.6431 17.2104C10.6823 17.1842 10.7083 17.145 10.7475 17.1057C11.1909 17.0796 11.6344 17.0665 12.0648 17.0796C12.1952 17.0665 12.2604 17.2627 12.1822 17.3673ZM9.54755 18.2958C9.54755 18.4659 9.41712 18.6097 9.26061 18.6097C9.1041 18.6097 8.97367 18.4659 8.97367 18.2958C8.97367 18.1258 9.1041 17.982 9.26061 17.982C9.41712 17.9689 9.54755 18.1127 9.54755 18.2958Z" fill="#FEBD52"/>
<path fill-rule="evenodd" clip-rule="evenodd" d="M105.631 71.119C100.101 75.5394 85.3109 80.1037 69.3076 67.0255C63.3472 62.1604 47.6699 62.0427 41.1616 69.2357L33.8578 50.0762C33.4665 50.6124 33.2578 50.9263 33.2578 50.9263L40.7704 70.6351C47.2786 63.4421 62.9559 63.5467 68.9164 68.4249C84.9197 81.5031 99.71 76.9388 105.24 72.5183C112.309 66.8686 116.939 61.7812 119.365 58.0146L119.17 57.5046C116.6 61.1665 112.153 65.9139 105.631 71.119Z" fill="#9B9B9B"/>
<path fill-rule="evenodd" clip-rule="evenodd" d="M119.757 56.6279L111.697 35.9251C103.402 47.1462 90.5678 46.3353 79.8989 37.3637C67.6258 27.045 53.9571 30.4976 46.4446 36.252C38.3581 42.4511 33.6367 49.5395 33.6367 49.5395L41.1493 69.2483C47.6575 62.0553 63.3348 62.1599 69.2953 67.0381C85.2986 80.1163 100.089 75.552 105.619 71.1316C112.688 65.4818 117.331 60.3813 119.757 56.6279Z" fill="#DEDEDE"/>
<path d="M61.4044 75.2386V36.6318C61.4044 33.3884 59.4871 32.1329 58.2089 32.1329C56.9308 32.1329 55.0657 33.4015 55.0657 36.6318V75.2386H51.4528V36.6318C51.4528 34.3693 49.979 32.1329 48.2444 32.1329C46.5097 32.1329 45.1011 34.3693 45.1011 36.6318V75.2386L41.4883 75.2255V38.9335C41.4883 31.6621 44.7489 29.2949 48.2444 29.2949C51.1007 29.2949 52.5484 30.9559 53.2006 32.1983C53.8396 30.9559 55.5874 29.2949 58.2089 29.2949C61.7044 29.2949 65.0302 31.6621 65.0302 38.9335V75.1994L61.4044 75.2386Z" fill="black"/>
<path d="M80.4603 75.2386V59.2571H74.1086V75.2386L70.4958 75.2648V59.2571H68.748V56.3275H70.4958V38.9335C70.4958 31.6621 73.7564 29.2949 77.2518 29.2949C80.7473 29.2949 84.0731 31.6621 84.0731 38.9335V75.2517L80.4603 75.2386ZM80.4603 36.6318C80.4603 32.983 78.4518 32.1329 77.2518 32.1329C76.078 32.1329 74.1086 32.983 74.1086 36.6318V56.3145H80.4603V36.6318Z" fill="black"/>
<path d="M103.167 29.583V65.9011C103.167 73.1726 99.8413 75.5398 96.3459 75.5398C92.8505 75.5398 89.5898 73.1726 89.5898 65.9011V29.583L93.2026 29.5961V67.8367C93.2026 71.2501 95.0677 72.8587 96.3459 72.8587C97.6371 72.8587 99.5544 71.2501 99.5544 67.8367V29.5961L103.167 29.583Z" fill="black"/>
<path d="M112.728 29.583V75.1997H109.115V29.583H112.728Z" fill="black"/>
<path d="M52.1973 59.0603L56.7231 66.3711C60.4793 64.8278 67.2093 64.6055 75.1653 66.1487C84.7777 68.0189 97.7943 66.7372 103.533 61.9375L98.8899 54.6268C97.0117 56.1831 91.4947 57.2817 81.6736 55.3985C70.3135 53.2275 56.1753 54.7445 52.1973 59.0603Z" fill="#2FAB9A"/>
<path d="M58.2473 57.5961H57.23V64.2006H56.5779V57.5961H55.5605V57.2822H58.2473" fill="white"/>
<path d="M60.6351 64.2137V61.5588H59.4613V64.2137H58.8091V61.5588H58.4961V61.3365H58.8091V57.2822H58.4961H59.4613V61.3365H60.6351V57.2822H61.6002H61.2872V64.2137H60.6351Z" fill="white"/>
<path d="M63.3342 64.2137C63.0342 64.2137 62.7864 64.2137 62.5647 64.0306C62.369 63.8606 62.356 63.6382 62.356 63.3767V61.768H62.043V61.3365H62.356V58.1192C62.356 57.8577 62.369 57.6353 62.5647 57.4653C62.7864 57.2822 63.0342 57.2822 63.3342 57.2822H64.5211V57.6353H63.5298C63.3864 57.6353 63.269 57.6746 63.1777 57.753C63.0864 57.8315 63.0473 57.9361 63.0473 58.0669V61.3365H64.195V61.755H63.0473V63.3767C63.0473 63.5074 63.0733 63.6121 63.1777 63.6905C63.269 63.769 63.3864 63.8082 63.5298 63.8082H64.508V64.2137H63.3342Z" fill="white"/>
<path d="M66.8159 64.2137H66.3203V63.9913V57.5046V57.2822H66.842C67.455 57.2822 68.6158 57.4915 68.6158 58.747C68.6158 59.4532 68.2376 59.7802 68.0289 59.9109C68.2637 60.1202 68.8767 60.7741 68.8767 61.9511C68.8897 63.7298 67.7941 64.2137 66.8159 64.2137ZM66.9855 57.5046V59.9633C67.5202 59.9371 67.9767 59.5186 67.9767 58.7339C67.9767 57.9492 67.5202 57.5307 66.9855 57.5046ZM67.7289 60.0548C67.5072 60.1594 67.1159 60.2117 66.9855 60.2117V63.9783C67.4159 63.9783 68.1985 63.5205 68.1985 61.9381C68.1985 60.9049 67.9246 60.2641 67.7289 60.0548Z" fill="white"/>
<path d="M71.6554 57.6092H70.938C70.7946 57.6092 70.6772 57.6484 70.5859 57.7269C70.4946 57.8054 70.4555 57.91 70.4555 58.0408V61.3365H71.6032V61.768H70.4555V63.3505C70.4555 63.4813 70.4815 63.5859 70.5859 63.6644C70.6772 63.7429 70.7946 63.7821 70.938 63.7821H71.6293V64.2137H70.7424C70.4424 64.2137 70.1946 64.2137 69.9729 64.0306C69.7772 63.8606 69.7642 63.6382 69.7642 63.3767V61.7811H69.4512V61.3365H69.7642V58.1192C69.7642 57.8577 69.7772 57.6353 69.9729 57.4653C70.1946 57.2822 70.4424 57.2822 70.7424 57.2822H71.6554V57.6092Z" fill="white"/>
<path d="M72.3194 64.4099L72.0586 64.1876C72.6977 63.7168 73.115 63.1283 73.1933 62.3436C73.2455 61.8205 72.9977 61.2581 72.6325 60.7088C72.2281 60.0941 72.1629 59.6364 72.2151 59.1525C72.2934 58.3286 73.0237 57.6354 73.7411 57.1123L73.9628 57.2954L73.728 57.557C73.3107 57.9493 73.0498 58.3809 73.0107 58.8386C72.9585 59.401 73.1411 59.9634 73.4542 60.4211C73.8715 61.0488 74.0019 61.6504 73.9628 62.082C73.8324 63.1937 73.0759 63.8737 72.3194 64.4099Z" fill="white"/>
<path d="M74.263 57.2822H76.9498L76.9368 57.6092H75.9325V64.1483H75.2804V57.6092H74.25L74.263 57.2822Z" fill="white"/>
<path d="M80.132 64.2531C79.545 64.2531 78.6973 63.913 78.6973 60.7481C78.6973 57.5832 79.545 57.2432 80.132 57.2432C80.7189 57.2432 81.5666 57.5832 81.5666 60.7481C81.5536 63.913 80.7189 64.2531 80.132 64.2531ZM80.132 57.4655C79.7537 57.4655 79.3885 57.8448 79.3885 60.7481C79.3885 63.6515 79.7407 64.0307 80.132 64.0307C80.5102 64.0307 80.8754 63.6515 80.8754 60.7481C80.8623 57.8448 80.5102 57.4655 80.132 57.4655Z" fill="white"/>
<path d="M84.5158 57.6353H83.5376C83.3942 57.6353 83.2768 57.6746 83.1855 57.753C83.0942 57.8315 83.0551 57.9361 83.0551 58.0669V61.3365H84.2028V61.7811H83.0551V64.1483H82.3638V61.7811H82.0508V61.3365H82.3638V58.1192C82.3638 57.8577 82.3768 57.6353 82.5725 57.4653C82.7942 57.2822 83.042 57.2822 83.342 57.2822H84.5289" fill="white"/>
<path d="M90.006 64.2138V58.3548C90.006 57.6878 89.6539 57.4655 89.4321 57.4655C89.1974 57.4655 88.8583 57.6747 88.8583 58.3548V64.2138H88.2061V58.3548C88.2061 57.6878 87.854 57.4655 87.6323 57.4655C87.3975 57.4655 87.0584 57.6747 87.0584 58.3548V64.2138H86.4062V58.7079C86.4062 57.6094 86.9932 57.2432 87.6323 57.2432C88.154 57.2432 88.4148 57.4916 88.5322 57.6878C88.6496 57.5047 88.9626 57.2432 89.4321 57.2432C90.0712 57.2432 90.6712 57.5963 90.6712 58.7079V64.2138H90.006Z" fill="white"/>
<path d="M93.4488 64.2132V61.7807H92.3011V64.2132H91.649V61.7807H91.3359V61.336H91.649V58.6943C91.649 57.5957 92.2359 57.2295 92.875 57.2295C93.5141 57.2295 94.114 57.5826 94.114 58.6943V64.2132H93.4488ZM93.4488 58.3411C93.4488 57.6742 93.0967 57.4518 92.875 57.4518C92.6402 57.4518 92.3011 57.6611 92.3011 58.3411V61.336H93.4488V58.3411Z" fill="white"/>
<path d="M97.5705 57.2686V62.7875C97.5705 63.8861 96.9706 64.2523 96.3315 64.2523C95.7054 64.2523 95.1055 63.8992 95.1055 62.7875V57.2686H95.7576V63.1276C95.7576 63.7946 96.0967 64.0169 96.3315 64.0169C96.5662 64.0169 96.9054 63.8076 96.9054 63.1276V57.2816" fill="white"/>
<path d="M99.2928 57.2686V64.2H98.6406V57.2686" fill="white"/>
</g>
<defs>
<clipPath id="clip0_7_175">
<rect width="122.105" height="98.5049" fill="white"/>
</clipPath>
</defs>
</svg>
