<svg width="19" height="19" viewBox="0 0 19 19" fill="none" xmlns="http://www.w3.org/2000/svg">
<path d="M9.16667 0C14.2294 0 18.3333 4.10392 18.3333 9.16667C18.3333 14.2294 14.2294 18.3333 9.16667 18.3333C4.10392 18.3333 0 14.2294 0 9.16667C0 4.10392 4.10392 0 9.16667 0ZM9.16667 1.83333C7.22175 1.83333 5.35648 2.60595 3.98122 3.98122C2.60595 5.35648 1.83333 7.22175 1.83333 9.16667C1.83333 11.1116 2.60595 12.9769 3.98122 14.3521C5.35648 15.7274 7.22175 16.5 9.16667 16.5C11.1116 16.5 12.9769 15.7274 14.3521 14.3521C15.7274 12.9769 16.5 11.1116 16.5 9.16667C16.5 7.22175 15.7274 5.35648 14.3521 3.98122C12.9769 2.60595 11.1116 1.83333 9.16667 1.83333ZM9.16667 3.66667C9.39119 3.6667 9.60789 3.74913 9.77567 3.89832C9.94346 4.04752 10.0506 4.2531 10.0769 4.47608L10.0833 4.58333V8.78717L12.5647 11.2686C12.7292 11.4335 12.8246 11.6549 12.8317 11.8877C12.8388 12.1205 12.7571 12.3472 12.603 12.5219C12.449 12.6966 12.2342 12.8061 12.0024 12.8282C11.7706 12.8503 11.539 12.7833 11.3548 12.6408L11.2686 12.5647L8.51858 9.81475C8.37611 9.67216 8.28462 9.48659 8.25825 9.28675L8.25 9.16667V4.58333C8.25 4.34022 8.34658 4.10706 8.51849 3.93515C8.69039 3.76324 8.92355 3.66667 9.16667 3.66667Z" fill="#2872A3"/>
</svg>
