<svg width="20" height="20" viewBox="0 0 20 20" fill="none" xmlns="http://www.w3.org/2000/svg">
<path d="M15.0365 2.50583L10.2574 2.5C10.0403 2.50011 9.82549 2.54324 9.62523 2.62692C9.42497 2.7106 9.2433 2.83316 9.09071 2.9875L2.98238 9.14917C2.67575 9.4609 2.50391 9.88065 2.50391 10.3179C2.50391 10.7552 2.67575 11.1749 2.98238 11.4867L8.45988 17.0125C8.61219 17.1672 8.79381 17.29 8.99413 17.3737C9.19445 17.4574 9.40944 17.5004 9.62655 17.5C9.84358 17.4999 10.0584 17.4568 10.2587 17.3731C10.459 17.2894 10.6406 17.1668 10.7932 17.0125L16.9674 10.7817C17.1345 10.6262 17.268 10.4381 17.3594 10.2289C17.4509 10.0198 17.4984 9.7941 17.499 9.56583V4.9825C17.4995 4.32796 17.2407 3.69989 16.7792 3.23574C16.3176 2.77158 15.6911 2.50914 15.0365 2.50583ZM12.9932 7.87083C12.7722 7.87083 12.5602 7.78304 12.404 7.62676C12.2477 7.47048 12.1599 7.25851 12.1599 7.0375C12.1599 6.81649 12.2477 6.60452 12.404 6.44824C12.5602 6.29196 12.7722 6.20417 12.9932 6.20417C13.2142 6.20417 13.4262 6.29196 13.5825 6.44824C13.7387 6.60452 13.8265 6.81649 13.8265 7.0375C13.8265 7.25851 13.7387 7.47048 13.5825 7.62676C13.4262 7.78304 13.2142 7.87083 12.9932 7.87083Z" fill="#2872A3"/>
</svg>
