<svg width="18" height="18" viewBox="0 0 18 18" fill="none" xmlns="http://www.w3.org/2000/svg">
<path d="M14.875 1.75H13.125V0.875C13.125 0.642936 13.0328 0.420376 12.8687 0.256282C12.7046 0.0921872 12.4821 0 12.25 0C12.0179 0 11.7954 0.0921872 11.6313 0.256282C11.4672 0.420376 11.375 0.642936 11.375 0.875V1.75H6.125V0.875C6.125 0.642936 6.03281 0.420376 5.86872 0.256282C5.70462 0.0921872 5.48206 0 5.25 0C5.01794 0 4.79538 0.0921872 4.63128 0.256282C4.46719 0.420376 4.375 0.642936 4.375 0.875V1.75H2.625C1.92881 1.75 1.26113 2.02656 0.768845 2.51884C0.276562 3.01113 0 3.67881 0 4.375V14.875C0 15.5712 0.276562 16.2389 0.768845 16.7312C1.26113 17.2234 1.92881 17.5 2.625 17.5H14.875C15.5712 17.5 16.2389 17.2234 16.7312 16.7312C17.2234 16.2389 17.5 15.5712 17.5 14.875V4.375C17.5 3.67881 17.2234 3.01113 16.7312 2.51884C16.2389 2.02656 15.5712 1.75 14.875 1.75ZM15.75 14.875C15.75 15.1071 15.6578 15.3296 15.4937 15.4937C15.3296 15.6578 15.1071 15.75 14.875 15.75H2.625C2.39294 15.75 2.17038 15.6578 2.00628 15.4937C1.84219 15.3296 1.75 15.1071 1.75 14.875V8.75H15.75V14.875ZM15.75 7H1.75V4.375C1.75 4.14294 1.84219 3.92038 2.00628 3.75628C2.17038 3.59219 2.39294 3.5 2.625 3.5H4.375V4.375C4.375 4.60706 4.46719 4.82962 4.63128 4.99372C4.79538 5.15781 5.01794 5.25 5.25 5.25C5.48206 5.25 5.70462 5.15781 5.86872 4.99372C6.03281 4.82962 6.125 4.60706 6.125 4.375V3.5H11.375V4.375C11.375 4.60706 11.4672 4.82962 11.6313 4.99372C11.7954 5.15781 12.0179 5.25 12.25 5.25C12.4821 5.25 12.7046 5.15781 12.8687 4.99372C13.0328 4.82962 13.125 4.60706 13.125 4.375V3.5H14.875C15.1071 3.5 15.3296 3.59219 15.4937 3.75628C15.6578 3.92038 15.75 4.14294 15.75 4.375V7Z" fill="white"/>
</svg>
