<svg width="20" height="20" viewBox="0 0 20 20" fill="none" xmlns="http://www.w3.org/2000/svg">
<path d="M1.66797 7.49996C1.66797 5.92829 1.66797 5.14329 2.1563 4.65496C2.64464 4.16663 3.42964 4.16663 5.0013 4.16663H15.0013C16.573 4.16663 17.358 4.16663 17.8463 4.65496C18.3346 5.14329 18.3346 5.92829 18.3346 7.49996C18.3346 7.89246 18.3346 8.08913 18.213 8.21163C18.0905 8.33329 17.893 8.33329 17.5013 8.33329H2.5013C2.1088 8.33329 1.91214 8.33329 1.78964 8.21163C1.66797 8.08913 1.66797 7.89163 1.66797 7.49996ZM1.66797 15C1.66797 16.5716 1.66797 17.3566 2.1563 17.845C2.64464 18.3333 3.42964 18.3333 5.0013 18.3333H15.0013C16.573 18.3333 17.358 18.3333 17.8463 17.845C18.3346 17.3566 18.3346 16.5716 18.3346 15V10.8333C18.3346 10.4408 18.3346 10.2441 18.213 10.1216C18.0905 9.99996 17.893 9.99996 17.5013 9.99996H2.5013C2.1088 9.99996 1.91214 9.99996 1.78964 10.1216C1.66797 10.2441 1.66797 10.4416 1.66797 10.8333V15Z" fill="#2872A3"/>
<path d="M5 4.99996V2.49996C5 2.03972 5.3731 1.66663 5.83333 1.66663C6.29357 1.66663 6.66667 2.03972 6.66667 2.49996V4.99996C6.66667 5.4602 6.29357 5.83329 5.83333 5.83329C5.3731 5.83329 5 5.4602 5 4.99996ZM13.3333 4.99996V2.49996C13.3333 2.03972 13.7064 1.66663 14.1667 1.66663C14.6269 1.66663 15 2.03972 15 2.49996V4.99996C15 5.4602 14.6269 5.83329 14.1667 5.83329C13.7064 5.83329 13.3333 5.4602 13.3333 4.99996Z" fill="#2872A3"/>
</svg>
