<svg width="16" height="19" viewBox="0 0 16 19" fill="none" xmlns="http://www.w3.org/2000/svg">
<g clip-path="url(#clip0_691_649)">
<path d="M10.114 13.1897V15.4269C10.114 15.9005 9.9786 16.1373 9.70784 16.1373C9.54817 16.1373 9.39196 16.0595 9.23923 15.904V12.7126C9.39196 12.5571 9.54817 12.4794 9.70784 12.4794C9.9786 12.4794 10.114 12.7161 10.114 13.1897ZM13.6338 13.2003V13.6881H12.6966V13.2003C12.6966 12.7197 12.8528 12.4794 13.1652 12.4794C13.4776 12.4794 13.6338 12.7197 13.6338 13.2003ZM3.57421 10.889H4.68847V9.8923H1.43941V10.889H2.53284V16.9219H3.57421V10.889ZM6.57334 16.9219H7.50015V11.6842H6.57334V15.692C6.36506 15.9888 6.1672 16.1373 5.97976 16.1373C5.85479 16.1373 5.7819 16.0631 5.76107 15.9146C5.75413 15.8934 5.75066 15.7697 5.75066 15.5435V11.6842H4.82384V15.8298C4.82384 16.1762 4.85161 16.4342 4.90715 16.6038C4.99046 16.8653 5.19179 16.9961 5.51114 16.9961C5.84438 16.9961 6.19845 16.7805 6.57334 16.3493V16.9219ZM11.0408 15.3527V13.264C11.0408 12.748 11.0096 12.3981 10.9471 12.2143C10.829 11.8185 10.5826 11.6205 10.2077 11.6205C9.86058 11.6205 9.53776 11.8114 9.23923 12.1931V9.8923H8.31242V16.9219H9.23923V16.4129C9.55164 16.8017 9.87446 16.9961 10.2077 16.9961C10.5826 16.9961 10.829 16.8017 10.9471 16.4129C11.0096 16.2221 11.0408 15.8687 11.0408 15.3527ZM14.5606 15.2467V15.1088H13.613C13.613 15.4693 13.606 15.6849 13.5921 15.7556C13.5435 16.01 13.4047 16.1373 13.1756 16.1373C12.8562 16.1373 12.6966 15.8934 12.6966 15.4057V14.4833H14.5606V13.3912C14.5606 12.8328 14.4669 12.4228 14.2794 12.1613C14.0087 11.8008 13.6407 11.6205 13.1756 11.6205C12.7035 11.6205 12.3321 11.8008 12.0613 12.1613C11.8669 12.4228 11.7697 12.8328 11.7697 13.3912V15.2254C11.7697 15.7839 11.8704 16.1938 12.0717 16.4554C12.3425 16.8158 12.7174 16.9961 13.1964 16.9961C13.6963 16.9961 14.0712 16.8088 14.3211 16.4342C14.4461 16.2433 14.519 16.0525 14.5398 15.8616C14.5537 15.798 14.5606 15.593 14.5606 15.2467ZM8.22911 5.56641V3.33984C8.22911 2.85212 8.07984 2.60826 7.78132 2.60826C7.4828 2.60826 7.33353 2.85212 7.33353 3.33984V5.56641C7.33353 6.0612 7.4828 6.30859 7.78132 6.30859C8.07984 6.30859 8.22911 6.0612 8.22911 5.56641ZM15.7165 13.529C15.7165 15.183 15.6263 16.42 15.4458 17.24C15.3486 17.657 15.1472 18.0069 14.8418 18.2896C14.5363 18.5724 14.1822 18.7349 13.7796 18.7773C12.5022 18.9258 10.5756 19 8.00001 19C5.42436 19 3.49784 18.9258 2.22043 18.7773C1.81777 18.7349 1.46197 18.5724 1.15303 18.2896C0.844094 18.0069 0.6445 17.657 0.554248 17.24C0.373745 16.4483 0.283493 15.2113 0.283493 13.529C0.283493 11.875 0.373745 10.638 0.554248 9.81808C0.651442 9.40104 0.852772 9.05115 1.15824 8.76841C1.46371 8.48568 1.82124 8.31957 2.23085 8.27009C3.50131 8.12872 5.42436 8.05804 8.00001 8.05804C10.5756 8.05804 12.5022 8.12872 13.7796 8.27009C14.1822 8.31957 14.538 8.48568 14.847 8.76841C15.1559 9.05115 15.3555 9.40104 15.4458 9.81808C15.6263 10.6097 15.7165 11.8467 15.7165 13.529ZM5.3237 0H6.38589L5.12584 4.23047V7.10379H4.08447V4.23047C3.98728 3.7074 3.77554 2.95815 3.44924 1.9827C3.19237 1.25465 2.96674 0.59375 2.77236 0H3.8762L4.61557 2.7885L5.3237 0ZM9.17675 3.53069V5.38616C9.17675 5.9587 9.07955 6.37574 8.88517 6.63728C8.62135 6.99777 8.25341 7.17801 7.78132 7.17801C7.31618 7.17801 6.9517 6.99777 6.68789 6.63728C6.4935 6.36868 6.3963 5.95164 6.3963 5.38616V3.53069C6.3963 2.96522 6.4935 2.55171 6.68789 2.29018C6.9517 1.92969 7.31618 1.74944 7.78132 1.74944C8.25341 1.74944 8.62135 1.92969 8.88517 2.29018C9.07955 2.55171 9.17675 2.96522 9.17675 3.53069ZM12.6653 1.81306V7.10379H11.7177V6.52065C11.3497 6.95889 10.9922 7.17801 10.6451 7.17801C10.3257 7.17801 10.1209 7.04725 10.0307 6.78571C9.97513 6.61607 9.94736 6.351 9.94736 5.99051V1.81306H10.895V5.70424C10.895 5.9375 10.8985 6.0612 10.9054 6.07533C10.9262 6.23084 10.9991 6.30859 11.1241 6.30859C11.3115 6.30859 11.5094 6.15662 11.7177 5.85268V1.81306H12.6653Z" fill="white"/>
</g>
<defs>
<clipPath id="clip0_691_649">
<rect width="16" height="19" fill="white"/>
</clipPath>
</defs>
</svg>
