<svg width="23" height="23" viewBox="0 0 23 23" fill="none" xmlns="http://www.w3.org/2000/svg">
<path fill-rule="evenodd" clip-rule="evenodd" d="M15.0698 21.0832V13.6609H17.5615L17.9342 10.7686H15.0688V8.92192C15.0688 8.08434 15.3017 7.51317 16.5035 7.51317H18.0349V4.92567C17.2933 4.84599 16.5478 4.8076 15.802 4.81067C13.594 4.81067 12.0827 6.15905 12.0827 8.63442V10.7686H9.58333V13.6609H12.0817V21.0832H2.97466C2.39008 21.0832 1.91666 20.6098 1.91666 20.0252V2.9745C1.91666 2.38992 2.39008 1.9165 2.97466 1.9165H20.0253C20.6099 1.9165 21.0833 2.38992 21.0833 2.9745V20.0252C21.0833 20.6098 20.6099 21.0832 20.0253 21.0832H15.0698Z" fill="white"/>
</svg>
