<svg width="570" height="380" viewBox="0 0 570 380" fill="none" xmlns="http://www.w3.org/2000/svg">
<path d="M570 18.0787V0H0V18.0787C7.57989 18.0787 13.7255 24.2485 13.7255 31.8582C13.7255 39.4678 7.57989 45.6376 0 45.6376V63.2621C7.57989 63.2621 13.7255 69.4319 13.7255 77.0415C13.7255 84.6512 7.57989 90.821 0 90.821V108.445C7.57989 108.445 13.7255 114.615 13.7255 122.225C13.7255 129.835 7.57989 136.004 0 136.004V153.629C7.57989 153.629 13.7255 159.799 13.7255 167.408C13.7255 175.018 7.57989 181.188 0 181.188V198.812C7.57989 198.812 13.7255 204.982 13.7255 212.592C13.7255 220.201 7.57989 226.371 0 226.371V243.996C7.57989 243.996 13.7255 250.165 13.7255 257.775C13.7255 265.385 7.57989 271.555 0 271.555V289.179C7.57989 289.179 13.7255 295.349 13.7255 302.958C13.7255 310.568 7.57989 316.738 0 316.738V334.362C7.57989 334.362 13.7255 340.532 13.7255 348.142C13.7255 355.752 7.57989 361.921 0 361.921V380H570V361.921C562.42 361.921 556.275 355.752 556.275 348.142C556.275 340.532 562.42 334.362 570 334.362V316.738C562.42 316.738 556.275 310.568 556.275 302.958C556.275 295.347 562.42 289.179 570 289.179V271.558C562.42 271.558 556.275 265.388 556.275 257.778C556.275 250.169 562.42 243.999 570 243.999V226.374C562.42 226.374 556.275 220.205 556.275 212.595C556.275 204.985 562.42 198.815 570 198.815V181.191C562.42 181.191 556.275 175.021 556.275 167.411C556.275 159.802 562.42 153.632 570 153.632V136.008C562.42 136.008 556.275 129.838 556.275 122.228C556.275 114.618 562.42 108.449 570 108.449V90.8226C562.42 90.8226 556.275 84.6528 556.275 77.0431C556.275 69.4319 562.42 63.2637 570 63.2637V45.6392C562.42 45.6392 556.275 39.4694 556.275 31.8597C556.275 24.2501 562.419 18.0787 570 18.0787Z" fill="#0099FF"/>
</svg>
