<svg width="120" height="120" viewBox="0 0 120 120" fill="none" xmlns="http://www.w3.org/2000/svg">
<path d="M25.085 22.6997L25.9087 25.723L35.5811 27.3917L43.2319 52.5817L33.917 55.1168L34.3665 56.7675L34.5247 57.3483L34.2312 57.8731C30.3005 64.9062 27.6301 72.128 21.6719 79.4787C22.9378 81.0463 25.8546 84.4979 29.7042 88.0054C34.9044 92.7432 41.7613 97.3889 47.9098 97.6184C63.28 98.1915 74.6595 86.0105 74.6595 86.0105L75.1101 85.523L99.0444 86.0542V74.1471L78.7244 73.4011L78.3419 72.592C70.9294 56.9107 53.7247 36.0034 41.7518 25.5175L25.085 22.6997ZM26.7629 28.8585L33.1428 52.2758L39.5329 50.5364L33.291 29.985L26.7629 28.8585ZM49.638 56.8647C60.0716 56.8647 68.5297 65.3227 68.5297 75.7563C68.5297 86.1898 60.0717 94.648 49.638 94.648C39.2043 94.648 30.7463 86.19 30.7463 75.7563C30.7463 65.3225 39.2043 56.8645 49.638 56.8645V56.8647ZM49.7664 59.8863C48.5621 59.8771 47.3607 60.005 46.1853 60.2675C37.648 62.1706 32.2461 70.6718 34.1494 79.2088C36.0524 87.7463 44.5536 93.1481 53.0907 91.245C61.6279 89.3419 67.0299 80.8407 65.1266 72.3037C63.4912 64.9669 56.9827 59.9456 49.7664 59.8863ZM49.6185 62.8286C51.5028 62.8224 53.3654 63.2304 55.0745 64.0237L50.944 70.5243C50.6169 70.4416 50.2828 70.3898 49.9461 70.3695L48.2815 62.9026C48.7256 62.8548 49.172 62.83 49.6187 62.8285L49.6185 62.8286ZM45.4071 63.5432L47.0716 71.0101C46.8311 71.1413 46.6008 71.2906 46.3829 71.4568L40.0257 66.5948C41.4761 64.9147 43.1934 64.3049 45.4069 63.5431L45.4071 63.5432ZM57.5896 65.5561C59.5594 67.0899 61.0401 69.1639 61.851 71.525L54.3841 73.1897C54.1458 72.7522 53.8481 72.3497 53.4994 71.9938L57.5896 65.5561ZM38.1919 69.7406L44.6082 73.8178C44.4055 74.3395 44.2852 74.8896 44.2516 75.4484L36.7847 77.1126C36.5033 74.4959 37.0327 71.9462 38.1921 69.7405L38.1919 69.7406ZM62.4917 74.3994C62.7365 76.6627 62.3761 78.9504 61.4473 81.0288L54.9132 76.8771C54.9708 76.6109 55.0081 76.3392 55.0248 76.064L62.4917 74.3994ZM44.8922 78.3224C45.0537 78.6188 45.2427 78.8993 45.4566 79.1604L41.3258 85.6606C39.5339 84.1593 38.1854 82.1977 37.4253 79.987L44.8922 78.3224ZM53.5293 79.4866L59.9456 83.5634C58.441 85.5498 56.3579 87.1124 53.8693 87.9691L52.2047 80.502C52.6962 80.2343 53.1431 79.8917 53.5293 79.4866ZM47.8721 80.8497C48.3424 81.0141 48.8332 81.1127 49.3304 81.1425L50.9947 88.6096C48.5128 88.8784 46.0063 88.419 43.7811 87.2874L47.8721 80.8497Z" fill="#2872A3"/>
</svg>
