<svg width="19" height="19" viewBox="0 0 19 19" fill="none" xmlns="http://www.w3.org/2000/svg">
<path d="M12.6667 2.375C13.7165 2.375 14.7233 2.79204 15.4656 3.53437C16.208 4.2767 16.625 5.28352 16.625 6.33333V12.6667C16.625 13.7165 16.208 14.7233 15.4656 15.4656C14.7233 16.208 13.7165 16.625 12.6667 16.625H6.33333C5.28352 16.625 4.2767 16.208 3.53437 15.4656C2.79204 14.7233 2.375 13.7165 2.375 12.6667V6.33333C2.375 5.28352 2.79204 4.2767 3.53437 3.53437C4.2767 2.79204 5.28352 2.375 6.33333 2.375H12.6667ZM9.5 6.33333C8.66015 6.33333 7.85469 6.66696 7.26083 7.26083C6.66696 7.85469 6.33333 8.66015 6.33333 9.5C6.33333 10.3399 6.66696 11.1453 7.26083 11.7392C7.85469 12.333 8.66015 12.6667 9.5 12.6667C10.3399 12.6667 11.1453 12.333 11.7392 11.7392C12.333 11.1453 12.6667 10.3399 12.6667 9.5C12.6667 8.66015 12.333 7.85469 11.7392 7.26083C11.1453 6.66696 10.3399 6.33333 9.5 6.33333ZM9.5 7.91667C9.91993 7.91667 10.3227 8.08348 10.6196 8.38041C10.9165 8.67735 11.0833 9.08007 11.0833 9.5C11.0833 9.91993 10.9165 10.3227 10.6196 10.6196C10.3227 10.9165 9.91993 11.0833 9.5 11.0833C9.08007 11.0833 8.67735 10.9165 8.38041 10.6196C8.08348 10.3227 7.91667 9.91993 7.91667 9.5C7.91667 9.08007 8.08348 8.67735 8.38041 8.38041C8.67735 8.08348 9.08007 7.91667 9.5 7.91667ZM13.0625 5.14583C12.8525 5.14583 12.6512 5.22924 12.5027 5.37771C12.3542 5.52617 12.2708 5.72754 12.2708 5.9375C12.2708 6.14746 12.3542 6.34883 12.5027 6.49729C12.6512 6.64576 12.8525 6.72917 13.0625 6.72917C13.2725 6.72917 13.4738 6.64576 13.6223 6.49729C13.7708 6.34883 13.8542 6.14746 13.8542 5.9375C13.8542 5.72754 13.7708 5.52617 13.6223 5.37771C13.4738 5.22924 13.2725 5.14583 13.0625 5.14583Z" fill="white"/>
</svg>
