<svg width="20" height="20" viewBox="0 0 20 20" fill="none" xmlns="http://www.w3.org/2000/svg">
<path d="M13.953 13.9529C14.3436 13.5624 14.9766 13.5624 15.3671 13.9529L19.707 18.2928C20.0975 18.6833 20.0975 19.3163 19.707 19.7068C19.3164 20.0974 18.6834 20.0974 18.2929 19.7068L13.953 15.367C13.5625 14.9765 13.5625 14.3435 13.953 13.9529Z" fill="#2872A3"/>
<path d="M16 9C16 5.13401 12.866 2 9 2C5.13401 2 2 5.13401 2 9C2 12.866 5.13401 16 9 16C12.866 16 16 12.866 16 9ZM18 9C18 13.9706 13.9706 18 9 18C4.02944 18 0 13.9706 0 9C0 4.02944 4.02944 0 9 0C13.9706 0 18 4.02944 18 9Z" fill="#2872A3"/>
</svg>
