<svg width="18" height="17" viewBox="0 0 18 17" fill="none" xmlns="http://www.w3.org/2000/svg">
<path d="M8.09766 0.800781C8.26613 0.399609 8.847 0.39976 9.01562 0.800781L9.0166 0.802734L10.9062 5.2627L11.0244 5.54004L11.3242 5.56543L16.1543 5.97559H16.1572C16.5649 6.00801 16.7525 6.49152 16.4971 6.79199L16.4395 6.84961L12.7695 10.0293L12.542 10.2275L12.6104 10.5205L13.71 15.2412C13.8098 15.6722 13.3453 16.009 12.9658 15.7793L8.81543 13.2695L8.55762 13.1133L8.29883 13.2695L4.14941 15.7695H4.14844C3.76899 15.9992 3.30456 15.6624 3.4043 15.2314L4.50391 10.5107L4.57227 10.2168L4.34473 10.0195L0.674805 6.83984H0.673828C0.33714 6.54834 0.522133 6.00041 0.957031 5.96582H0.958984L5.78906 5.55566L6.08984 5.53027L6.20703 5.25293L8.09766 0.802734V0.800781Z" stroke="#E26216"/>
</svg>
