<svg width="19" height="14" viewBox="0 0 19 14" fill="none" xmlns="http://www.w3.org/2000/svg">
<path d="M17.7573 5.94563C18.0233 6.31838 18.1562 6.50563 18.1562 6.78125C18.1562 7.05775 18.0233 7.24412 17.7573 7.61687C16.562 9.29337 13.5091 12.9062 9.40625 12.9062C5.3025 12.9062 2.2505 9.2925 1.05525 7.61687C0.78925 7.24412 0.65625 7.05687 0.65625 6.78125C0.65625 6.50475 0.78925 6.31838 1.05525 5.94563C2.2505 4.26913 5.30337 0.65625 9.40625 0.65625C13.51 0.65625 16.562 4.27 17.7573 5.94563Z" stroke="white" stroke-width="1.3125"/>
<path d="M12.0312 6.78125C12.0312 6.08506 11.7547 5.41738 11.2624 4.92509C10.7701 4.43281 10.1024 4.15625 9.40625 4.15625C8.71006 4.15625 8.04238 4.43281 7.55009 4.92509C7.05781 5.41738 6.78125 6.08506 6.78125 6.78125C6.78125 7.47744 7.05781 8.14512 7.55009 8.63741C8.04238 9.12969 8.71006 9.40625 9.40625 9.40625C10.1024 9.40625 10.7701 9.12969 11.2624 8.63741C11.7547 8.14512 12.0312 7.47744 12.0312 6.78125Z" stroke="white" stroke-width="1.3125"/>
</svg>
