<?xml version="1.0" encoding="UTF-8"?>
<svg xmlns="http://www.w3.org/2000/svg" width="200" height="102" viewBox="0 0 200 102" fill="none">
  <path d="M117.96 61.1094L118.382 61.1713C118.997 61.7368 118.654 63.4348 118.649 64.232C118.641 65.4675 118.635 66.7045 118.635 67.9403L118.633 85.7978L118.64 92.0383C118.646 93.1302 118.615 94.5875 118.713 95.6544C109.665 95.5464 100.554 95.6762 91.4999 95.6215C89.4898 95.6094 87.4845 95.6968 85.4898 95.6832C85.0579 95.7091 84.6546 95.8089 84.3497 95.4809C84.2229 94.6666 84.2979 91.7856 84.2976 90.821L84.3058 80.5143L84.2986 67.8901C84.2953 66.491 84.2012 62.5906 84.3735 61.3461C84.7435 61.0511 93.1499 61.186 94.2188 61.1888L109.027 61.1901C111.932 61.1958 115.075 61.2503 117.96 61.1094Z" fill="#2872A3"></path>
  <path d="M101.347 67.0139C101.925 67.5258 104.08 74.6551 104.383 75.734C107.424 75.7911 110.701 75.7453 113.752 75.702C112.503 76.405 109.525 78.6462 108.238 79.6027C106.28 81.0579 103.82 82.6873 101.948 84.1611C103.661 83.6074 105.03 83.3184 106.793 82.9319C107.076 84.1013 107.593 85.3073 107.954 86.4635C108.323 87.6525 108.627 88.8375 109.008 90.027C107.875 89.0272 106.078 87.789 104.809 86.8654C103.877 86.2118 102.404 84.9766 101.483 84.5061C100.908 84.818 99.4946 85.9151 98.8971 86.3516C97.2612 87.5558 95.6124 88.7426 93.9514 89.9119C94.7698 87.2008 96.2121 83.6013 96.8749 81.0164C94.7499 79.8055 91.6173 77.2005 89.3447 75.7194C92.1383 75.8329 95.6441 75.7293 98.4891 75.7313C99.292 74.0423 99.5991 72.707 100.136 70.9393C100.549 69.5854 101.077 68.4218 101.347 67.0139Z" fill="#FEFEFE"></path>
  <path d="M155.191 61.1084C155.499 61.0688 155.421 61.0346 155.668 61.1458C155.9 61.6395 155.757 65.0532 155.758 65.9119L155.764 79.1836C155.763 84.3775 155.915 90.4841 155.732 95.6156C152.067 95.7438 147.636 95.6353 143.912 95.6286L121.897 95.6503C121.751 95.657 121.665 95.6096 121.528 95.5571C121.384 95.3149 121.364 95.0494 121.374 94.7707C121.456 92.4572 121.461 90.1405 121.463 87.8262C121.496 78.943 121.469 70.0599 121.383 61.1771C123.157 61.0493 127.011 61.1857 128.932 61.1847L145.511 61.1907C148.438 61.193 152.298 61.2908 155.191 61.1084Z" fill="#2872A3"></path>
  <path d="M138.388 66.8884C138.832 67.0918 140.362 72.6172 140.675 73.433C140.94 74.124 141.168 74.9777 141.572 75.7603C144.626 75.7318 147.68 75.7209 150.734 75.7275C150.081 76.1061 149.384 76.5902 148.784 77.0533C145.574 79.5336 141.998 81.7694 138.814 84.2572C140.665 83.7856 141.745 83.3572 143.789 82.9525C144.6 84.883 145.318 87.7132 146.196 89.976C144.959 89.252 142.871 87.6333 141.649 86.7389L138.538 84.4694C137.924 84.7841 137.437 85.2721 136.905 85.6168C135.428 86.5745 132.672 88.9628 131.191 89.6656L131.09 89.5931C131.125 88.8735 133.528 82.0517 133.864 81.0183C131.392 79.5498 128.542 76.9582 126.185 75.7169C129.138 75.8099 132.555 75.7459 135.528 75.7224C136.043 74.6922 136.268 73.5775 136.656 72.5025C137.325 70.6492 137.835 68.7767 138.388 66.8884Z" fill="#FEFEFE"></path>
  <path d="M44.1124 61.1076C44.4508 61.0793 44.3618 61.0364 44.6018 61.1858C44.8922 61.8222 44.6522 63.5892 44.6545 64.3756C44.6597 66.1067 44.6532 67.8487 44.6454 69.5806L44.6584 85.3209C44.662 88.677 44.5994 92.2872 44.701 95.6262L21.0505 95.6271C17.7998 95.6225 14.46 95.6919 11.231 95.6466C10.9091 95.6503 10.8082 95.658 10.4841 95.5764C10.3358 95.3746 10.3032 95.3564 10.3077 95.0623C10.3336 93.3691 10.3473 91.6654 10.3457 89.9734L10.3482 77.9697C10.3745 72.5539 10.1793 66.4826 10.3957 61.1616L31.3124 61.1948C35.4523 61.1942 40.0138 61.2881 44.1124 61.1076Z" fill="#2872A3"></path>
  <path d="M27.3815 66.9656C27.9614 67.3105 29.8064 74.4074 30.4263 75.6911C31.4029 75.7764 32.8362 75.7362 33.8508 75.7349L39.7615 75.7233C37.9617 76.7149 34.7728 79.3274 32.9337 80.5534C32.0386 81.15 28.5718 83.5802 27.8982 84.1989C29.271 83.6966 31.2634 83.2821 32.6963 82.9578C33.3926 84.4536 33.6388 85.5424 34.1134 87.1071C34.3741 87.9663 34.8209 89.081 35.1445 89.9387C33.9079 89.2243 31.7289 87.5421 30.504 86.6463C29.4789 85.9396 28.5126 85.1842 27.5263 84.4255C26.9844 84.738 26.1586 85.4478 25.6054 85.824C23.7724 87.0708 21.6324 88.9078 19.7863 90.0285C20.8509 87.4763 22.0814 83.6567 22.8021 80.9743C20.3579 79.5247 17.5635 76.9544 15.1826 75.7244C18.2618 75.801 21.6416 75.7349 24.7382 75.7402C25.2218 73.203 26.6088 69.6414 27.3815 66.9656Z" fill="#FEFEFE"></path>
  <path d="M192.095 61.1091C192.274 61.0512 192.356 61.0762 192.542 61.0986C192.807 61.4155 192.681 68.5247 192.679 69.4242L192.676 86.1632C192.677 89.1721 192.59 92.7376 192.731 95.6911C189.525 95.5671 186.104 95.6231 182.879 95.6256L168.089 95.6276C165.652 95.6284 162.124 95.763 159.822 95.6323L158.51 95.6642C158.395 94.5301 158.484 91.2601 158.486 89.9845L158.499 77.9754L158.482 67.1204C158.479 65.6228 158.392 62.5239 158.584 61.1912C159.293 61.1409 160.578 61.1826 161.342 61.1843L166.688 61.194L181.744 61.1906C185.034 61.1975 188.824 61.2935 192.095 61.1091Z" fill="#2872A3"></path>
  <path d="M175.457 67.0874C175.692 67.2945 178.237 74.8619 178.415 75.7332C181.529 75.7526 184.644 75.7489 187.758 75.7221C186.619 76.3236 184.954 77.6561 183.844 78.4397C181.133 80.3551 178.474 82.4254 175.702 84.2544C177.452 83.8353 179.001 83.3289 180.885 82.9074C181.336 85.1616 182.409 87.5628 182.997 89.9383C181.841 88.9651 179.83 87.6008 178.554 86.6762C177.538 85.9277 176.514 85.1893 175.483 84.4611C175.12 84.6699 173.213 86.1057 172.775 86.4399C171.313 87.5541 169.281 88.8393 167.954 90.0299C168.624 88.4007 169.028 86.3847 169.664 84.705C170.12 83.5011 170.315 82.2236 170.977 81.0812C168.66 79.7968 165.802 77.2259 163.378 75.7757C166.462 75.733 169.546 75.7191 172.63 75.734C172.986 74.4334 173.486 73.2288 173.863 71.9684C174.384 70.2261 174.778 68.7809 175.457 67.0874Z" fill="#FEFEFE"></path>
  <path d="M81.0367 61.1092C81.2672 61.0688 81.2774 61.0622 81.4856 61.1519C81.7654 61.6735 81.5993 63.884 81.5968 64.623L81.6 71.1054L81.6335 95.6515C73.1645 95.5402 64.6421 95.6921 56.1687 95.6278C53.4643 95.6073 50.7949 95.6873 48.0864 95.6298C47.7502 95.6555 47.8753 95.6859 47.5982 95.539C47.2897 95.0339 47.4464 91.6765 47.4477 90.8465L47.4506 81.5472L47.4521 67.626C47.4436 65.4653 47.3606 63.2859 47.3795 61.1287C49.2256 61.2252 51.4087 61.1852 53.2836 61.1908L64.093 61.1975L73.7657 61.1886C76.0675 61.1915 78.7539 61.2388 81.0367 61.1092Z" fill="#2872A3"></path>
  <path d="M61.6151 75.7453C62.1377 73.7807 62.9408 71.8567 63.4834 69.8859C63.7701 68.8447 64.2395 67.8669 64.5334 66.8076C64.7799 67.9318 65.2079 68.8358 65.5312 69.8961C66.1323 71.8672 66.8631 73.7706 67.4812 75.7273C70.4285 75.8021 73.7101 75.7359 76.6831 75.7165C75.5608 76.3868 74.4589 77.3051 73.3829 78.0646C70.9574 79.7766 68.5286 81.6778 66.0677 83.3202L66.4988 83.7143C67.5435 83.409 68.8252 83.1501 69.9028 82.9325C70.2197 84.6443 71.4664 87.9827 72.0498 89.9097C69.6902 88.3706 66.7163 85.7936 64.4683 84.4865C63.9763 84.7606 62.6903 85.7706 62.1428 86.1678L56.9971 89.8913C58.0001 87.0914 58.7157 84.0283 59.8459 81.2062C59.561 80.7568 53.314 76.421 52.3821 75.7254C55.3448 75.8028 58.6317 75.7356 61.6151 75.7453Z" fill="#FEFEFE"></path>
  <path d="M66.0678 83.3201L66.4989 83.7142C65.8831 83.9122 65.3986 84.0328 64.7676 84.1783C65.1941 83.9157 65.6473 83.5999 66.0678 83.3201Z" fill="#2872A3"></path>
  <path d="M24.0158 25.6113C24.4072 24.5817 24.7424 23.5737 25.0413 22.5131C26.2731 18.1432 28.0201 13.795 29.2319 9.43359C30.3155 11.403 30.6463 13.3196 31.3414 15.3506C32.5007 18.7382 33.7169 22.1494 34.61 25.622C39.0049 25.4614 43.4985 25.6751 47.9031 25.5889C49.0735 25.566 50.1674 25.5961 51.3403 25.4889C50.6909 26.4389 50.4073 26.6084 49.4858 27.2787C46.2294 29.6475 43.037 32.0963 39.7222 34.3864C39.1716 34.7668 38.6595 35.1873 38.039 35.4475C37.986 36.1551 38.9643 37.8839 39.1158 38.9846C39.4549 40.6124 40.3263 42.7406 40.8553 44.3449C41.5723 46.5195 42.3329 49.5129 43.1999 51.5419L43.1276 51.6977C42.6084 51.6318 30.7249 42.863 29.2986 41.8483C24.7738 45.2658 20.1828 48.5946 15.5282 51.8328C15.877 50.3973 16.994 47.1389 17.507 45.5985C18.5813 42.3723 19.6847 38.7401 20.8724 35.5937C20.0849 35.2013 16.628 32.6372 15.7584 31.9735C13.036 29.8955 9.57443 27.6945 7.01245 25.522C12.4348 25.7676 18.5084 25.5263 24.0158 25.6113Z" fill="#2872A3"></path>
  <path d="M29.2229 41.4142C29.9876 40.7309 37.2331 35.4009 37.7605 35.2209L38.0391 35.4476C37.9861 36.1551 38.9644 37.8839 39.1159 38.9846C38.5648 39.1097 37.9972 39.2526 37.4446 39.3637C34.6652 39.9221 31.9913 40.8119 29.2229 41.4142Z" fill="#3780B0"></path>
  <path d="M139.86 31.5142C151.623 30.8622 150.927 50.7901 139.836 49.2315C138.005 48.9743 136.608 48.1932 135.49 46.7181C135.374 47.7059 135.387 48.4995 135.392 49.487C135.392 51.1287 135.325 53.4728 135.454 55.0578C134.216 55.0348 132.978 55.048 131.741 55.0977C131.867 52.9373 131.768 49.7282 131.767 47.4894L131.779 32.1304C132.86 32.078 134.026 32.0933 135.114 32.0879C135.175 32.795 135.154 33.4965 135.147 34.2062C136.697 32.3594 137.402 31.779 139.86 31.5142ZM140.995 46.2453C142.362 45.7254 143.548 44.7943 144.067 43.4003C145.519 39.4989 144.002 33.9551 138.879 34.6898C137.546 35.0833 136.794 35.5159 136.1 36.7988C134.059 40.5711 135.645 47.0677 140.995 46.2453Z" fill="#2872A3"></path>
  <path d="M172.575 31.514C177.338 31.3134 181.087 34.0331 181.599 38.883C182.178 44.3593 179.833 48.6307 174.091 49.3023C171.569 49.3789 169.709 49.0972 167.617 47.4556C165.953 46.0656 164.855 43.6876 164.699 41.5523C164.305 36.1451 167.004 31.9449 172.575 31.514ZM174.316 46.2092C175.768 45.5473 176.863 44.7118 177.389 43.1688C178.784 39.0786 177.337 34.1092 172.174 34.6918C166.391 36.3432 167.558 47.4666 174.316 46.2092Z" fill="#2872A3"></path>
  <path d="M110.172 31.5212C111.69 31.4559 113.447 31.7357 114.818 32.405C116.753 33.3504 117.284 34.8797 117.919 36.7522C116.999 36.7416 114.692 36.8697 113.958 36.6449C113.696 36.4535 113.594 36.0084 113.48 35.6811C112.443 34.8159 111.768 34.7177 110.419 34.6329C109.453 34.5721 107.377 34.9148 107.43 36.2678C107.493 37.8638 109.574 38.0904 110.765 38.4144C112.838 38.9913 115.519 39.2294 117.138 40.7462C118.774 42.2804 118.609 45.6776 116.984 47.1813C115.001 49.0178 112.689 49.2826 110.121 49.3108C106.309 49.1062 103.698 47.539 103.245 43.5097C104.391 43.4157 105.788 43.4418 106.934 43.4967C107.366 45.0307 108.072 45.8159 109.727 46.2115C111.233 46.5715 114.017 46.2883 114.423 44.4825C114.578 43.7967 114.159 43.2597 113.793 42.7264C110.377 41.0505 104.194 41.7055 103.704 36.9761C103.286 32.9364 106.88 31.7388 110.172 31.5212Z" fill="#2872A3"></path>
  <path d="M55.9573 25.6206C62.1221 25.5356 68.6291 25.7709 74.7193 25.5884C74.6685 26.7002 74.7048 28.1143 74.7042 29.2484C72.5156 29.0016 69.6952 29.2688 67.4047 29.0843C67.3095 33.1479 67.3783 37.6112 67.3884 41.6866C67.4168 44.0956 67.3831 46.5651 67.3783 48.9789C66.0135 48.9029 64.5695 48.9561 63.2038 49.0057C63.0591 43.9887 63.2613 38.8813 63.1765 33.8583C63.1507 32.3328 63.1509 30.6895 63.2266 29.1679C60.7925 29.1429 58.3581 29.1525 55.9244 29.1966C55.8982 28.3088 55.8324 26.4306 55.9573 25.6206Z" fill="#2872A3"></path>
  <path d="M96.8902 32.0964C98.1155 32.0179 99.5816 32.0881 100.817 32.1266L100.831 37.3286C100.873 41.1764 100.834 45.0943 100.836 48.9495L97.0371 48.9333C97.0129 48.1901 97.0044 47.4464 97.012 46.7028C94.8469 49.6934 90.494 50.2402 87.6241 47.8544C86.1399 46.6208 85.8404 43.9581 85.8567 42.1437C85.8857 38.9102 85.7817 35.5904 85.8765 32.3559C85.8803 32.2261 86.1259 32.1656 86.2268 32.1242C87.3753 32.0547 88.6328 32.0803 89.7907 32.0807L89.777 38.4005C89.775 40.4263 89.5886 43.2469 90.1852 45.0932C91.0205 45.823 91.6782 46.3355 92.8608 46.3509C94.5075 46.3724 96.3459 45.316 96.741 43.6447C96.9117 42.8491 96.9329 42.0031 96.9249 41.1926C96.8951 38.1681 96.9729 35.1183 96.8902 32.0964Z" fill="#2872A3"></path>
  <path d="M185.624 27.0276C186.908 26.9911 188.193 26.9915 189.477 27.0287C189.359 28.299 189.435 30.7716 189.441 32.0892C190.427 32.0091 191.656 32.074 192.662 32.1003C192.618 33.0678 192.624 34.0235 192.624 34.9913C191.738 34.8651 190.437 34.9728 189.426 34.8896C189.425 36.4043 189.254 44.7566 189.716 45.5597C190.469 46.0927 191.736 45.9128 192.665 45.8676C192.597 46.7614 192.626 47.9954 192.579 48.9522C192.254 49.0539 191.105 49.0702 190.696 49.0745C184.812 49.1364 185.498 46.0252 185.498 41.5204C185.506 39.311 185.497 37.1014 185.474 34.8921C184.553 34.8886 183.669 34.9236 182.75 34.9597C182.706 34.1783 182.516 32.9873 182.913 32.3723C183.484 31.9012 184.683 32.0781 185.474 32.1051C185.385 31.027 185.461 28.4399 185.472 27.2403C185.532 27.1573 185.582 27.0865 185.624 27.0276Z" fill="#2872A3"></path>
  <path d="M122.114 27.0255C123.323 26.987 124.534 26.9938 125.742 27.0461C125.628 28.3749 125.705 30.7137 125.696 32.1424C126.834 32.0536 128.047 32.089 129.192 32.1051C129.19 33.0611 129.173 34.0172 129.139 34.9727C127.99 34.8991 126.875 35.0099 125.702 34.8876C125.687 37.8633 125.671 40.841 125.704 43.8163C125.732 46.342 127.34 46.0274 129.239 45.8378C129.162 46.5909 129.173 47.7988 129.157 48.586L129.045 48.8666C128.909 48.9472 128.873 48.9722 128.71 48.9904C126.476 49.2406 124.482 49.1036 122.643 47.7478C121.852 46.1728 122.045 43.4788 122.046 41.7106L122.045 34.8811C121.119 34.8834 120.124 34.8596 119.212 34.9913C119.219 34.0413 119.202 33.0913 119.163 32.1421C120.196 32.0976 120.989 32.0698 122.03 32.1184C122.029 31.3074 121.932 27.4028 122.114 27.0255Z" fill="#2872A3"></path>
  <path d="M158.293 25.6339C159.485 25.6314 160.676 25.6212 161.866 25.603C161.882 28.0931 162.011 48.4184 161.719 48.9969C160.452 48.8839 159.475 48.9248 158.21 49.0257C158.132 46.8302 158.025 26.1678 158.293 25.6339Z" fill="#2872A3"></path>
  <path d="M81.8827 31.5068C84.7105 31.3613 83.7036 32.9426 83.7814 35.3226C82.1888 34.9985 80.4328 35.0266 79.2342 36.2943C77.2497 38.3932 77.5385 41.3191 77.5405 43.9828L77.5549 48.9917C76.5386 48.8998 75.1681 48.9796 74.1201 48.9514C74.0495 48.8877 73.9893 48.8333 73.9395 48.7883C73.8045 43.4407 73.9194 37.5633 73.9191 32.1665C75.0995 32.0892 76.1507 32.1074 77.332 32.1221C77.3109 33.1271 77.3242 33.9309 77.3662 34.9314C78.2985 33.0821 79.834 31.854 81.8827 31.5068Z" fill="#2872A3"></path>
  <path d="M151.247 32.1262C152.365 32.0719 153.673 32.092 154.808 32.0859C154.668 35.2811 154.894 38.6422 154.795 41.8395C154.763 42.85 154.954 48.5359 154.574 48.9905C153.452 48.9065 152.188 48.9154 151.066 48.9494C150.845 44.746 151.117 36.917 151.076 32.3364C151.142 32.2546 151.2 32.1845 151.247 32.1262Z" fill="#2872A3"></path>
  <path d="M151.097 25.6057C152.339 25.6177 153.561 25.6371 154.804 25.5908C154.74 26.7267 154.867 28.1851 154.745 29.2595C153.704 29.1054 152.127 29.1495 151.041 29.1508C151.021 28.3759 150.938 26.2239 151.097 25.6057Z" fill="#2872A3"></path>
</svg>
