<?xml version="1.0" encoding="UTF-8"?>
<svg xmlns="http://www.w3.org/2000/svg" width="19" height="15" viewBox="0 0 19 15" fill="none">
  <path d="M11.8604 3.3539L5.63228 0.113274C5.38228 -0.014851 5.09166 -0.0367259 4.82916 0.0601491L3.54478 0.528899C3.2229 0.644524 3.11353 1.0414 3.32291 1.31015L6.49478 5.30702L3.36353 6.44452L1.48541 5.30077C1.29166 5.18202 1.05416 5.16015 0.83853 5.23515L0.329155 5.42265C0.0354052 5.5289 -0.0895947 5.87577 0.0697803 6.14452L1.74478 9.01327C2.23228 9.84765 3.24791 10.2133 4.15416 9.88202L4.55728 9.73515L17.0073 5.2039C17.9167 4.87265 18.3823 3.86952 18.0542 2.96015C17.726 2.05077 16.7198 1.58515 15.8104 1.91327L11.8604 3.3539ZM1.24166 12.857C0.68853 12.857 0.241655 13.3039 0.241655 13.857C0.241655 14.4101 0.68853 14.857 1.24166 14.857H17.2417C17.7948 14.857 18.2417 14.4101 18.2417 13.857C18.2417 13.3039 17.7948 12.857 17.2417 12.857H1.24166Z" fill="#2872A3"></path>
</svg>
