<?xml version="1.0" encoding="UTF-8"?>
<svg xmlns="http://www.w3.org/2000/svg" width="142" height="114" viewBox="0 0 142 114" fill="none">
  <g clip-path="url(#clip0_7_293)">
    <path d="M37.7516 58.5205H19.6016L26.3625 65.0379L19.7377 72.0393H38.0088L37.7516 58.5205Z" fill="white" stroke="#007E33" stroke-width="0.922971" stroke-miterlimit="10"></path>
    <path d="M27.9961 68.3046L38.0996 72.7352L38.629 66.2178L27.9961 68.3046Z" fill="black"></path>
    <path d="M114.193 68.3949L103.923 72.8255L103.379 66.293L114.193 68.3949Z" fill="black"></path>
    <path d="M104.528 104.566H37.9175C35.1345 104.566 32.8809 102.313 32.8809 99.5303V10.9779C32.8809 8.19551 35.1345 5.94238 37.9175 5.94238H104.528C107.311 5.94238 109.565 8.19551 109.565 10.9779V99.5303C109.565 102.313 107.311 104.566 104.528 104.566Z" fill="#007E33"></path>
    <path d="M103.32 100.816H38.917C37.5255 100.816 36.4062 99.6973 36.4062 98.3062V20.9135C36.4062 19.5223 37.5406 18.4033 38.917 18.4033H103.32C104.711 18.4033 105.83 19.5223 105.83 20.9135V98.3062C105.83 99.6973 104.711 100.816 103.32 100.816Z" fill="white"></path>
    <path d="M103.638 20.1113C104.077 20.1113 104.424 20.4591 104.424 20.8977V64.9773C104.424 65.4158 104.077 65.7636 103.638 65.7636H38.8119C38.3733 65.7636 38.0254 65.4158 38.0254 64.9773V20.8977C38.0254 20.4591 38.3733 20.1113 38.8119 20.1113H103.638Z" fill="#007E33"></path>
    <path d="M38.916 67.957C45.8887 78.3759 57.7618 85.226 71.2383 85.226C84.7147 85.226 96.5879 78.3607 103.561 67.957H38.916Z" fill="#1F1E21"></path>
    <path d="M28.6016 54.7705H113.574V67.6995H28.6016V54.7705Z" fill="white" stroke="#007E33" stroke-width="0.922971" stroke-miterlimit="10"></path>
    <path d="M53.0747 60.3056C53.1806 59.6402 53.2713 58.9597 53.7856 58.2793C54.9502 56.7822 57.2038 56.7822 57.824 56.7822C58.671 56.7822 59.4272 56.8427 60.1532 57.0847C60.486 57.2056 61.9077 57.6593 61.9077 59.1412C61.9077 59.731 61.6052 60.3056 61.212 60.7441C60.4708 61.5909 59.3516 62.0899 56.856 63.1031C56.6593 63.1787 56.4627 63.2543 56.2812 63.3602C56.0695 63.4811 55.8728 63.6021 55.6762 63.7533H61.1817L60.7128 65.7796H51.7891L52.2579 63.7836C52.8932 63.0577 53.1654 62.8158 54.5116 62.0899L57.703 60.6231C58.187 60.4114 58.9583 60.0636 58.9583 59.5041C58.9583 59.368 58.8827 59.0656 58.4743 58.8841C58.2626 58.7783 57.9903 58.748 57.6878 58.748C56.0392 58.748 55.9031 59.6553 55.7972 60.3509L53.0747 60.3056Z" fill="#1F1E21"></path>
    <path d="M71.98 60.7742C71.98 62.1201 71.4507 63.5264 70.4827 64.4639C69.5752 65.3561 68.108 65.961 66.414 65.961C65.0074 65.961 61.9219 65.4619 61.9219 62.0293C61.9219 59.746 63.4344 56.9485 67.261 56.7972C69.7264 56.7216 71.98 57.9465 71.98 60.7742ZM64.9015 62.2259C64.9015 62.5283 64.9015 64.0859 66.5653 64.0859C68.2593 64.0859 69.0155 62.0898 69.0155 60.6079C69.0155 59.5645 68.5013 58.7479 67.3972 58.7479C65.4914 58.763 64.9015 61.0615 64.9015 62.2259Z" fill="#1F1E21"></path>
    <path d="M72.9791 58.1732C73.8866 58.0371 74.7488 57.78 75.4597 57.4019C75.6714 57.281 75.8983 57.1449 76.11 57.0088H78.3183L76.2915 65.7793H73.2968L74.7185 59.7004C73.7203 60.0029 73.4783 60.0331 72.5254 60.0936L72.9791 58.1732Z" fill="#1F1E21"></path>
    <path d="M45.6934 24.4824H52.1064C53.6794 24.4824 54.9348 24.9209 55.7213 25.7073C56.3565 26.3424 56.6742 27.1136 56.6742 28.0511V28.0965C56.6742 29.654 55.8423 30.5311 54.8591 31.0755C56.4624 31.6803 57.4455 32.6179 57.4455 34.4627V34.5081C57.4455 37.0334 55.3885 38.3036 52.2728 38.3036H45.6934V24.4824ZM51.456 30.0623C52.8021 30.0623 53.6491 29.6238 53.6491 28.5955V28.5501C53.6491 27.6428 52.9383 27.1287 51.6526 27.1287H48.6579V30.0472H51.456V30.0623ZM52.2728 35.6271C53.6189 35.6271 54.4205 35.1583 54.4205 34.13V34.0847C54.4205 33.1623 53.7248 32.5876 52.1669 32.5876H48.6579V35.6271H52.2728Z" fill="white"></path>
    <path d="M58.3066 24.4824H68.7278V27.1892H61.3317V29.9867H67.8354V32.6935H61.3317V35.5968H68.8337V38.3036H58.3066V24.4824Z" fill="white"></path>
    <path d="M69.2734 36.2923L71.0733 34.145C72.3136 35.1733 73.6143 35.8235 75.2025 35.8235C76.4427 35.8235 77.199 35.3245 77.199 34.523V34.4777C77.199 33.7065 76.7301 33.3133 74.416 32.7235C71.6329 32.0128 69.8331 31.2416 69.8331 28.5046V28.4592C69.8331 25.949 71.8447 24.3008 74.6731 24.3008C76.6847 24.3008 78.409 24.9359 79.8005 26.0549L78.2275 28.3383C77.0023 27.4915 75.8075 26.9773 74.6428 26.9773C73.4782 26.9773 72.8732 27.5066 72.8732 28.187V28.2324C72.8732 29.1397 73.4631 29.4421 75.8528 30.047C78.651 30.7729 80.2391 31.786 80.2391 34.1903V34.2357C80.2391 36.9727 78.1519 38.5151 75.1722 38.5151C73.0396 38.5 70.9372 37.7591 69.2734 36.2923Z" fill="white"></path>
    <path d="M84.5803 27.2799H80.3906V24.4824H91.8252V27.2799H87.6204V38.3036H84.5803V27.2799Z" fill="white"></path>
    <path d="M89.9492 33.0713C89.9492 31.544 91.2046 30.168 92.8684 30.168C94.3204 30.168 95.3337 31.1358 95.3337 32.406C95.3337 33.9333 94.0784 35.3093 92.4146 35.3093C90.9626 35.3093 89.9492 34.3415 89.9492 33.0713ZM93.67 32.5572C93.67 32.0279 93.3524 31.6196 92.7625 31.6196C92.0667 31.6196 91.6281 32.3001 91.6281 32.9201C91.6281 33.4494 91.9457 33.8577 92.5356 33.8577C93.2162 33.8577 93.67 33.1772 93.67 32.5572Z" fill="white"></path>
    <path d="M96.4521 30.2588H100.581L100.203 31.6802H97.7226L97.5411 32.3002H99.8552L99.5074 33.5856H97.2083L96.7697 35.2187H95.1211L96.4521 30.2588Z" fill="white"></path>
    <path d="M52.4088 40.8895C52.4088 40.6476 52.3936 40.4813 52.3029 40.3754C51.7886 39.7403 49.8526 39.8159 48.9754 39.9066C48.204 39.9671 48.2494 40.3452 48.2494 40.693V45.2597H45.3756V40.9047C45.3756 40.6627 45.3605 40.4964 45.2546 40.3905C44.9219 39.9822 44.0295 39.8764 43.1825 39.8613C42.3808 39.8613 41.549 39.9369 40.3541 40.4208C40.2785 40.4661 40.1877 40.4813 40.2028 40.6022C40.2028 40.8291 40.3541 41.57 40.3692 41.6305C40.3843 41.691 40.4448 41.7817 40.581 41.7364C40.6868 41.7212 40.7927 41.691 40.8835 41.6608C41.0045 41.6456 41.186 41.6003 41.186 41.8271V50.9303C41.186 51.1572 41.2011 51.3235 41.307 51.4293C41.8212 52.0645 43.7421 52.004 44.6345 51.9284C45.3756 51.8528 45.3605 51.4747 45.3605 51.1269V46.787H48.2494V50.9303C48.2494 51.1572 48.2645 51.3235 48.3552 51.4293C48.8695 52.0645 50.7904 52.004 51.6828 51.9284C52.4541 51.8528 52.4088 51.4747 52.4088 51.1269V40.8895Z" fill="white"></path>
    <path d="M97.9958 42.2347C99.2361 42.2347 100.249 41.403 100.249 40.4201C100.249 39.4069 99.2361 38.6055 97.9958 38.6055C96.7556 38.6055 95.7422 39.4069 95.7422 40.4201C95.7422 41.403 96.7556 42.2347 97.9958 42.2347Z" fill="white"></path>
    <path d="M102.64 48.5555C102.625 48.5555 102.58 48.5555 102.58 48.5706C102.065 49.0091 101.264 49.5384 100.749 49.5384C100.356 49.5384 100.023 49.2662 100.023 48.4194V44.5634C100.023 44.3214 100.008 44.1702 99.9176 44.0492C99.4185 43.4292 97.5279 43.0361 96.6506 43.0361H96.5901C95.8641 43.0512 95.8641 43.4293 95.8641 43.777V48.6009C95.3498 49.0545 94.5785 49.735 94.0945 49.735C93.7012 49.735 93.3685 49.5535 93.3685 48.7067V44.3668C93.3685 44.1248 93.3533 43.9736 93.2626 43.8527C92.7635 43.2327 90.8728 42.8395 89.9956 42.8395H89.9351C89.2091 42.8546 89.2091 43.2327 89.2091 43.5805V49.0847C89.2091 49.1906 89.2091 49.3116 89.2242 49.4174C89.0578 49.4779 88.9066 49.5233 88.7704 49.5233C88.3772 49.5233 88.0444 49.2511 88.0444 48.4043V43.5956C88.0444 43.4141 87.8932 43.2932 87.7117 43.2629C86.5319 43.0815 85.5034 42.9605 84.5506 42.9605C81.4953 42.9605 79.5744 43.8073 78.6064 45.1834C79.4383 42.7941 77.835 42.8849 77.3057 42.8395C77.1544 42.8244 76.9578 42.9151 76.9729 43.1268C77.0183 43.8073 76.6401 44.8961 76.3074 45.6219L75.0823 48.1018C75.0823 48.1018 74.0084 45.9092 73.2219 44.3214C72.6623 43.1722 72.0724 43.0663 71.7094 43.0663C71.3766 43.0663 71.1497 43.1419 70.9229 44.0341C70.6809 44.9414 69.849 47.2399 69.4104 48.1018L67.1416 43.4746C67.0357 43.2629 66.9601 43.1268 66.8391 43.0663C66.098 42.7337 64.1317 43.2327 63.3906 43.6258C62.7251 43.9736 62.9368 44.3214 63.1032 44.6541L65.0997 48.7521C64.6006 49.1301 63.9502 49.5233 63.5116 49.5233C63.1183 49.5233 62.7856 49.2511 62.7856 48.4043V43.5956C62.7856 43.4141 62.6343 43.2932 62.4528 43.2629C61.2731 43.0815 60.2446 42.9605 59.2917 42.9605C54.6029 42.9605 52.5762 44.9565 52.5762 47.7692C52.5762 50.3701 53.7559 51.8369 55.6919 51.8369C57.6128 51.8369 58.1876 50.4911 58.7472 49.7652C58.959 50.6876 59.4883 51.8369 61.1218 51.8369C62.6646 51.8369 64.2225 51.0959 65.4779 49.614C65.4779 49.5989 65.4779 49.5989 65.493 49.5838L66.5366 51.7159C66.5971 51.8218 66.6122 51.8974 66.7786 51.8974C66.9601 51.8823 69.0322 51.6857 69.486 51.5949C69.607 51.5496 69.6372 51.5345 69.7129 51.4286C69.728 51.3681 70.3481 50.0828 70.938 48.9335L72.2236 51.7159C72.269 51.8218 72.2841 51.8974 72.4656 51.8974C72.632 51.8823 74.689 51.6857 75.1428 51.5949C75.2638 51.5496 75.3091 51.5345 75.3696 51.4286C75.415 51.3228 76.0503 50.1281 76.0503 50.1281C77.0788 48.1623 77.7443 46.9677 77.9106 46.6653C77.9258 46.6502 77.9258 46.6199 77.9409 46.6048C77.8501 46.9828 77.8048 47.3609 77.8048 47.7843C77.8048 50.3852 78.9845 51.852 80.9205 51.852C82.8414 51.852 83.4162 50.5062 83.9758 49.7803C84.1876 50.7028 84.7169 51.852 86.3504 51.852C87.4092 51.852 88.4831 51.5042 89.4511 50.7935C89.7838 51.6403 90.4493 52.3057 91.6896 52.3057C93.1718 52.3057 94.6995 51.1715 95.9246 49.7501C96.1515 50.8389 96.817 51.852 98.3446 51.852C99.8722 51.852 101.415 51.1111 102.686 49.6291L102.701 49.5686V48.6613C102.746 48.6009 102.701 48.5555 102.64 48.5555ZM58.6716 48.6613C58.2329 49.0999 57.8397 49.236 57.5372 49.236C57.2196 49.236 56.2516 49.1604 56.2516 47.1643C56.2516 45.1682 57.1591 44.3819 58.6716 44.3819V48.6613ZM83.9002 48.6613C83.4616 49.0999 83.0683 49.236 82.7658 49.236C82.4482 49.236 81.4802 49.1604 81.4802 47.1643C81.4802 45.1682 82.3877 44.3819 83.9002 44.3819V48.6613Z" fill="white"></path>
    <path d="M91.3415 42.054C92.5818 42.054 93.5952 41.2223 93.5952 40.2394C93.5952 39.2263 92.5818 38.4248 91.3415 38.4248C90.1013 38.4248 89.0879 39.2263 89.0879 40.2394C89.103 41.2223 90.1164 42.054 91.3415 42.054Z" fill="white"></path>
    <path d="M47.1901 11.0392V11.9616H49.5799V13.1713H47.1901V15.1674H45.5566V9.66309H49.837V11.0392H47.1901Z" fill="white"></path>
    <path d="M52.1823 15.1674H50.5488V9.66309H52.1823V15.1674Z" fill="white"></path>
    <path d="M58.3231 15.167H56.2964L55.2074 13.5338L54.7234 13.5187V15.167H53.0898V9.73828L55.646 9.7534C56.8409 9.7534 57.8845 10.2978 57.8845 11.5982C57.8845 12.3543 57.4307 13.0802 56.7652 13.2919L58.3231 15.167ZM54.7234 12.3392H54.92C55.8275 12.3392 56.3569 12.2787 56.3569 11.689C56.3569 11.0841 55.8124 11.0539 54.92 11.0539H54.7234V12.3392Z" fill="white"></path>
    <path d="M62.0434 11.4474C61.7409 11.2357 61.1208 10.9484 60.7124 10.9182C60.1982 10.8879 60.0621 10.9635 59.9864 11.1903C59.8806 11.4928 60.6217 11.7196 60.9091 11.7952L61.3326 11.9011C62.2098 12.1279 62.9661 12.5664 62.9661 13.4586C62.9661 14.003 62.7392 14.5171 62.2401 14.88C61.7409 15.2429 61.0906 15.2429 60.4553 15.2429C59.6688 15.2429 58.731 14.8347 58.2168 14.3356L59.0638 13.3527C59.4722 13.6703 59.9562 13.9274 60.5158 13.9878C60.8939 14.0332 61.4384 14.0181 61.4384 13.6249C61.4384 13.2166 60.5914 13.1108 60.2436 13.0352C59.1394 12.763 58.489 12.3245 58.489 11.3869C58.489 10.2679 59.2604 9.63281 60.7427 9.63281C61.3779 9.63281 62.2249 9.93525 62.8753 10.3284L62.0434 11.4474Z" fill="white"></path>
    <path d="M66.3233 15.1674H64.6898V11.0694H63.2227V9.66309H67.9266V11.0543H66.3082V15.1674H66.3233Z" fill="white"></path>
    <path d="M70.7109 9.66309H73.2066C74.5527 9.66309 75.3241 10.7972 75.3241 11.6289C75.3241 12.9294 74.2502 13.6552 73.2671 13.6552H72.3444V15.1522H70.7109V9.66309ZM72.3444 12.3547H72.6167C73.2066 12.3547 73.7965 12.3547 73.7965 11.6894C73.7965 10.9938 73.2519 10.9938 72.6167 10.9938H72.3444V12.3547Z" fill="white"></path>
    <path d="M77.4569 13.8064H80.0584V15.1825H75.9746V9.66309H77.4569V13.8064Z" fill="white"></path>
    <path d="M82.25 14.2147L81.8113 15.1674H80.2988L82.613 9.66309H83.9742L86.3489 15.1674H84.7456L84.3523 14.2147H82.25ZM83.3087 11.5533L82.6886 13.0352H83.9137L83.3087 11.5533Z" fill="white"></path>
    <path d="M90.3265 11.6742C90.0845 11.2659 89.7215 11.0693 89.3887 11.0088C88.5569 10.8727 87.8611 11.523 87.8611 12.3698C87.8611 13.3224 88.451 13.8819 89.177 13.8819C89.7064 13.8819 90.0391 13.5946 90.3719 13.2468L91.5214 14.0332C90.871 14.9858 90.1147 15.258 89.3131 15.258C88.4359 15.258 88.0275 15.1824 87.3771 14.6683C86.5755 14.0332 86.3184 13.2619 86.3184 12.3547C86.3184 11.5986 86.636 10.8425 87.2259 10.2981C87.846 9.7386 88.5569 9.57227 89.4341 9.57227C90.1753 9.57227 91.0828 10.1318 91.476 10.7518L90.3265 11.6742Z" fill="white"></path>
    <path d="M93.6399 11.0085V11.8251H96.2112V13.0046H93.6399V13.8665H96.559V15.1367H92.082V9.76855H96.4834V11.0085H93.6399Z" fill="white"></path>
    <path d="M86.8787 60.8643C87.3022 60.4561 87.5593 59.9419 87.6652 59.3673C88.0131 57.5376 85.9712 56.8873 84.0957 56.8269C81.6303 56.7664 80.5413 57.4771 80.1783 58.0366C79.5279 59.0195 79.7397 59.9268 80.3901 60.6224C79.6338 60.9248 79.18 61.318 78.9683 61.6507C77.3953 64.0248 79.3313 65.9906 82.7496 65.9906C85.8351 65.9906 87.4081 64.7506 87.7408 62.9511C87.9223 61.9682 87.5442 61.3029 86.8787 60.8643ZM82.2353 59.3068C82.3261 58.838 82.6588 58.5658 83.7176 58.5961C84.5343 58.6112 85.0032 58.9136 84.9124 59.3824C84.8217 59.8512 84.4889 60.1234 83.4302 60.0931C82.6134 60.078 82.1446 59.7756 82.2353 59.3068ZM84.5192 63.057C84.4133 63.6014 84.0352 63.934 82.7798 63.934C81.7967 63.934 81.2673 63.6014 81.3732 63.057C81.4791 62.5126 81.8572 62.1799 83.1126 62.1799C84.0806 62.1799 84.6251 62.5126 84.5192 63.057Z" fill="black"></path>
    <path d="M51.1081 89.1417C51.2745 89.1417 51.4257 88.9451 51.4257 88.7788C51.4257 88.7032 51.3652 88.6578 51.2896 88.6578C51.1383 88.6578 50.9417 88.809 50.9417 88.9754C50.9417 89.0661 51.0022 89.1417 51.1081 89.1417ZM51.2896 89.9432C51.1232 90.0641 50.9266 90.2758 50.7148 90.2758C50.5333 90.2758 50.4728 90.1851 50.5031 90.0188C50.6695 89.8978 51.0627 89.5349 51.0627 89.3383C51.0627 89.2476 50.9568 89.2173 50.8812 89.2173C50.6392 89.2173 50.1401 89.7012 50.1401 90.2002C50.1401 90.4119 50.246 90.6841 50.488 90.6841C50.7905 90.6841 51.1383 90.3212 51.3198 90.0944L51.2896 89.9432ZM49.9888 89.1417C50.1552 89.1417 50.3065 88.9451 50.3065 88.7788C50.3065 88.7032 50.246 88.6578 50.1703 88.6578C50.0191 88.6578 49.8225 88.809 49.8225 88.9754C49.8376 89.0661 49.8981 89.1417 49.9888 89.1417ZM50.1855 89.9432C50.0191 90.0641 49.8225 90.2758 49.6107 90.2758C49.4292 90.2758 49.3687 90.1851 49.399 90.0188C49.5653 89.8978 49.9586 89.5349 49.9586 89.3383C49.9586 89.2476 49.8527 89.2173 49.7771 89.2173C49.5351 89.2173 49.036 89.7012 49.036 90.2002C49.036 90.4119 49.1418 90.6841 49.3838 90.6841C49.6863 90.6841 50.0342 90.3212 50.2157 90.0944L50.1855 89.9432ZM48.1587 90.049C48.1133 90.17 48.0226 90.3817 48.0226 90.5178C48.0226 90.6388 48.0831 90.7295 48.2192 90.7295C48.4158 90.7295 48.9452 90.291 49.1267 90.0944L49.0965 89.9432C48.9301 90.0641 48.7032 90.2758 48.5217 90.2758C48.4612 90.2758 48.4007 90.2456 48.4007 90.1851C48.4007 89.9885 48.7486 89.7012 48.7486 89.5803C48.7486 89.4895 48.7032 89.4442 48.6276 89.4139C48.6578 89.3988 48.7637 89.3534 48.7637 89.3081C48.7637 89.2627 48.6881 89.1115 48.5066 89.1115C48.0377 89.1266 47.0092 89.6407 47.0243 90.1549C47.0395 90.3666 47.2663 90.6388 47.3722 90.6388C47.463 90.6388 47.7201 90.4271 47.7957 90.3666L48.1587 90.049ZM48.3705 89.5046C47.584 90.3212 47.463 90.3212 47.3873 90.3363C47.3268 90.3515 47.3117 90.2758 47.3117 90.2607C47.3117 90.049 47.4176 89.8071 48.3705 89.5046ZM45.3454 89.9734C45.2849 90.0339 45.0127 90.2758 44.9522 90.2758C44.9219 90.2758 44.9068 90.2154 44.9068 90.1851C44.9068 90.0944 44.9219 89.9734 44.9371 89.9583C45.1034 89.8222 45.6177 89.3837 45.6177 89.172C45.6177 89.1115 45.5572 89.051 45.3757 89.0359C45.2849 89.0359 45.2244 89.051 44.8766 89.3988C44.6799 89.5954 44.5589 89.7768 44.5438 90.0793C44.5287 90.4119 44.7404 90.6085 44.9673 90.6236C45.1639 90.6388 45.4362 90.2758 45.5723 90.1398C45.5421 90.5329 45.6026 90.5632 45.6479 90.6236C45.6933 90.669 45.7387 90.6993 45.7992 90.6993C46.0261 90.6993 46.3286 90.3212 46.5101 90.2002C46.6008 90.2607 46.6462 90.2758 46.7521 90.2758C46.9336 90.2758 47.0697 90.1549 47.1907 90.0339L47.1756 89.8524C47.1 89.9129 46.9638 90.0339 46.858 90.0339C46.7975 90.0339 46.7672 90.0037 46.7218 89.9734C46.858 89.8071 46.9941 89.6256 46.9941 89.3988C46.9941 89.3232 46.9638 89.2022 46.8731 89.2022C46.7521 89.2022 46.6008 89.3988 46.5403 89.4895C46.3286 89.7617 46.3437 89.8373 46.3588 89.9885C46.2681 90.0641 46.0866 90.291 45.9656 90.291C45.9202 90.291 45.8899 90.2607 45.8899 90.2154C45.8899 90.0641 46.1622 89.5954 46.253 89.4593C46.2832 89.4139 46.3437 89.3081 46.3437 89.2627C46.3437 89.2173 46.1925 89.172 46.1471 89.172C46.0866 89.172 45.9505 89.3534 45.9202 89.3988L45.3454 89.9734ZM43.6666 90.049C43.6212 90.17 43.5304 90.3817 43.5304 90.5178C43.5304 90.6388 43.5909 90.7295 43.7271 90.7295C43.9237 90.7295 44.4531 90.291 44.6346 90.0944L44.6043 89.9432C44.4379 90.0641 44.2111 90.2758 44.0296 90.2758C43.9691 90.2758 43.9086 90.2456 43.9086 90.1851C43.9086 89.9885 44.2564 89.7012 44.2564 89.5803C44.2564 89.4895 44.2111 89.4442 44.1354 89.4139C44.1657 89.3988 44.2716 89.3534 44.2716 89.3081C44.2716 89.2627 44.1959 89.1115 44.0144 89.1115C43.5456 89.1266 42.5171 89.6407 42.5322 90.1549C42.5473 90.3666 42.7742 90.6388 42.8801 90.6388C42.9708 90.6388 43.2279 90.4271 43.3036 90.3666L43.6666 90.049ZM43.8934 89.5046C43.1069 90.3212 42.9859 90.3212 42.9103 90.3363C42.8498 90.3515 42.8347 90.2758 42.8347 90.2607C42.8196 90.049 42.9406 89.8071 43.8934 89.5046ZM41.4129 89.9281C41.2617 90.2154 41.2012 90.3968 41.1861 90.5178C41.1709 90.6388 41.1861 90.6993 41.2617 90.7144C41.3676 90.7446 41.5642 90.548 41.7003 90.5783C41.6852 90.5027 41.6549 90.4119 41.6549 90.3363C41.6549 90.2154 41.8062 90.0188 41.8667 89.9129C42.0331 89.8978 42.1541 89.9129 42.2751 89.9432C42.3961 89.7315 42.5624 89.55 42.7591 89.3988C42.5927 89.2929 42.3961 89.3081 42.2146 89.2929L42.6532 88.7486C42.9557 88.3705 42.9859 88.2949 42.9859 88.1588C42.9859 88.1134 42.9708 88.0681 42.9103 88.0681C42.8196 88.0681 42.6532 88.2949 42.6078 88.3554L41.8818 89.2778L41.2617 89.3534L41.7154 88.8695C41.8818 88.6881 42.1087 88.4461 42.1087 88.1891C42.1087 87.9925 42.0028 87.7959 41.6701 87.7959C41.3222 87.7959 40.8231 87.8866 40.4903 88.0076C40.2634 88.0832 39.5979 88.31 39.4467 88.4764C39.371 88.5671 39.3105 88.809 39.3105 88.93C39.3105 89.0056 39.3408 89.1115 39.4315 89.1115C39.492 89.1115 39.5374 89.0812 39.5979 89.051C39.8702 88.9149 39.8399 88.8998 40.1424 88.7939C40.1878 88.7788 40.2483 88.7486 40.2483 88.7032C40.2483 88.673 40.2181 88.6578 40.1878 88.6427C40.8382 88.3705 41.3524 88.2193 41.5642 88.2193C41.6096 88.2193 41.7003 88.2344 41.7003 88.31C41.7003 88.3856 41.5793 88.5369 41.5339 88.5973C41.1861 89.0056 40.8987 89.3232 40.7474 89.4744C40.1424 89.5954 40.1424 89.6256 40.0971 89.6256C40.0668 89.6256 40.0366 89.5954 40.0063 89.5954C39.9004 89.5954 39.7794 89.8071 39.7794 89.8978C39.7794 90.0339 39.9004 90.0944 40.1878 90.0641C40.1273 90.17 39.8551 90.4573 39.8551 90.5632C39.8551 90.6539 39.9609 90.7446 40.0517 90.7446C40.1424 90.7446 40.2332 90.5783 40.2785 90.5178L40.6869 90.0188L41.4129 89.9281Z" fill="#007E33"></path>
    <path d="M65.9608 94.3746C65.9759 93.8907 66.0516 93.1951 66.7322 93.1951C67.4128 93.1951 67.4733 93.8907 67.5036 94.3746H65.9608ZM68.6984 94.6165C68.6531 93.5429 67.7758 92.9531 66.7624 92.9531C65.5222 92.9531 64.7508 93.8907 64.7508 95.055C64.7508 96.174 65.5222 97.1569 66.7624 97.1569C67.8666 97.1569 68.5774 96.5974 68.8346 95.5087L68.6379 95.3575C68.4716 96.0682 68.0027 96.8243 67.2162 96.8243C66.1877 96.8243 65.9457 95.8716 65.9457 95.0399V94.6014H68.6984V94.6165ZM61.2267 93.059C60.7124 93.1648 60.2435 93.2404 59.7595 93.2707V93.3917C59.9864 93.437 60.2133 93.6034 60.2133 94.1326V95.7658C60.2133 96.4009 60.1074 96.8394 59.7142 96.9604V97.0813C60.062 97.0813 60.4099 97.0511 60.7578 97.0511C61.0905 97.0511 61.4535 97.0813 61.8014 97.0813V96.9604C61.4082 96.8394 61.3023 96.4009 61.3023 95.7658V94.8585C61.3023 94.3746 61.4687 93.3765 62.1039 93.3765C62.6938 93.3765 62.8148 94.0268 62.8148 94.5258V96.3404C62.8148 96.7184 62.6182 96.9452 62.361 96.9755V97.0965C62.6938 97.0965 63.0417 97.0662 63.3442 97.0662C63.6467 97.0662 64.0248 97.0965 64.3727 97.0965V96.9755C64.0399 96.8999 63.8887 96.7033 63.8887 96.3404V94.3141C63.8887 93.4975 63.3442 92.9531 62.5577 92.9531C61.9224 92.9531 61.514 93.2404 61.2569 93.8302H61.2418V93.059H61.2267ZM58.0958 97.0511H59.3965V96.9301C59.0638 96.8091 58.9579 96.5823 58.9579 95.8867C58.9579 94.9492 58.9579 93.9965 58.973 93.059C58.4739 93.1648 57.9597 93.2253 57.4605 93.2707V93.3917C57.7328 93.437 57.8689 93.5882 57.8689 93.8756V95.1306C57.8689 95.9019 57.642 96.6882 57.0068 96.6882C56.4169 96.6882 56.2959 96.0379 56.2959 95.5389V94.7828C56.2959 94.0419 56.3261 93.4219 56.3564 93.0741C55.8421 93.1951 55.3279 93.2556 54.8288 93.3009V93.4219C55.0556 93.4824 55.2069 93.5429 55.2069 93.7999C55.2069 94.4048 55.222 95.0097 55.222 95.5994C55.222 96.5067 55.6758 97.1721 56.5984 97.1721C57.2185 97.1721 57.6118 96.8848 57.8992 96.3101L58.0958 97.0511ZM51.1836 96.5521C51.5618 96.9604 51.9096 97.1721 52.56 97.1721C53.6188 97.1721 54.4204 96.174 54.4204 95.0248C54.4204 93.9663 53.6188 92.9682 52.56 92.9682C51.9701 92.9682 51.592 93.1648 51.2744 93.7092H51.2593V92.6053C51.2593 92.2424 51.2744 91.8644 51.2744 91.5166C50.7753 91.6224 50.2761 91.698 49.777 91.7585V91.8795C50.0341 91.9097 50.1702 92.1063 50.1702 92.4844V96.3253C50.1702 96.7033 49.9736 96.8848 49.6711 96.9755V97.0965H51.0173L51.1836 96.5521ZM51.2441 95.055C51.2441 93.8756 51.5315 93.2404 52.2273 93.2404C52.9079 93.2404 53.2104 93.8756 53.2104 95.055C53.2104 96.2345 52.923 96.8696 52.2273 96.8696C51.5315 96.8696 51.2441 96.2345 51.2441 95.055ZM48.4309 91.4863C48.1132 91.4863 47.8712 91.7888 47.8712 92.1063C47.8712 92.4239 48.1132 92.7263 48.4309 92.7263C48.7485 92.7263 48.9905 92.4239 48.9905 92.1063C48.9905 91.7888 48.7636 91.4863 48.4309 91.4863ZM48.9905 93.059C48.4762 93.1648 48.0074 93.2404 47.5234 93.2707V93.3917C47.7502 93.437 47.9166 93.6034 47.9166 93.8302V96.1136C47.9166 96.5672 47.8107 96.8848 47.4175 96.9452V97.0662C47.7654 97.0662 48.1132 97.036 48.4611 97.036C48.7939 97.036 49.1569 97.0662 49.5047 97.0662V96.9452C49.1115 96.8848 49.0056 96.5672 49.0056 96.1136V93.059H48.9905ZM47.1906 92.9531H46.8579C46.2529 92.9531 45.8596 93.6336 45.7084 94.178H45.6932V93.7243C45.6932 93.4975 45.7084 93.2707 45.7084 93.0741C45.179 93.18 44.695 93.2556 44.211 93.2858V93.4068C44.4378 93.4521 44.6647 93.6185 44.6647 94.1477V95.7809C44.6647 96.416 44.5589 96.8545 44.1656 96.9755V97.0965C44.5135 97.0965 44.8614 97.0662 45.2092 97.0662C45.542 97.0662 45.905 97.0965 46.2529 97.0965V96.9755C45.8596 96.8545 45.7537 96.416 45.7537 95.7809V95.1911C45.7537 94.6316 45.905 94.0268 46.3285 94.0268C46.5251 94.0268 46.631 94.1629 46.752 94.299L47.1906 92.9531ZM39.3558 93.5126C39.6432 93.1195 40.3238 92.4239 40.8381 92.4239C41.1406 92.4239 41.2313 92.6356 41.2313 92.9229V95.5994C41.2313 96.295 41.2011 96.8999 40.5658 96.9301V97.0813C41.065 97.0813 41.4885 97.0511 41.8666 97.0511C42.2598 97.0511 42.6682 97.0813 43.122 97.0813V96.9301C42.5472 96.8999 42.517 96.2799 42.517 95.5994V92.9229C42.517 92.6356 42.6077 92.4239 42.9102 92.4239C43.4245 92.4239 44.1051 93.1195 44.3925 93.5126H44.5588L44.1807 92.1517H39.5676L39.1895 93.5126H39.3558Z" fill="black"></path>
    <path d="M102.275 91.4707C101.761 91.5766 101.262 91.6522 100.808 91.7278V91.8487C101.065 91.879 101.201 92.0756 101.201 92.4536V93.4668H101.186C100.944 93.1341 100.536 92.9375 99.946 92.9375C98.8721 92.9375 98.1007 93.9809 98.1007 95.0545C98.1007 96.1282 98.8872 97.1716 99.946 97.1716C100.612 97.1716 100.975 96.9599 101.247 96.3701H101.262L101.413 97.0506H102.729V96.9296C102.396 96.8389 102.275 96.2945 102.275 95.8711V91.4707ZM99.3108 95.0394C99.3108 93.8599 99.5981 93.2097 100.294 93.2097C100.975 93.2097 101.217 93.8448 101.217 95.0394C101.217 96.2189 100.975 96.8691 100.294 96.8691C99.5981 96.8691 99.3108 96.234 99.3108 95.0394ZM96.1647 95.7653C96.1647 96.4004 96.0589 96.854 95.6656 96.9599V97.0808C96.0135 97.0808 96.3614 97.0506 96.6941 97.0506C97.0269 97.0506 97.3747 97.0808 97.7226 97.0808V96.9599C97.3294 96.8389 97.2235 96.4004 97.2235 95.7653V92.3024C97.2235 92.0151 97.2386 91.7126 97.2386 91.4858C96.7244 91.6068 96.2252 91.6975 95.7261 91.758V91.879C96.0437 91.9546 96.1496 92.1058 96.1496 92.4536V95.7653H96.1647ZM93.7901 95.4779C93.7901 95.9921 93.6237 96.8389 92.9885 96.8389C92.565 96.8389 92.3381 96.4306 92.3381 96.0223C92.3381 95.1755 92.9431 94.8277 93.654 94.8277H93.7901V95.4779ZM94.017 97.0506H95.2572V96.9296C94.9547 96.8389 94.864 96.5516 94.864 96.2038V94.6614C94.864 93.3458 94.1985 92.9224 93.2153 92.9224C92.565 92.8921 91.9448 93.1038 91.3096 93.3004L91.6121 94.5102L91.718 94.4799C91.9146 93.6936 92.3078 93.1643 92.9128 93.1643C93.4422 93.1643 93.775 93.6029 93.775 94.2228V94.5555H93.6237C92.5801 94.5555 91.1583 94.8579 91.1583 95.9618C91.1583 96.8691 91.96 97.1564 92.7011 97.1564C93.2456 97.1564 93.5784 96.8691 93.8657 96.4004L94.017 97.0506ZM90.9768 92.9224H90.6441C90.0391 92.9224 89.661 93.6029 89.5097 94.1472H89.4946V93.6785C89.4946 93.4516 89.5097 93.2248 89.5097 93.0282C88.9803 93.1341 88.5115 93.2097 88.0275 93.2399V93.3609C88.2392 93.4063 88.4812 93.5726 88.4812 94.1019V95.735C88.4812 96.3701 88.3753 96.8238 87.9821 96.9296V97.0506C88.33 97.0506 88.6778 97.0204 89.0106 97.0204C89.3433 97.0204 89.6912 97.0506 90.0391 97.0506V96.9296C89.6458 96.8086 89.54 96.3701 89.54 95.735V95.1453C89.54 94.5706 89.6912 93.9809 90.1147 93.9809C90.3113 93.9809 90.4172 94.117 90.5382 94.2531L90.9768 92.9224ZM84.7302 94.3589C84.7453 93.8599 84.8209 93.1794 85.4864 93.1794C86.1671 93.1794 86.2276 93.875 86.2427 94.3589H84.7302ZM87.4527 94.6009C87.4073 93.5272 86.5301 92.9224 85.5318 92.9224C84.2916 92.9224 83.5353 93.875 83.5353 95.0394C83.5353 96.1584 84.2916 97.1564 85.5318 97.1564C86.6359 97.1564 87.3317 96.5969 87.5888 95.5082L87.3922 95.357C87.2258 96.0677 86.7569 96.8389 85.9856 96.8389C84.9571 96.8389 84.7302 95.8862 84.7302 95.0394V94.6009H87.4527ZM79.2549 94.2833V93.0736C79.2549 92.4687 79.3457 92.2873 79.6935 92.2117V92.0907C79.2852 92.0907 78.9373 92.1209 78.6045 92.1209C78.2718 92.1209 77.9239 92.0907 77.576 92.0907V92.2117C77.9239 92.3175 77.9693 92.4536 77.9693 93.2248V95.5535C77.9693 96.2491 77.939 96.854 77.3945 96.8994V97.0506H79.7994V96.8994C79.3003 96.8691 79.27 96.2491 79.27 95.5535V94.5706H81.2968V95.5535C81.2968 96.2491 81.2665 96.854 80.7825 96.8994V97.0506H83.1118V96.8994C82.6278 96.8691 82.5976 96.113 82.5976 95.5535V93.0736C82.5976 92.5595 82.6883 92.2873 83.0211 92.2117V92.0907C82.6429 92.0907 82.2951 92.1209 81.9623 92.1209C81.6295 92.1209 81.2817 92.0907 80.9338 92.0907V92.2117C81.2212 92.2873 81.327 92.5292 81.3119 93.0736V94.2833H79.2549Z" fill="black"></path>
    <path d="M69.7113 89.7017C69.9987 89.0666 71.4658 90.2612 71.5263 90.1553C72.0406 89.7622 73.7951 90.3368 74.2942 90.7451C74.748 91.108 74.6724 91.4558 74.99 91.8641C74.8539 91.6826 75.5647 91.9548 75.5647 91.9548C75.6857 92.0456 75.9882 92.4538 76.1395 92.6202C76.3815 92.8772 76.6235 92.5597 76.7142 92.9982C76.7747 93.2704 76.2454 93.7845 76.079 93.9509C75.5042 94.5255 74.8236 94.586 74.2791 94.9489C73.9615 95.1606 73.3262 95.8865 73.1145 96.2191C72.9935 96.4157 72.9481 97.565 72.5851 97.565C72.6154 97.565 71.5263 97.1416 71.481 97.1113C70.8155 96.6879 71.0272 96.3855 70.9062 95.6294C70.7701 94.8128 70.2861 94.2382 69.8777 93.5426C69.303 92.5748 69.7718 92.6051 70.1651 91.6826C70.3163 91.3348 70.3768 91.2139 70.3012 90.8509C70.1802 90.4729 69.4542 90.2763 69.7113 89.7017Z" fill="#007E33"></path>
    <path d="M78.2267 72.1904C77.0167 74.3377 75.7764 75.8649 74.4757 76.9083C74.4606 76.9083 74.4454 76.9083 74.4303 76.9235C73.9614 77.2713 73.2506 77.6947 72.8271 77.6947C72.5094 77.6947 72.2826 77.483 72.4187 76.8025L73.0993 72.9616C73.1144 72.8104 73.0237 72.7196 72.8875 72.7045C71.9649 72.5533 71.1633 72.4626 70.3919 72.4626C66.656 72.4626 64.7503 74.0655 64.357 76.3035C64.3116 76.5757 64.2814 76.8327 64.2663 77.0596C62.542 77.8912 59.3809 78.5112 58.7305 77.3469C58.3524 76.6513 58.9271 75.124 61.0446 75.124C61.1051 75.124 61.1808 75.0786 61.1959 75.003L61.3169 74.383C61.3169 74.3225 61.2715 74.2469 61.1959 74.2469C59.7136 74.2469 59.3204 73.2187 59.5926 72.3718C59.88 71.525 60.6211 71.0563 61.6043 71.0563C61.816 71.0563 61.9824 71.0865 62.1034 71.1621C61.9824 71.3285 61.9219 71.5099 61.8916 71.7065C61.7555 72.4475 62.2395 73.0372 62.9504 73.0372C63.6764 73.0372 64.3116 72.4475 64.4478 71.7065C64.5234 71.2377 64.4024 69.6953 61.4379 69.6953C59.9405 69.6953 57.9894 70.1792 57.0062 71.5402C56.0987 72.7801 56.1139 74.2621 57.7927 74.7006C55.8567 74.9577 54.6467 77.1049 55.645 78.4659C56.2954 79.3429 57.7625 79.5849 58.912 79.5849C60.8934 79.5849 62.8596 78.8288 64.3268 77.8912C64.5083 78.9649 65.1889 79.5546 66.2779 79.5546C67.8055 79.5546 68.471 78.481 69.0155 77.9064C69.0458 78.6473 69.318 79.5546 70.6188 79.5546C71.3599 79.5546 72.1313 79.3429 72.8875 78.9195C72.9027 78.9346 72.9178 78.9498 72.9632 78.9346C74.6269 78.0727 76.2604 76.7571 77.6671 75.003C78.1057 75.6835 78.4536 76.3186 78.5141 76.9386C78.6199 77.9215 78.2872 78.3903 77.7124 78.3903C77.3948 78.3903 76.9108 78.1634 76.5024 77.5737C76.4571 77.5132 76.3966 77.5132 76.3058 77.5283C76.1848 77.5586 75.6857 77.6947 75.6252 77.74C75.5798 77.7703 75.5193 77.8156 75.5798 77.9215C76.2604 79.0707 77.2889 79.5546 78.1511 79.6302C79.6333 79.7966 80.314 79.1463 80.6921 78.7229C82.8096 76.3488 79.1796 72.8255 78.8317 72.4475C78.4838 72.024 78.3023 72.0694 78.2267 72.1904ZM69.076 76.9839C68.6677 77.3317 68.3349 77.4527 68.0929 77.4527C67.8509 77.4527 67.0795 77.3922 67.3518 75.8045C67.6392 74.2167 68.471 73.5816 69.681 73.5816L69.076 76.9839Z" fill="white"></path>
    <path d="M87.0454 76.9089C87.0151 76.9089 87 76.9089 86.9697 76.924C86.5311 77.2718 85.6841 77.6952 85.2757 77.6952C84.9732 77.6952 84.6253 77.4835 84.7615 76.803L85.2908 73.7485H86.6219C86.6672 73.7485 86.7428 73.7031 86.7428 73.6426L86.9092 72.7504C86.9244 72.69 86.879 72.6295 86.8336 72.6295H85.5026L85.7143 71.4046C85.7597 71.1022 85.8656 70.7846 85.2455 70.7544C84.58 70.7393 83.5817 71.0871 83.0372 71.5558C83.007 71.6012 82.9616 71.6617 82.886 71.7827L82.523 72.5992H81.5701C81.5096 72.5992 81.4491 72.6446 81.434 72.7202L81.2676 73.6124C81.2676 73.6577 81.2978 73.7182 81.3735 73.7182H81.9785L81.4188 76.9543C81.2222 78.0733 81.4491 79.5098 83.0675 79.5098C84.3077 79.5098 85.7597 78.9201 86.9546 77.7255C86.9697 77.7103 86.9848 77.6952 86.9848 77.6801L87.121 76.9543C87.1059 76.9391 87.0756 76.9089 87.0454 76.9089Z" fill="white"></path>
  </g>
  <defs>
    <clipPath id="clip0_7_293">
      <rect width="141.601" height="113.896" fill="white"></rect>
    </clipPath>
  </defs>
</svg>
