<?xml version="1.0" encoding="UTF-8"?>
<svg xmlns="http://www.w3.org/2000/svg" width="170" height="78" viewBox="0 0 170 78" fill="none">
  <g clip-path="url(#clip0_7_106)">
    <path d="M4.05078 5.82422H165.309V75.1425H4.05078V5.82422Z" fill="#E00000"></path>
    <path d="M19.5488 27.7744H32.4429V31.2259H23.2923V36.4032H32.4429V39.675H23.2923V51.288H19.5488V27.7744Z" fill="white"></path>
    <path d="M86.4609 51.3055V36.6545H89.481V39.0633C90.4395 37.5353 92.049 36.2949 93.8032 36.2949C95.9733 36.2949 97.8179 37.0679 98.5774 39.0274C100.024 37.032 101.435 36.4208 103.478 36.4208C105.232 36.4208 106.86 37.1758 107.656 38.3802C108.524 39.6925 108.668 41.1846 108.632 42.425V51.3055H105.124V44.5462C105.124 41.3284 104.835 39.7465 102.538 39.7465C99.8976 39.7465 99.4274 41.652 99.4274 45.4091V51.3055H95.6659V44.5462C95.6659 41.2205 95.1233 39.7465 93.0255 39.7465C91.8139 39.7465 90.8373 40.3756 90.2406 41.4183C89.698 42.3711 89.698 43.5935 89.698 45.4091V51.3055H86.4609Z" fill="white"></path>
    <path d="M61.125 51.3055V36.6545H64.1451V39.0633C65.1036 37.5353 66.7131 36.2949 68.4672 36.2949C70.6374 36.2949 72.4819 37.0679 73.2415 39.0274C74.6882 37.032 76.0988 36.4208 78.1423 36.4208C79.8965 36.4208 81.5241 37.1758 82.3198 38.3802C83.1879 39.6925 83.3325 41.1846 83.2964 42.425V51.3055H79.788V44.5462C79.788 41.3284 79.4987 39.7465 77.202 39.7465C74.5616 39.7465 74.0915 41.652 74.0915 45.4091V51.3055H70.3299V44.5462C70.3299 41.2205 69.7874 39.7465 67.6896 39.7465C66.478 39.7465 65.5014 40.3756 64.9046 41.4183C64.3621 42.3711 64.3621 43.5935 64.3621 45.4091V51.3055H61.125Z" fill="white"></path>
    <path d="M114.094 44.942C114.257 47.2071 115.812 48.825 118.272 48.825C120.098 48.825 121.364 48.2138 122.359 46.8116C122.286 46.8116 124.873 48.8789 124.728 48.9868C123.136 50.9462 121.039 51.899 118.326 51.899C113.624 51.899 110.586 48.807 110.586 44.0252C110.586 39.4771 113.733 36.1514 118.326 36.1514C123.064 36.1514 125.867 38.9737 125.867 43.8454V44.96H114.094V44.942ZM118.38 38.9917C116.192 38.9917 114.854 40.0343 114.311 42.4792H122.359C122.106 40.1062 120.713 38.9917 118.38 38.9917Z" fill="white"></path>
    <path d="M134.529 36.457C135.488 36.457 136.519 36.6548 136.989 36.8345L136.302 39.8007C135.524 39.6209 134.077 39.549 133.354 39.8007C131.021 40.6097 131.003 41.5444 131.003 45.4993V51.3058H127.621V36.6188H131.003V38.9918C131.491 37.6435 133.318 36.457 134.529 36.457Z" fill="white"></path>
    <path d="M40.9609 36.457C41.9194 36.457 42.9502 36.6548 43.4204 36.8345L42.7332 39.8007C41.9556 39.6209 40.5088 39.549 39.7855 39.8007C37.4526 40.6097 37.4345 41.5444 37.4345 45.4993V51.3058H34.0527V36.6188H37.4345V38.9918C37.9228 37.6435 39.7493 36.457 40.9609 36.457Z" fill="white"></path>
    <path d="M140.443 47.117C140.859 48.5731 141.962 49.3641 143.752 49.3641C145.272 49.3641 146.176 48.6091 146.176 47.4406C146.176 45.9305 144.711 45.7867 142.667 44.9418C139.738 43.7194 138.436 43.234 138.436 40.5195C138.436 37.9848 140.57 36.1152 144.06 36.1152C146.375 36.1152 148.038 36.9961 149.051 38.7938L146.664 40.4296C146.049 39.2432 145.127 38.632 143.933 38.632C142.631 38.632 141.799 39.2971 141.799 40.3038C141.799 41.7779 142.685 42.0835 145.687 42.8745C148.364 43.5756 149.467 45.0856 149.467 47.2069C149.467 50.0472 147.297 51.8808 143.445 51.8808C140.913 51.8808 139.159 51.0719 138.038 49.3641C137.911 49.1484 140.443 47.117 140.443 47.117Z" fill="white"></path>
    <path d="M45.6801 38.4168C47.1992 36.9248 49.2427 36.1338 51.3767 36.1338C53.5649 36.1338 55.5722 36.9248 57.1275 38.4348C58.6465 39.9269 59.5146 41.8504 59.5146 43.9716C59.5146 46.1468 58.6827 48.0883 57.1636 49.5444C55.5722 51.0545 53.5649 51.8814 51.3767 51.8814C49.2427 51.8814 47.1992 51.0545 45.6801 49.5804C44.1248 48.0703 43.293 46.1288 43.293 43.9896C43.293 41.8684 44.1248 39.9089 45.6801 38.4168ZM54.3425 39.046L45.6078 45.2839L53.0223 49.5624L54.3425 39.046Z" fill="white"></path>
    <path d="M137.803 37.698L142.975 32.5028L139.846 30.7051L137.803 37.698Z" fill="white"></path>
    <path d="M12.0254 16.7549H157.007" stroke="white" stroke-width="3.07828"></path>
    <path d="M12.0254 64.2129H157.007" stroke="white" stroke-width="3.07828"></path>
  </g>
  <defs>
    <clipPath id="clip0_7_106">
      <rect width="169.305" height="77.9831" fill="white"></rect>
    </clipPath>
  </defs>
</svg>
