<?xml version="1.0" encoding="UTF-8"?>
<svg xmlns="http://www.w3.org/2000/svg" width="120" height="120" viewBox="0 0 120 120" fill="none">
  <path d="M25.0849 22.6997L25.9086 25.723L35.581 27.3917L43.2317 52.5817L33.9168 55.1168L34.3664 56.7675L34.5246 57.3483L34.2311 57.8731C30.3004 64.9062 27.63 72.128 21.6718 79.4787C22.9377 81.0463 25.8544 84.4979 29.704 88.0054C34.9043 92.7432 41.7612 97.3889 47.9096 97.6184C63.2799 98.1915 74.6594 86.0105 74.6594 86.0105L75.11 85.523L99.0442 86.0542V74.1471L78.7243 73.4011L78.3418 72.592C70.9292 56.9107 53.7245 36.0034 41.7517 25.5175L25.0849 22.6997ZM26.7627 28.8585L33.1427 52.2758L39.5328 50.5364L33.2909 29.985L26.7627 28.8585ZM49.6379 56.8647C60.0715 56.8647 68.5296 65.3227 68.5296 75.7563C68.5296 86.1898 60.0716 94.648 49.6379 94.648C39.2041 94.648 30.7462 86.19 30.7462 75.7563C30.7462 65.3225 39.2041 56.8647 49.6379 56.8647ZM49.7663 59.8863C48.562 59.8771 47.3605 60.005 46.1852 60.2675C37.6478 62.1706 32.246 70.6718 34.1493 79.2088C36.0523 87.7463 44.5534 93.1481 53.0906 91.245C61.6278 89.3419 67.0297 80.8407 65.1264 72.3037C63.4911 64.9669 56.9826 59.9456 49.7663 59.8863ZM49.6184 62.8286C51.5027 62.8224 53.3652 63.2304 55.0744 64.0237L50.9439 70.5243C50.6168 70.4416 50.2827 70.3898 49.9459 70.3695L48.2813 62.9026C48.7255 62.8548 49.1717 62.8302 49.6184 62.8286ZM45.4069 63.5432L47.0715 71.0101C46.8309 71.1413 46.6007 71.2906 46.3828 71.4568L40.0256 66.5948C41.476 64.9147 43.1935 64.3051 45.4069 63.5432ZM57.5895 65.5561C59.5593 67.0899 61.04 69.1639 61.8509 71.525L54.384 73.1897C54.1457 72.7522 53.8479 72.3497 53.4993 71.9938L57.5895 65.5561ZM38.1918 69.7406L44.6081 73.8178C44.4054 74.3395 44.2851 74.8896 44.2514 75.4484L36.7845 77.1126C36.5031 74.4959 37.0324 71.9464 38.1918 69.7406ZM62.4916 74.3994C62.7364 76.6627 62.376 78.9504 61.4471 81.0288L54.9131 76.8771C54.9707 76.6109 55.008 76.3392 55.0246 76.064L62.4916 74.3994ZM44.8921 78.3224C45.0536 78.6188 45.2426 78.8993 45.4565 79.1604L41.3257 85.6606C39.5338 84.1593 38.1852 82.1977 37.4252 79.987L44.8921 78.3224ZM53.5292 79.4866L59.9455 83.5634C58.4409 85.5498 56.3578 87.1124 53.8692 87.9691L52.2046 80.502C52.6961 80.2343 53.143 79.8917 53.5292 79.4866ZM47.872 80.8497C48.3423 81.0141 48.833 81.1127 49.3303 81.1425L50.9946 88.6096C48.5127 88.8785 46.0062 88.419 43.7809 87.2874L47.872 80.8497Z" fill="white"></path>
</svg>
