<?xml version="1.0" encoding="UTF-8"?>
<svg xmlns="http://www.w3.org/2000/svg" width="20" height="22" viewBox="0 0 20 22" fill="none">
  <path d="M9.75259 0C13.579 0 17.2299 2.26384 18.7575 5.83496C20.1775 9.15498 19.41 11.9865 17.8092 14.4111C16.2457 16.7793 13.8287 18.8415 11.8825 20.6641L11.8795 20.667C11.3013 21.2036 10.5414 21.5002 9.75259 21.499H9.75161L9.74966 21.5V21.499C8.96159 21.4997 8.20236 21.2031 7.62466 20.667L7.62075 20.6631C5.68155 18.8362 3.26247 16.7737 1.6979 14.4092C0.0953889 11.9871 -0.674852 9.15862 0.746729 5.83496H0.747705C2.27719 2.26435 5.92601 4.40108e-05 9.75259 0ZM9.75259 1.5C6.49347 1.50004 3.40726 3.43583 2.12661 6.4248C0.953295 9.16797 1.54655 11.4627 2.94888 13.582C4.38839 15.7576 6.61444 17.6545 8.64517 19.5674L8.76235 19.666C9.04476 19.8823 9.3921 20.0007 9.75064 20H9.75356L9.90689 19.9932C10.2611 19.9603 10.5962 19.8113 10.859 19.5674C12.8931 17.6627 15.1196 15.7623 16.5573 13.585C17.9582 11.4631 18.5505 9.16477 17.3786 6.4248C16.1001 3.43592 13.0121 1.5 9.75259 1.5Z" fill="#008236"></path>
  <path d="M13.5107 6.53883C13.9031 6.40678 14.3286 6.61817 14.4609 7.01051C14.593 7.40288 14.3816 7.82839 13.9893 7.96071C13.4976 8.12662 12.9434 8.47734 12.3682 8.95778C11.7999 9.43238 11.2491 10.0011 10.7627 10.5564C10.2778 11.11 9.86583 11.6399 9.5752 12.032C9.43028 12.2275 9.31662 12.3882 9.23926 12.4988C9.20059 12.5541 9.17079 12.5973 9.15137 12.6257C9.14179 12.6398 9.13448 12.6502 9.12988 12.657C9.12758 12.6604 9.12599 12.6633 9.125 12.6648L9.12402 12.6658C8.97719 12.8859 8.72514 13.0126 8.46094 12.9988C8.19665 12.9849 7.95895 12.8327 7.83594 12.5984C7.44657 11.8566 7.09076 11.5492 6.89453 11.4246C6.79526 11.3615 6.72782 11.3395 6.70312 11.3328C6.69047 11.3293 6.68785 11.3289 6.69531 11.3298C6.30667 11.3018 6 10.9786 6 10.5828C6 10.1686 6.33579 9.83278 6.75 9.83278V10.2791C6.75016 9.86093 6.75042 9.83444 6.75098 9.83278H6.77539C6.78459 9.83306 6.79468 9.83406 6.80566 9.83473C6.82804 9.83611 6.85446 9.83784 6.88379 9.84157C6.94256 9.84903 7.01479 9.86296 7.09766 9.88551C7.26429 9.93091 7.47057 10.0128 7.69922 10.158C7.96342 10.3258 8.2455 10.5722 8.53125 10.9256C8.82325 10.5401 9.2004 10.064 9.63477 9.56813C10.1521 8.97754 10.7595 8.3474 11.4072 7.80641C12.0477 7.27154 12.7677 6.78944 13.5107 6.53883ZM6.71387 11.3318C6.71835 11.3321 6.72366 11.3326 6.72949 11.3328H6.74902L6.75 11.3318C6.73225 11.3318 6.71471 11.3311 6.69727 11.3298C6.70107 11.3303 6.70653 11.3313 6.71387 11.3318Z" fill="#008236"></path>
</svg>
