<?xml version="1.0" encoding="UTF-8"?>
<svg xmlns="http://www.w3.org/2000/svg" width="26" height="26" viewBox="0 0 26 26" fill="none">
  <path d="M12.9993 2.1665C18.9826 2.1665 23.8327 7.01659 23.8327 12.9998C23.8327 18.9831 18.9826 23.8332 12.9993 23.8332C7.0161 23.8332 2.16602 18.9831 2.16602 12.9998C2.16602 7.01659 7.0161 2.1665 12.9993 2.1665ZM12.9993 6.49984C12.712 6.49984 12.4365 6.61397 12.2333 6.81714C12.0302 7.0203 11.916 7.29585 11.916 7.58317V12.9998C11.9161 13.2871 12.0303 13.5626 12.2334 13.7658L15.4834 17.0158C15.6878 17.2131 15.9614 17.3223 16.2455 17.3198C16.5295 17.3173 16.8012 17.2034 17.0021 17.0026C17.2029 16.8017 17.3169 16.53 17.3193 16.2459C17.3218 15.9619 17.2126 15.6882 17.0153 15.4839L14.0827 12.5513V7.58317C14.0827 7.29585 13.9685 7.0203 13.7654 6.81714C13.5622 6.61397 13.2867 6.49984 12.9993 6.49984Z" fill="white"></path>
</svg>
