<?xml version="1.0" encoding="UTF-8"?>
<svg xmlns="http://www.w3.org/2000/svg" width="153" height="117" viewBox="0 0 153 117" fill="none">
  <g clip-path="url(#clip0_7_83)">
    <path d="M97.3972 56.8357H61.1921V8.75387H97.3972V56.8357ZM52.0469 64.711H106.199V0.764648H52.0469V64.711Z" fill="#FFB700"></path>
    <path d="M22.1601 76.0039L28.5944 86.2874C29.166 87.2311 29.6559 88.0935 30.0152 89.0047C29.8192 87.2962 29.7375 85.9945 29.7375 85.0833L29.7865 76.0039H32.6117L32.4974 92.503H29.4599L22.8133 81.7802C22.3887 81.0968 21.9805 80.2345 21.5395 79.2256C21.7518 80.4785 21.8008 81.764 21.8008 83.1308V83.8304L21.7355 92.5193H19.4492L19.5962 76.0202H22.1601V76.0039Z" fill="black"></path>
    <path d="M41.6918 80.7226L39.8301 85.6853H44.6477L42.9003 80.7714C42.7043 80.2833 42.492 79.5511 42.2797 78.6561C42.1817 79.307 41.9694 79.9904 41.6918 80.7226ZM44.1414 76.0039L50.543 92.503H47.2606L45.5132 87.9959H38.9156L37.1029 92.503H34.1797L41.2509 76.0039H44.1414Z" fill="black"></path>
    <path d="M111.571 80.7226L109.709 85.6853H114.51L112.763 80.7714C112.567 80.2833 112.355 79.5511 112.142 78.6561C112.061 79.307 111.848 79.9904 111.571 80.7226ZM114.02 76.0039L120.422 92.503H117.139L115.392 87.9959H108.794L106.982 92.503H104.059L111.13 76.0039H114.02Z" fill="black"></path>
    <path d="M89.6059 102.754L87.7442 107.717H92.5454L90.798 102.803C90.602 102.315 90.3897 101.582 90.1774 100.687C90.1121 101.338 89.8998 102.022 89.6059 102.754ZM92.0555 98.0352L98.4571 114.534H95.1746L93.4272 110.027H86.8296L85.0169 114.534H82.0938L89.1649 98.0352H92.0555Z" fill="black"></path>
    <path d="M61.077 76.0039L61.028 78.4609H55.8675L55.6225 92.503H52.5687L52.7973 78.4609H47.4082L47.4572 76.0039H61.077Z" fill="black"></path>
    <path d="M66.8254 76.0039L66.5315 92.503H63.543L63.8206 76.0039H66.8254Z" fill="black"></path>
    <path d="M72.5577 84.3019C72.5577 87.8002 74.648 90.0619 77.7835 90.0619C80.968 90.0619 83.0746 87.7839 83.0746 84.1229C83.0746 80.6408 80.968 78.3628 77.8162 78.3628C74.6317 78.3466 72.5577 80.6245 72.5577 84.3019ZM83.7932 78.0049C85.3283 79.5344 86.2428 81.7635 86.2428 84.2531C86.2428 86.5799 85.2793 88.9067 83.8095 90.3385C82.3071 91.8192 80.2658 92.6002 77.8162 92.6002C75.2686 92.6002 73.3906 91.9982 71.7738 90.4199C70.1734 88.8416 69.3242 86.7263 69.3242 84.2856C69.3242 79.3066 72.7373 75.8245 77.7835 75.8245C80.3474 75.8082 82.2908 76.4916 83.7932 78.0049Z" fill="black"></path>
    <path d="M91.9088 76.0039L98.3431 86.2874C98.9147 87.2311 99.4046 88.0935 99.7639 89.0047C99.5679 87.2962 99.4862 85.9945 99.4862 85.0833L99.5352 76.0039H102.36L102.23 92.503H99.1923L92.5457 81.7802C92.1211 81.0968 91.7128 80.2345 91.2719 79.2256C91.4842 80.4785 91.5332 81.764 91.5332 83.1308V83.8304L91.4516 92.503H89.002L89.1489 76.0039H91.9088Z" fill="black"></path>
    <path d="M126.678 76.0039L126.449 90.3552H134.272L134.239 92.503H123.33L123.608 76.0039H126.678Z" fill="black"></path>
    <path d="M17.0332 101.192C15.6941 100.655 14.5183 100.346 13.4895 100.346C9.73343 100.346 7.12052 102.884 7.12052 106.496C7.12052 109.767 9.39049 112.142 12.477 112.142C13.1629 112.142 14.0284 111.996 15.0899 111.719L15.1879 105.569H18.1274L17.9804 113.688C16.1187 114.372 14.3224 114.681 12.526 114.681C10.1254 114.681 8.28 114.16 6.77758 112.972C4.86689 111.443 3.78906 109.148 3.78906 106.366C3.78906 103.405 4.9812 101.127 7.44714 99.3694C8.76992 98.4256 10.5173 97.8887 12.6076 97.8887C14.404 97.8887 16.1024 98.2141 17.7191 98.8812L17.0332 101.192Z" fill="black"></path>
    <path d="M30.1625 98.1816L30.1299 100.72H24.1529L24.0712 104.837H29.9176L29.8686 107.326H24.0222L23.9569 111.833H30.1136L30.0646 114.404H20.8867L21.1807 98.1816H30.1625Z" fill="black"></path>
    <path d="M35.0948 106.383C35.0948 109.881 37.1851 112.143 40.3206 112.143C43.5051 112.143 45.6118 109.865 45.6118 106.204C45.6118 102.722 43.5051 100.444 40.3533 100.444C37.1688 100.444 35.0948 102.722 35.0948 106.383ZM46.3303 100.086C47.8654 101.615 48.7799 103.844 48.7799 106.334C48.7799 108.661 47.8164 110.987 46.3466 112.419C44.8279 113.9 42.8029 114.681 40.3533 114.681C37.8057 114.681 35.9277 114.079 34.3109 112.501C32.7105 110.922 31.8613 108.807 31.8613 106.366C31.8613 101.387 35.2744 97.9053 40.3206 97.9053C42.8845 97.9053 44.8279 98.5887 46.3303 100.086Z" fill="black"></path>
    <path d="M63.8528 101.192C62.5137 100.655 61.3379 100.346 60.3091 100.346C56.553 100.346 53.9401 102.884 53.9401 106.496C53.9401 109.767 56.2101 112.142 59.2966 112.142C59.9825 112.142 60.848 111.996 61.9095 111.719L62.0075 105.569H64.947L64.8 113.688C62.9383 114.372 61.142 114.681 59.3456 114.681C56.945 114.681 55.0996 114.16 53.5972 112.972C51.7028 111.443 50.625 109.132 50.625 106.366C50.625 103.405 51.8335 101.127 54.2831 99.3694C55.6059 98.4256 57.3532 97.8887 59.4436 97.8887C61.2399 97.8887 62.9383 98.2141 64.5551 98.8812L63.8528 101.192Z" fill="black"></path>
    <path d="M72.2789 105.634H73.4057C75.594 105.634 77.1454 105.113 77.1454 103.128C77.1454 101.126 75.545 100.736 73.4384 100.736H72.2789V105.634ZM80.8688 114.404H77.3414L72.3279 107.863H72.2789V114.404H69.4863V98.165H74.1406C77.717 98.165 80.1829 99.5806 80.1829 103.063C80.1829 105.129 78.9091 107.196 75.7573 107.57L80.8688 114.404Z" fill="black"></path>
    <path d="M101.772 105.894H103.487C105.757 105.894 106.998 104.853 106.998 103.079C106.998 101.289 105.888 100.313 103.814 100.313H101.854L101.772 105.894ZM104.597 98.1816C108.06 98.1816 109.905 99.9389 109.905 103.03C109.905 106.008 107.782 108.075 104.287 108.075H101.789L101.674 114.388H98.8164L99.094 98.1816H104.597Z" fill="black"></path>
    <path d="M116.029 98.1816L115.915 104.788H123.362L123.476 98.1816H126.497L126.22 114.404H123.198L123.313 107.326H115.866L115.752 114.404H112.73L113.008 98.1816H116.029Z" fill="black"></path>
    <path d="M132.883 98.1816L132.606 114.404H129.617L129.895 98.1816H132.883Z" fill="black"></path>
    <path d="M148.331 101.305C147.074 100.72 145.849 100.443 144.624 100.443C141.064 100.443 138.729 102.884 138.729 106.317C138.729 109.636 141.064 112.028 144.363 112.028C145.539 112.028 146.813 111.67 148.282 111.036L148.968 113.46C147.009 114.257 145.196 114.664 143.481 114.664C141.423 114.664 139.545 113.932 138.108 112.614C136.443 111.084 135.512 108.871 135.512 106.268C135.512 103.844 136.361 101.777 137.994 100.199C139.578 98.6694 141.668 97.8721 144.167 97.8721C145.751 97.8721 147.368 98.1975 149.099 98.8646L148.331 101.305Z" fill="black"></path>
  </g>
  <defs>
    <clipPath id="clip0_7_83">
      <rect width="152.888" height="116.975" fill="white"></rect>
    </clipPath>
  </defs>
</svg>
