<?xml version="1.0" encoding="UTF-8"?>
<svg xmlns="http://www.w3.org/2000/svg" width="19" height="20" viewBox="0 0 19 20" fill="none">
  <path d="M3.77083 8.43917C5.27083 11.505 7.6875 14.0075 10.6354 15.5783L12.9271 13.195C13.2083 12.9025 13.625 12.805 13.9896 12.935C15.1562 13.3358 16.4167 13.5525 17.7083 13.5525C18.2812 13.5525 18.75 14.04 18.75 14.6358V18.4167C18.75 19.0125 18.2812 19.5 17.7083 19.5C7.92708 19.5 0 11.2558 0 1.08333C0 0.4875 0.46875 0 1.04167 0H4.6875C5.26042 0 5.72917 0.4875 5.72917 1.08333C5.72917 2.4375 5.9375 3.7375 6.32292 4.95083C6.4375 5.33 6.35417 5.7525 6.0625 6.05583L3.77083 8.43917Z" fill="white"></path>
</svg>
