<?xml version="1.0" encoding="UTF-8"?>
<svg xmlns="http://www.w3.org/2000/svg" width="200" height="68" viewBox="0 0 200 68" fill="none">
  <path d="M29.127 7.26112C34.2874 6.93404 40.5851 8.15738 45.2829 10.2151C46.4288 10.5099 48.453 12.169 49.4585 12.2889C52.1331 12.6076 55.7723 12.1781 58.4085 12.4574C57.1652 13.8385 56.2991 16.0131 55.6943 17.7321C57.6568 20.9734 58.8905 24.0375 58.274 27.9431C57.72 31.6195 55.7204 34.9221 52.7199 37.1166C47.7909 40.691 40.5739 40.4487 35.9794 36.4665C35.4982 36.0494 34.3284 34.7394 33.8574 34.6644C33.4646 35.0641 32.4426 36.729 32.0662 37.3133C31.6459 37.988 31.4513 38.1473 31.0435 38.9535C30.7411 38.2161 28.7314 35.2364 28.1707 34.5762C27.9196 34.77 27.5269 35.1718 27.3001 35.4109C23.4317 39.489 17.2709 40.7675 12.0053 38.4932C8.6712 37.0372 6.04662 34.3234 4.70236 30.9419C3.44583 27.6787 3.48259 24.0587 4.80514 20.8217C5.23296 19.7714 5.87751 18.7591 6.35503 17.6576C6.32659 16.4564 4.5857 13.5871 3.84115 12.5846C6.45971 12.418 9.63377 12.4987 12.2942 12.4999C18.0427 8.89789 22.5816 7.94292 29.127 7.26112Z" fill="#2872A3"></path>
  <path d="M16.9553 15.0562C22.985 14.7899 28.0876 19.4663 28.3485 25.498C28.6095 31.5297 23.9298 36.6295 17.8996 36.8852C11.8769 37.1406 6.78615 32.4668 6.52554 26.4427C6.26492 20.4185 10.9329 15.3222 16.9553 15.0562Z" fill="#FEFEFE"></path>
  <path d="M16.1757 19.1673C19.8802 18.569 23.3653 21.0961 23.949 24.8039C24.5327 28.5117 21.9929 31.9879 18.2839 32.5576C14.5951 33.1241 11.1429 30.6003 10.5622 26.9127C9.98162 23.2252 12.4914 19.7622 16.1757 19.1673Z" fill="#2872A3"></path>
  <path d="M16.8004 21.4484C19.2143 21.196 21.3806 22.9364 21.6548 25.3486C21.9291 27.7608 20.2088 29.9434 17.7999 30.2396C15.3599 30.5397 13.1434 28.7918 12.8657 26.3485C12.5879 23.9052 14.3553 21.7041 16.8004 21.4484Z" fill="#FEFEFE"></path>
  <path d="M16.5966 23.671C17.7918 23.3076 19.0574 23.9706 19.4394 25.1603C19.8213 26.3499 19.1783 27.626 17.9951 28.0266C17.2131 28.2914 16.3491 28.114 15.7346 27.5625C15.1201 27.011 14.8505 26.1711 15.0291 25.3649C15.2077 24.5586 15.8068 23.9112 16.5966 23.671Z" fill="#2872A3"></path>
  <path d="M43.7331 15.1475C49.7345 14.582 55.0587 18.9881 55.6276 24.9907C56.1966 30.9934 51.7952 36.3218 45.7946 36.8946C39.7886 37.4681 34.4559 33.0607 33.8864 27.0527C33.3169 21.0448 37.7264 15.7134 43.7331 15.1475Z" fill="#FEFEFE"></path>
  <path d="M43.6151 19.1603C47.3081 18.5399 50.806 21.0278 51.4328 24.7207C52.0597 28.4136 49.5787 31.9169 45.8879 32.5504C42.1878 33.1856 38.6748 30.6964 38.0463 26.9941C37.4179 23.2919 39.9128 19.7823 43.6151 19.1603Z" fill="#2872A3"></path>
  <path d="M44.313 21.4369C46.736 21.2093 48.8888 22.9794 49.1347 25.4012C49.3806 27.8231 47.6273 29.9899 45.2081 30.2542C42.7628 30.5212 40.5681 28.7446 40.3196 26.2966C40.0711 23.8486 41.8639 21.6669 44.313 21.4369Z" fill="#FEFEFE"></path>
  <path d="M44.0734 23.654C45.1656 23.3192 46.3382 23.8354 46.829 24.8671C47.1263 25.492 47.1271 26.2173 46.8315 26.8428C46.5358 27.4683 45.9748 27.9278 45.3034 28.0944C44.0919 28.3951 42.8613 27.6762 42.528 26.4729C42.1947 25.2697 42.88 24.0198 44.0734 23.654Z" fill="#2872A3"></path>
  <path d="M28.9385 9.81186C34.1804 9.40945 39.4421 10.2756 44.2788 12.3368C41.966 12.4015 39.7075 13.0527 37.7152 14.2294C34.5983 16.1006 32.3514 19.1328 31.4682 22.6601C31.3093 23.2917 31.2041 24.1809 31.1068 24.8422C30.6137 20.055 28.1622 16.1681 23.8966 13.8671C21.808 12.7403 19.9065 12.3947 17.5562 12.2328C22.0257 10.6761 24.2331 10.0825 28.9385 9.81186Z" fill="#2872A3"></path>
  <path d="M175.457 50.859C175.714 48.5963 176.441 46.7669 178.033 45.108C183.129 39.7995 192.357 42.2675 194.021 49.4698C194.537 52.0232 194.32 54.5708 192.848 56.7694C191.118 59.3553 189.209 60.4344 186.277 61.0768L186.227 61.0849C182.033 61.7449 177.897 59.3841 176.225 55.5559C175.737 54.4393 175.61 53.5688 175.427 52.386C175.136 54.5261 174.535 56.1603 173.144 57.8418C171.544 59.7436 169.253 60.9303 166.777 61.1402C164.293 61.3556 161.826 60.5864 159.903 58.9986C157.695 57.1515 156.81 55.1366 156.57 52.3797C156.395 52.9254 156.335 53.4836 156.212 54.0425C155.377 57.8131 152.176 60.5987 148.395 61.09C145.892 61.4318 143.355 60.7582 141.349 59.2194C139.343 57.6889 138.043 55.4105 137.745 52.9046C137.388 54.6759 137.115 55.8006 136.005 57.3368C134.536 59.3575 132.315 60.7014 129.843 61.0652C127.335 61.4576 124.773 60.8344 122.725 59.3332C120.431 57.6346 119.312 55.2526 118.909 52.501C118.837 53.0529 118.773 53.6863 118.641 54.2213C116.995 60.9102 108.603 63.3753 103.442 58.9756C97.1065 53.5763 100.294 42.9887 108.676 42.2746C114.378 42.2276 118.032 45.0538 118.903 50.7481C119.809 46.4786 121.851 43.4414 126.359 42.4643C128.817 41.9162 131.392 42.3834 133.501 43.7601C136.24 45.5212 137.097 47.5397 137.749 50.5342C138.293 46.5013 140.888 43.4878 144.877 42.501C147.321 41.9194 149.897 42.332 152.038 43.648C155.21 45.5835 155.799 47.6662 156.579 50.8997C156.736 49.1058 157.006 47.994 158.047 46.4413C159.435 44.3285 161.625 42.8737 164.11 42.4139C166.615 41.9412 169.205 42.4906 171.303 43.9395C173.806 45.6609 174.922 47.9787 175.457 50.859Z" fill="#2872A3"></path>
  <path d="M108.393 44.2259C112.525 43.5832 116.398 46.4089 117.048 50.5417C117.698 54.6745 114.881 58.5536 110.75 59.2119C106.609 59.872 102.718 57.0444 102.067 52.9006C101.414 48.7567 104.248 44.8703 108.393 44.2259Z" fill="#FEFEFE"></path>
  <path d="M108.808 46.8528C111.488 46.4373 113.997 48.2759 114.41 50.9577C114.821 53.6393 112.98 56.1466 110.299 56.5553C107.622 56.9633 105.12 55.1255 104.71 52.4486C104.298 49.7717 106.132 47.2675 108.808 46.8528Z" fill="#2872A3"></path>
  <path d="M127.248 44.219C131.393 43.5961 135.257 46.4562 135.874 50.6038C136.49 54.7514 133.626 58.6124 129.479 59.2232C125.339 59.8326 121.489 56.9742 120.874 52.8352C120.259 48.6962 123.111 44.8406 127.248 44.219Z" fill="#FEFEFE"></path>
  <path d="M127.584 46.8622C130.253 46.4236 132.773 48.2303 133.215 50.8998C133.658 53.5694 131.856 56.093 129.187 56.5393C126.514 56.9866 123.985 55.179 123.541 52.5041C123.098 49.8291 124.908 47.3019 127.584 46.8622Z" fill="#2872A3"></path>
  <path d="M146.02 44.2189C150.162 43.6161 154.008 46.4858 154.612 50.629C155.215 54.7722 152.347 58.6201 148.204 59.2238C144.062 59.8277 140.214 56.9577 139.61 52.8139C139.008 48.6701 141.877 44.8218 146.02 44.2189Z" fill="#FEFEFE"></path>
  <path d="M146.32 46.8711C148.991 46.4268 151.516 48.2348 151.957 50.9074C152.397 53.5801 150.586 56.1032 147.914 56.5401C145.247 56.9761 142.731 55.1688 142.291 52.5015C141.851 49.8342 143.654 47.3146 146.32 46.8711Z" fill="#2872A3"></path>
  <path d="M183.724 44.2268C187.885 43.6042 191.755 46.4912 192.346 50.6573C192.937 54.8235 190.022 58.6735 185.852 59.2331C181.728 59.7867 177.929 56.9084 177.344 52.7865C176.759 48.6647 179.608 44.8428 183.724 44.2268Z" fill="#FEFEFE"></path>
  <path d="M184.04 46.8688C186.705 46.4285 189.223 48.2285 189.67 50.8928C190.116 53.5571 188.324 56.0808 185.661 56.5347C182.99 56.9903 180.455 55.189 180.007 52.5149C179.558 49.8408 181.366 47.3106 184.04 46.8688Z" fill="#2872A3"></path>
  <path d="M164.75 44.2397C168.88 43.5842 172.76 46.402 173.416 50.5333C174.071 54.6647 171.254 58.5454 167.124 59.2013C162.993 59.8573 159.113 57.0395 158.458 52.9078C157.803 48.7762 160.619 44.8952 164.75 44.2397Z" fill="#FEFEFE"></path>
  <path d="M165.159 46.8669C167.825 46.4378 170.336 48.2482 170.772 50.9142C171.207 53.5802 169.404 56.096 166.739 56.5384C164.066 56.9824 161.54 55.1705 161.103 52.4951C160.666 49.8197 162.483 47.2976 165.159 46.8669Z" fill="#2872A3"></path>
  <path d="M98.4901 18.6672C104.159 18.7935 105.529 23.482 104.902 28.2942C104.425 31.9527 101.596 34.605 97.821 33.9922C96.4067 33.7487 95.1459 32.9555 94.3137 31.7858L94.3113 36.1708L94.3363 39.8768C93.3099 39.7616 92.3154 39.8175 91.2844 39.8443C91.2002 37.5695 91.2672 34.8945 91.2677 32.5842L91.2811 19.0251C92.0945 18.9806 93.2418 19.0154 94.0804 19.015C94.1169 19.6815 94.0839 20.6027 94.0774 21.2907C95.8025 19.343 95.9793 19.2747 98.4901 18.6672ZM98.4842 31.5427C103.219 30.7328 103.063 20.9349 97.7956 21.2843C97.3682 21.4078 96.894 21.5418 96.5173 21.7807C93.1276 23.9304 93.6283 31.8344 98.4842 31.5427Z" fill="#2872A3"></path>
  <path d="M131.471 12.3236C132.305 12.2833 133.595 12.2711 134.404 12.3532C134.555 14.2717 134.429 17.4799 134.429 19.5161L134.464 33.8654C133.558 33.8599 132.654 33.8595 131.75 33.8641C131.732 33.0914 131.771 32.1606 131.784 31.3759C129.688 33.5135 127.948 34.8111 124.827 33.5694C124.054 33.214 123.262 32.6919 122.735 32.0425C119.305 27.813 120.593 18.3488 127.484 18.9408C129.242 19.0919 130.408 19.8855 131.513 21.1709C131.354 19.3082 131.405 14.2497 131.471 12.3236ZM128.562 31.3891C129.025 31.349 129.398 31.0654 129.732 30.7662C130.987 29.647 131.447 28.1314 131.419 26.4852C131.367 23.4228 130.245 21.074 126.892 21.2824C122.397 23.2812 123.16 32.4251 128.562 31.3891Z" fill="#2872A3"></path>
  <path d="M176.779 18.9638C176.808 18.9602 176.838 18.9568 176.867 18.9538C186.439 17.9915 187.319 33.247 178.317 34.0315C176.176 34.1209 174.453 33.9804 172.633 32.5908C169.523 30.2173 169.499 24.1397 171.772 21.2226C173.048 19.5857 174.789 19.1537 176.779 18.9638ZM178.119 31.6039C181.26 30.7445 181.851 27.1209 181.118 24.3857C180.514 22.134 178.979 21.1627 176.744 21.2926C171.986 22.0606 171.826 32.2483 178.119 31.6039Z" fill="#2872A3"></path>
  <path d="M65.1039 45.9101C65.8601 48.2399 66.4539 50.6767 67.0846 53.0459C67.2144 53.5335 67.3058 54.4171 67.5578 54.7964L67.6829 54.777C67.9352 53.4567 69.3852 46.9782 69.8467 46.1597C69.984 45.9163 70.206 45.7926 70.471 45.727C71.0306 45.5885 72.1503 45.6192 72.6457 45.9218C73.2025 46.262 75.0546 53.9447 75.3253 55.0822C75.8173 53.3327 76.9293 47.7145 77.8821 45.8723C78.0921 45.4663 80.0938 45.7398 80.758 45.9041C80.6972 46.8344 80.5825 47.3838 80.3018 48.268C79.2651 51.4822 78.4935 54.8298 77.349 57.9948C77.1929 58.7001 73.7196 58.4949 73.5576 58.2343C72.6771 56.8181 71.6504 51.8783 71.2671 50.4326C70.6078 52.9174 70.189 55.6678 69.2401 58.0263C68.9926 58.6416 65.9192 58.5871 65.3909 58.1418C64.8752 57.0191 61.8071 46.6265 61.9994 46.0311C62.2197 45.7959 62.3319 45.7846 62.6493 45.6996C63.6899 45.6423 64.1184 45.6037 65.1039 45.9101Z" fill="#2872A3"></path>
  <path d="M112.614 18.9601C116.816 18.505 118.988 20.7656 118.937 24.8274C118.927 25.6464 118.977 26.5533 118.982 27.3862L119.006 33.8988C118.241 33.8287 117.151 33.853 116.358 33.8515C116.283 33.234 116.315 32.3816 116.321 31.7422C113.924 34.1674 111.051 34.9278 108.198 32.6993C107.479 31.8805 106.937 31.1056 106.901 29.9813C106.735 24.6768 112.555 24.7366 116.237 24.5447C115.921 23.0962 115.466 21.7547 113.849 21.3348C112.237 20.9163 110.107 21.65 108.697 22.4535C108.669 21.6476 108.616 20.8427 108.538 20.0402C109.967 19.2574 111.042 19.1579 112.614 18.9601ZM111.415 31.6026C114.868 32.3327 116.048 29.6594 116.196 26.7184L114.788 26.7869C113.079 26.8473 112.45 26.877 110.852 27.5953C109.753 29.0377 109.324 30.8284 111.415 31.6026Z" fill="#2872A3"></path>
  <path d="M53.9095 45.5965C55.5053 45.5171 57.0528 45.8085 58.267 46.9189C59.4113 47.9655 59.8434 49.5749 59.9075 51.0806C59.928 51.5629 59.8979 52.1844 59.5423 52.55C58.9876 53.1202 52.9862 52.8899 51.7586 52.9067C51.8638 53.3045 51.9016 53.7353 52.0278 54.1325C52.9727 57.1063 56.8811 55.8129 58.9823 55.1573C59.1448 55.2226 59.1646 55.2909 59.2558 55.4417C59.3466 56.3856 59.4628 57.423 58.3735 57.8536C54.343 59.4329 49.0159 58.6419 48.6088 53.4376C48.2957 49.4358 49.4423 46.0351 53.9095 45.5965ZM51.8023 50.8723C52.9114 50.8336 54.0214 50.8201 55.1311 50.8321C55.5941 50.8444 56.183 50.9097 56.5787 50.7018C56.7043 50.5492 56.8493 50.4324 56.7949 50.2189C56.675 49.7493 56.2633 48.8871 56.0344 48.4645C55.2189 47.957 54.8077 47.8317 53.8141 47.9098C52.223 48.4339 52.0401 49.3404 51.8023 50.8723Z" fill="#2872A3"></path>
  <path d="M19.8535 45.5975C21.3072 45.4793 22.7911 45.8093 23.9291 46.753C25.1284 47.7474 25.5826 49.2371 25.7212 50.7421C25.772 51.2941 25.8189 52.114 25.4187 52.5579C24.8679 53.1689 18.8341 52.8551 17.6196 52.9202C17.6771 53.3076 17.7323 53.7283 17.8483 54.101C18.8135 57.2017 22.8216 55.7864 24.9077 55.1403C25.1199 55.4191 25.1169 55.7059 25.173 56.0237C25.4339 57.4608 24.2683 57.9032 23.1327 58.2143C19.1861 59.296 14.8027 58.082 14.4368 53.4312C14.1207 49.4162 15.3749 45.9453 19.8535 45.5975ZM17.6748 50.8673C18.6022 50.8371 19.5301 50.8288 20.4578 50.8425L22.5742 50.8252C22.3055 48.6938 22.0743 47.9225 19.7101 47.9299C18.1005 48.2889 17.9311 49.4643 17.6748 50.8673Z" fill="#2872A3"></path>
  <path d="M28.2065 45.6971C28.8301 45.6704 29.9965 45.5334 30.5354 45.8442C31.2989 46.2845 33.2893 53.9187 33.7256 55.3369C34.0355 53.9475 35.9449 46.4758 36.7085 45.8934C37.1761 45.5368 38.3854 45.6478 38.9252 45.7501C39.2112 45.8044 39.2619 45.8579 39.4206 46.0899C39.5816 46.9466 39.0649 48.0547 38.8561 48.9701C38.418 50.2373 36.1033 57.8607 35.4864 58.2248C34.6028 58.7462 32.4998 58.4904 31.5263 58.2504C30.985 57.0151 27.5271 46.9187 27.6422 46.1708C27.7922 45.87 27.894 45.8428 28.2065 45.6971Z" fill="#2872A3"></path>
  <path d="M68.3623 14.6179L68.4654 14.6702C68.7556 15.1427 68.666 18.401 68.5923 19.0763C69.4911 18.9907 71.1153 19.037 72.0675 19.0364C72.1082 19.817 72.2709 20.649 71.8374 21.2716C71.3087 21.6799 69.4742 21.4596 68.6587 21.4443C68.6414 23.1267 68.6382 24.8092 68.6491 26.4918C68.6505 27.6301 68.5987 28.7692 68.7581 29.8978C69.0676 32.089 70.5569 31.6622 72.1374 31.3075C72.1736 32.0949 72.2787 33.0086 72.3537 33.8043C71.7919 33.9499 70.9349 33.9839 70.3352 34.0274C70.2467 34.0299 70.1583 34.0315 70.0699 34.0322C65.4366 34.0693 65.6926 31.1352 65.6455 27.5235C65.6099 25.5006 65.5992 23.4773 65.6134 21.4541C64.5917 21.4739 63.7016 21.4862 62.6826 21.435C62.7138 20.6356 62.7528 19.8366 62.7999 19.0379C63.7668 19.037 64.7337 19.056 65.6999 19.0947C65.6401 18.4895 65.7509 17.7533 65.6689 17.151C65.391 15.1072 66.7496 15.3005 68.3623 14.6179Z" fill="#2872A3"></path>
  <path d="M162.568 19.1491C164.609 19.0609 165.492 19.1102 167.473 19.5596C167.522 20.3347 167.468 21.2819 167.445 22.0697C165.159 21.3924 165.144 21.2004 162.642 21.3335C160.253 22.8057 162.321 24.1984 164.009 24.9474C167.044 26.2937 169.534 28.5612 167.336 31.98C166.525 33.2424 164.893 33.6229 163.428 33.8204C161.615 34.0686 160.086 33.6267 158.385 33.3332C158.362 32.4411 158.398 31.5794 158.43 30.6882C159.809 31.217 163.434 32.4996 164.705 30.6837C165.077 30.1516 164.95 29.5777 164.774 28.985C163.089 27.1539 158.949 26.376 158.56 23.5457C158.205 20.966 160.212 19.5285 162.568 19.1491Z" fill="#2872A3"></path>
  <path d="M147.627 19.1978L150.56 19.1897C150.287 20.0358 149 22.5269 148.564 23.4038C148.252 23.8799 147.789 24.9295 147.547 25.4932C146.38 28.2174 144.459 31.0634 143.384 33.762L138.525 24.0402C137.868 22.693 136.709 20.6093 136.379 19.2243C137.289 19.1671 138.496 19.1998 139.427 19.2001C139.888 19.8978 140.523 21.3736 140.913 22.2001L143.442 27.5418C144.266 25.6449 146.562 20.9617 147.627 19.1978Z" fill="#2872A3"></path>
  <path d="M86.7614 45.5889C87.8317 45.5262 89.5291 45.7296 90.4183 46.4044C90.7393 46.648 90.803 48.479 90.4731 48.5691C90.1085 48.6685 88.6569 48.0152 88.1615 47.94C87.5013 47.6686 85.4799 47.9847 85.6458 49.0799C85.8694 50.5553 89.3692 50.9564 90.2641 52.0945C91.0076 53.0401 91.3641 53.4188 91.3581 54.4977C91.3424 57.3024 88.9366 58.5252 86.43 58.5646C84.4521 58.6153 81.7564 57.868 82.6662 55.2973C82.7762 55.1941 82.8401 55.088 83.017 55.1449C84.3776 55.582 86.6675 56.9788 87.883 55.5839C88.9941 54.3087 86.9236 53.4677 85.9961 53.1049C84.6232 52.5607 82.7542 51.6406 82.606 49.9423C82.3511 47.0252 84.263 45.9293 86.7614 45.5889Z" fill="#2872A3"></path>
  <path d="M81.1857 18.863C81.4054 18.842 81.6257 18.8297 81.8463 18.8262C83.5315 18.7997 83.1889 20.5371 82.8517 21.6266C82.7831 21.7027 82.6133 21.7263 82.538 21.7216C78.2783 21.4589 77.9673 24.6911 78.029 28.1153C78.0598 29.8251 78.0676 31.9953 78.0326 33.8272L75.158 33.8051C75.1205 33.7787 75.0936 33.7588 75.0665 33.7214C74.9514 33.5616 74.9344 20.0567 75.061 19.0293C75.8234 18.9792 76.9845 19.0229 77.7776 19.0313C77.8356 19.6227 77.8276 20.4692 77.8399 21.0804C77.8825 21.0188 77.9272 20.9589 77.9741 20.9007C78.9929 19.6334 79.5386 19.0458 81.1857 18.863Z" fill="#2872A3"></path>
  <path d="M193.776 19.0636C194.199 19.0226 194.643 18.9255 194.971 19.1745C195.352 19.6985 195.099 21.0589 195.071 21.8769C190.431 21.4071 190.197 24.2665 190.178 28.075C190.168 29.286 190.177 30.4971 190.204 31.708C190.215 32.1815 190.31 33.3706 190.022 33.668C189.746 33.9542 187.637 33.9429 187.257 33.6475C187.344 28.8805 187.176 24.009 187.284 19.249L189.96 19.1749C189.985 20.0694 189.974 20.6774 189.912 21.57C191.08 19.7675 191.548 19.2618 193.776 19.0636Z" fill="#2872A3"></path>
  <path d="M10.8204 45.5776C11.8098 45.5401 12.4965 45.6368 12.7007 46.8154C12.7989 47.3819 12.6899 48.3323 12.3466 48.8024C12.0151 48.863 11.2321 48.6315 10.8641 48.5419C10.4659 48.6656 10.0858 48.8357 9.70182 48.9982C9.52403 49.2574 8.69431 50.2338 8.64929 50.4713C8.28019 52.4198 8.57488 54.8667 8.5213 56.878C8.51266 57.2027 8.5314 57.9898 8.29873 58.1645C7.66106 58.6432 6.14392 58.4246 5.43703 58.3092C5.26221 57.929 5.24244 57.5344 5.22197 57.1225C5.15489 55.7735 5.01526 46.3772 5.4056 45.9672C5.65182 45.7087 6.20191 45.6834 6.5426 45.679C6.85348 45.675 7.48601 45.6539 7.71612 45.8858C8.12069 46.2934 7.95865 47.352 7.9623 47.8982C8.82906 46.5963 9.27158 45.9365 10.8204 45.5776Z" fill="#2872A3"></path>
  <path d="M85.3418 19.0278C86.3037 18.9905 87.3812 19.0108 88.3522 19.0091C88.449 20.4554 88.4398 33.401 88.2977 33.8225C87.4533 33.7328 86.2374 33.8122 85.3613 33.8505C85.2972 32.268 85.3415 30.3802 85.3396 28.7801L85.3418 19.0278Z" fill="#2872A3"></path>
  <path d="M152.158 19.2043C152.709 19.1397 154.503 19.1806 155.146 19.1793C155.153 19.4602 155.146 19.7364 155.141 20.0171C155.061 24.6346 155.111 29.2722 155.047 33.887C154.096 33.7799 153.071 33.8324 152.117 33.8724C151.989 31.1543 152.138 27.7836 152.118 25.024C152.106 23.3405 151.987 20.7943 152.158 19.2043Z" fill="#2872A3"></path>
  <path d="M42.9838 45.7007C43.6842 45.6822 44.6624 45.5747 45.1827 46.1202C45.3617 46.9487 45.3491 57.6294 45.2192 58.0554C45.0382 58.3002 44.7534 58.3466 44.4592 58.4333C43.5813 58.472 43.0459 58.4418 42.1851 58.3026C42.1556 58.1224 42.0732 57.5044 42.0833 57.3744C42.2003 55.8519 41.7563 46.8384 42.2146 46.0375C42.4534 45.7804 42.6456 45.7694 42.9838 45.7007Z" fill="#2872A3"></path>
  <path d="M42.78 40.6995C43.7603 40.6146 44.8649 40.5022 45.4368 41.5132C45.6473 41.8885 45.6953 42.3337 45.5697 42.7454C45.3636 43.4336 45.1056 43.6531 44.5178 43.9794C43.1324 44.0426 42.4376 44.3253 41.7769 42.9133C41.7884 41.9499 41.7529 41.1236 42.78 40.6995Z" fill="#2872A3"></path>
  <path d="M86.5805 12.8916C87.4274 12.8439 88.2523 13.2982 88.577 14.1019C88.7615 14.5631 88.7571 15.0783 88.5646 15.5362C88.3212 16.1033 87.8611 16.3832 87.3171 16.6039C85.3467 16.6748 84.7642 15.3428 85.4888 13.6207C85.9214 13.2361 86.0635 13.1585 86.5805 12.8916Z" fill="#2872A3"></path>
  <path d="M153.144 13.322C154.049 13.0645 154.996 13.5783 155.273 14.4787C155.55 15.379 155.057 16.3359 154.163 16.6326C153.567 16.8303 152.911 16.6901 152.448 16.2661C151.985 15.8421 151.788 15.2008 151.932 14.5897C152.076 13.9787 152.54 13.4936 153.144 13.322Z" fill="#2872A3"></path>
</svg>
