<?xml version="1.0" encoding="UTF-8"?>
<svg xmlns="http://www.w3.org/2000/svg" width="123" height="115" viewBox="0 0 123 115" fill="none">
  <g clip-path="url(#clip0_7_3)">
    <path d="M62.1752 87.5395C85.8594 87.5395 105.059 68.3716 105.059 44.7268C105.059 21.082 85.8594 1.91406 62.1752 1.91406C38.4909 1.91406 19.291 21.082 19.291 44.7268C19.291 68.3716 38.4909 87.5395 62.1752 87.5395Z" fill="white" stroke="#46801D" stroke-width="0.675785" stroke-miterlimit="10"></path>
    <path d="M62.122 72.1487C77.2704 72.1487 89.5506 59.8889 89.5506 44.7658C89.5506 29.6426 77.2704 17.3828 62.122 17.3828C46.9736 17.3828 34.6934 29.6426 34.6934 44.7658C34.6934 59.8889 46.9736 72.1487 62.122 72.1487Z" stroke="#46801D" stroke-width="0.675785" stroke-miterlimit="10"></path>
    <path d="M32.8016 44.7658C32.8016 28.5939 45.9355 15.4818 62.1344 15.4818C78.3334 15.4818 91.4673 28.5939 91.4673 44.7658C91.4673 60.9378 78.3203 74.0498 62.1214 74.0498C45.9224 74.0498 32.8016 60.9378 32.8016 44.7658ZM62.1736 85.7946C84.8938 85.7946 103.31 67.4091 103.31 44.7268C103.31 22.0444 84.8938 3.67188 62.1736 3.67188C39.4533 3.67188 21.0371 22.0574 21.0371 44.7398C21.0371 67.4222 39.4533 85.7946 62.1736 85.7946Z" fill="#46801D"></path>
    <path d="M62.5385 93.5421L59.7083 89.3103C57.1911 91.5109 53.9695 92.7479 50.5654 92.7479C42.8963 92.7479 36.6489 86.5239 36.6489 78.8676C36.6489 76.2113 37.4054 73.6592 38.827 71.4327C38.3053 69.9873 37.3793 68.5681 37.0011 68.0733L34.7969 65.1436L45.4788 65.1306C50.2263 62.1748 56.0955 60.6123 62.5125 60.6123C68.6686 60.6123 74.3943 62.1488 79.1288 65.0655H90.3324L88.1282 68.0082C88.1151 68.0212 86.9022 69.6488 86.2892 71.3936C86.837 72.24 87.2934 73.1514 87.6326 74.0889C90.2932 81.2634 86.6022 89.2713 79.4027 91.9276C75.9203 93.2166 72.1379 93.0604 68.7599 91.5109C67.5208 90.938 66.3731 90.1828 65.3557 89.2843L62.5385 93.5421Z" fill="white"></path>
    <path d="M70.4306 67.6048C71.6827 67.1491 72.9608 66.9147 74.226 66.8757C70.7697 65.3262 66.8699 64.5449 62.5398 64.5449C58.2357 64.5449 54.2707 65.3522 50.8145 66.8236C57.0619 66.9408 62.1485 71.8236 62.5919 77.9825C62.6963 76.5762 63.0484 75.183 63.6614 73.8679C65.0048 70.9512 67.4177 68.7246 70.4306 67.6048Z" fill="#FEE376"></path>
    <path d="M74.5904 84.701C71.3037 84.701 68.63 82.0318 68.63 78.7505C68.63 75.4692 71.3037 72.7999 74.5904 72.7999C77.8772 72.7999 80.5379 75.4692 80.5379 78.7505C80.5379 82.0318 77.8772 84.701 74.5904 84.701ZM71.2776 69.8833C68.8647 70.7817 66.9475 72.5525 65.8649 74.8833C64.7954 77.214 64.6911 79.8312 65.578 82.2401C66.4649 84.649 68.2387 86.563 70.5733 87.6438C72.9079 88.7245 75.5295 88.8287 77.9424 87.9302C82.9247 86.0943 85.481 80.5474 83.642 75.5734C81.816 70.5994 76.2599 68.0603 71.2776 69.8833Z" fill="white"></path>
    <path d="M74.5905 80.7559C73.4819 80.7559 72.595 79.8574 72.595 78.7507C72.595 77.6439 73.4819 76.7454 74.5905 76.7454C75.6991 76.7454 76.586 77.6439 76.586 78.7507C76.5991 79.8574 75.6991 80.7559 74.5905 80.7559ZM74.5905 74.8574C72.4385 74.8574 70.6777 76.6022 70.6777 78.7507C70.6777 80.8991 72.4254 82.6569 74.5905 82.6569C76.7426 82.6569 78.4903 80.8991 78.4903 78.7507C78.4903 76.6022 76.7426 74.8574 74.5905 74.8574Z" fill="white"></path>
    <path d="M50.4221 84.7009C47.1353 84.7009 44.4616 82.0316 44.4616 78.7504C44.4616 75.4691 47.1353 72.7998 50.4221 72.7998C53.7088 72.7998 56.3695 75.4691 56.3695 78.7504C56.3695 82.0316 53.7088 84.7009 50.4221 84.7009ZM50.5786 69.2451C45.2702 69.2451 40.9531 73.555 40.9531 78.8545C40.9531 84.154 45.2702 88.464 50.5786 88.464C55.8869 88.464 60.204 84.154 60.204 78.8545C60.204 73.5681 55.8869 69.2451 50.5786 69.2451Z" fill="white"></path>
    <path d="M50.4226 80.7559C49.3139 80.7559 48.414 79.8574 48.414 78.7507C48.414 77.6439 49.3139 76.7454 50.4226 76.7454C51.5312 76.7454 52.4311 77.6439 52.4311 78.7507C52.4181 79.8574 51.5181 80.7559 50.4226 80.7559ZM50.4226 74.8574C48.2705 74.8574 46.5098 76.6022 46.5098 78.7507C46.5098 80.8991 48.2575 82.6569 50.4226 82.6569C52.5746 82.6569 54.3223 80.8991 54.3223 78.7507C54.3223 76.6022 52.5746 74.8574 50.4226 74.8574Z" fill="white"></path>
    <path d="M50.4226 76.7578C49.314 76.7578 48.4141 77.6563 48.4141 78.763C48.4141 79.8698 49.314 80.7682 50.4226 80.7682C51.5313 80.7682 52.4312 79.8698 52.4312 78.763C52.4182 77.6432 51.5182 76.7578 50.4226 76.7578Z" fill="#BD0C19"></path>
    <path d="M74.5912 76.7578C73.4826 76.7578 72.5957 77.6563 72.5957 78.763C72.5957 79.8698 73.4826 80.7682 74.5912 80.7682C75.6998 80.7682 76.5867 79.8698 76.5867 78.763C76.5998 77.6432 75.6998 76.7578 74.5912 76.7578Z" fill="#46801D"></path>
    <path d="M77.9565 87.9298C75.5436 88.8152 72.9351 88.7111 70.5874 87.6433C68.2528 86.5626 66.479 84.6485 65.5921 82.2397C64.7052 79.8308 64.7965 77.2136 65.879 74.8829C66.9616 72.5521 68.8789 70.7813 71.2917 69.8828C76.274 68.0469 81.8302 70.599 83.6692 75.573C85.4952 80.547 82.9388 86.0939 77.9565 87.9298ZM62.5923 77.9818C62.1489 71.823 57.0622 66.9531 50.8148 66.8229C54.2711 65.3516 58.2361 64.5443 62.5401 64.5443C66.8703 64.5443 70.7831 65.3255 74.2263 66.875C72.9612 66.9141 71.683 67.1354 70.4309 67.6042C67.405 68.724 64.9922 70.9506 63.6488 73.8672C63.0488 75.1823 62.6967 76.5886 62.5923 77.9818ZM50.5801 88.4767C45.2717 88.4767 40.9416 84.1668 40.9416 78.8673C40.9416 73.5678 45.2587 69.2448 50.5801 69.2448C55.8884 69.2448 60.2055 73.5547 60.2055 78.8673C60.2055 84.1668 55.8884 88.4767 50.5801 88.4767ZM84.3083 71.7318C84.8691 69.3229 86.682 66.9141 86.682 66.9141H78.6347C74.122 63.9974 68.631 62.4609 62.5532 62.4609C56.2536 62.4609 50.554 64.0365 46.0673 66.9792H38.5156C38.5156 66.9792 40.3025 69.362 40.8763 71.7579C39.4025 73.7501 38.5156 76.211 38.5156 78.8803C38.5156 85.5209 43.9283 90.9246 50.5801 90.9246C54.3755 90.9246 57.7665 89.1538 59.9838 86.4064L62.5532 90.2475L65.1487 86.3803C66.3095 87.8647 67.8094 89.0626 69.5701 89.8699C72.5047 91.2241 75.7784 91.3543 78.8043 90.2345C85.0517 87.9298 88.2472 80.9897 85.9386 74.7527C85.5343 73.6329 84.9735 72.6303 84.3083 71.7318Z" fill="#070606"></path>
    <path d="M50.4234 82.6563C48.2713 82.6563 46.5106 80.8985 46.5106 78.75C46.5106 76.6016 48.2583 74.8568 50.4234 74.8568C52.5754 74.8568 54.3231 76.6016 54.3231 78.75C54.3231 80.9115 52.5754 82.6563 50.4234 82.6563ZM50.4234 72.8125C47.1366 72.8125 44.4629 75.4818 44.4629 78.7631C44.4629 82.0443 47.1366 84.7136 50.4234 84.7136C53.7101 84.7136 56.3708 82.0443 56.3708 78.7631C56.3708 75.4818 53.7101 72.8125 50.4234 72.8125Z" fill="#070606"></path>
    <path d="M74.5913 82.6563C72.4393 82.6563 70.6786 80.8985 70.6786 78.75C70.6786 76.6016 72.4263 74.8568 74.5913 74.8568C76.7434 74.8568 78.4911 76.6016 78.4911 78.75C78.4911 80.9115 76.7434 82.6563 74.5913 82.6563ZM74.5913 72.8125C71.3046 72.8125 68.6309 75.4818 68.6309 78.7631C68.6309 82.0443 71.3046 84.7136 74.5913 84.7136C77.8781 84.7136 80.5388 82.0443 80.5388 78.7631C80.5518 75.4818 77.8781 72.8125 74.5913 72.8125Z" fill="#070606"></path>
    <path d="M47.383 26.5361V30.7028H52.1566V26.5361H54.2173V36.9268H52.1566V32.3435H47.383V36.9268H45.3223V26.5361H47.383Z" fill="black"></path>
    <path d="M58.1823 33.9841L57.2041 36.9268H55.0781L58.704 26.5361H61.3386L65.0036 36.9268H62.7863L61.769 33.9841H58.1823ZM61.4168 32.5518L60.5299 29.9867C60.3082 29.3486 60.1256 28.6455 59.9561 28.0466H59.9169C59.7474 28.6455 59.5778 29.3747 59.3822 29.9867L58.5214 32.5518H61.4168Z" fill="black"></path>
    <path d="M65.918 26.5361H67.9787V35.3383H72.6219V36.9268H65.918V26.5361Z" fill="black"></path>
    <path d="M73.5078 26.5361H75.5685V35.3383H80.2117V36.9268H73.5078V26.5361Z" fill="black"></path>
    <path d="M58.1953 43.3721C58.1953 43.0335 58.2605 42.695 58.3779 42.3304C58.4953 41.9658 58.6257 41.7054 58.7692 41.5492C58.8605 41.445 59.017 41.3148 59.2387 41.1585C59.4604 41.0023 59.7083 40.859 59.9822 40.7549C60.2561 40.6507 60.5299 40.5986 60.843 40.5986C61.0908 40.5986 61.3255 40.6377 61.5342 40.7028C61.7429 40.7679 61.8994 40.859 62.0038 40.9762C62.1081 41.0934 62.1864 41.2236 62.2385 41.3799C62.2907 41.5361 62.3168 41.7054 62.3168 41.8877C62.3168 42.2393 62.2516 42.5908 62.1211 42.9424C61.9907 43.294 61.8472 43.5674 61.6777 43.7497C61.5603 43.8799 61.3647 44.0231 61.1169 44.1794C60.856 44.3356 60.6212 44.4528 60.3734 44.544C60.1387 44.6221 59.8778 44.6612 59.5778 44.6612C59.2257 44.6612 58.9518 44.6091 58.7561 44.4919C58.5475 44.3747 58.417 44.2184 58.3257 44.0231C58.2344 43.8278 58.1953 43.6065 58.1953 43.3721ZM59.2257 43.333C59.2257 43.6585 59.2909 43.9059 59.4344 44.0492C59.5648 44.1924 59.7604 44.2575 60.0082 44.2575C60.1778 44.2575 60.3213 44.2184 60.4386 44.1403C60.556 44.0622 60.6734 43.945 60.7778 43.7757C60.8821 43.6065 60.9734 43.3851 61.0517 43.0856C61.169 42.6559 61.2342 42.2523 61.2342 41.8617C61.2342 41.5361 61.169 41.3018 61.0256 41.1455C60.8821 41.0023 60.6995 40.9242 60.4647 40.9242C60.23 40.9242 60.0343 41.0023 59.8648 41.1585C59.6952 41.3148 59.5517 41.6273 59.4213 42.07C59.2909 42.5127 59.2257 42.9684 59.2257 43.333Z" fill="black"></path>
    <path d="M63.1913 41.1589L63.2304 40.9505C63.3217 40.9245 63.4652 40.8724 63.6608 40.8333C63.8565 40.7813 64.013 40.7292 64.1304 40.6771C64.1434 40.638 64.1695 40.5599 64.1825 40.4688C64.2347 40.2344 64.2869 40.0781 64.3391 39.987C64.4173 39.8568 64.5347 39.7135 64.7043 39.5703C64.9651 39.349 65.239 39.1406 65.552 38.9323C65.865 38.724 66.0737 38.6068 66.165 38.5677C66.2563 38.5286 66.3998 38.5156 66.5824 38.5156C66.6998 38.5156 66.8172 38.5417 66.9476 38.5807C66.8302 38.9453 66.7519 39.2839 66.6998 39.6094L66.5694 39.6354C66.452 39.4662 66.3215 39.349 66.2042 39.2708C66.0868 39.1927 65.9824 39.1667 65.8911 39.1667C65.8129 39.1667 65.7477 39.1797 65.6825 39.2188C65.6172 39.2578 65.5651 39.3099 65.5259 39.375C65.4868 39.4401 65.4477 39.5443 65.4086 39.6745C65.3042 40.026 65.2129 40.3906 65.1477 40.7422H65.252C65.3303 40.7422 65.5259 40.7422 65.839 40.7162C66.0346 40.7031 66.165 40.6901 66.2694 40.6771L66.3085 40.7422C66.2433 40.8854 66.2042 41.0287 66.1781 41.1589C66.0346 41.1589 65.8129 41.1589 65.4999 41.1589C65.3042 41.1589 65.1607 41.1589 65.0564 41.1589L64.5738 43.099C64.3391 43.9714 64.1434 44.5964 63.9739 44.987C63.8043 45.3776 63.5826 45.7162 63.3087 46.0026C63.0348 46.3021 62.7479 46.5105 62.4609 46.6537C62.3175 46.7318 62.174 46.7579 62.0305 46.7579C61.9262 46.7579 61.8218 46.7318 61.6914 46.6927C61.7697 46.4974 61.8349 46.3282 61.874 46.211C61.9131 46.0938 61.9523 45.9506 61.9783 45.8073L62.1218 45.7813C62.187 45.9115 62.2522 46.0026 62.3175 46.0547C62.3957 46.1068 62.474 46.1459 62.5522 46.1459C62.6435 46.1459 62.7087 46.1198 62.787 46.0677C62.8522 46.0157 62.9174 45.9245 62.9696 45.7943C63.0739 45.5339 63.2044 44.987 63.3739 44.1667L64.013 41.1458C63.8434 41.1458 63.6478 41.1458 63.4391 41.1458C63.3478 41.1589 63.2565 41.1589 63.1913 41.1589Z" fill="black"></path>
    <path d="M44.4629 47.9814H50.9842V49.544H46.5236V52.4086H50.6842V53.9711H46.5236V58.3851H44.4629V47.9814Z" fill="black"></path>
    <path d="M53.3834 55.4294L52.4052 58.3721H50.2793L53.9051 47.9814H56.5398L60.2047 58.3721H57.9875L56.9702 55.4294H53.3834ZM56.618 53.9971L55.7311 51.432C55.5094 50.794 55.3268 50.0908 55.1572 49.4919H55.1181C54.9486 50.0908 54.779 50.82 54.5834 51.432L53.7095 53.9971H56.618Z" fill="black"></path>
    <path d="M70.6004 54.128C70.5352 52.7868 70.4439 51.1722 70.47 49.7529H70.4178C70.0526 51.029 69.5831 52.4352 69.0744 53.7503L67.431 58.2556H65.8398L64.3269 53.8155C63.8965 52.4873 63.4922 51.068 63.1922 49.766H63.1531C63.1009 51.1332 63.0357 52.7868 62.9574 54.2061L62.7096 58.3858H60.7793L61.5358 47.9951H64.2486L65.7225 52.1748C66.1268 53.3988 66.4789 54.6228 66.7659 55.7816H66.818C67.118 54.6618 67.5093 53.3727 67.9397 52.1618L69.5048 47.9951H72.1916L72.8437 58.3858H70.8221L70.6004 54.128Z" fill="black"></path>
    <path d="M80.5783 53.7627H76.3264V56.8096H81.0869V58.3721H74.2656V47.9814H80.8391V49.544H76.3264V52.2263H80.5783V53.7627Z" fill="black"></path>
    <path d="M34.968 61.3539L34.3941 61.6664L33.4941 61.5231C32.2681 61.3408 31.0813 61.1585 30.2204 61.6273C29.7248 61.9007 29.5292 62.3174 29.79 62.7731C29.9857 63.1247 30.2987 63.294 30.4813 63.3981L29.9074 63.932C29.6335 63.8018 29.2292 63.4893 28.9683 63.0205C28.4075 61.9919 28.9162 61.2236 29.6857 60.807C30.6769 60.2731 31.8769 60.4294 33.0116 60.6377L33.6115 60.7419L33.6246 60.7288L32.7116 59.0622L33.4681 58.6455L34.968 61.3539Z" fill="white"></path>
    <path d="M29.3599 56.6148C31.3554 55.7814 32.4901 56.12 32.8423 56.9663C33.2727 58.008 32.2423 58.9716 30.6511 59.6356C28.9425 60.3518 27.5861 60.2867 27.1557 59.258C26.7122 58.1512 27.8469 57.2398 29.3599 56.6148ZM30.2729 58.7372C31.5902 58.2033 32.2553 57.7085 32.0597 57.2398C31.8901 56.8231 31.0554 56.9663 29.7642 57.5132C28.5252 58.021 27.7687 58.5288 27.9513 58.9585C28.1208 59.3882 28.9686 59.271 30.2729 58.7372Z" fill="white"></path>
    <path d="M26.907 55.5466V55.5596L27.7156 56.3669L27.0374 56.7575L25.9548 55.7028L25.707 54.8955L31.4458 53.1768L31.7197 54.1012L26.907 55.5466Z" fill="white"></path>
    <path d="M25.981 51.8617V51.8747L26.6984 52.7601L25.981 53.0726L25.0159 51.9137L24.8594 51.0934L30.7416 49.9736L30.9242 50.9242L25.981 51.8617Z" fill="white"></path>
    <path d="M28.9542 47.2522C28.9933 47.76 28.6411 48.2027 28.0803 48.2418C27.5064 48.2939 27.1021 47.9163 27.0499 47.3824C27.0108 46.8746 27.3499 46.4319 27.9368 46.3798C28.4977 46.3408 28.915 46.7053 28.9542 47.2522Z" fill="white"></path>
    <path d="M30.2985 44.1018L29.6464 44.0627L28.9551 43.4638C28.0291 42.6565 27.1161 41.8622 26.1509 41.7971C25.5901 41.758 25.1988 42.0054 25.1728 42.5263C25.1467 42.9299 25.3162 43.2294 25.4206 43.4247L24.651 43.5679C24.4945 43.3205 24.3119 42.8388 24.3511 42.2919C24.4293 41.133 25.264 40.7554 26.1509 40.8205C27.2726 40.8987 28.1986 41.6799 29.0464 42.4612L29.5029 42.8648H29.5159L29.6464 40.9638L30.5072 41.0289L30.2985 44.1018Z" fill="white"></path>
    <path d="M28.1194 37.1228C30.2454 37.4874 31.028 38.3858 30.8714 39.2843C30.6758 40.3911 29.2933 40.6645 27.5977 40.365C25.7718 40.0525 24.6631 39.2843 24.8457 38.1775C25.0544 37.0056 26.5022 36.8494 28.1194 37.1228ZM27.7412 39.4015C29.1368 39.6489 29.9715 39.5968 30.0498 39.102C30.128 38.6593 29.3455 38.3338 27.9629 38.0994C26.6456 37.878 25.7457 37.8911 25.6544 38.3468C25.5892 38.8025 26.3587 39.1541 27.7412 39.4015Z" fill="white"></path>
    <path d="M26.633 34.8958V34.9089L26.8808 36.0156L26.0852 35.9896L25.7461 34.5182L25.9809 33.7109L31.7327 35.3385L31.4718 36.263L26.633 34.8958Z" fill="white"></path>
    <path d="M31.9815 34.4924L31.3685 34.245L30.8989 33.4637C30.2598 32.409 29.6338 31.3804 28.7339 31.0158C28.2122 30.8075 27.7687 30.9247 27.5731 31.4195C27.4296 31.7971 27.4948 32.1356 27.5339 32.357L26.7644 32.2528C26.6862 31.9663 26.6731 31.4585 26.8688 30.9507C27.2992 29.87 28.2122 29.7658 29.0338 30.0913C30.0772 30.508 30.7163 31.5366 31.2902 32.5393L31.5902 33.0601L31.6032 33.0731L32.3075 31.3023L33.1162 31.6278L31.9815 34.4924Z" fill="white"></path>
    <path d="M32.829 28.9709C32.5812 29.4267 32.0465 29.5959 31.5639 29.3355C31.0552 29.0751 30.9118 28.5282 31.1596 28.0595C31.4074 27.6037 31.9291 27.4214 32.4377 27.6949C32.9334 27.9683 33.0899 28.5022 32.829 28.9709Z" fill="white"></path>
    <path d="M35.1109 27.8906L34.5762 27.513L34.2892 26.6406C33.911 25.4688 33.5328 24.3229 32.7372 23.776C32.2807 23.4505 31.8111 23.4766 31.5242 23.9063C31.2894 24.2318 31.2764 24.5833 31.2764 24.8047L30.546 24.5313C30.533 24.2318 30.6373 23.724 30.9503 23.2812C31.6155 22.3307 32.5285 22.4349 33.2589 22.9427C34.1849 23.5807 34.5631 24.7266 34.9022 25.8333L35.0848 26.4193L35.0979 26.4323L36.1935 24.8698L36.8978 25.3646L35.1109 27.8906Z" fill="white"></path>
    <path d="M36.8332 20.7944C38.4635 22.2007 38.6852 23.3726 38.0722 24.0627C37.3288 24.9221 36.0115 24.4273 34.7072 23.3075C33.3117 22.0965 32.7508 20.8726 33.4812 20.0132C34.2638 19.1147 35.5941 19.7267 36.8332 20.7944ZM35.3333 22.5523C36.4028 23.4898 37.1462 23.8543 37.4722 23.4767C37.7722 23.1382 37.2636 22.4611 36.2071 21.5496C35.2028 20.6772 34.4072 20.2345 34.0942 20.5861C33.7942 20.9377 34.2768 21.6408 35.3333 22.5523Z" fill="white"></path>
    <path d="M36.6892 18.1253L36.6762 18.1384L36.324 19.2191L35.6719 18.7894L36.1284 17.3571L36.7414 16.7842L40.8498 21.1201L40.1455 21.7842L36.6892 18.1253Z" fill="white"></path>
    <path d="M41.0191 19.6482C41.267 19.6222 41.593 19.505 41.8539 19.3097C42.3364 18.9451 42.3756 18.4112 41.9973 17.9164C41.5539 17.3435 40.9409 17.3695 40.4192 17.7732L40.2888 17.8774L39.8453 17.3044L39.9496 17.2263C40.2888 16.9529 40.6279 16.393 40.2235 15.8721C39.9105 15.4685 39.5062 15.4294 39.154 15.6899C38.9323 15.8591 38.7889 16.1195 38.7106 16.3539L38.1367 15.8721C38.215 15.5987 38.4758 15.1951 38.8541 14.9086C39.6105 14.3227 40.4061 14.531 40.8757 15.143C41.2409 15.6117 41.293 16.2107 41.0191 16.7576L41.0322 16.7706C41.58 16.5623 42.2712 16.6794 42.806 17.3565C43.3799 18.0987 43.3668 19.1795 42.4017 19.9086C42.0495 20.1821 41.6452 20.3383 41.3582 20.3774L41.0191 19.6482Z" fill="white"></path>
    <path d="M45.0108 16.2243C44.5673 16.4847 44.0196 16.3675 43.7326 15.8857C43.4326 15.404 43.5891 14.8571 44.0326 14.5837C44.476 14.3232 45.0238 14.4274 45.3238 14.9222C45.6238 15.404 45.4803 15.9378 45.0108 16.2243Z" fill="white"></path>
    <path d="M47.5544 16.4455L47.2805 15.8465L47.4892 14.9611C47.7631 13.7632 48.024 12.5913 47.6327 11.6929C47.3979 11.185 46.9936 10.9637 46.5241 11.172C46.1589 11.3413 45.9632 11.6408 45.8459 11.8231L45.3633 11.2111C45.5068 10.9507 45.8459 10.5731 46.3415 10.3387C47.411 9.85691 48.1414 10.4168 48.5066 11.2241C48.9761 12.2397 48.7152 13.4246 48.4413 14.5444L48.2979 15.1304L48.3109 15.1434L50.0456 14.3621L50.3977 15.1434L47.5544 16.4455Z" fill="white"></path>
    <path d="M52.6545 11.2105C53.3457 13.2547 52.9284 14.3615 52.0545 14.661C50.985 15.0256 50.0851 13.9188 49.5373 12.2912C48.9504 10.5464 49.0938 9.19222 50.1633 8.84065C51.3111 8.46305 52.1458 9.66097 52.6545 11.2105ZM50.4763 11.9657C50.9198 13.3068 51.3632 14.0099 51.8328 13.8537C52.2632 13.7105 52.1719 12.8641 51.7284 11.549C51.3111 10.286 50.8546 9.4917 50.4111 9.64795C49.9807 9.79118 50.0329 10.6375 50.4763 11.9657Z" fill="white"></path>
    <path d="M53.9454 8.84115H53.9323L53.0715 9.58334L52.7324 8.88021L53.8671 7.87761L54.6888 7.69531L55.9931 13.5287L55.054 13.737L53.9454 8.84115Z" fill="white"></path>
    <path d="M58.7186 13.125L58.536 11.6146L56.5275 11.849L56.4492 11.1849L57.9491 7.21354L58.8882 7.10938L59.3186 10.7422L59.9446 10.6641L60.0359 11.4453L59.4099 11.5235L59.5925 13.0339L58.7186 13.125ZM58.4447 10.8333L58.2752 9.41407C58.2361 9.06251 58.223 8.69792 58.21 8.34636H58.1839C58.0665 8.76303 57.9752 9.04949 57.8448 9.41407L57.297 10.9505V10.9636L58.4447 10.8333Z" fill="white"></path>
    <path d="M63.0741 11.4841C62.5524 11.471 62.1611 11.0804 62.1741 10.5205C62.1741 9.9476 62.6046 9.58302 63.1263 9.59604C63.6349 9.60906 64.0392 9.99969 64.0262 10.5726C64.0262 11.1325 63.6219 11.4971 63.0741 11.4841Z" fill="white"></path>
    <path d="M65.0957 13.0342L65.187 12.3831L65.8391 11.7451C66.713 10.8727 67.5738 10.0263 67.7042 9.06279C67.7825 8.50289 67.5608 8.09925 67.0391 8.03414C66.6347 7.98206 66.3217 8.12529 66.1261 8.21643L66.0348 7.4482C66.2956 7.30497 66.7912 7.16174 67.326 7.23987C68.4868 7.40914 68.7998 8.26852 68.6694 9.14092C68.5129 10.2477 67.6651 11.1201 66.8304 11.9013L66.3869 12.318V12.331L68.2781 12.5915L68.1607 13.4508L65.0957 13.0342Z" fill="white"></path>
    <path d="M72.2166 11.3668C71.6949 13.4632 70.7428 14.1793 69.8559 13.9449C68.7603 13.6715 68.5908 12.2652 69.0081 10.5986C69.4516 8.80168 70.3124 7.74698 71.3949 8.02042C72.5557 8.3199 72.6079 9.77824 72.2166 11.3668ZM69.9733 10.8329C69.6211 12.2001 69.6211 13.0335 70.1037 13.1637C70.5472 13.2678 70.9254 12.5126 71.2645 11.1585C71.5906 9.86939 71.6297 8.95793 71.1732 8.84074C70.7298 8.72355 70.3124 9.46574 69.9733 10.8329Z" fill="white"></path>
    <path d="M74.5654 10.0514H74.5523L73.4307 10.2207L73.522 9.43945L75.0219 9.20508L75.8044 9.49154L73.7567 15.1035L72.8438 14.778L74.5654 10.0514Z" fill="white"></path>
    <path d="M79.5218 12.1094L78.0871 11.4063L77.3437 12.513C77.4089 12.5391 77.461 12.5521 77.5263 12.5912C77.7871 12.7214 78.1784 13.0469 78.3349 13.4896C78.4914 13.9193 78.4653 14.4011 78.2045 14.9479C77.6958 16.0026 76.6133 16.4844 75.5307 15.9636C75.1786 15.7943 74.8264 15.5078 74.6699 15.2735L75.1655 14.6485C75.296 14.8307 75.5307 15.0651 75.8307 15.2214C76.3655 15.4818 76.9524 15.3125 77.2915 14.6224C77.6697 13.8412 77.2784 13.2813 76.6263 12.9688C76.4568 12.8906 76.3263 12.8386 76.209 12.7995L77.8002 10.3516L79.9 11.3672L79.5218 12.1094Z" fill="white"></path>
    <path d="M79.9914 16.627C79.561 16.3536 79.4175 15.8067 79.7175 15.338C80.0174 14.8562 80.5783 14.752 81.0087 15.0255C81.4391 15.2989 81.5956 15.8458 81.2826 16.3275C80.9956 16.8093 80.4479 16.9265 79.9914 16.627Z" fill="white"></path>
    <path d="M80.9434 19.0101L81.3607 18.5023L82.2476 18.2809C83.4475 17.9815 84.6083 17.695 85.2213 16.9398C85.5735 16.5101 85.5865 16.0413 85.1822 15.7158C84.8692 15.4554 84.517 15.4294 84.2953 15.4033L84.6214 14.7002C84.9214 14.7132 85.417 14.8434 85.8343 15.182C86.7473 15.9111 86.5647 16.8096 86.0169 17.4997C85.3126 18.3721 84.1388 18.6716 83.0171 18.932L82.4302 19.0622L82.4172 19.0752L83.891 20.2731L83.3432 20.9502L80.9434 19.0101Z" fill="white"></path>
    <path d="M87.9077 21.2237C86.3818 22.7601 85.2079 22.8773 84.5427 22.2393C83.7341 21.445 84.321 20.156 85.534 18.932C86.8382 17.6169 88.1164 17.1481 88.912 17.9424C89.7728 18.7757 89.0685 20.0648 87.9077 21.2237ZM86.2644 19.6091C85.2601 20.6117 84.8297 21.3278 85.1818 21.6794C85.5079 21.9919 86.2122 21.5362 87.2034 20.5466C88.1425 19.5961 88.6512 18.8409 88.3251 18.5153C87.986 18.1768 87.2556 18.6065 86.2644 19.6091Z" fill="white"></path>
    <path d="M90.6068 21.3018L90.5937 21.2887L89.5373 20.8591L90.0198 20.2471L91.4285 20.807L91.9632 21.458L87.32 25.2341L86.707 24.4919L90.6068 21.3018Z" fill="white"></path>
    <path d="M93.8157 25.391C93.7374 25.2738 93.6461 25.1696 93.5157 25.0264C92.8505 24.4014 91.9636 24.5316 91.1811 24.8571L91.2072 24.8832C91.5854 24.8962 91.9245 25.0394 92.1593 25.391C92.5897 26.042 92.3027 26.8884 91.3506 27.5134C90.4376 28.1124 89.316 28.2296 88.7291 27.3311C88.1291 26.4197 88.6377 25.3519 89.8377 24.5577C90.868 23.8806 91.8202 23.6983 92.6158 23.7894C93.2027 23.8545 93.7765 24.167 94.1417 24.5316C94.3113 24.7009 94.4156 24.8441 94.4939 24.9353L93.8157 25.391ZM89.3421 26.9275C89.5638 27.253 90.0855 27.1879 90.8028 26.7191C91.3767 26.3415 91.6376 25.8988 91.3897 25.5212C91.2593 25.3259 90.9985 25.2087 90.6333 25.2868C90.5681 25.2999 90.4246 25.365 90.229 25.4952C89.4073 26.042 89.1073 26.5759 89.3421 26.9275Z" fill="white"></path>
    <path d="M91.8997 29.7133C91.6649 29.2576 91.8214 28.7237 92.3301 28.4633C92.8388 28.2029 93.3605 28.3982 93.6083 28.8539C93.843 29.3097 93.6865 29.8566 93.1779 30.117C92.6692 30.3774 92.1475 30.1951 91.8997 29.7133Z" fill="white"></path>
    <path d="M91.4824 32.2005L92.0954 31.9792L92.9693 32.2396C94.1562 32.5912 95.3039 32.9427 96.2169 32.6172C96.7386 32.4219 96.9864 32.0313 96.8169 31.5495C96.6734 31.1719 96.3995 30.9635 96.2169 30.8333L96.856 30.3906C97.1038 30.5599 97.469 30.9245 97.6516 31.4323C98.0559 32.5261 97.4429 33.2162 96.6212 33.5156C95.5648 33.9063 94.404 33.5677 93.3084 33.2031L92.7345 33.0208H92.7215L93.3866 34.8047L92.578 35.1042L91.4824 32.2005Z" fill="white"></path>
    <path d="M96.3462 37.6825C94.2463 38.2163 93.1768 37.7215 92.9421 36.8361C92.6551 35.7424 93.8159 34.9351 95.4854 34.5054C97.2722 34.0496 98.6156 34.297 98.8895 35.3778C99.2025 36.5366 97.9374 37.2788 96.3462 37.6825ZM95.7593 35.4559C94.3898 35.7944 93.6464 36.1981 93.7768 36.6799C93.8942 37.1096 94.7419 37.0835 96.0853 36.745C97.3765 36.4194 98.1982 36.0288 98.0808 35.5731C97.9635 35.1174 97.1157 35.1043 95.7593 35.4559Z" fill="white"></path>
    <path d="M98.6151 39.1143V39.1012L97.9369 38.1898L98.6673 37.9033L99.5802 39.1012L99.6976 39.9216L93.7763 40.794L93.6328 39.8434L98.6151 39.1143Z" fill="white"></path>
    <path d="M100.024 44.5964L99.3978 44.6224L93.959 42.9688L93.9199 42.0182L99.0978 43.6458H99.1109L99.0196 41.5625L99.8804 41.5234L100.024 44.5964Z" fill="white"></path>
    <path d="M95.4072 47.0179C95.4463 46.5101 95.8506 46.1325 96.4114 46.1585C96.9853 46.1845 97.3375 46.6272 97.2983 47.1481C97.2592 47.6559 96.8549 48.0465 96.281 48.0075C95.7332 47.9814 95.368 47.5517 95.4072 47.0179Z" fill="white"></path>
    <path d="M93.7763 48.9717L94.4154 49.0889L95.0284 49.766C95.8631 50.6774 96.6718 51.5628 97.6239 51.7321C98.1717 51.8363 98.589 51.6279 98.6803 51.1201C98.7586 50.7165 98.6151 50.404 98.5369 50.1956L99.3194 50.1436C99.4498 50.404 99.5672 50.9118 99.4759 51.4456C99.2672 52.5915 98.3934 52.8649 97.5195 52.7087C96.4109 52.5003 95.5892 51.6279 94.8328 50.7555L94.4284 50.2998H94.4154L94.0763 52.1748L93.2285 52.0186L93.7763 48.9717Z" fill="white"></path>
    <path d="M95.1459 56.1458C93.0721 55.5338 92.3939 54.5573 92.6547 53.6718C92.9808 52.5911 94.3894 52.4869 96.0458 52.9687C97.8196 53.4895 98.85 54.388 98.5239 55.4687C98.1848 56.6276 96.724 56.6145 95.1459 56.1458ZM95.785 53.9322C94.4285 53.5286 93.5938 53.4895 93.4503 53.9713C93.3199 54.401 94.0633 54.8177 95.4067 55.2083C96.6849 55.5859 97.5979 55.664 97.7283 55.2213C97.8587 54.7656 97.1284 54.3229 95.785 53.9322Z" fill="white"></path>
    <path d="M96.373 58.5293L96.386 58.5163L96.2686 57.3835L97.0381 57.5137L97.2077 59.0111L96.8947 59.7793L91.3516 57.5137L91.7168 56.6152L96.373 58.5293Z" fill="white"></path>
    <path d="M93.3862 60.6251C93.9079 60.3386 94.4948 60.3647 94.9252 60.599C95.773 61.0548 95.9425 61.9532 95.5382 62.7084C95.1339 63.4506 94.2992 63.6459 93.5948 63.2683C93.2036 63.06 92.8253 62.6303 92.7732 61.9272L92.7471 61.9141C92.1993 62.2527 91.5341 62.3308 90.9081 61.9923C89.9951 61.5105 89.7342 60.5469 90.1907 59.7136C90.6733 58.8282 91.5993 58.6199 92.3688 59.0365C93.0601 59.4011 93.3079 60.0522 93.3731 60.6381L93.3862 60.6251ZM91.2993 61.1329C91.8471 61.4324 92.3688 61.2761 92.7471 61.0417C92.7079 60.586 92.4471 60.1563 92.0036 59.9219C91.495 59.6485 90.9733 59.6485 90.7646 60.0522C90.582 60.4167 90.7646 60.8334 91.2993 61.1329ZM94.5078 61.4324C94.0644 61.198 93.6601 61.3152 93.3079 61.5235C93.334 61.8881 93.5688 62.2266 93.9209 62.422C94.3513 62.6563 94.7687 62.6693 94.9513 62.3308C95.1339 62.0053 94.9122 61.6407 94.5078 61.4324Z" fill="white"></path>
    <path d="M77.6293 94.8828C77.0424 94.8828 76.5859 95.3516 76.5859 95.9375C76.5859 96.5234 77.0555 96.9922 77.6293 96.9922C78.2032 96.9922 78.6858 96.5234 78.6858 95.9375C78.6858 95.3646 78.2032 94.8828 77.6293 94.8828Z" fill="#3D6E19"></path>
    <path d="M28.7064 105.768C28.3543 105.898 28.0804 105.951 27.8717 105.951C27.037 105.951 26.7239 105.482 26.7239 104.206V99.8828H28.7716V98.4896H26.7239V95.8203L26.5935 95.8594L25.0023 96.4063V98.4896H23.2285V99.8828H24.9501V104.349C24.9501 106.484 25.6805 107.344 27.4543 107.344C27.9108 107.344 28.3412 107.292 28.7716 107.175L28.8368 107.148L28.8238 105.703L28.7064 105.768Z" fill="#070606"></path>
    <path d="M32.1114 99.8965V98.4772H30.4941V107.188H32.2679V102.813C32.2679 100.977 33.0375 99.9746 34.433 99.9746C34.6417 99.9746 34.8373 100.001 35.0721 100.066L35.1895 100.105L35.2417 98.3861L34.4852 98.334C33.4548 98.334 32.6331 98.8939 32.1114 99.8965Z" fill="#070606"></path>
    <path d="M44.2535 105.911C42.858 105.911 41.9841 104.714 41.9841 102.799C41.9841 100.951 42.8971 99.7526 44.3187 99.7526C45.6882 99.7526 46.4969 100.885 46.4969 102.786C46.4969 104.714 45.636 105.911 44.2535 105.911ZM44.7361 98.2812C43.5231 98.2812 42.5058 98.8542 41.8146 99.8958V98.4766H40.1973V110.742H41.9711V105.99C42.6102 106.862 43.5231 107.331 44.6709 107.331C46.9012 107.331 48.3489 105.508 48.3489 102.669C48.3489 100.052 46.9012 98.2812 44.7361 98.2812Z" fill="#070606"></path>
    <path d="M55.0795 103.53C55.0795 105.027 54.1796 106.004 52.771 106.004C51.9102 106.004 51.3102 105.444 51.3102 104.636C51.3102 103.582 52.3275 103.009 54.1535 103.009H55.0665V103.53H55.0795ZM53.5275 98.2822C52.4449 98.2822 51.4928 98.4775 50.632 98.9072L50.5798 98.9333L50.6059 100.444L50.7494 100.366C51.5841 99.8968 52.3667 99.6624 53.084 99.6624C54.3622 99.6624 55.0926 100.392 55.0926 101.668V101.746H54.0752C51.1667 101.746 49.5625 102.8 49.5625 104.715C49.5625 106.251 50.7233 107.319 52.3797 107.319C53.5927 107.319 54.5448 106.837 55.21 105.939V107.202H56.8142V101.928C56.8012 99.5062 55.6925 98.2822 53.5275 98.2822Z" fill="#3D6E19"></path>
    <path d="M62.0178 105.873C60.6614 105.873 59.8267 104.701 59.8267 102.813C59.8267 100.925 60.6744 99.7009 61.9787 99.7009C63.4395 99.7009 64.3133 100.873 64.3133 102.813C64.3133 104.675 63.4134 105.873 62.0178 105.873ZM64.3133 99.6748C63.6612 98.7634 62.7482 98.2946 61.5874 98.2946C59.4223 98.2946 57.9746 100.065 57.9746 102.722C57.9746 105.443 59.4484 107.344 61.5613 107.344C62.8134 107.344 63.7786 106.797 64.4568 105.717V107.201H66.0871V94.3232H64.3133V99.6748Z" fill="#3D6E19"></path>
    <path d="M71.487 103.516L69.1654 98.4902H67.1699L71.4479 107.201L75.8433 98.4902H73.9912L71.487 103.516Z" fill="#3D6E19"></path>
    <path d="M76.7422 98.4902V107.201H78.516V98.4902H78.4247H76.7422Z" fill="#3D6E19"></path>
    <path d="M83.9544 101.966C82.8327 101.446 82.3632 101.133 82.3632 100.573C82.3632 100.039 82.8849 99.7009 83.6936 99.7009C84.4239 99.7009 85.1413 99.8571 85.8065 100.183L85.9369 100.248L86.0151 98.7373L85.9499 98.7113C85.2065 98.4899 84.4892 98.3857 83.7849 98.3857C81.8676 98.3857 80.5764 99.3232 80.5764 100.716C80.5764 101.94 81.4241 102.591 82.9762 103.347C83.9544 103.828 84.4761 104.115 84.4761 104.792C84.4761 105.482 83.837 105.938 82.8719 105.938C82.1806 105.938 81.4111 105.743 80.6546 105.365L80.5242 105.3L80.459 106.836L80.5242 106.862C81.2546 107.149 82.0111 107.292 82.8067 107.292C84.9717 107.292 86.3673 106.263 86.3673 104.675C86.3673 103.347 85.4804 102.67 83.9544 101.966Z" fill="#3D6E19"></path>
    <path d="M91.9116 105.964C90.4377 105.964 89.4595 104.701 89.4595 102.826C89.4595 100.938 90.4508 99.6745 91.9116 99.6745C93.4115 99.6745 94.3766 100.911 94.3766 102.826C94.3636 104.727 93.3984 105.964 91.9116 105.964ZM91.8855 98.2812C89.2248 98.2812 87.5684 100.026 87.5684 102.839C87.5684 105.651 89.2248 107.396 91.8855 107.396C94.5592 107.396 96.2156 105.651 96.2156 102.839C96.2156 100.039 94.5592 98.2812 91.8855 98.2812Z" fill="#3D6E19"></path>
    <path d="M99.4884 99.8965V98.4772H97.8711V107.188H99.6449V102.813C99.6449 100.977 100.414 99.9746 101.81 99.9746C102.019 99.9746 102.201 100.001 102.449 100.066L102.566 100.105L102.619 98.3861L101.862 98.334C100.832 98.334 100.01 98.8939 99.4884 99.8965Z" fill="#3D6E19"></path>
    <path d="M36.7148 98.4902V107.201H38.4886V98.4902H38.3973H36.7148Z" fill="#070606"></path>
    <path d="M37.6152 95.3906C36.9762 95.3906 36.4414 95.9115 36.4414 96.5625C36.4414 97.2005 36.9631 97.7214 37.6152 97.7214C38.2543 97.7214 38.776 97.2005 38.776 96.5625C38.776 95.9245 38.2543 95.3906 37.6152 95.3906Z" fill="#070606"></path>
  </g>
  <defs>
    <clipPath id="clip0_7_3">
      <rect width="122.105" height="114.922" fill="white"></rect>
    </clipPath>
  </defs>
</svg>
