<?xml version="1.0" encoding="UTF-8"?>
<svg xmlns="http://www.w3.org/2000/svg" width="12" height="15" viewBox="0 0 12 15" fill="none">
  <path d="M10.5602 6.83333C10.3685 6.58333 10.1352 6.36667 9.91855 6.15C9.36021 5.65 8.72688 5.29167 8.19355 4.76667C6.95188 3.55 6.67688 1.54167 7.46855 0C6.67688 0.191667 5.98521 0.625 5.39355 1.1C3.23521 2.83333 2.38521 5.89167 3.40188 8.51667C3.43521 8.6 3.46855 8.68333 3.46855 8.79167C3.46855 8.975 3.34355 9.14167 3.17688 9.20833C2.98521 9.29167 2.78521 9.24167 2.62688 9.10833C2.57958 9.06871 2.54003 9.02068 2.51021 8.96667C1.56855 7.775 1.41855 6.06667 2.05188 4.7C0.660214 5.83333 -0.0981194 7.75 0.0102139 9.55833C0.0602139 9.975 0.110214 10.3917 0.251881 10.8083C0.368547 11.3083 0.593547 11.8083 0.843547 12.25C1.74355 13.6917 3.30188 14.725 4.97688 14.9333C6.76021 15.1583 8.66855 14.8333 10.0352 13.6C11.5602 12.2167 12.0935 10 11.3102 8.1L11.2019 7.88333C11.0269 7.5 10.5602 6.83333 10.5602 6.83333ZM7.92688 12.0833C7.69355 12.2833 7.31021 12.5 7.01021 12.5833C6.07688 12.9167 5.14355 12.45 4.59355 11.9C5.58521 11.6667 6.17688 10.9333 6.35188 10.1917C6.49355 9.525 6.22688 8.975 6.11855 8.33333C6.01855 7.71667 6.03521 7.19167 6.26021 6.61667C6.41855 6.93333 6.58521 7.25 6.78521 7.5C7.42688 8.33333 8.43521 8.7 8.65188 9.83333C8.68521 9.95 8.70188 10.0667 8.70188 10.1917C8.72688 10.875 8.42688 11.625 7.92688 12.0833Z" fill="#2872A3"></path>
</svg>
