<?xml version="1.0" encoding="UTF-8"?>
<svg xmlns="http://www.w3.org/2000/svg" width="17" height="17" viewBox="0 0 17 17" fill="none">
  <path fill-rule="evenodd" clip-rule="evenodd" d="M16.6667 8.33333C16.6667 12.9358 12.9358 16.6667 8.33333 16.6667C3.73083 16.6667 0 12.9358 0 8.33333C0 3.73083 3.73083 0 8.33333 0C12.9358 0 16.6667 3.73083 16.6667 8.33333ZM8.33333 2.70833C8.49909 2.70833 8.65806 2.77418 8.77527 2.89139C8.89248 3.0086 8.95833 3.16757 8.95833 3.33333V3.5975C10.3167 3.84083 11.4583 4.86167 11.4583 6.25C11.4583 6.41576 11.3925 6.57473 11.2753 6.69194C11.1581 6.80915 10.9991 6.875 10.8333 6.875C10.6676 6.875 10.5086 6.80915 10.3914 6.69194C10.2742 6.57473 10.2083 6.41576 10.2083 6.25C10.2083 5.685 9.73833 5.08583 8.95833 4.8725V7.76417C10.3167 8.0075 11.4583 9.02833 11.4583 10.4167C11.4583 11.805 10.3167 12.8258 8.95833 13.0692V13.3333C8.95833 13.4991 8.89248 13.6581 8.77527 13.7753C8.65806 13.8925 8.49909 13.9583 8.33333 13.9583C8.16757 13.9583 8.0086 13.8925 7.89139 13.7753C7.77418 13.6581 7.70833 13.4991 7.70833 13.3333V13.0692C6.35 12.8258 5.20833 11.805 5.20833 10.4167C5.20833 10.2509 5.27418 10.0919 5.39139 9.97472C5.5086 9.85751 5.66757 9.79167 5.83333 9.79167C5.99909 9.79167 6.15806 9.85751 6.27527 9.97472C6.39248 10.0919 6.45833 10.2509 6.45833 10.4167C6.45833 10.9817 6.92833 11.5808 7.70833 11.7933V8.9025C6.35 8.65917 5.20833 7.63833 5.20833 6.25C5.20833 4.86167 6.35 3.84083 7.70833 3.5975V3.33333C7.70833 3.16757 7.77418 3.0086 7.89139 2.89139C8.0086 2.77418 8.16757 2.70833 8.33333 2.70833Z" fill="#2872A3"></path>
</svg>
