<?xml version="1.0" encoding="UTF-8"?>
<svg xmlns="http://www.w3.org/2000/svg" width="20" height="20" viewBox="0 0 20 20" fill="none">
  <path d="M8.87703 19.9354C8.57969 19.8999 8.26781 19.8541 8.18422 19.8335C8.0612 19.8043 7.93746 19.7783 7.81313 19.7554C7.67112 19.7278 7.53024 19.6948 7.39078 19.6564C6.74312 19.4708 6.69672 19.4557 6.20844 19.256C5.75922 19.0729 4.93156 18.645 4.64844 18.4504C4.57094 18.3966 4.49844 18.3533 4.48734 18.3533C4.47625 18.3533 4.29516 18.2258 4.08453 18.07C2.74547 17.0789 1.74016 15.8758 1.01375 14.3939C0.88875 14.1394 0.786719 13.9136 0.786719 13.8924C0.786719 13.8714 0.764219 13.8135 0.736719 13.7647C0.68 13.6633 0.599219 13.4449 0.534063 13.2191C0.506059 13.1232 0.473469 13.0286 0.436406 12.9358C0.405937 12.8639 0.381406 12.7764 0.381406 12.7411C0.381406 12.7057 0.350937 12.5904 0.31375 12.4841C0.276562 12.3786 0.246562 12.2541 0.246562 12.2075C0.246562 12.1613 0.217344 12.0013 0.18125 11.8519C0.0934375 11.4832 0 10.528 0 9.99269C0 9.45801 0.0934375 8.50285 0.18125 8.13426C0.217187 7.98473 0.246562 7.82176 0.246562 7.77176C0.246562 7.7216 0.269219 7.62332 0.296562 7.55301C0.324688 7.48301 0.360625 7.35723 0.377187 7.27363C0.394375 7.19004 0.433437 7.04598 0.465156 6.95254L0.557344 6.68285C0.625 6.48082 0.687813 6.30988 0.717812 6.24332C0.735 6.20613 0.802031 6.05426 0.867344 5.90582C0.972969 5.66598 1.19937 5.21363 1.33172 4.97691C1.38 4.8902 1.39828 4.86145 1.65953 4.45316C2.07344 3.80504 2.78078 2.99863 3.43922 2.42379C3.67125 2.22113 4.44641 1.6327 4.48125 1.6327C4.49094 1.6327 4.56406 1.58879 4.64422 1.53504C4.85469 1.3941 5.06109 1.27441 5.33016 1.13957C5.42674 1.09181 5.52238 1.04216 5.61703 0.990664C5.66156 0.965039 5.74516 0.926602 6.17437 0.734414C6.26891 0.692226 6.37078 0.653789 6.66438 0.551133C6.72906 0.528633 6.85906 0.480977 6.95188 0.446133C7.04531 0.411445 7.15516 0.382695 7.19609 0.382695C7.23641 0.382695 7.3425 0.35457 7.43172 0.319883C7.52078 0.285039 7.6825 0.245352 7.79172 0.231914C7.90047 0.219102 8.045 0.188633 8.11281 0.164727C8.18 0.141602 8.36438 0.111602 8.52234 0.0983203C8.72822 0.0796861 8.93356 0.0554584 9.13813 0.0256641C9.55813 -0.0358984 10.4713 -0.0358984 10.8869 0.0256641C11.0832 0.0538364 11.2802 0.0770209 11.4777 0.0951953C11.6266 0.107539 11.8164 0.138633 11.9 0.164258C11.9836 0.189258 12.1283 0.220508 12.2211 0.231914C12.3139 0.244258 12.4702 0.282695 12.5683 0.318008C12.6667 0.353945 12.7783 0.382695 12.8167 0.382695C12.8552 0.382695 12.9345 0.404102 12.9925 0.430977C13.0511 0.457227 13.175 0.501133 13.2684 0.528633C13.3612 0.556758 13.5205 0.612226 13.6231 0.653164C13.725 0.693945 13.8617 0.747695 13.927 0.77207C14.0473 0.817383 14.9364 1.26223 15.0573 1.33801C16.0387 1.95004 16.5436 2.34988 17.2223 3.05113C18.0408 3.89707 18.5841 4.7027 19.137 5.88863C19.1761 5.97238 19.2358 6.09629 19.27 6.16332C19.3036 6.23113 19.3317 6.31051 19.3317 6.33988C19.3317 6.36957 19.3598 6.45863 19.3945 6.53816C19.4886 6.75426 19.5691 7.0002 19.607 7.18816C19.6258 7.28035 19.6606 7.39441 19.6844 7.44145C19.7083 7.48832 19.7362 7.60754 19.7473 7.7052C19.7583 7.8027 19.7906 7.9627 19.8181 8.05973C19.9775 8.61145 20.0567 10.2369 19.9603 10.9558C19.9317 11.1694 19.8994 11.4277 19.8884 11.5296C19.87 11.7041 19.7778 12.1552 19.6991 12.4585L19.6178 12.7796C19.4647 13.3979 19.0863 14.2786 18.6242 15.0935C18.4411 15.4169 17.8272 16.2916 17.7113 16.3941C17.7008 16.4032 17.6489 16.4644 17.5964 16.5289C17.5439 16.5943 17.3755 16.7768 17.223 16.9343C16.5509 17.6282 16.0089 18.0572 15.0573 18.6482C14.9445 18.7183 13.9875 19.1858 13.8086 19.2585C13.7158 19.2957 13.5608 19.3585 13.4644 19.3975C13.3686 19.4361 13.2617 19.4685 13.2281 19.4691C13.1945 19.4696 13.1061 19.4996 13.0316 19.5355C12.9572 19.5714 12.8625 19.6014 12.8205 19.6021C12.7789 19.6027 12.6575 19.6321 12.5506 19.6674C12.4439 19.7033 12.2955 19.7419 12.2209 19.7533C12.1466 19.765 11.9873 19.7968 11.8664 19.8236C11.7456 19.8505 11.3805 19.903 11.0559 19.9402C10.332 20.0247 9.60059 20.0231 8.87703 19.9354ZM9.61187 17.9822C9.65875 17.9457 9.70703 17.8729 9.71984 17.8218C9.74797 17.7088 14.2877 8.6077 14.3731 8.49363C14.4452 8.39723 14.4519 8.24285 14.3859 8.18848C14.3512 8.15926 13.9166 8.15004 12.7563 8.15191C11.8859 8.15379 11.1542 8.15441 11.1303 8.15379C11.095 8.15254 11.0877 7.57098 11.0913 5.08004C11.0938 3.38988 11.0858 1.9916 11.0736 1.97223C11.0614 1.95254 11.0138 1.93676 10.9673 1.93676C10.902 1.93676 10.8716 1.96488 10.8314 2.06301C10.7556 2.24551 10.5463 2.65988 9.52703 4.63879C9.31532 5.04946 9.10412 5.4604 8.89344 5.8716C8.71281 6.22504 8.42781 6.77988 8.26109 7.10441C7.81234 7.9768 7.36453 8.84966 6.91766 9.72301C6.14687 11.2286 6.05359 11.4082 6.02047 11.4479C5.95641 11.5254 5.92156 11.7041 5.95766 11.7713C5.99047 11.8329 6.05594 11.8354 7.68313 11.8329C8.61328 11.8318 9.38047 11.8366 9.38844 11.8438C9.40984 11.8658 9.40187 17.6735 9.37984 17.8119C9.36531 17.9029 9.375 17.951 9.41656 17.9925C9.48844 18.0646 9.50812 18.0639 9.61187 17.9822Z" fill="#2872A3"></path>
</svg>
