<?xml version="1.0" encoding="UTF-8"?>
<svg xmlns="http://www.w3.org/2000/svg" width="26" height="26" viewBox="0 0 26 26" fill="none">
  <g clip-path="url(#clip0_691_673)">
    <path d="M8.9375 13C8.9375 14.0292 8.98354 15.0269 9.06913 15.9792H16.9309C17.0165 15.0269 17.0625 14.0292 17.0625 13C17.0625 11.9708 17.0165 10.9731 16.9303 10.0208H9.07021C8.98354 10.9731 8.9375 11.9708 8.9375 13ZM7.43871 10.0208C7.35393 11.0116 7.31182 12.0056 7.3125 13C7.3125 14.0216 7.35583 15.0188 7.43817 15.9792H1.17921C0.939792 15.0258 0.8125 14.0275 0.8125 13C0.8125 11.9725 0.939792 10.9742 1.17921 10.0208H7.43871ZM9.26196 8.39583H16.7375C16.497 6.75621 16.133 5.29425 15.6818 4.09338C15.2598 2.9705 14.7778 2.11738 14.2843 1.56054C13.7898 1.00154 13.3532 0.8125 13 0.8125C12.6468 0.8125 12.2103 1.00208 11.7152 1.56C11.2217 2.11792 10.7396 2.9705 10.3177 4.09338C9.86646 5.29425 9.50246 6.75621 9.26142 8.39583M18.5613 10.0208C18.6442 10.9812 18.6875 11.9784 18.6875 13C18.6875 14.0216 18.6442 15.0188 18.5618 15.9792H24.8208C25.0602 15.0258 25.1875 14.0275 25.1875 13C25.1875 11.9725 25.0602 10.9742 24.8208 10.0208H18.5613ZM24.2883 8.39583H18.3793C18.1247 6.56067 17.7217 4.90208 17.2033 3.52192C16.8724 2.64117 16.4867 1.8525 16.0474 1.19654C19.7957 2.16179 22.8453 4.86525 24.2873 8.39583M7.62017 8.39583H1.71221C3.15358 4.86525 6.20371 2.16179 9.95204 1.19708C9.51329 1.8525 9.12708 2.64117 8.79613 3.52192C8.27775 4.90208 7.87529 6.56067 7.62071 8.39583M7.61908 17.6042H1.71221C3.15304 21.1331 6.20046 23.8355 9.94554 24.8018C9.50679 24.1464 9.12221 23.3578 8.79179 22.4781C8.2745 21.0968 7.87258 19.4393 7.61908 17.6042ZM15.6867 21.9072C16.1363 20.7063 16.4992 19.2443 16.7397 17.6042H9.26033C9.50029 19.2443 9.86321 20.7063 10.3133 21.9072C10.7348 23.03 11.2163 23.8826 11.7108 24.4395C12.2048 24.9974 12.6425 25.1875 13 25.1875C13.3575 25.1875 13.7952 24.9974 14.2892 24.4395C14.7837 23.8826 15.2653 23.03 15.6867 21.9072ZM17.2082 22.4775C17.7255 21.0974 18.1274 19.4388 18.3809 17.6042H24.2878C22.847 21.1331 19.7995 23.8355 16.0545 24.8018C16.4932 24.1464 16.8778 23.3572 17.2082 22.4775Z" fill="white"></path>
  </g>
  <defs>
    <clipPath id="clip0_691_673">
      <rect width="26" height="26" fill="white"></rect>
    </clipPath>
  </defs>
</svg>
